<?xml version="1.0" encoding="utf-8"?>
<!-- Generator: Adobe Illustrator 19.0.0, SVG Export Plug-In . SVG Version: 6.00 Build 0)  -->
<svg version="1.1" id="Layer_1" xmlns="http://www.w3.org/2000/svg" xmlns:xlink="http://www.w3.org/1999/xlink" x="0px" y="0px"
	 viewBox="0 0 72.7 48.5" style="enable-background:new 0 0 72.7 48.5;" xml:space="preserve">
<style type="text/css">
	.st0{fill:#ED1C24;}
	.st1{fill:#FFFFFF;}
	.st2{fill:#FFD400;}
</style>
<g id="XMLID_283_">
	<path id="XMLID_273_" class="st0" d="M62.4,45.2H11.8c-4.1,0-7.4-3.3-7.4-7.4V10.7c0-4.1,3.3-7.4,7.4-7.4h50.7
		c4.1,0,7.4,3.3,7.4,7.4v27.1C69.8,41.9,66.5,45.2,62.4,45.2z"/>
	<path id="XMLID_280_" d="M63,46.6H11.2c-4.5,0-8.2-3.7-8.2-8.2V10.1C3,5.6,6.7,2,11.2,2H63c4.5,0,8.2,3.7,8.2,8.2v28.3
		C71.2,42.9,67.5,46.6,63,46.6z M11.2,4.7c-3,0-5.4,2.4-5.4,5.4v28.3c0,3,2.4,5.4,5.4,5.4H63c3,0,5.4-2.4,5.4-5.4V10.1
		c0-3-2.4-5.4-5.4-5.4H11.2z"/>
</g>
<g id="XMLID_279_">
	<rect id="XMLID_275_" x="4.4" y="15.1" width="65.4" height="10.6"/>
	<path id="XMLID_276_" d="M71.2,27H3V13.7h68.2V27z M5.8,24.3h62.6v-7.8H5.8V24.3z"/>
</g>
<rect id="XMLID_274_" x="47.7" y="31.3" class="st1" width="13.3" height="5.1"/>
<path id="XMLID_394_" class="st2" d="M3.3,162"/>
</svg>
