<?xml version="1.0" encoding="utf-8"?>
<!-- Generator: Adobe Illustrator 19.0.0, SVG Export Plug-In . SVG Version: 6.00 Build 0)  -->
<svg version="1.1" id="Layer_1" xmlns="http://www.w3.org/2000/svg" xmlns:xlink="http://www.w3.org/1999/xlink" x="0px" y="0px"
	 viewBox="0 0 47.3 54.3" style="enable-background:new 0 0 47.3 54.3;" xml:space="preserve">
<style type="text/css">
	.st0{fill:#FF0000;}
	.st1{fill:#FFF69F;}
</style>
<circle id="XMLID_77_" class="st0" cx="23" cy="27.3" r="22"/>
<g id="XMLID_67_">
	<path id="XMLID_75_" class="st1" d="M9.8,33V21.3h1.7l2.6,6.1v-6.1h2V33h-1.6l-2.6-6.5V33H9.8z"/>
	<path id="XMLID_73_" class="st1" d="M17.8,33V21.3h5.1v1.7h-2.7V26h2.1v1.7h-2.1v3.7h2.8V33H17.8z"/>
	<path id="XMLID_71_" class="st1" d="M25.2,33l-1.5-11.8h2l0.8,7.2l1.1-7.2h1.6l1.1,7.1l0.8-7.1h2L31.6,33h-2l-1.1-7.4L27.3,33H25.2
		z"/>
	<path id="XMLID_68_" class="st1" d="M34.2,33V31h2.1V33H34.2z M34.9,30.2l-0.6-8.9h2.2l-0.8,8.9H34.9z"/>
</g>
</svg>
