<?xml version="1.0" encoding="utf-8"?>
<!-- Generator: Adobe Illustrator 19.0.0, SVG Export Plug-In . SVG Version: 6.00 Build 0)  -->
<svg version="1.1" id="Layer_1" xmlns="http://www.w3.org/2000/svg" xmlns:xlink="http://www.w3.org/1999/xlink" x="0px" y="0px"
	 viewBox="-179 181 720 720" style="enable-background:new -179 181 720 720;" xml:space="preserve" opacity="0.4">
<style type="text/css">

	.st0{fill:#F7CD00;}
	.st1{fill:#FFFFFF;}
	.st2{fill:#F93508;}
	.st3{fill:#417BAF;}
	.st4{fill:#13507A;}
	.st5{fill:#C11B00;}
	.st6{fill:#FF6501;}
	.st7{fill:#0C54A8;}
	.st8{fill:#FFAA10;}
	.st9{fill:#1D5FA7;}
	.st10{opacity:0.46;}
	.st11{fill:#4D97C1;}
	.st12{fill:#4877AA;}
	.st13{fill:#FFCE00;}
</style>
<g id="XMLID_57_">
	<polygon id="XMLID_55_" class="st0" points="252.9,479.3 253.8,447.6 267.7,435.9 324.1,435 332.6,435.9 325.4,478.7 322.6,480.4 	
		"/>
	<g id="XMLID_50_">
		<path id="XMLID_54_" class="st1" d="M299.5,441.4l7-12.8l0.6-1.1l5.2,2.7l3.3-3.7l6.4,4.7v1.5l8.9-0.1l2.6,7.1l-7.9,39.4h2
			l-3.9,1.8l-0.4-1.1l-15.6-5.3l4.6-26.6c0,0-5.7-3.7-11.2-4.3c-2.6-0.3-2.2-0.6-2.2-0.6L299.5,441.4z"/>
		<path id="XMLID_51_" class="st1" d="M323.3,481.9l-0.8-1.5l-16.1-5.3l5-27.8c-1.6-0.9-6.1-1.9-10.3-3.1c-1.9-0.6-2.5-0.5-3.2-0.9
			l8.8-17.4l5.5,2.8l4-3.7l5.9,6.2l0.9,0.8l9.3-0.6l2.7,7.6l-8,37.8h3.2L323.3,481.9z M309,473.6l15.2,5.1l0.1-0.1l8.3-39.4
			l-1.9-5.4l-8.7,0.1v-2.1l-5.7-3.9l-3.8,3.6l-4.9-2.6l-0.1,0.2l-7.1,13.1c0.2,0,0.5,0.1,0.8,0.1c5.7,0.6,11.4,4.3,11.7,4.4l0.6,0.4
			L309,473.6z"/>
	</g>
	<path id="XMLID_47_" d="M323.4,480.1l-16.3-5.3l7.6-41.8h0.5c3.7-0.1,15.8-0.5,16.9-0.1l0,0c1.2,0.5,3.6,3.8,4,4.4l0.1,0.2
		l-6.9,39.7L323.4,480.1z M308.4,474l14.9,4.9l5-2.4l6.7-38.7c-1.1-1.5-2.8-3.5-3.4-3.8c-0.9-0.3-10.1-0.1-16,0.1L308.4,474z"/>
	<path id="XMLID_35_" d="M318.1,477.8c0.2,0,5.5,1.5,5.8-0.3s7.6-39.4,7.9-41.1s-1.2-3-2.9-3l2.9,0.1l3.8,4.2l-6.8,39.2l-5.5,2.7
		L318.1,477.8z"/>
	<path id="XMLID_34_" d="M323.7,435.6l6.2,0.4l-3.8,20.8C326.1,456.8,326.1,439.9,323.7,435.6z"/>
	<path id="XMLID_33_" d="M316.9,461.4c0-0.3-0.1-0.5-0.4-0.5l-4-1.1l-0.3,2.6v0.1l4.4,1.3L316.9,461.4z"/>
	<path id="XMLID_32_" d="M323.7,463.4c0-0.3-0.1-0.5-0.4-0.5l-4-1.1l-0.3,2.6v0.1l4.4,1.3L323.7,463.4z"/>
	<path id="XMLID_31_" d="M323,467.6c0-0.3-0.1-0.5-0.4-0.5l-4-1.1l-0.3,2.6v0.1l4.4,1.3L323,467.6z"/>
	<path id="XMLID_30_" d="M322.2,472.1c0-0.3-0.1-0.5-0.4-0.5l-4-1.1l-0.3,2.6v0.1l4.4,1.3L322.2,472.1z"/>
	<path id="XMLID_29_" d="M315.4,470.1c0-0.3-0.1-0.5-0.4-0.5l-4-1.1l-0.3,2.6v0.1l4.4,1.3L315.4,470.1z"/>
	<path id="XMLID_28_" d="M316.1,465.6c0-0.3-0.1-0.5-0.4-0.5l-4-1.1l-0.3,2.6v0.1l4.4,1.3L316.1,465.6z"/>
	<path id="XMLID_27_" class="st2" d="M324.5,458.9c0,0-0.9-6.5-10.7-10.4c0,0,0.3,6.5-0.3,7.8L324.5,458.9z"/>
	<path id="XMLID_26_" class="st3" d="M325.1,456.4c0,0-2.8-9.5-25.5-14.2l7.9-13.4C307.4,428.9,326.2,434.4,325.1,456.4z"/>
	<path id="XMLID_25_" class="st3" d="M313.1,429.5c0.4,0.1,10,7.4,11.4,14c0,0-1-12.1-8.8-16.6L313.1,429.5z"/>
	<g id="XMLID_21_">
		<path id="XMLID_24_" class="st4" d="M271.2,449.4c0.1,0.2,0.1,0.3,0.2,0.5c0.1-0.2,0.1-0.4,0.2-0.5c0.1-0.2,0.1-0.3,0.2-0.5
			l3.2-5.9c0-0.1,0.1-0.1,0.1-0.2s0.1-0.1,0.1-0.1c0.1,0,0.1,0,0.2,0s0.1,0,0.2,0h1.5v10.7h-1.7v-6.9c0-0.1,0-0.3,0-0.4s0-0.3,0-0.5
			l-3.2,6.1c-0.1,0.1-0.2,0.3-0.3,0.3c-0.1,0.1-0.3,0.1-0.4,0.1h-0.3c-0.2,0-0.3,0-0.4-0.1s-0.2-0.2-0.3-0.3l-3.3-6.1
			c0,0.2,0,0.3,0,0.5s0,0.3,0,0.4v6.9h-1.7v-10.7h1.5c0.1,0,0.2,0,0.2,0c0.1,0,0.1,0,0.2,0s0.1,0.1,0.1,0.1c0.1,0,0.1,0.1,0.1,0.2
			l3.2,5.9C271,449.1,271.1,449.2,271.2,449.4z"/>
		<path id="XMLID_23_" class="st4" d="M286.3,442.6v1.6h-3.2v9h-2v-9h-3.2v-1.6H286.3z"/>
		<path id="XMLID_22_" class="st4" d="M288.4,442.6c0.1,0,0.1,0,0.2,0s0.1,0.1,0.1,0.1s0.1,0.1,0.1,0.2l5.6,7.1c0-0.2,0-0.3,0-0.5
			s0-0.3,0-0.5v-6.5h1.7v10.7h-1c-0.2,0-0.3,0-0.4-0.1s-0.2-0.1-0.3-0.3l-5.6-7.1c0,0.2,0,0.3,0,0.5s0,0.3,0,0.4v6.6h-1.7v-10.7h1
			C288.2,442.6,288.3,442.6,288.4,442.6z"/>
	</g>
	<g id="XMLID_6_">
		<path id="XMLID_20_" class="st5" d="M269.6,460.3c0.1,0.1,0.1,0.2,0.1,0.3c0.1-0.1,0.1-0.2,0.1-0.3c0.1-0.1,0.1-0.2,0.2-0.3
			l2.1-3.9c0-0.1,0.1-0.1,0.1-0.1l0.1-0.1h0.1h0.1h1v7.1h-1.2v-4.6c0-0.1,0-0.2,0-0.3c0-0.1,0-0.2,0-0.3l-2.1,4
			c-0.1,0.1-0.1,0.2-0.2,0.2c-0.1,0.1-0.2,0.1-0.3,0.1h-0.2c-0.1,0-0.2,0-0.3-0.1c-0.1-0.1-0.1-0.1-0.2-0.2l-2.2-4
			c0,0.1,0,0.2,0,0.3c0,0.1,0,0.2,0,0.3v4.6h-1.2v-7.1h1c0.1,0,0.1,0,0.1,0h0.1c0,0,0.1,0,0.1,0.1l0.1,0.1l2.1,3.9
			C269.4,460.1,269.5,460.2,269.6,460.3z"/>
		<path id="XMLID_19_" class="st5" d="M276.7,457.8c0.4,0,0.7,0.1,1,0.2s0.6,0.3,0.8,0.5s0.4,0.5,0.5,0.8s0.2,0.7,0.2,1.1
			s-0.1,0.8-0.2,1.1c-0.1,0.3-0.3,0.6-0.5,0.8s-0.5,0.4-0.8,0.5s-0.6,0.2-1,0.2s-0.7-0.1-1-0.2s-0.6-0.3-0.8-0.5
			c-0.2-0.2-0.4-0.5-0.5-0.8s-0.2-0.7-0.2-1.1s0.1-0.8,0.2-1.1c0.1-0.3,0.3-0.6,0.5-0.8s0.5-0.4,0.8-0.5
			C275.9,457.9,276.3,457.8,276.7,457.8z M276.7,462.1c0.4,0,0.7-0.1,0.9-0.4c0.2-0.3,0.3-0.7,0.3-1.2s-0.1-1-0.3-1.2
			c-0.2-0.3-0.5-0.4-0.9-0.4s-0.7,0.1-0.9,0.4c-0.2,0.3-0.3,0.7-0.3,1.2s0.1,1,0.3,1.2C275.9,461.9,276.2,462.1,276.7,462.1z"/>
		<path id="XMLID_18_" class="st5" d="M279.8,462.9v-7.2h1.2v2.9c0.2-0.2,0.4-0.4,0.7-0.5c0.3-0.1,0.5-0.2,0.9-0.2
			c0.3,0,0.5,0.1,0.8,0.2c0.2,0.1,0.4,0.3,0.6,0.5s0.3,0.5,0.4,0.8s0.1,0.7,0.1,1.1s-0.1,0.7-0.1,1c-0.1,0.3-0.3,0.6-0.4,0.8
			s-0.4,0.4-0.7,0.5c-0.3,0.1-0.6,0.2-0.9,0.2c-0.2,0-0.3,0-0.4-0.1c-0.1,0-0.2-0.1-0.3-0.1c-0.1-0.1-0.2-0.1-0.3-0.2
			c-0.1-0.1-0.2-0.2-0.3-0.3l-0.1,0.3c0,0.1-0.1,0.1-0.1,0.2s-0.1,0.1-0.2,0.1L279.8,462.9L279.8,462.9z M282.1,458.8
			c-0.3,0-0.5,0.1-0.6,0.2c-0.2,0.1-0.3,0.3-0.5,0.4v2.2c0.1,0.2,0.3,0.3,0.4,0.4c0.2,0.1,0.3,0.1,0.5,0.1s0.3,0,0.5-0.1
			c0.1-0.1,0.3-0.2,0.4-0.3c0.1-0.1,0.2-0.3,0.2-0.5c0.1-0.2,0.1-0.5,0.1-0.8s0-0.5-0.1-0.7s-0.1-0.4-0.2-0.5s-0.2-0.2-0.3-0.3
			C282.4,458.8,282.3,458.8,282.1,458.8z"/>
		<path id="XMLID_17_" class="st5" d="M286.4,456.4c0,0.1,0,0.2-0.1,0.3c0,0.1-0.1,0.2-0.2,0.2c-0.1,0.1-0.2,0.1-0.3,0.2
			s-0.2,0.1-0.3,0.1c-0.1,0-0.2,0-0.3-0.1s-0.2-0.1-0.2-0.2c-0.1-0.1-0.1-0.1-0.2-0.2c0-0.1-0.1-0.2-0.1-0.3c0-0.1,0-0.2,0.1-0.3
			c0-0.1,0.1-0.2,0.2-0.3c0.1-0.1,0.1-0.1,0.2-0.2c0.1,0,0.2-0.1,0.3-0.1c0.1,0,0.2,0,0.3,0.1c0.1,0,0.2,0.1,0.3,0.2
			c0.1,0.1,0.1,0.1,0.2,0.3C286.4,456.2,286.4,456.3,286.4,456.4z M286.2,457.9v5H285v-5H286.2z"/>
		<path id="XMLID_16_" class="st5" d="M288.6,455.7v7.2h-1.2v-7.2H288.6z"/>
		<path id="XMLID_15_" class="st5" d="M291.7,457.8c0.3,0,0.6,0.1,0.9,0.1c0.3,0.1,0.5,0.3,0.7,0.4c0.2,0.2,0.3,0.4,0.4,0.7
			c0.1,0.3,0.2,0.6,0.2,1c0,0.1,0,0.2,0,0.2c0,0.1,0,0.1-0.1,0.1l-0.1,0.1h-0.1h-3.1c0,0.5,0.2,0.9,0.4,1.1c0.2,0.2,0.6,0.4,1,0.4
			c0.2,0,0.4,0,0.5-0.1s0.3-0.1,0.4-0.1c0.1-0.1,0.2-0.1,0.3-0.1c0.1-0.1,0.2-0.1,0.2-0.1c0.1,0,0.1,0,0.1,0l0.1,0.1l0.3,0.4
			c-0.1,0.2-0.3,0.3-0.4,0.4c-0.2,0.1-0.3,0.2-0.5,0.3c-0.2,0.1-0.4,0.1-0.6,0.1s-0.4,0-0.5,0c-0.3,0-0.7-0.1-1-0.2
			s-0.6-0.3-0.8-0.5c-0.2-0.2-0.4-0.5-0.5-0.8s-0.2-0.7-0.2-1.2c0-0.3,0.1-0.7,0.2-1s0.3-0.6,0.5-0.8c0.2-0.2,0.4-0.4,0.8-0.5
			C290.9,457.9,291.3,457.8,291.7,457.8z M291.7,458.7c-0.4,0-0.6,0.1-0.8,0.3c-0.2,0.2-0.3,0.5-0.4,0.8h2.3c0-0.2,0-0.3-0.1-0.4
			c0-0.1-0.1-0.3-0.2-0.4s-0.2-0.2-0.3-0.3C292,458.7,291.9,458.7,291.7,458.7z"/>
		<path id="XMLID_14_" class="st5" d="M269.6,470.1c0.1,0.1,0.1,0.2,0.1,0.3c0.1-0.1,0.1-0.2,0.1-0.3c0.1-0.1,0.1-0.2,0.2-0.3
			l2.1-3.9c0-0.1,0.1-0.1,0.1-0.1l0.1-0.1h0.1h0.1h1v7.1h-1.2v-4.6c0-0.1,0-0.2,0-0.3c0-0.1,0-0.2,0-0.3l-2.1,4
			c-0.1,0.1-0.1,0.2-0.2,0.2c-0.1,0.1-0.2,0.1-0.3,0.1h-0.2c-0.1,0-0.2,0-0.3-0.1c-0.1-0.1-0.1-0.1-0.2-0.2l-2.2-4
			c0,0.1,0,0.2,0,0.3c0,0.1,0,0.2,0,0.3v4.6h-1.2v-7.1h1c0.1,0,0.1,0,0.1,0h0.1c0,0,0.1,0,0.1,0.1l0.1,0.1l2.1,3.9
			C269.4,469.8,269.5,470,269.6,470.1z"/>
		<path id="XMLID_10_" class="st5" d="M276.7,467.6c0.4,0,0.7,0.1,1,0.2s0.6,0.3,0.8,0.5c0.2,0.2,0.4,0.5,0.5,0.8s0.2,0.7,0.2,1.1
			s-0.1,0.8-0.2,1.1c-0.1,0.3-0.3,0.6-0.5,0.8s-0.5,0.4-0.8,0.5s-0.6,0.2-1,0.2s-0.7-0.1-1-0.2s-0.6-0.3-0.8-0.5
			c-0.2-0.2-0.4-0.5-0.5-0.8s-0.2-0.7-0.2-1.1s0.1-0.8,0.2-1.1c0.1-0.3,0.3-0.6,0.5-0.8c0.2-0.2,0.5-0.4,0.8-0.5
			C275.9,467.7,276.3,467.6,276.7,467.6z M276.7,471.8c0.4,0,0.7-0.1,0.9-0.4c0.2-0.3,0.3-0.7,0.3-1.2s-0.1-1-0.3-1.2
			c-0.2-0.3-0.5-0.4-0.9-0.4s-0.7,0.1-0.9,0.4c-0.2,0.3-0.3,0.7-0.3,1.2s0.1,1,0.3,1.2C275.9,471.7,276.2,471.8,276.7,471.8z"/>
		<path id="XMLID_9_" class="st5" d="M279.7,472.7v-5h0.7c0.2,0,0.3,0.1,0.3,0.2l0.1,0.4c0.1-0.1,0.2-0.2,0.3-0.3
			c0.1-0.1,0.2-0.2,0.4-0.2s0.3-0.1,0.4-0.1s0.3-0.1,0.5-0.1c0.3,0,0.5,0.1,0.7,0.1c0.2,0.1,0.4,0.2,0.5,0.4
			c0.1,0.2,0.3,0.4,0.3,0.6c0.1,0.2,0.1,0.5,0.1,0.8v3.2h-1.2v-3.2c0-0.3-0.1-0.5-0.2-0.7s-0.4-0.3-0.6-0.3s-0.4,0.1-0.6,0.1
			c-0.2,0.1-0.4,0.2-0.5,0.4v3.6h-1.2V472.7z"/>
		<path id="XMLID_8_" class="st5" d="M287,467.6c0.3,0,0.6,0.1,0.9,0.1c0.3,0.1,0.5,0.3,0.7,0.4c0.2,0.2,0.3,0.4,0.4,0.7
			c0.1,0.3,0.2,0.6,0.2,1c0,0.1,0,0.2,0,0.2c0,0.1,0,0.1-0.1,0.1s-0.1,0.1-0.1,0.1h-0.1h-3.1c0,0.5,0.2,0.9,0.4,1.1
			c0.2,0.2,0.6,0.4,1,0.4c0.2,0,0.4,0,0.5-0.1s0.3-0.1,0.4-0.1c0.1-0.1,0.2-0.1,0.3-0.1c0.1-0.1,0.2-0.1,0.2-0.1c0.1,0,0.1,0,0.1,0
			l0.1,0.1l0.3,0.4c-0.1,0.2-0.3,0.3-0.4,0.4c-0.2,0.1-0.3,0.2-0.5,0.3c-0.2,0.1-0.4,0.1-0.6,0.1s-0.4,0-0.5,0c-0.3,0-0.7-0.1-1-0.2
			s-0.6-0.3-0.8-0.5c-0.2-0.2-0.4-0.5-0.5-0.8s-0.2-0.7-0.2-1.2c0-0.3,0.1-0.7,0.2-1s0.3-0.6,0.5-0.8c0.2-0.2,0.4-0.4,0.8-0.5
			C286.3,467.7,286.6,467.6,287,467.6z M287,468.4c-0.4,0-0.6,0.1-0.8,0.3c-0.2,0.2-0.3,0.5-0.4,0.8h2.3c0-0.2,0-0.3-0.1-0.4
			c0-0.1-0.1-0.3-0.2-0.4s-0.2-0.2-0.3-0.3C287.4,468.5,287.2,468.4,287,468.4z"/>
		<path id="XMLID_7_" class="st5" d="M291.4,474c0,0.1-0.1,0.1-0.1,0.2c-0.1,0-0.1,0.1-0.3,0.1h-0.9l0.9-2l-2-4.6h1
			c0.1,0,0.2,0,0.2,0.1s0.1,0.1,0.1,0.2l1.1,2.6c0,0.1,0.1,0.2,0.1,0.3c0,0.1,0.1,0.2,0.1,0.3c0-0.1,0.1-0.2,0.1-0.3
			s0.1-0.2,0.1-0.3l1-2.6c0-0.1,0.1-0.1,0.1-0.2s0.1-0.1,0.2-0.1h1L291.4,474z"/>
	</g>
	<polygon id="XMLID_5_" class="st1" points="323.7,482.2 317.7,481.2 252.6,481.2 252.6,446.7 267.4,435.1 303.5,435 301.8,437.2 
		268.1,437.4 254.8,447.8 254.8,479.1 318.2,479.1 323.6,480.6 328.8,477.4 335.9,437.9 331.6,432.7 322.1,432.7 322.1,431.2 
		332.3,431.4 337.5,437.5 329.9,478.7 	"/>
	<path id="XMLID_4_" class="st1" d="M311.4,447.4l2.9,1.4c0,0,0.6-1.5,0.4-1.6s-4.6-1.9-4.6-1.9L311.4,447.4z"/>
	<path id="XMLID_3_" class="st1" d="M314,432.2l1.3-1c0,0,2.9,2.7,3.8,3.6l-0.7,1.3C318.4,436.1,315.8,433.4,314,432.2z"/>
</g>
<g id="XMLID_330_">
	<polygon id="XMLID_549_" class="st0" points="166.1,676.8 170.3,659.9 179.1,655.3 209.5,661.5 213.9,662.9 205.1,685 203.3,685.6 
			"/>
	<g id="XMLID_544_">
		<path id="XMLID_548_" class="st1" d="M195.6,662l5.3-6l0.5-0.5l2.5,2l2.2-1.6l2.9,3.3l-0.2,0.8l4.8,1l0.6,4.1l-8.9,20.2l1.1,0.2
			l-2.3,0.5l-0.1-0.6l-7.7-4.7l5.6-13.7c0,0-2.6-2.7-5.5-3.6c-1.3-0.5-1.1-0.6-1.1-0.6L195.6,662z"/>
		<path id="XMLID_545_" class="st1" d="M203.5,686.5l-0.3-0.9l-8-4.7l6-14.3c-0.7-0.7-3-1.7-5.2-2.9c-0.9-0.5-1.3-0.6-1.6-0.9
			l6.8-8.3l2.6,2.1l2.6-1.5l2.5,4l0.4,0.6l5.1,0.7l0.6,4.4l-8.7,19.3l1.7,0.4L203.5,686.5z M196.9,680.4l7.5,4.5h0.1l9.1-20.2
			l-0.4-3.1l-4.7-0.9l0.2-1.1l-2.6-2.7l-2.5,1.5l-2.3-2l-0.1,0.1l-5.3,6.2c0.1,0,0.3,0.1,0.4,0.2c3,1,5.6,3.7,5.7,3.8l0.3,0.3
			L196.9,680.4z"/>
	</g>
	<path id="XMLID_541_" d="M203.8,685.6l-8.1-4.8l9-21.5h0.3c2,0.4,8.5,1.6,9.1,1.9l0,0c0.6,0.4,1.5,2.4,1.7,2.8l0.1,0.1l-8.4,20.5
		L203.8,685.6z M196.5,680.5l7.4,4.4l3-0.7l8.1-19.9c-0.4-0.9-1.1-2.2-1.4-2.4c-0.5-0.3-5.4-1.2-8.6-1.8L196.5,680.5z"/>
	<path id="XMLID_540_" d="M201.3,683.7c0.1,0,2.8,1.4,3.2,0.5s8.7-20.2,9.1-21.1c0.4-0.9-0.3-1.7-1.2-2l1.5,0.4l1.5,2.7l-8.3,20.2
		l-3.3,0.8L201.3,683.7z"/>
	<path id="XMLID_539_" d="M209.2,661.7l3.2,1l-4.5,10.7C208,673.4,210,664.3,209.2,661.7z"/>
	<path id="XMLID_538_" d="M202.5,674.8c0-0.1,0-0.3-0.1-0.3l-2-1.1l-0.5,1.3l0,0l2.2,1.2L202.5,674.8z"/>
	<path id="XMLID_537_" d="M206,676.6c0-0.1,0-0.3-0.1-0.3l-2-1.1l-0.5,1.3l0,0l2.2,1.2L206,676.6z"/>
	<path id="XMLID_536_" d="M205.1,678.8c0-0.1,0-0.3-0.1-0.3l-2-1.1l-0.5,1.3l0,0l2.2,1.2L205.1,678.8z"/>
	<path id="XMLID_535_" d="M204.1,681.1c0-0.1,0-0.3-0.1-0.3l-2-1.1l-0.5,1.3l0,0l2.2,1.2L204.1,681.1z"/>
	<path id="XMLID_534_" d="M200.7,679.3c0-0.1,0-0.3-0.1-0.3l-2-1.1l-0.5,1.3l0,0l2.2,1.2L200.7,679.3z"/>
	<path id="XMLID_533_" d="M201.6,676.9c0-0.1,0-0.3-0.1-0.3l-2-1.1l-0.5,1.3l0,0l2.2,1.2L201.6,676.9z"/>
	<path id="XMLID_532_" class="st2" d="M206.9,674.3c0,0,0.3-3.6-4.5-6.8c0,0-0.6,3.5-1.1,4.2L206.9,674.3z"/>
	<path id="XMLID_531_" class="st3" d="M207.5,673c0,0-0.4-5.4-12-10.6l5.8-6.3C201.3,656.2,210.7,661.4,207.5,673z"/>
	<path id="XMLID_530_" class="st3" d="M204.2,657.2c0.2,0.1,4.5,5.1,4.5,8.9c0,0,0.9-6.6-2.8-9.9L204.2,657.2z"/>
	<g id="XMLID_526_">
		<path id="XMLID_529_" class="st4" d="M179.4,662.9c0,0.1,0,0.2,0.1,0.3c0.1-0.1,0.1-0.2,0.2-0.3c0.1-0.1,0.1-0.2,0.2-0.2l2.4-2.8
			l0.1-0.1h0.1h0.1h0.1l0.8,0.2l-1.3,5.7l-0.9-0.2l0.8-3.7c0-0.1,0-0.1,0.1-0.2c0-0.1,0-0.2,0.1-0.2l-2.5,2.9
			c-0.1,0.1-0.1,0.1-0.2,0.1s-0.1,0-0.2,0h-0.1c-0.1,0-0.2-0.1-0.2-0.1c-0.1-0.1-0.1-0.1-0.1-0.2l-1-3.6c0,0.1,0,0.2,0,0.3
			s0,0.2,0,0.2l-0.8,3.7l-0.9-0.2l1.3-5.7l0.8,0.2h0.1h0.1c0,0,0.1,0,0.1,0.1v0.1l1,3.6C179.4,662.7,179.4,662.8,179.4,662.9z"/>
		<path id="XMLID_528_" class="st4" d="M188.3,661.1l-0.2,0.9l-1.7-0.4l-1.1,4.9l-1.1-0.2l1.1-4.9l-1.7-0.4l0.2-0.9L188.3,661.1z"/>
		<path id="XMLID_527_" class="st4" d="M189.4,661.3C189.5,661.4,189.5,661.4,189.4,661.3c0.1,0.1,0.1,0.1,0.1,0.1s0,0.1,0.1,0.1
			l2.2,4.5c0-0.1,0-0.2,0-0.3c0-0.1,0-0.2,0-0.3l0.8-3.5l0.9,0.2l-1.3,5.7l-0.6-0.1c-0.1,0-0.2,0-0.2-0.1c-0.1,0-0.1-0.1-0.1-0.2
			l-2.2-4.5c0,0.1,0,0.2,0,0.3c0,0.1,0,0.2,0,0.2l-0.8,3.5l-0.9-0.2l1.3-5.7l0.6,0.1C189.4,661.3,189.4,661.3,189.4,661.3z"/>
	</g>
	<g id="XMLID_338_">
		<path id="XMLID_525_" class="st5" d="M177.3,668.6c0,0.1,0,0.1,0,0.2c0-0.1,0.1-0.1,0.1-0.2c0-0.1,0.1-0.1,0.1-0.2l1.6-1.9
			c0,0,0,0,0.1,0c0,0,0,0,0.1,0c0,0,0,0,0.1,0c0,0,0,0,0.1,0l0.5,0.1l-0.8,3.8l-0.6-0.1l0.5-2.4v-0.1c0-0.1,0-0.1,0-0.2l-1.6,1.9
			l-0.1,0.1c0,0-0.1,0-0.2,0h-0.1c-0.1,0-0.1,0-0.1-0.1l-0.1-0.1l-0.7-2.4c0,0.1,0,0.1,0,0.2c0,0.1,0,0.1,0,0.2l-0.5,2.4l-0.6-0.1
			l0.8-3.8l0.5,0.1h0.1c0,0,0,0,0.1,0l0,0c0,0,0,0,0,0.1L177.3,668.6C177.2,668.5,177.2,668.5,177.3,668.6z"/>
		<path id="XMLID_518_" class="st5" d="M181.4,668.1c0.2,0,0.4,0.1,0.5,0.2c0.1,0.1,0.3,0.2,0.4,0.4c0.1,0.1,0.1,0.3,0.2,0.5
			c0,0.2,0,0.4,0,0.6c0,0.2-0.1,0.4-0.2,0.6s-0.2,0.3-0.4,0.4c-0.1,0.1-0.3,0.2-0.5,0.2s-0.4,0-0.6,0s-0.4-0.1-0.5-0.2
			c-0.1-0.1-0.3-0.2-0.4-0.4c-0.1-0.1-0.1-0.3-0.2-0.5c0-0.2,0-0.4,0-0.6c0-0.2,0.1-0.4,0.2-0.5c0.1-0.2,0.2-0.3,0.4-0.4
			c0.1-0.1,0.3-0.2,0.5-0.2C181,668.1,181.2,668.1,181.4,668.1z M180.9,670.4c0.2,0,0.4,0,0.5-0.1s0.2-0.3,0.3-0.6
			c0.1-0.3,0.1-0.5,0-0.7c-0.1-0.2-0.2-0.3-0.4-0.3c-0.2,0-0.4,0-0.6,0.1c-0.1,0.1-0.2,0.3-0.3,0.6c-0.1,0.3-0.1,0.5,0,0.7
			C180.5,670.2,180.6,670.3,180.9,670.4z"/>
		<path id="XMLID_515_" class="st5" d="M182.4,671.2l0.9-3.9l0.6,0.1l-0.3,1.5c0.1-0.1,0.3-0.2,0.4-0.2s0.3,0,0.5,0
			c0.1,0,0.3,0.1,0.4,0.2s0.2,0.2,0.3,0.3s0.1,0.3,0.1,0.5s0,0.4,0,0.6c0,0.2-0.1,0.4-0.2,0.5c-0.1,0.2-0.2,0.3-0.3,0.4
			c-0.1,0.1-0.3,0.2-0.4,0.2c-0.2,0-0.3,0-0.5,0c-0.1,0-0.2,0-0.2-0.1c-0.1,0-0.1-0.1-0.2-0.1s-0.1-0.1-0.1-0.1s-0.1-0.1-0.1-0.2
			l-0.1,0.2c0,0,0,0.1-0.1,0.1H183H182.4L182.4,671.2z M184.2,669.3c-0.1,0-0.3,0-0.4,0s-0.2,0.1-0.3,0.2l-0.3,1.2
			c0.1,0.1,0.1,0.2,0.2,0.2c0.1,0.1,0.2,0.1,0.3,0.1s0.2,0,0.3,0c0.1,0,0.2-0.1,0.2-0.1c0.1-0.1,0.1-0.2,0.2-0.3
			c0.1-0.1,0.1-0.2,0.1-0.4c0-0.2,0.1-0.3,0-0.4c0-0.1,0-0.2,0-0.3c0-0.1-0.1-0.1-0.1-0.2C184.3,669.3,184.2,669.3,184.2,669.3z"/>
		<path id="XMLID_512_" class="st5" d="M186.8,668.5c0,0.1,0,0.1-0.1,0.1l-0.1,0.1c0,0-0.1,0-0.2,0.1c-0.1,0-0.1,0-0.2,0
			s-0.1,0-0.1-0.1s-0.1-0.1-0.1-0.1l-0.1-0.1c0,0,0-0.1,0-0.2s0-0.1,0.1-0.2l0.1-0.1l0.1-0.1c0.1,0,0.1,0,0.2,0s0.1,0,0.2,0.1
			l0.1,0.1c0,0,0.1,0.1,0.1,0.2S186.8,668.5,186.8,668.5z M186.5,669.3l-0.6,2.7l-0.6-0.1l0.6-2.7L186.5,669.3z"/>
		<path id="XMLID_511_" class="st5" d="M188,668.4l-0.9,3.9l-0.6-0.1l0.9-3.9L188,668.4z"/>
		<path id="XMLID_508_" class="st5" d="M189.4,669.9c0.2,0,0.3,0.1,0.4,0.2c0.1,0.1,0.2,0.2,0.3,0.3c0.1,0.1,0.1,0.3,0.2,0.4
			c0,0.2,0,0.3,0,0.5v0.1v0.1c0,0,0,0-0.1,0h-0.1l-1.7-0.4c0,0.3,0,0.5,0.1,0.7c0.1,0.2,0.3,0.3,0.5,0.3c0.1,0,0.2,0,0.3,0
			c0.1,0,0.2,0,0.2,0c0.1,0,0.1,0,0.2,0h0.1c0,0,0,0,0.1,0s0,0,0,0.1l0.1,0.3c-0.1,0.1-0.2,0.1-0.3,0.2s-0.2,0.1-0.3,0.1
			c-0.1,0-0.2,0-0.3,0c-0.1,0-0.2,0-0.3,0c-0.2,0-0.4-0.1-0.5-0.2c-0.2-0.1-0.3-0.2-0.4-0.4s-0.2-0.3-0.2-0.5s0-0.4,0-0.6
			c0-0.2,0.1-0.4,0.2-0.5c0.1-0.2,0.2-0.3,0.4-0.4c0.1-0.1,0.3-0.2,0.5-0.2C189,669.8,189.2,669.8,189.4,669.9z M189.3,670.3
			c-0.2,0-0.3,0-0.5,0.1c-0.1,0.1-0.2,0.2-0.3,0.4l1.2,0.3c0-0.1,0-0.2,0-0.2c0-0.1,0-0.1-0.1-0.2s-0.1-0.1-0.1-0.2
			C189.5,670.4,189.4,670.4,189.3,670.3z"/>
		<path id="XMLID_507_" class="st5" d="M176.1,673.8c0,0.1,0,0.1,0,0.2c0-0.1,0.1-0.1,0.1-0.2s0.1-0.1,0.1-0.2l1.6-1.8
			c0,0,0,0,0.1,0c0,0,0,0,0.1,0c0,0,0,0,0.1,0c0,0,0,0,0.1,0l0.5,0.1l-0.8,3.8l-0.6-0.1l0.5-2.5V673c0-0.1,0-0.1,0-0.2l-1.6,1.9
			l-0.1,0.1c0,0-0.1,0-0.2,0h-0.1c-0.1,0-0.1,0-0.1-0.1s-0.1-0.1-0.1-0.1l-0.7-2.4c0,0.1,0,0.1,0,0.2s0,0.1,0,0.2l-0.5,2.4l-0.6-0.1
			l0.8-3.8l0.5,0.1h0.1c0,0,0,0,0.1,0l0,0c0,0,0,0,0,0.1l0.7,2.4C176.1,673.7,176.1,673.8,176.1,673.8z"/>
		<path id="XMLID_503_" class="st5" d="M180.2,673.3c0.2,0,0.4,0.1,0.5,0.2s0.3,0.2,0.4,0.4c0.1,0.1,0.1,0.3,0.2,0.5
			c0,0.2,0,0.4,0,0.6s-0.1,0.4-0.2,0.6c-0.1,0.2-0.2,0.3-0.4,0.4c-0.1,0.1-0.3,0.2-0.5,0.2s-0.4,0-0.6,0s-0.4-0.1-0.5-0.2
			s-0.3-0.2-0.4-0.4c-0.1-0.1-0.1-0.3-0.2-0.5c0-0.2,0-0.4,0-0.6s0.1-0.4,0.2-0.5c0.1-0.2,0.2-0.3,0.4-0.4c0.1-0.1,0.3-0.2,0.5-0.2
			C179.8,673.3,180,673.3,180.2,673.3z M179.7,675.6c0.2,0,0.4,0,0.5-0.1s0.2-0.3,0.3-0.6c0.1-0.3,0.1-0.5,0-0.7
			c-0.1-0.2-0.2-0.3-0.4-0.3c-0.2,0-0.4,0-0.6,0.1c-0.1,0.1-0.2,0.3-0.3,0.6c-0.1,0.3-0.1,0.5,0,0.7
			C179.3,675.4,179.5,675.6,179.7,675.6z"/>
		<path id="XMLID_500_" class="st5" d="M181.3,676.4l0.6-2.7l0.4,0.1c0.1,0,0.1,0.1,0.1,0.2v0.2c0.1,0,0.1-0.1,0.2-0.1
			s0.1-0.1,0.2-0.1s0.1,0,0.2,0s0.2,0,0.3,0c0.1,0,0.3,0.1,0.4,0.2s0.2,0.2,0.2,0.3c0.1,0.1,0.1,0.2,0.1,0.4c0,0.1,0,0.3,0,0.4
			l-0.4,1.7l-0.6-0.1l0.4-1.7c0-0.2,0-0.3,0-0.4s-0.2-0.2-0.3-0.2c-0.1,0-0.2,0-0.3,0c-0.1,0-0.2,0.1-0.3,0.1l-0.4,1.9L181.3,676.4
			L181.3,676.4z"/>
		<path id="XMLID_340_" class="st5" d="M185.8,674.6c0.2,0,0.3,0.1,0.4,0.2c0.1,0.1,0.2,0.2,0.3,0.3c0.1,0.1,0.1,0.3,0.2,0.4
			c0,0.2,0,0.3,0,0.5v0.1v0.1c0,0,0,0-0.1,0h-0.1l-1.7-0.4c0,0.3,0,0.5,0.1,0.7c0.1,0.2,0.3,0.3,0.5,0.3c0.1,0,0.2,0,0.3,0
			s0.2,0,0.2,0c0.1,0,0.1,0,0.2,0h0.1c0,0,0,0,0.1,0s0,0,0,0.1l0.1,0.3c-0.1,0.1-0.2,0.1-0.3,0.2c-0.1,0-0.2,0.1-0.3,0.1
			c-0.1,0-0.2,0-0.3,0c-0.1,0-0.2,0-0.3,0c-0.2,0-0.4-0.1-0.5-0.2c-0.2-0.1-0.3-0.2-0.4-0.4c-0.1-0.2-0.2-0.3-0.2-0.5s0-0.4,0-0.6
			c0-0.2,0.1-0.4,0.2-0.5c0.1-0.2,0.2-0.3,0.4-0.4c0.1-0.1,0.3-0.2,0.5-0.2C185.4,674.5,185.6,674.5,185.8,674.6z M185.7,675
			c-0.2,0-0.3,0-0.5,0.1c-0.1,0.1-0.2,0.2-0.3,0.4l1.2,0.3c0-0.1,0-0.2,0-0.2c0-0.1,0-0.1-0.1-0.2c0-0.1-0.1-0.1-0.1-0.2
			C185.9,675.1,185.8,675,185.7,675z"/>
		<path id="XMLID_339_" class="st5" d="M187.4,678.5l-0.1,0.1c0,0-0.1,0-0.2,0l-0.5-0.1l0.7-1l-0.5-2.7l0.6,0.1c0.1,0,0.1,0,0.1,0.1
			v0.1l0.3,1.5c0,0.1,0,0.1,0,0.2c0,0.1,0,0.1,0,0.2l0.1-0.1l0.1-0.1l0.8-1.3l0.1-0.1h0.1l0.5,0.1L187.4,678.5z"/>
	</g>
	<polygon id="XMLID_336_" class="st1" points="203.7,686.7 200.6,685.5 165.7,677.9 169.8,659.3 179.1,654.8 198.4,659 197.3,660 
		179.2,656.1 170.8,660.2 167.1,676.9 201.1,684.4 203.8,685.8 207,684.8 215.5,664.4 213.8,661.1 208.7,660 208.9,659.2 
		214.3,660.5 216.4,664.4 207.5,685.6 	"/>
	<path id="XMLID_335_" class="st1" d="M201.2,666.6l1.4,1.1c0,0,0.5-0.7,0.4-0.8s-2.2-1.6-2.2-1.6L201.2,666.6z"/>
	<path id="XMLID_333_" class="st1" d="M204.4,658.8l0.8-0.4c0,0,1.3,1.8,1.6,2.4l-0.5,0.6C206.3,661.4,205.2,659.6,204.4,658.8z"/>
</g>
<g id="XMLID_275_">
	<polygon id="XMLID_326_" class="st0" points="-83.5,680.4 -80.1,663.6 -71.6,658.7 -41.6,663.5 -37.2,664.7 -44.9,686.8 
		-46.6,687.4 	"/>
	<g id="XMLID_321_">
		<path id="XMLID_325_" class="st1" d="M-55.2,664.6l4.9-6.1l0.4-0.5l2.5,1.9l2.1-1.6l2.9,3.1l-0.1,0.8l4.7,0.7l0.7,4l-7.8,20.2
			l1.1,0.2l-2.3,0.6l-0.1-0.6l-7.8-4.2l4.9-13.7c0,0-2.7-2.5-5.5-3.3c-1.3-0.4-1.1-0.5-1.1-0.5L-55.2,664.6z"/>
		<path id="XMLID_322_" class="st1" d="M-46.4,688.3l-0.3-0.9l-8.1-4.3l5.2-14.3c-0.8-0.6-3-1.6-5.2-2.6c-0.9-0.5-1.3-0.5-1.6-0.8
			l6.3-8.4l2.6,2l2.5-1.6l2.6,3.9l0.4,0.5l5,0.5l0.7,4.3l-7.7,19.3l1.7,0.3L-46.4,688.3z M-53.2,682.5l7.6,4.1h0.1l8.1-20.2l-0.5-3
			l-4.6-0.7l0.2-1.1L-45,659l-2.4,1.5l-2.4-1.8l-0.1,0.1l-5,6.3c0.1,0,0.3,0.1,0.4,0.1c3,0.9,5.7,3.3,5.8,3.4l0.3,0.3L-53.2,682.5z"
			/>
	</g>
	<path id="XMLID_318_" d="M-46.1,687.3l-8.2-4.3l7.9-21.5h0.3c2,0.3,8.4,1.2,9,1.5l0,0c0.6,0.4,1.6,2.3,1.7,2.7l0.1,0.1l-7.3,20.5
		L-46.1,687.3z M-53.5,682.7l7.5,4l2.9-0.8L-36,666c-0.4-0.9-1.1-2.1-1.4-2.3c-0.5-0.2-5.4-1-8.5-1.4L-53.5,682.7z"/>
	<path id="XMLID_317_" d="M-48.7,685.6c0.1,0,2.8,1.3,3.1,0.4s7.7-20.2,8-21.1c0.4-0.9-0.4-1.7-1.3-1.9l1.5,0.3l1.6,2.6l-7.2,20.2
		l-3.2,0.9L-48.7,685.6z"/>
	<path id="XMLID_316_" d="M-41.8,663.7l3.2,0.8l-4,10.7C-42.6,675.2-41,666.2-41.8,663.7z"/>
	<path id="XMLID_315_" d="M-47.9,676.8c0-0.1,0-0.3-0.1-0.3l-2-1l-0.4,1.3l0,0l2.2,1.1L-47.9,676.8z"/>
	<path id="XMLID_314_" d="M-44.4,678.5c0-0.1,0-0.3-0.1-0.3l-2-1l-0.4,1.3l0,0l2.2,1.1L-44.4,678.5z"/>
	<path id="XMLID_313_" d="M-45.2,680.6c0-0.1,0-0.3-0.1-0.3l-2-1l-0.4,1.3l0,0l2.2,1.1L-45.2,680.6z"/>
	<path id="XMLID_312_" d="M-46,683c0-0.1,0-0.3-0.1-0.3l-2-1l-0.4,1.3l0,0l2.2,1.1L-46,683z"/>
	<path id="XMLID_311_" d="M-49.4,681.3c0-0.1,0-0.3-0.1-0.3l-2-1l-0.4,1.3l0,0l2.2,1.1L-49.4,681.3z"/>
	<path id="XMLID_310_" d="M-48.7,679c0-0.1,0-0.3-0.1-0.3l-2-1l-0.4,1.3l0,0l2.2,1.1L-48.7,679z"/>
	<path id="XMLID_309_" class="st2" d="M-43.6,676.2c0,0,0.1-3.5-4.7-6.5c0,0-0.5,3.5-0.9,4.1L-43.6,676.2z"/>
	<path id="XMLID_308_" class="st3" d="M-43,674.9c0,0-0.6-5.3-12.3-9.9l5.4-6.4C-49.9,658.6-40.4,663.3-43,674.9z"/>
	<path id="XMLID_307_" class="st3" d="M-46.9,659.5c0.2,0.1,4.6,4.8,4.7,8.5c0,0,0.6-6.5-3.1-9.6L-46.9,659.5z"/>
	<g id="XMLID_303_">
		<path id="XMLID_306_" class="st4" d="M-71,666.2c0,0.1,0,0.2,0.1,0.3c0.1-0.1,0.1-0.2,0.2-0.3c0.1-0.1,0.1-0.2,0.2-0.2l2.2-2.8
			l0.1-0.1h0.1h0.1h0.1l0.8,0.1l-1,5.7l-0.9-0.2l0.6-3.7c0-0.1,0-0.1,0-0.2s0-0.2,0.1-0.2l-2.3,2.9c-0.1,0.1-0.1,0.1-0.2,0.1
			s-0.1,0-0.2,0h-0.1c-0.1,0-0.1,0-0.2-0.1c-0.1,0-0.1-0.1-0.1-0.2l-1.2-3.5c0,0.1,0,0.2,0,0.3s0,0.2,0,0.2l-0.6,3.7l-0.9-0.2l1-5.7
			l0.8,0.1h0.1h0.1c0,0,0.1,0,0.1,0.1c0,0,0,0.1,0.1,0.1l1.1,3.4C-71.1,666-71,666.1-71,666.2z"/>
		<path id="XMLID_305_" class="st4" d="M-62.3,664l-0.2,0.9l-1.7-0.3l-0.8,4.8l-1.1-0.2l0.8-4.8l-1.7-0.3l0.2-0.9L-62.3,664z"/>
		<path id="XMLID_304_" class="st4" d="M-61.3,664.2C-61.2,664.2-61.2,664.2-61.3,664.2c0.1,0,0.1,0.1,0.2,0.1c0,0,0,0.1,0.1,0.1
			l2.3,4.3c0-0.1,0-0.2,0-0.3s0-0.2,0-0.3l0.6-3.4l0.9,0.2l-1,5.7l-0.5-0.1c-0.1,0-0.2,0-0.2-0.1c-0.1,0-0.1-0.1-0.1-0.2l-2.3-4.3
			c0,0.1,0,0.2,0,0.3s0,0.2,0,0.2l-0.6,3.5l-0.9-0.2l1-5.7L-61.3,664.2C-61.3,664.2-61.3,664.2-61.3,664.2z"/>
	</g>
	<g id="XMLID_279_">
		<path id="XMLID_302_" class="st5" d="M-72.9,671.8c0,0.1,0,0.1,0,0.2C-72.9,671.9-72.8,671.9-72.9,671.8c0.1-0.1,0.2-0.1,0.2-0.2
			l1.5-1.9c0,0,0,0,0-0.1c0,0,0,0,0.1,0c0,0,0,0,0.1,0c0,0,0,0,0.1,0l0.5,0.1l-0.7,3.7l-0.6-0.1l0.4-2.4v-0.1c0-0.1,0-0.1,0-0.2
			l-1.5,1.9l-0.1,0.1H-73h-0.1c-0.1,0-0.1,0-0.1-0.1l-0.1-0.1l-0.8-2.3c0,0.1,0,0.1,0,0.2s0,0.1,0,0.2l-0.4,2.4l-0.6-0.1l0.7-3.7
			l0.5,0.1h0.1c0,0,0,0,0.1,0l0,0c0,0,0,0,0,0.1l0.8,2.3C-72.9,671.7-72.9,671.8-72.9,671.8z"/>
		<path id="XMLID_299_" class="st5" d="M-68.9,671.2c0.2,0,0.4,0.1,0.5,0.2c0.2,0.1,0.3,0.2,0.4,0.3c0.1,0.1,0.2,0.3,0.2,0.5
			s0,0.4,0,0.6c0,0.2-0.1,0.4-0.2,0.6s-0.2,0.3-0.3,0.4c-0.1,0.1-0.3,0.2-0.5,0.2s-0.4,0-0.6,0s-0.4-0.1-0.5-0.2
			c-0.2-0.1-0.3-0.2-0.4-0.4c-0.1-0.1-0.2-0.3-0.2-0.5s0-0.4,0-0.6c0-0.2,0.1-0.4,0.2-0.5c0.1-0.2,0.2-0.3,0.3-0.4s0.3-0.2,0.5-0.2
			C-69.3,671.1-69.1,671.1-68.9,671.2z M-69.3,673.4c0.2,0,0.4,0,0.5-0.1s0.2-0.3,0.3-0.6c0.1-0.3,0-0.5,0-0.7
			c-0.1-0.2-0.2-0.3-0.4-0.3s-0.4,0-0.5,0.1s-0.2,0.3-0.3,0.6c0,0.3,0,0.5,0,0.7C-69.7,673.3-69.5,673.4-69.3,673.4z"/>
		<path id="XMLID_296_" class="st5" d="M-67.7,674.2l0.7-3.9l0.6,0.1l-0.3,1.5c0.1-0.1,0.3-0.2,0.4-0.2s0.3,0,0.5,0
			c0.1,0,0.3,0.1,0.4,0.2s0.2,0.2,0.3,0.3c0.1,0.1,0.1,0.3,0.1,0.5s0,0.4,0,0.6c0,0.2-0.1,0.4-0.2,0.5c-0.1,0.2-0.2,0.3-0.3,0.4
			c-0.1,0.1-0.3,0.2-0.4,0.2c-0.2,0-0.3,0.1-0.5,0c-0.1,0-0.2,0-0.2-0.1c-0.1,0-0.1-0.1-0.2-0.1s-0.1-0.1-0.1-0.1s-0.1-0.1-0.1-0.2
			l-0.1,0.2c0,0,0,0.1-0.1,0.1h-0.1H-67.7L-67.7,674.2z M-66.1,672.2c-0.1,0-0.3,0-0.4,0s-0.2,0.1-0.3,0.2l-0.2,1.2
			c0.1,0.1,0.1,0.2,0.2,0.2c0.1,0.1,0.2,0.1,0.3,0.1c0.1,0,0.2,0,0.3,0c0.1,0,0.2-0.1,0.2-0.1c0.1-0.1,0.1-0.2,0.2-0.3
			c0-0.1,0.1-0.2,0.1-0.4c0-0.2,0-0.3,0-0.4s0-0.2-0.1-0.3c0-0.1-0.1-0.1-0.1-0.2C-65.9,672.2-66,672.2-66.1,672.2z"/>
		<path id="XMLID_293_" class="st5" d="M-63.6,671.3c0,0.1,0,0.1-0.1,0.1l-0.1,0.1l-0.1,0.1c0,0-0.1,0-0.2,0s-0.1,0-0.1-0.1
			s-0.1-0.1-0.1-0.1l-0.1-0.1c0-0.1,0-0.1,0-0.2s0-0.1,0.1-0.2l0.1-0.1l0.1-0.1c0,0,0.1,0,0.2,0s0.1,0,0.2,0.1l0.1,0.1l0.1,0.1
			C-63.6,671.2-63.6,671.3-63.6,671.3z M-63.8,672.1l-0.5,2.7l-0.6-0.1l0.5-2.7L-63.8,672.1z"/>
		<path id="XMLID_292_" class="st5" d="M-62.4,671.1L-63,675l-0.6-0.1l0.7-3.9L-62.4,671.1z"/>
		<path id="XMLID_289_" class="st5" d="M-60.9,672.6c0.2,0,0.3,0.1,0.4,0.2c0.1,0.1,0.2,0.2,0.3,0.3c0.1,0.1,0.1,0.3,0.2,0.4
			c0,0.2,0,0.3,0,0.5v0.1v0.1c0,0,0,0-0.1,0c0,0,0,0-0.1,0l-1.6-0.3c0,0.3,0,0.5,0.1,0.6c0.1,0.1,0.3,0.2,0.5,0.3c0.1,0,0.2,0,0.3,0
			c0.1,0,0.2,0,0.2,0s0.1,0,0.2-0.1h0.1c0,0,0,0,0.1,0s0,0,0,0.1l0.1,0.3c-0.1,0.1-0.2,0.1-0.3,0.2c-0.1,0-0.2,0.1-0.3,0.1
			c-0.1,0-0.2,0-0.3,0c-0.1,0-0.2,0-0.3,0c-0.2,0-0.3-0.1-0.5-0.2s-0.3-0.2-0.4-0.3s-0.2-0.3-0.2-0.5s0-0.4,0-0.6
			c0-0.2,0.1-0.3,0.2-0.5c0.1-0.2,0.2-0.3,0.3-0.4c0.1-0.1,0.3-0.2,0.4-0.2C-61.3,672.5-61.1,672.5-60.9,672.6z M-61,673
			c-0.2,0-0.3,0-0.5,0.1c-0.1,0.1-0.2,0.2-0.3,0.4l1.2,0.2c0-0.1,0-0.2,0-0.2c0-0.1,0-0.1-0.1-0.2c0-0.1-0.1-0.1-0.1-0.2
			C-60.8,673.1-60.9,673-61,673z"/>
		<path id="XMLID_288_" class="st5" d="M-73.8,677c0,0.1,0,0.1,0,0.2C-73.8,677.1-73.7,677.1-73.8,677c0.1-0.1,0.2-0.1,0.2-0.2
			l1.5-1.9c0,0,0,0,0-0.1c0,0,0,0,0.1,0s0,0,0.1,0c0,0,0,0,0.1,0l0.5,0.1l-0.7,3.7l-0.6-0.1l0.4-2.4V676c0-0.1,0-0.1,0-0.2l-1.5,1.9
			l-0.1,0.1h-0.1H-74c-0.1,0-0.1,0-0.1-0.1l-0.1-0.1l-0.8-2.3c0,0.1,0,0.1,0,0.2s0,0.1,0,0.2l-0.4,2.4L-76,678l0.7-3.7l0.5,0.1h0.1
			c0,0,0,0,0.1,0l0,0c0,0,0,0,0,0.1l0.8,2.3C-73.8,676.9-73.8,677-73.8,677z"/>
		<path id="XMLID_285_" class="st5" d="M-69.8,676.4c0.2,0,0.4,0.1,0.5,0.2c0.2,0.1,0.3,0.2,0.4,0.3s0.2,0.3,0.2,0.5
			c0,0.2,0,0.4,0,0.6s-0.1,0.4-0.2,0.6c-0.1,0.2-0.2,0.3-0.3,0.4c-0.1,0.1-0.3,0.2-0.5,0.2s-0.4,0-0.6,0s-0.4-0.1-0.5-0.2
			c-0.2-0.1-0.3-0.2-0.4-0.4c-0.1-0.1-0.2-0.3-0.2-0.5c0-0.2,0-0.4,0-0.6s0.1-0.4,0.2-0.5c0.1-0.2,0.2-0.3,0.3-0.4
			c0.1-0.1,0.3-0.2,0.5-0.2C-70.2,676.3-70,676.3-69.8,676.4z M-70.2,678.6c0.2,0,0.4,0,0.5-0.1s0.2-0.3,0.3-0.6c0-0.3,0-0.5,0-0.7
			c-0.1-0.2-0.2-0.3-0.4-0.3s-0.4,0-0.5,0.1s-0.2,0.3-0.3,0.6c-0.1,0.3,0,0.5,0,0.7C-70.6,678.5-70.4,678.6-70.2,678.6z"/>
		<path id="XMLID_284_" class="st5" d="M-68.6,679.3l0.5-2.7l0.4,0.1c0.1,0,0.1,0.1,0.1,0.1v0.2c0.1,0,0.1-0.1,0.2-0.1
			s0.1-0.1,0.2-0.1s0.1,0,0.2,0s0.2,0,0.3,0c0.1,0,0.3,0.1,0.4,0.1c0.1,0.1,0.2,0.2,0.2,0.3c0.1,0.1,0.1,0.2,0.1,0.3s0,0.3,0,0.4
			l-0.3,1.7l-0.6-0.1l0.3-1.7c0-0.2,0-0.3,0-0.4c-0.1-0.1-0.2-0.2-0.3-0.2c-0.1,0-0.2,0-0.3,0c-0.1,0-0.2,0.1-0.3,0.2l-0.3,1.9
			L-68.6,679.3L-68.6,679.3z"/>
		<path id="XMLID_281_" class="st5" d="M-64.3,677.3c0.2,0,0.3,0.1,0.4,0.2s0.2,0.2,0.3,0.3c0.1,0.1,0.1,0.3,0.2,0.4
			c0,0.2,0,0.3,0,0.5v0.1v0.1c0,0,0,0-0.1,0s0,0-0.1,0l-1.6-0.3c0,0.3,0,0.5,0.1,0.6s0.3,0.2,0.5,0.3c0.1,0,0.2,0,0.3,0s0.2,0,0.2,0
			c0.1,0,0.1,0,0.2-0.1h0.1c0,0,0,0,0.1,0c0,0,0,0,0,0.1l0.1,0.3c-0.1,0.1-0.2,0.1-0.3,0.2c-0.1,0-0.2,0.1-0.3,0.1
			c-0.1,0-0.2,0-0.3,0c-0.1,0-0.2,0-0.3,0c-0.2,0-0.3-0.1-0.5-0.2c-0.2-0.1-0.3-0.2-0.4-0.3s-0.2-0.3-0.2-0.5c0-0.2,0-0.4,0-0.6
			s0.1-0.3,0.2-0.5s0.2-0.3,0.3-0.4c0.1-0.1,0.3-0.2,0.4-0.2C-64.7,677.3-64.5,677.3-64.3,677.3z M-64.4,677.8c-0.2,0-0.3,0-0.5,0.1
			c-0.1,0.1-0.2,0.2-0.3,0.4l1.2,0.2c0-0.1,0-0.2,0-0.2c0-0.1,0-0.1-0.1-0.2c0-0.1-0.1-0.1-0.1-0.2
			C-64.2,677.8-64.3,677.8-64.4,677.8z"/>
		<path id="XMLID_280_" class="st5" d="M-62.5,681.2C-62.6,681.2-62.6,681.2-62.5,681.2c-0.1,0.1-0.2,0.1-0.2,0.1l-0.5-0.1l0.7-1
			l-0.6-2.6l0.6,0.1c0.1,0,0.1,0,0.1,0.1c0,0.1,0,0.1,0,0.1l0.3,1.5c0,0.1,0,0.1,0,0.2s0,0.1,0,0.1s0-0.1,0.1-0.1l0.1-0.1l0.8-1.3
			c0,0,0-0.1,0.1-0.1h0.1l0.5,0.1L-62.5,681.2z"/>
	</g>
	<polygon id="XMLID_278_" class="st1" points="-46.1,688.5 -49.2,687.4 -83.8,681.4 -80.6,663 -71.7,658.2 -52.5,661.6 -53.6,662.6 
		-71.5,659.5 -79.6,663.8 -82.5,680.4 -48.8,686.3 -46.1,687.6 -43,686.4 -35.6,666.1 -37.4,662.9 -42.4,662 -42.3,661.3 
		-36.9,662.3 -34.7,666 -42.5,687.2 	"/>
	<path id="XMLID_277_" class="st1" d="M-49.5,668.8l1.4,1c0,0,0.4-0.7,0.4-0.8s-2.3-1.5-2.3-1.5L-49.5,668.8z"/>
	<path id="XMLID_276_" class="st1" d="M-46.7,661l0.8-0.4c0,0,1.3,1.7,1.7,2.3l-0.5,0.6C-44.7,663.5-45.8,661.8-46.7,661z"/>
</g>
<g id="XMLID_56_">
	<rect id="XMLID_173_" x="267.8" y="580.9" width="78.8" height="78.9"/>
	<path id="XMLID_172_" class="st1" d="M303.4,593h-19.8c-1.8,0-3.3,2.5-3.3,4.5s1.5,4.5,3.3,4.5h10.7L277,618
		c-1.4,1.3-1.6,3.5-0.4,5.1c1.2,1.6,2.7,1.7,4.1,0.4l18.3-17.8v13.4c0,2,2.2,3.7,4,3.7s4-1.7,4-3.7v-21.3
		C307,595.8,305.2,593,303.4,593z"/>
	<path id="XMLID_171_" class="st6" d="M312.9,626h19.8c1.8,0,3.3-1,3.3-3s-1.5-3-3.3-3H322l17.3-16.9c1.4-1.3,1.6-3.9,0.4-5.5
		c-1.2-1.6-3.4-1.9-4.8-0.6l-19,17.6v-13.4c0-2-1.2-3.7-3-3.7s-3,1.7-3,3.7v21.3C310,624.5,311.1,626,312.9,626z"/>
	<g id="XMLID_175_">
		<path id="XMLID_176_" class="st6" d="M283.3,634.7c0,0.6-0.1,1.1-0.3,1.6c-0.2,0.4-0.5,0.8-0.9,1c-0.4,0.2-0.9,0.4-1.4,0.4
			s-1-0.1-1.4-0.4c-0.4-0.2-0.7-0.6-0.9-1c-0.2-0.4-0.3-0.9-0.3-1.5v-0.4c0-0.6,0.1-1.1,0.3-1.6c0.2-0.5,0.5-0.8,0.9-1
			c0.4-0.2,0.9-0.4,1.4-0.4s1,0.1,1.4,0.4c0.4,0.2,0.7,0.6,0.9,1c0.2,0.4,0.3,1,0.3,1.6V634.7z M282.4,634.3c0-0.7-0.2-1.3-0.5-1.7
			s-0.8-0.6-1.3-0.6c-0.6,0-1,0.2-1.3,0.6s-0.5,0.9-0.5,1.6v0.4c0,0.7,0.2,1.3,0.5,1.7c0.3,0.4,0.8,0.6,1.3,0.6c0.6,0,1-0.2,1.3-0.6
			s0.5-0.9,0.5-1.6V634.3z"/>
		<path id="XMLID_179_" class="st6" d="M286.8,633.7c-0.1,0-0.3,0-0.4,0c-0.6,0-0.9,0.2-1.1,0.6v3.2h-0.8V633h0.8v0.5
			c0.3-0.4,0.7-0.6,1.2-0.6c0.2,0,0.3,0,0.4,0.1v0.7H286.8z"/>
		<path id="XMLID_181_" class="st6" d="M290.5,637.5c0-0.1-0.1-0.2-0.1-0.5c-0.4,0.4-0.9,0.6-1.4,0.6s-0.9-0.1-1.2-0.4
			c-0.3-0.3-0.5-0.6-0.5-1c0-0.5,0.2-0.8,0.6-1.1c0.4-0.3,0.9-0.4,1.6-0.4h0.8v-0.4c0-0.3-0.1-0.5-0.3-0.6c-0.2-0.2-0.4-0.2-0.8-0.2
			c-0.3,0-0.6,0.1-0.8,0.2c-0.2,0.1-0.3,0.3-0.3,0.5h-0.8c0-0.2,0.1-0.4,0.3-0.7c0.2-0.2,0.4-0.4,0.7-0.5c0.3-0.1,0.6-0.2,1-0.2
			c0.6,0,1,0.1,1.3,0.4c0.3,0.3,0.5,0.6,0.5,1.1v2.1c0,0.4,0.1,0.7,0.2,1v0.1H290.5z M289.1,636.9c0.3,0,0.5-0.1,0.7-0.2
			c0.2-0.1,0.4-0.3,0.5-0.5v-0.9h-0.7c-1,0-1.5,0.3-1.5,0.8c0,0.2,0.1,0.4,0.3,0.6C288.6,636.8,288.8,636.9,289.1,636.9z"/>
		<path id="XMLID_184_" class="st6" d="M293.3,633v0.6c0.4-0.4,0.9-0.7,1.5-0.7c1,0,1.6,0.5,1.6,1.6v3h-0.8v-3
			c0-0.3-0.1-0.6-0.2-0.7c-0.2-0.2-0.4-0.2-0.7-0.2c-0.3,0-0.5,0.1-0.7,0.2s-0.4,0.3-0.5,0.5v3.2h-0.8V633H293.3z"/>
		<path id="XMLID_186_" class="st6" d="M297.4,635.2c0-0.7,0.2-1.3,0.5-1.7c0.4-0.4,0.8-0.6,1.4-0.6s1.1,0.2,1.4,0.6V633h0.8v4.4
			c0,0.6-0.2,1-0.6,1.4c-0.4,0.3-0.9,0.5-1.5,0.5c-0.4,0-0.7-0.1-1-0.2s-0.6-0.3-0.8-0.6l0.4-0.5c0.4,0.4,0.8,0.6,1.3,0.6
			c0.4,0,0.7-0.1,1-0.3c0.2-0.2,0.3-0.5,0.3-0.9V637c-0.3,0.4-0.8,0.5-1.4,0.5s-1-0.2-1.4-0.6C297.6,636.5,297.4,635.9,297.4,635.2z
			 M298.3,635.3c0,0.5,0.1,0.9,0.3,1.2c0.2,0.3,0.5,0.4,1,0.4s0.9-0.2,1.2-0.7v-2.1c-0.3-0.4-0.6-0.6-1.2-0.6c-0.4,0-0.7,0.1-1,0.4
			C298.4,634.3,298.3,634.7,298.3,635.3z"/>
		<path id="XMLID_189_" class="st6" d="M304.9,637.6c-0.7,0-1.2-0.2-1.6-0.6s-0.6-0.9-0.6-1.6v-0.1c0-0.5,0.1-0.9,0.3-1.2
			s0.4-0.6,0.8-0.8c0.3-0.2,0.7-0.3,1.1-0.3c0.6,0,1.1,0.2,1.5,0.6c0.4,0.4,0.5,0.9,0.5,1.7v0.3h-3.3c0,0.4,0.2,0.8,0.4,1.1
			c0.3,0.3,0.6,0.4,1,0.4c0.3,0,0.5-0.1,0.8-0.2c0.2-0.1,0.4-0.3,0.5-0.4l0.5,0.4C306.3,637.3,305.7,637.6,304.9,637.6z
			 M304.8,633.5c-0.3,0-0.6,0.1-0.9,0.3c-0.2,0.2-0.4,0.5-0.4,1h2.5v-0.1c0-0.4-0.1-0.7-0.3-0.9
			C305.4,633.6,305.1,633.5,304.8,633.5z"/>
		<path id="XMLID_192_" class="st6" d="M311.3,631.4l2.2,5l2.2-5h1.1v6.1h-0.9v-2.4l0.1-2.6l-2.2,4.9h-0.7l-2.2-4.9l0.1,2.6v2.4
			h-0.9v-6.1H311.3z"/>
		<path id="XMLID_194_" class="st6" d="M318,635.2c0-0.4,0.1-0.8,0.3-1.2c0.2-0.4,0.5-0.6,0.8-0.8s0.7-0.3,1.2-0.3
			c0.7,0,1.2,0.2,1.6,0.6c0.4,0.4,0.6,1,0.6,1.7v0.1c0,0.4-0.1,0.8-0.3,1.2c-0.2,0.4-0.4,0.6-0.8,0.8c-0.3,0.2-0.7,0.3-1.2,0.3
			c-0.7,0-1.2-0.2-1.6-0.6C318.2,636.5,318,636,318,635.2L318,635.2z M318.8,635.3c0,0.5,0.1,0.9,0.4,1.2c0.3,0.3,0.6,0.5,1,0.5
			s0.8-0.2,1-0.5c0.3-0.3,0.4-0.7,0.4-1.3c0-0.5-0.1-0.9-0.4-1.2c-0.3-0.3-0.6-0.5-1-0.5s-0.7,0.2-1,0.5S318.8,634.7,318.8,635.3z"
			/>
		<path id="XMLID_197_" class="st6" d="M324.3,633v0.6c0.4-0.4,0.9-0.7,1.5-0.7c1,0,1.6,0.5,1.6,1.6v3h-0.8v-3
			c0-0.3-0.1-0.6-0.2-0.7c-0.2-0.2-0.4-0.2-0.7-0.2c-0.3,0-0.5,0.1-0.7,0.2s-0.4,0.3-0.5,0.5v3.2h-0.8V633H324.3z"/>
		<path id="XMLID_199_" class="st6" d="M330.6,637.6c-0.7,0-1.2-0.2-1.6-0.6s-0.6-0.9-0.6-1.6v-0.1c0-0.5,0.1-0.9,0.3-1.2
			s0.4-0.6,0.8-0.8c0.3-0.2,0.7-0.3,1.1-0.3c0.6,0,1.1,0.2,1.5,0.6c0.4,0.4,0.5,0.9,0.5,1.7v0.3h-3.3c0,0.4,0.2,0.8,0.4,1.1
			c0.3,0.3,0.6,0.4,1,0.4c0.3,0,0.5-0.1,0.8-0.2c0.2-0.1,0.4-0.3,0.5-0.4l0.5,0.4C332.1,637.3,331.5,637.6,330.6,637.6z
			 M330.5,633.5c-0.3,0-0.6,0.1-0.9,0.3c-0.2,0.2-0.4,0.5-0.4,1h2.5v-0.1c0-0.4-0.1-0.7-0.3-0.9
			C331.2,633.6,330.9,633.5,330.5,633.5z"/>
		<path id="XMLID_202_" class="st6" d="M335.1,636.4l1.1-3.4h0.9l-2,5.2c-0.3,0.8-0.8,1.1-1.5,1.1h-0.2l-0.3-0.1v-0.6h0.2
			c0.3,0,0.5-0.1,0.7-0.2c0.2-0.1,0.3-0.3,0.4-0.6l0.2-0.5l-1.8-4.5h0.9L335.1,636.4z"/>
	</g>
</g>
<g id="XMLID_242_">
	
		<rect id="XMLID_274_" x="177" y="325.6" transform="matrix(-0.9044 0.4267 -0.4267 -0.9044 525.5451 575.9229)" width="42.5" height="42.5"/>
	<path id="XMLID_273_" class="st1" d="M190.2,334.5l-9.6,4.6c-0.9,0.4-1.1,1.9-0.6,2.9s1.7,1.8,2.6,1.3l5.2-2.5l-4.7,11.8
		c-0.4,1,0,2.1,1,2.6c0.9,0.5,2,0.1,2.3-0.9l5.1-13l3.1,6.5c0.5,1,1.7,1.4,2.6,1s1.4-1.6,0.9-2.6l-4.9-10.4
		C192.6,334.9,191.1,334.1,190.2,334.5z"/>
	<path id="XMLID_272_" class="st6" d="M202.4,348.4l9.6-4.6c0.9-0.4,1.3-1.5,0.8-2.5s-1.5-1.4-2.4-1l-5.2,2.5l4.6-12
		c0.4-1-0.1-2.2-1-2.7s-2.1-0.1-2.5,0.9l-5.2,13l-3.1-6.5c-0.5-1-1.4-1.6-2.2-1.1c-0.9,0.4-1,1.5-0.5,2.5l4.9,10.4
		C200.6,348.2,201.5,348.9,202.4,348.4z"/>
	<g id="XMLID_243_">
		<path id="XMLID_269_" class="st6" d="M189.9,359.3c0.1,0.3,0.2,0.6,0.2,0.8c0,0.3-0.1,0.5-0.2,0.7c-0.1,0.2-0.3,0.4-0.6,0.5
			c-0.3,0.1-0.5,0.2-0.8,0.1c-0.3,0-0.5-0.1-0.7-0.3s-0.4-0.4-0.5-0.7l-0.1-0.2c-0.1-0.3-0.2-0.6-0.2-0.8c0-0.3,0.1-0.5,0.2-0.7
			s0.3-0.4,0.6-0.5c0.3-0.1,0.5-0.2,0.8-0.1c0.3,0,0.5,0.1,0.7,0.3c0.2,0.2,0.4,0.4,0.5,0.7L189.9,359.3z M189.4,359.3
			c-0.2-0.4-0.4-0.6-0.6-0.7s-0.5-0.1-0.8,0s-0.4,0.3-0.5,0.6s0,0.6,0.1,0.9l0.1,0.2c0.2,0.3,0.4,0.6,0.6,0.7c0.2,0.1,0.5,0.1,0.8,0
			s0.4-0.3,0.5-0.6s0-0.6-0.1-0.9L189.4,359.3z"/>
		<path id="XMLID_267_" class="st6" d="M191.4,358c-0.1,0-0.1,0-0.2,0.1c-0.3,0.1-0.4,0.3-0.4,0.6l0.7,1.6l-0.4,0.2l-1-2.2l0.4-0.2
			l0.1,0.3c0-0.3,0.2-0.4,0.4-0.6c0.1,0,0.1-0.1,0.2-0.1L191.4,358z"/>
		<path id="XMLID_264_" class="st6" d="M194,359c0,0-0.1-0.1-0.2-0.2c-0.1,0.3-0.3,0.5-0.6,0.6c-0.2,0.1-0.5,0.1-0.7,0.1
			c-0.2-0.1-0.4-0.2-0.4-0.4c-0.1-0.2-0.1-0.5,0-0.7s0.4-0.4,0.7-0.6l0.4-0.2l-0.1-0.2c-0.1-0.1-0.2-0.2-0.3-0.3
			c-0.1,0-0.3,0-0.4,0.1c-0.1,0.1-0.3,0.2-0.3,0.3c-0.1,0.1-0.1,0.2,0,0.3l-0.4,0.2c-0.1-0.1-0.1-0.2,0-0.4c0-0.1,0.1-0.3,0.2-0.4
			s0.3-0.2,0.4-0.3c0.3-0.1,0.5-0.2,0.7-0.1c0.2,0.1,0.4,0.2,0.5,0.4l0.5,1c0.1,0.2,0.2,0.4,0.3,0.4l0,0L194,359z M193.2,359.1
			c0.1-0.1,0.2-0.1,0.3-0.3c0.1-0.1,0.1-0.2,0.1-0.4l-0.2-0.5l-0.3,0.2c-0.5,0.2-0.7,0.5-0.6,0.8c0.1,0.1,0.1,0.2,0.3,0.2
			C193,359.2,193.1,359.1,193.2,359.1z"/>
		<path id="XMLID_262_" class="st6" d="M194.4,356.2l0.1,0.3c0.1-0.3,0.3-0.5,0.6-0.7c0.5-0.2,0.9-0.1,1.1,0.4l0.7,1.5l-0.4,0.2
			l-0.7-1.5c-0.1-0.2-0.2-0.3-0.3-0.3c-0.1,0-0.3,0-0.4,0.1c-0.1,0.1-0.2,0.2-0.3,0.3c-0.1,0.1-0.1,0.2-0.1,0.4l0.7,1.6l-0.4,0.2
			l-1-2.2L194.4,356.2z"/>
		<path id="XMLID_259_" class="st6" d="M196.9,356.3c-0.2-0.3-0.2-0.7-0.1-0.9c0.1-0.3,0.3-0.5,0.5-0.6c0.3-0.1,0.6-0.2,0.8,0
			l-0.1-0.3l0.4-0.2l1,2.2c0.1,0.3,0.1,0.6,0,0.8c-0.1,0.3-0.3,0.5-0.6,0.6c-0.2,0.1-0.4,0.1-0.6,0.1s-0.4,0-0.5-0.1l0.1-0.3
			c0.3,0.1,0.5,0.1,0.8,0c0.2-0.1,0.3-0.2,0.4-0.4s0-0.3,0-0.5l-0.1-0.2c-0.1,0.3-0.3,0.4-0.5,0.6c-0.3,0.1-0.6,0.1-0.8,0
			C197.3,356.9,197.1,356.7,196.9,356.3z M197.3,356.2c0.1,0.2,0.3,0.4,0.4,0.5c0.2,0.1,0.4,0.1,0.6,0c0.3-0.1,0.4-0.3,0.4-0.6
			l-0.5-1c-0.2-0.2-0.5-0.2-0.7-0.1c-0.2,0.1-0.3,0.2-0.4,0.4C197.1,355.7,197.2,355.9,197.3,356.2z"/>
		<path id="XMLID_256_" class="st6" d="M201.1,355.8c-0.3,0.2-0.6,0.2-0.9,0.1c-0.3-0.1-0.5-0.3-0.7-0.6v-0.1
			c-0.1-0.2-0.2-0.4-0.1-0.7c0-0.2,0.1-0.4,0.2-0.6c0.1-0.2,0.3-0.3,0.5-0.4c0.3-0.1,0.6-0.2,0.9-0.1s0.5,0.3,0.6,0.7l0.1,0.2
			l-1.6,0.8c0.1,0.2,0.3,0.4,0.5,0.4c0.2,0.1,0.4,0.1,0.6,0c0.1-0.1,0.3-0.2,0.3-0.3c0.1-0.1,0.1-0.2,0.2-0.3l0.3,0.1
			C201.7,355.3,201.5,355.6,201.1,355.8z M200.1,353.8c-0.2,0.1-0.3,0.2-0.3,0.4c-0.1,0.2-0.1,0.4,0,0.6l1.2-0.6l0,0
			c-0.1-0.2-0.2-0.3-0.4-0.4C200.4,353.7,200.3,353.7,200.1,353.8z"/>
		<path id="XMLID_254_" class="st6" d="M202.8,351.3l2.2,1.9l-0.1-2.9l0.6-0.3l1.4,3l-0.4,0.2L206,352l-0.6-1.3l0.1,2.9l-0.3,0.2
			l-2.2-1.9l0.6,1.2l0.5,1.2l-0.4,0.2l-1.4-3L202.8,351.3z"/>
		<path id="XMLID_251_" class="st6" d="M206.9,351.6c-0.1-0.2-0.1-0.4-0.1-0.6s0.1-0.4,0.2-0.6c0.1-0.2,0.3-0.3,0.5-0.4
			c0.3-0.2,0.6-0.2,0.9-0.1s0.5,0.3,0.7,0.7l0,0c0.1,0.2,0.1,0.4,0.1,0.6c0,0.2-0.1,0.4-0.2,0.6s-0.3,0.3-0.5,0.4
			c-0.3,0.2-0.6,0.2-0.9,0.1C207.3,352.2,207.1,352,206.9,351.6L206.9,351.6z M207.3,351.5c0.1,0.2,0.3,0.4,0.5,0.5s0.4,0.1,0.6,0
			s0.3-0.3,0.4-0.5s0-0.4-0.1-0.7c-0.1-0.2-0.3-0.4-0.5-0.5c-0.2-0.1-0.4-0.1-0.6,0c-0.2,0.1-0.3,0.2-0.4,0.5
			C207.2,350.9,207.2,351.2,207.3,351.5z"/>
		<path id="XMLID_249_" class="st6" d="M209.5,349.1l0.1,0.3c0.1-0.3,0.3-0.5,0.6-0.7c0.5-0.2,0.9-0.1,1.1,0.4l0.7,1.5l-0.4,0.2
			l-0.7-1.5c-0.1-0.2-0.2-0.3-0.3-0.3c-0.1,0-0.3,0-0.4,0.1s-0.2,0.2-0.3,0.3c-0.1,0.1-0.1,0.2-0.1,0.4l0.7,1.6l-0.4,0.2l-1-2.2
			L209.5,349.1z"/>
		<path id="XMLID_246_" class="st6" d="M213.6,349.8c-0.3,0.2-0.6,0.2-0.9,0.1c-0.3-0.1-0.5-0.3-0.7-0.6v-0.1
			c-0.1-0.2-0.2-0.4-0.1-0.7c0-0.2,0.1-0.4,0.2-0.6c0.1-0.2,0.3-0.3,0.5-0.4c0.3-0.1,0.6-0.2,0.9-0.1s0.5,0.3,0.6,0.7l0.1,0.2
			l-1.6,0.8c0.1,0.2,0.3,0.4,0.5,0.4c0.2,0.1,0.4,0.1,0.6,0c0.1-0.1,0.3-0.2,0.3-0.3c0.1-0.1,0.1-0.2,0.2-0.3l0.3,0.1
			C214.3,349.4,214,349.7,213.6,349.8z M212.7,347.9c-0.2,0.1-0.3,0.2-0.3,0.4c-0.1,0.2-0.1,0.4,0,0.6l1.2-0.6l0,0
			c-0.1-0.2-0.2-0.3-0.4-0.4C213,347.8,212.8,347.8,212.7,347.9z"/>
		<path id="XMLID_244_" class="st6" d="M215.5,348.2l-0.2-1.9l0.4-0.2l0.2,3c0,0.4-0.1,0.7-0.5,0.9h-0.1h-0.2l-0.1-0.3h0.1
			c0.1-0.1,0.2-0.1,0.3-0.2c0.1-0.1,0.1-0.2,0.1-0.4v-0.3l-1.9-1.8l0.4-0.2L215.5,348.2z"/>
	</g>
</g>
<g id="XMLID_58_">
	<path id="XMLID_419_" class="st7" d="M383.7,661c0,0,8.2,5.6,9.5,10.1s0.9,4,0.9,4v0.4l7.1-17.6h7.5l-11.3,25.6H390L383.7,661z"/>
	<polygon id="XMLID_418_" class="st7" points="411.5,657.9 418.6,657.9 414,683.4 407,683.4 	"/>
	<path id="XMLID_415_" class="st7" d="M438.7,663.8l0.9-5.3c0,0-11-3.7-16.4,2.7c-4.8,5.6,0.9,9.7,2.2,10.4c1.2,0.7,7.1,3,5.7,5.1
		c-1.4,2.1-4,2.8-11.5,0.4l-1,5.6c0,0,5.7,1.7,10.2,1.2c4.6-0.4,10.3-3.9,9.9-8.9c-0.4-5.1-5.8-6.2-9.1-8.4
		C426.3,664.4,431.5,660.2,438.7,663.8z"/>
	<path id="XMLID_59_" class="st7" d="M457.7,657.9c0,0-4.8,0-6.7,0s-2.9,3.4-3.5,4.9s-9.2,20.7-9.2,20.7h7.3l1.6-3.9h8.8l0.9,3.9
		h6.5L457.7,657.9z M449,674.6l3.8-9.7l2.2,9.7H449z"/>
	<path id="XMLID_412_" class="st8" d="M393,670.6c0,0-1.7-8.3-2.1-11.1c-0.4-2.1-3.8-1.7-5.2-1.7s-9.2,0-9.2,0
		S387.4,660.5,393,670.6z"/>
</g>
<g id="XMLID_143_">
	<path id="XMLID_344_" class="st7" d="M294.5,750.1c0,0,3.2,3.5,3.3,5.7c0.1,2.2,0,1.9,0,1.9v0.2l5.1-7.4l3.4,0.8l-7.9,10.6
		l-3.4-0.8L294.5,750.1z"/>
	<polygon id="XMLID_334_" class="st7" points="307.6,751.6 310.9,752.3 306.1,763.6 302.8,762.9 	"/>
	<path id="XMLID_332_" class="st7" d="M319.5,757.1l1-2.3c0,0-4.7-2.9-7.8-0.5c-2.8,2.1-0.6,4.6-0.1,5s3,2.1,2.1,3
		c-0.9,0.8-2.1,0.9-5.4-1l-1,2.5c0,0,2.4,1.4,4.6,1.7c2.1,0.3,5.1-0.7,5.5-3.1s-2-3.5-3.3-4.8C313.7,756.1,316.6,754.8,319.5,757.1z
		"/>
	<path id="XMLID_328_" class="st7" d="M328.9,756.4c0,0-2.2-0.5-3.1-0.7s-1.7,1.3-2.1,1.9c-0.4,0.6-6.4,8.6-6.4,8.6l3.4,0.8l1.1-1.6
		l4,0.9v1.9l3,0.7L328.9,756.4z M323.1,763.2l2.8-4.1v4.7L323.1,763.2z"/>
	<path id="XMLID_146_" class="st8" d="M297.8,755.5c0,0,0.1-4,0.2-5.3c0.1-1-1.6-1.2-2.2-1.3c-0.7-0.2-4.2-1-4.2-1
		S296.2,750.3,297.8,755.5z"/>
</g>
<g id="XMLID_138_">
	<path id="XMLID_589_" class="st9" d="M115.4,713.4H62.9c-2.3,0-4.2,1.8-4.2,4.2v60.5c0,2.3,1.9,4.2,4.2,4.2h52.5
		c2.3,0,4.1-1.9,4.1-4.2v-60.5C119.5,715.3,117.7,713.4,115.4,713.4z M73.1,750c0,0-0.1,1.2,0,2.6H73C73,751.3,73.1,750.1,73.1,750
		l-1.5,0.1c0,0,0,1.1,0.1,2.5h-0.1c-0.1-1.4-0.1-2.5-0.1-2.6v-0.1L73.1,750L73.1,750z"/>
	<g id="XMLID_124_">
		<path id="XMLID_136_" class="st1" d="M90.4,748.7c0-0.2,0-0.3-0.2-0.3s-0.2,0.1-0.2,0.3v1.8h-0.8v-1.8c0-0.2,0-0.3-0.2-0.3
			s-0.2,0.1-0.2,0.3v1.8H88v-1.8c0-0.3,0-0.5,0.1-0.7s0.4-0.4,0.7-0.4c0.3,0,0.5,0.1,0.7,0.4c0.2-0.3,0.4-0.4,0.7-0.4
			c0.3,0,0.5,0.1,0.6,0.3c0.2,0.2,0.2,0.5,0.2,0.8v1.8h-0.8v-1.8H90.4z"/>
		<path id="XMLID_133_" class="st1" d="M91.8,748.1c0.3-0.3,0.6-0.4,1-0.4s0.8,0.2,1,0.4c0.3,0.3,0.4,0.6,0.4,1
			c0,0.3-0.1,0.7-0.3,0.9c-0.3,0.3-0.7,0.5-1.1,0.5c-0.3,0-0.7-0.1-0.9-0.3c-0.3-0.3-0.5-0.7-0.5-1.1
			C91.4,748.7,91.6,748.3,91.8,748.1z M92.9,749.7c0.3,0,0.6-0.3,0.6-0.6s-0.3-0.6-0.6-0.6c-0.3,0-0.6,0.3-0.6,0.6
			C92.2,749.4,92.5,749.7,92.9,749.7z"/>
		<path id="XMLID_131_" class="st1" d="M94.6,750.5v-2.8h1c0.6,0,0.9,0.2,0.9,0.7c0,0.2-0.1,0.4-0.3,0.6c0.3,0.2,0.4,0.4,0.4,0.7
			c0,0.5-0.3,0.8-0.9,0.8c-0.1,0-0.1,0-0.2,0v-0.7h0.2c0.1,0,0.2,0,0.2-0.2c0-0.1-0.1-0.2-0.2-0.2h-0.2v-0.7h0.1
			c0.1,0,0.2,0,0.2-0.2c0-0.1-0.1-0.2-0.2-0.2h-0.2v2.1h-0.8V750.5z"/>
		<path id="XMLID_129_" class="st1" d="M96.9,747.7h0.8v2.8h-0.8V747.7z"/>
		<path id="XMLID_127_" class="st1" d="M98.9,747.7v1.6c0,0.2,0.1,0.3,0.3,0.3h0.1v0.8h-0.2c-0.3,0-0.5-0.1-0.7-0.2
			c-0.3-0.3-0.3-0.6-0.3-1v-0.1v-1.5h0.8V747.7z"/>
		<path id="XMLID_125_" class="st1" d="M100.6,750.5h-0.1c-0.2,0-0.4,0-0.6-0.1c-0.3-0.1-0.4-0.4-0.4-0.6v-1c0-0.3,0-0.6,0.3-0.8
			c0.2-0.2,0.4-0.2,0.7-0.2h0.5v0.8h-0.5c-0.1,0-0.2,0-0.2,0.1s0.1,0.1,0.2,0.1h0.5v0.6h-0.6c-0.1,0-0.2,0-0.2,0.1s0.1,0.1,0.2,0.1
			h0.6v0.8h-0.4V750.5z"/>
	</g>
	<g id="XMLID_112_">
		<path id="XMLID_122_" class="st1" d="M90.4,752.7c0-0.2,0-0.3-0.2-0.3s-0.2,0.1-0.2,0.3v1.8h-0.8v-1.8c0-0.2,0-0.3-0.2-0.3
			s-0.2,0.1-0.2,0.3v1.8H88v-1.8c0-0.3,0-0.5,0.1-0.7s0.4-0.4,0.7-0.4c0.3,0,0.5,0.1,0.7,0.4c0.2-0.3,0.4-0.4,0.7-0.4
			c0.3,0,0.5,0.1,0.6,0.3c0.2,0.2,0.2,0.5,0.2,0.8v1.8h-0.8v-1.8H90.4z"/>
		<path id="XMLID_119_" class="st1" d="M91.8,752.1c0.3-0.3,0.6-0.4,1-0.4s0.8,0.2,1,0.4c0.3,0.3,0.4,0.6,0.4,1
			c0,0.3-0.1,0.7-0.3,0.9c-0.3,0.3-0.7,0.5-1.1,0.5c-0.3,0-0.7-0.1-0.9-0.3c-0.3-0.3-0.5-0.7-0.5-1.1
			C91.4,752.7,91.6,752.3,91.8,752.1z M92.9,753.7c0.3,0,0.6-0.3,0.6-0.6s-0.3-0.6-0.6-0.6c-0.3,0-0.6,0.3-0.6,0.6
			C92.2,753.4,92.5,753.7,92.9,753.7z"/>
		<path id="XMLID_117_" class="st1" d="M94.6,753C94.6,753,94.6,752.9,94.6,753c0-0.3,0-0.5,0.1-0.8c0.2-0.4,0.5-0.6,0.9-0.6
			c0.3,0,0.6,0.2,0.8,0.4c0.2,0.3,0.2,0.6,0.2,0.9v1.5h-0.8v-1.7c0-0.2,0-0.3-0.2-0.3c-0.1,0-0.2,0.1-0.2,0.3v1.7h-0.8V753z"/>
		<path id="XMLID_115_" class="st1" d="M98,754.5h-0.1c-0.2,0-0.4,0-0.6-0.1c-0.3-0.1-0.4-0.4-0.4-0.6v-1c0-0.3,0-0.6,0.3-0.8
			c0.2-0.2,0.4-0.2,0.7-0.2h0.5v0.8h-0.5c-0.1,0-0.2,0-0.2,0.1s0.1,0.1,0.2,0.1h0.5v0.6h-0.6c-0.1,0-0.2,0-0.2,0.1s0.1,0.1,0.2,0.1
			h0.6v0.8H98V754.5z"/>
		<path id="XMLID_113_" class="st1" d="M99.3,754.5V753l-0.8-1.3h0.8l0.4,0.5l0.4-0.5h0.8l-0.8,1.3v1.5H99.3z"/>
	</g>
	<path id="XMLID_94_" class="st1" d="M68.4,758.3c-0.2,0-0.4-0.1-0.6-0.1c0,0.1,0,0.1,0.1,0.2c0.2,0,0.4,0.1,0.6,0.1
		C68.5,758.4,68.5,758.4,68.4,758.3z M67.8,756.7c-0.3-0.7-0.5-1.4-0.6-2.1c0-0.1,0-0.1,0-0.2H67v1.2c0.1,0.3,0.2,0.5,0.3,0.8
		c0,0.1,0,0.1,0.1,0.2c0,0.1,0,0.1,0.1,0.2c0.2,0,0.4,0.1,0.6,0.1C67.9,756.8,67.9,756.8,67.8,756.7z M76.2,752.4h-0.1
		c-1.1,0.1-2.1,0.2-3,0.2H73h-0.1c-0.4,0-0.7,0-1.1,0c0,0.2,0,0.3,0.1,0.5c0.3,0,0.7,0,1,0l0,0H73h0.1c0.9,0,1.9-0.1,2.9-0.2h0.1
		h0.1C76.2,752.7,76.2,752.6,76.2,752.4L76.2,752.4z M78.8,751.9c0.1-2.7-0.3-5.1-0.8-6.9c0.7-0.2,1.5-0.4,2.3-0.8
		c1,1.5,1.4,3,1.5,3l0.5-0.1c0-0.1-1.8-6.6-7.7-6.8c-2.8-0.1-5.6,1.1-7.7,3.2c-2.2,2.3-3.4,5.4-3.3,8.5c0.3,6.5,5.9,10.3,9.6,10.4
		v-0.1l0,0l0.4-0.3c-0.7-1.1-1.3-2.2-1.7-3.2c1,0.2,2,0.3,3.1,0.3c0.8,0,1.5-0.1,2.3-0.2v0.1l0.5,0.1c0-0.1,0.1-0.2,0.1-0.3
		c0.2,0,0.3-0.1,0.5-0.1l-0.1-0.5c-0.1,0-0.1,0-0.2,0c0.6-2.1,0.9-4.1,1-5.9c1-0.2,2.1-0.5,3.3-0.9l-0.2-0.5
		C80.8,751.4,79.8,751.7,78.8,751.9z M80,743.9c-0.7,0.3-1.4,0.5-2.1,0.7c-0.5-1.6-1.1-2.7-1.4-3.3C78,741.8,79.2,742.8,80,743.9z
		 M75.8,741.1c0.2,0.3,1,1.6,1.6,3.6c-1.9,0.4-3.6,0.5-5.2,0.5c1.2-2.3,2.6-3.8,3-4.2C75.4,741,75.6,741,75.8,741.1z M74.5,740.9
		C74.5,740.9,74.6,740.9,74.5,740.9c-0.6,0.7-1.8,2.1-2.9,4.2c-1.2-0.1-2.3-0.3-3.1-0.5C70.8,741.8,74.2,741,74.5,740.9z
		 M70.1,750.2C70,750.3,70,750.3,70.1,750.2c0,0.3-0.1,0.5-0.1,0.8v0.1c0,0.1,0,0.1,0,0.2c0,0.4,0,0.8,0,1.2c-1-0.2-1.9-0.4-2.7-0.6
		c-0.1,0-0.2-0.1-0.3-0.1s-0.2-0.1-0.2-0.1c0-0.4,0-0.7,0-1.1v-0.1v-0.1c0-1.6,0.4-3,1-4.2c0.2-0.4,0.4-0.7,0.6-1
		c0.8,0.2,1.9,0.4,3.2,0.5c-0.2,0.4-0.3,0.7-0.5,1.1c-0.4,1-0.7,2.1-0.9,3.3C70.1,750.1,70.1,750.2,70.1,750.2z M68.2,757.6
		c-0.1-0.2-0.1-0.4-0.2-0.6v-0.1c0-0.1,0-0.1-0.1-0.1c-0.3-0.7-0.5-1.4-0.6-2.1c0-0.1,0-0.1,0-0.2v-0.1c-0.1-0.2-0.1-0.5-0.2-0.7
		v-0.1c-0.1-0.4-0.1-0.8-0.2-1.2c0.1,0,0.1,0,0.2,0.1c0.1,0,0.2,0.1,0.3,0.1c0.8,0.2,1.7,0.5,2.7,0.6c0.1,1.6,0.4,3.4,1.1,5.3
		c-0.4-0.1-0.9-0.2-1.3-0.3c-0.1,0-0.2,0-0.3-0.1C69,757.8,68.6,757.7,68.2,757.6z M67.2,744c1.5-1.5,3.3-2.5,5.1-2.9
		c-1.3,0.6-3,1.6-4.3,3.4c-0.4-0.1-0.8-0.2-1-0.3C67.1,744.1,67.1,744.1,67.2,744z M66.7,744.6c0.2,0.1,0.6,0.2,1.1,0.4
		c-0.2,0.3-0.4,0.6-0.5,0.9c-0.6,1.3-1,2.8-1,4.4v0.1c0,0.3,0,0.7,0,1c-0.1,0-0.2-0.1-0.3-0.1c-1-0.5-1.6-0.9-1.8-1.1
		C64.4,748.2,65.3,746.2,66.7,744.6z M64,752.2c0-0.4,0-0.9,0-1.3c0.4,0.3,1,0.7,1.9,1.1c0.1,0,0.2,0.1,0.3,0.1l0,0
		c0.1,1.1,0.3,2.3,0.7,3.6c0.1,0.3,0.2,0.5,0.3,0.8c0,0.1,0,0.1,0.1,0.2c0,0.1,0,0.1,0.1,0.2v0.1c0.1,0.2,0.1,0.3,0.2,0.5
		c-0.5-0.2-1-0.3-1.3-0.5c-0.1,0-0.2-0.1-0.3-0.1c-0.4-0.1-0.6-0.2-0.7-0.3C64.6,755.3,64.1,753.8,64,752.2z M66,757.8L66,757.8
		L66,757.8c-0.1-0.2-0.2-0.3-0.3-0.5c0.1,0,0.2,0.1,0.3,0.1s0.2,0.1,0.3,0.1c0.4,0.2,1,0.3,1.6,0.5c0,0.1,0,0.1,0.1,0.2
		c0,0.1,0,0.1,0.1,0.2v0.1c0.3,0.7,0.6,1.4,0.9,2.1C67.8,759.9,66.8,758.9,66,757.8z M72.9,762c-1-0.1-2.1-0.4-3.2-1
		c-0.4-0.8-0.8-1.7-1.2-2.5v-0.1c0-0.1,0-0.1-0.1-0.2c0,0,0-0.1-0.1-0.1c0.2,0.1,0.5,0.1,0.8,0.2c0.1,0,0.2,0.1,0.3,0.1
		s0.2,0,0.3,0.1c0.5,0.1,1,0.2,1.5,0.3C71.6,759.9,72.2,760.9,72.9,762z M77.3,758.5c-1.8,0.4-3.9,0.2-5.7-0.1
		c-0.7-1.8-1.1-3.6-1.2-5.3c0.4,0,0.7,0.1,1.1,0.1h0.1h0.1c0.3,0,0.7,0,1,0l0,0h0.1h0.1c0.9,0,1.9-0.1,2.9-0.2h0.1H76
		c0.4-0.1,0.7-0.1,1.1-0.2h0.1h0.1c0.2,0,0.5-0.1,0.7-0.1C78.2,754.4,77.9,756.3,77.3,758.5z M78.3,752c-0.2,0.1-0.5,0.1-0.7,0.1
		h-0.1h-0.1c-0.4,0.1-0.7,0.1-1.1,0.2h-0.1h-0.1c-1.1,0.1-2.1,0.2-3,0.2H73h-0.1c-0.4,0-0.7,0-1.1,0h-0.1h-0.1
		c-0.4,0-0.7-0.1-1.1-0.1c0-0.5,0-1,0.1-1.5c0-0.1,0-0.1,0-0.2v-0.1c0,0,0,0,0-0.1v-0.1c0-0.1,0-0.1,0-0.2c0.2-1.1,0.5-2.3,0.9-3.4
		c0.2-0.4,0.4-0.9,0.5-1.3c0.4,0,0.8,0,1.2,0c0.7,0,1.5,0,2.3-0.1h0.1h0.1c0.4-0.1,0.8-0.1,1.2-0.2H77h0.1c0.1,0,0.2,0,0.3-0.1
		C78,747,78.4,749.3,78.3,752z"/>
	<g id="XMLID_87_" class="st10">
		<path id="XMLID_93_" class="st1" d="M67,753.6h2.5v0.8H67v2.5h0.1c0.8,0.2,2,0.2,2.4,0.2v1.3c-1.5,0-2.9-0.6-3.3-0.8v-7.1
			c1.4,0.1,3-0.4,3.4-0.5l1,0.6c-0.9,0.8-3.4,0.9-3.4,0.9h-0.1L67,753.6L67,753.6z"/>
		<path id="XMLID_92_" class="st9" d="M69.5,756.9L69.5,756.9c-0.4,0.1-1.6,0.1-2.4-0.1H67v-0.1C68,757,69.5,756.9,69.5,756.9z"/>
		<rect id="XMLID_91_" x="67" y="754.3" class="st11" width="2.5" height="0.1"/>
		<rect id="XMLID_90_" x="67" y="753.4" class="st11" width="2.5" height="0.1"/>
		<path id="XMLID_89_" class="st9" d="M67.1,751.5c0,0,2.5,0,3.4-0.9l-1-0.6c-0.3,0.1-1.9,0.6-3.4,0.5v7.1c0.3,0.2,1.8,0.8,3.3,0.8
			v0.1c-1.8,0-3.5-0.8-3.5-0.8v-7.3c1.8,0.2,3.6-0.5,3.6-0.5l1.2,0.7C69.8,751.6,67,751.6,67.1,751.5L67.1,751.5L67.1,751.5z"/>
		<path id="XMLID_88_" class="st9" d="M67.2,751.8v1.6h2.5v1.3h-2.5v2.1c1,0.2,2.4,0.2,2.4,0.2h0.1v1.8h-0.1h-0.1
			c-1.7,0-3.4-0.8-3.4-0.9H66v-0.1c0,0,1.8,0.9,3.5,0.8V757c0,0-1.5,0-2.5-0.2v-2.3h2.5v-1H67v-1.8c0,0,2.8,0,3.7-1l-1.2-0.7
			c0,0-1.8,0.7-3.6,0.5v-0.1H66c1.5,0.2,3.4-0.5,3.5-0.5h0.1l1.3,0.8l-0.1,0.1C70,751.6,67.8,751.8,67.2,751.8z"/>
	</g>
	<g id="XMLID_79_">
		<path id="XMLID_86_" class="st1" d="M77.4,752c0,0.1,0,0.2,0,0.3c0,0.2,0,0.4,0,0.5c-0.4,4.9-3.2,5.1-3.2,5.1
			c-0.4,0-0.7-0.1-1-0.4c-0.8-0.8-1.2-2.7-1.4-4.3c0-0.2,0-0.4-0.1-0.5c-0.1-1.2-0.1-2.1-0.1-2.5h1.2c0,0.4-0.1,1.4,0,2.5
			c0,0.2,0,0.4,0,0.5c0.1,1.3,0.3,2.6,0.8,3.2c0.1,0.1,0.2,0.2,0.3,0.2c0.1,0.1,0.2,0.1,0.4,0.1s0.4-0.1,0.6-0.2
			c0.2-0.1,0.3-0.2,0.4-0.3c0.6-0.7,0.8-1.9,0.9-3.3c0-0.2,0-0.3,0-0.5c0.1-2.8-0.4-6-0.6-6.9v-0.1l1.2-0.2v0.1
			C77.1,745.8,77.5,747.3,77.4,752z"/>
		<path id="XMLID_84_" class="st9" d="M77.2,745.3c-0.1-0.2-0.1-0.2-0.1-0.2V745l-1.6,0.2v0.1c0,0,0,0.1,0,0.3
			c0.1,0.9,0.6,4.2,0.6,6.9c0,0.2,0,0.4,0,0.5c-0.1,1.3-0.3,2.5-0.8,3.1c-0.2,0.3-0.5,0.4-0.9,0.4c-0.2,0-0.4,0-0.5-0.2
			c-0.5-0.5-0.7-1.8-0.8-3.1c0-0.2,0-0.4,0-0.5H73c0,0.2,0,0.4,0,0.5c0.1,1.5,0.3,3,1,3.4c0.1,0,0.3,0.1,0.4,0.1
			c0.2,0,0.4,0,0.6-0.1c0.8-0.5,1.1-1.9,1.2-3.6c0-0.2,0-0.3,0-0.5c0.1-2.8-0.4-6-0.6-6.9c0-0.2,0-0.2,0-0.2l1.4-0.2
			c0,0,0,0,0.1,0.2c0.2,0.5,0.6,2.1,0.5,6.7c0,0.1,0,0.1,0,0.2c0,0.2,0,0.4,0,0.5c-0.4,5.2-3.4,5.3-3.4,5.3c-1.7,0-2.3-2.7-2.5-4.9
			c0-0.2,0-0.4,0-0.5h-0.1c0,0.2,0,0.4,0,0.5c0.2,1.7,0.6,3.6,1.5,4.5c0.3,0.3,0.7,0.5,1.1,0.5l0,0c0,0,3.1-0.2,3.5-5.5
			c0-0.2,0-0.3,0-0.5c0-0.1,0-0.1,0-0.2C77.8,747.5,77.4,745.8,77.2,745.3z"/>
		<path id="XMLID_83_" class="st9" d="M73.1,750c0,0-0.1,1.2,0,2.6H73C73,751.3,73.1,750.1,73.1,750l-1.5,0.1c0,0,0,1.1,0.1,2.5
			h-0.1c-0.1-1.4-0.1-2.5-0.1-2.6v-0.1L73.1,750L73.1,750z"/>
		<path id="XMLID_82_" class="st9" d="M73.9,756.6c-0.1,0-0.2-0.1-0.3-0.2c-0.5-0.6-0.8-1.9-0.8-3.2c0-0.2,0-0.4,0-0.5
			c0-1.1,0-2.1,0-2.5h0.1c0,0-0.1,1.2-0.1,2.5c0,0.2,0,0.4,0,0.5C73,754.7,73.3,756.2,73.9,756.6z"/>
		<path id="XMLID_81_" class="st9" d="M77.5,752c0,0.1,0,0.1,0,0.2c0,0.2,0,0.4,0,0.5c-0.4,5.2-3.4,5.3-3.4,5.3
			c-1.7,0-2.3-2.7-2.5-4.9c0-0.2,0-0.4,0-0.5c-0.1-1.4-0.1-2.5-0.1-2.5h0.1c0,0.3,0,1.3,0.1,2.5c0,0.2,0,0.4,0.1,0.5
			c0.2,1.6,0.6,3.5,1.4,4.3c0.3,0.3,0.6,0.4,1,0.4c0,0,2.8-0.2,3.2-5.1c0-0.2,0-0.3,0-0.5C77.4,752.1,77.4,752,77.5,752
			c0-4.8-0.4-6.3-0.6-6.8v-0.1l-1.2,0.2v0.1c0.1,0.9,0.6,4.1,0.6,6.9c0,0.2,0,0.4,0,0.5c-0.1,1.4-0.3,2.7-0.9,3.3
			c-0.1,0.2-0.3,0.3-0.4,0.3c0.8-0.5,1.1-1.9,1.2-3.6c0-0.2,0-0.3,0-0.5c0.1-2.8-0.4-6-0.6-6.9c0-0.2,0-0.2,0-0.2L77,745
			c0,0,0,0,0.1,0.2C77.2,745.8,77.7,747.4,77.5,752z"/>
	</g>
	<path id="XMLID_67_" class="st1" d="M100.1,727.9c-5.6-0.1-9,0-13.4,0s-4.7,4.2-4.7,6.3s0,5.1,0,5.1l2,1.2v-8.2h19.6l0.3,18.9h1.5
		v-18.4C105.4,732.8,105.7,728,100.1,727.9z M97.6,730h-7.8v-0.8h7.8V730z"/>
	<path id="XMLID_66_" class="st1" d="M112.5,751l-2.1,5.9l-1.5-1.4c0,0-4.6,6.3-15.4,3.7c0,0,9.4,0.3,13.7-5.5c0,0-1.8-1.8-1.5-1.8
		C105.8,751.7,112.5,751,112.5,751z"/>
	<path id="XMLID_63_" class="st1" d="M103.4,761.2v9.1H84.3v-12.6L82,760c0,0,0,6.8,0,8.9c0,2.1,1.1,6,4.8,6h14.9
		c4,0,4.2-4.5,4.2-4.5V760L103.4,761.2z M94.1,773.7c-0.8,0-1.4-0.6-1.4-1.4s0.6-1.4,1.4-1.4s1.4,0.6,1.4,1.4S94.9,773.7,94.1,773.7
		z"/>
	<path id="XMLID_62_" class="st1" d="M75.3,738.8c0,0,11.9,0.8,11.9,9.5c0,8.6-12.2,16.1-17.3,17.2c0,0,13.4-7,13.3-17.1
		C83.2,740.5,75.3,738.8,75.3,738.8z"/>
	<path id="XMLID_61_" class="st1" d="M103,735.7c-5.2-3.3-10,4.4-10,4.4l1.8,1.4l-6.6,2.7l0.8-6.5l1.4,1.2c1.5-2.5,5.7-5.3,8.4-5.4
		C101.3,733.2,103,735.7,103,735.7z"/>
</g>
<g id="XMLID_350_">
	<path id="XMLID_424_" class="st9" d="M151.6,434.4h-37.4c-1.7,0-3,1.3-3,3v43c0,1.7,1.3,3,3,3h37.4c1.7,0,2.9-1.4,2.9-3v-43
		C154.6,435.7,153.3,434.4,151.6,434.4z M121.5,460.4c0,0-0.1,0.9,0,1.9h-0.1C121.3,461.3,121.4,460.5,121.5,460.4l-1.1,0.1
		c0,0,0,0.8,0.1,1.8h-0.1c-0.1-1-0.1-1.8-0.1-1.8v-0.1H121.5L121.5,460.4z"/>
	<g id="XMLID_404_">
		<path id="XMLID_422_" class="st1" d="M133.8,459.5c0-0.1,0-0.2-0.1-0.2s-0.1,0.1-0.1,0.2v1.3H133v-1.3c0-0.1,0-0.2-0.1-0.2
			s-0.1,0.1-0.1,0.2v1.3h-0.6v-1.3c0-0.2,0-0.4,0.1-0.5c0.1-0.2,0.3-0.3,0.5-0.3s0.4,0.1,0.5,0.3c0.1-0.2,0.3-0.3,0.5-0.3
			s0.3,0.1,0.4,0.2s0.1,0.3,0.1,0.5v1.3h-0.6v-1.2H133.8z"/>
		<path id="XMLID_417_" class="st1" d="M134.9,459c0.2-0.2,0.5-0.3,0.7-0.3c0.3,0,0.5,0.1,0.7,0.3c0.2,0.2,0.3,0.5,0.3,0.7
			s-0.1,0.5-0.2,0.7c-0.2,0.2-0.5,0.4-0.8,0.4c-0.2,0-0.5-0.1-0.6-0.2c-0.2-0.2-0.4-0.5-0.4-0.8C134.6,459.5,134.7,459.2,134.9,459z
			 M135.6,460.2c0.2,0,0.4-0.2,0.4-0.4c0-0.2-0.2-0.4-0.4-0.4c-0.2,0-0.4,0.2-0.4,0.4C135.1,460,135.3,460.2,135.6,460.2z"/>
		<path id="XMLID_411_" class="st1" d="M136.8,460.7v-2h0.7c0.4,0,0.6,0.2,0.6,0.5c0,0.2-0.1,0.3-0.2,0.4c0.2,0.1,0.3,0.3,0.3,0.5
			c0,0.3-0.2,0.6-0.6,0.6h-0.1v-0.5h0.1c0.1,0,0.1,0,0.1-0.1s0-0.1-0.1-0.1h-0.1v-0.5l0,0c0.1,0,0.1,0,0.1-0.1s0-0.1-0.1-0.1h-0.1
			v1.5L136.8,460.7L136.8,460.7z"/>
		<path id="XMLID_409_" class="st1" d="M138.4,458.8h0.6v2h-0.6V458.8z"/>
		<path id="XMLID_407_" class="st1" d="M139.9,458.8v1.2c0,0.2,0.1,0.2,0.2,0.2c0,0,0,0,0.1,0v0.6H140c-0.2,0-0.4,0-0.5-0.2
			c-0.2-0.2-0.2-0.4-0.2-0.7c0,0,0,0,0-0.1v-1.1h0.6V458.8z"/>
		<path id="XMLID_405_" class="st1" d="M141.1,460.7C141.1,460.7,141,460.7,141.1,460.7c-0.2,0-0.3,0-0.5-0.1s-0.3-0.3-0.3-0.5v-0.7
			c0-0.2,0-0.4,0.2-0.6c0.1-0.1,0.3-0.1,0.5-0.1h0.4v0.6H141c-0.1,0-0.1,0-0.1,0.1s0,0.1,0.1,0.1h0.4v0.4H141c-0.1,0-0.1,0-0.1,0.1
			s0,0.1,0.1,0.1h0.4v0.6H141.1z"/>
	</g>
	<g id="XMLID_392_">
		<path id="XMLID_402_" class="st1" d="M133.8,462.3c0-0.1,0-0.2-0.1-0.2s-0.1,0.1-0.1,0.2v1.3H133v-1.3c0-0.1,0-0.2-0.1-0.2
			s-0.1,0.1-0.1,0.2v1.3h-0.6v-1.3c0-0.2,0-0.4,0.1-0.5c0.1-0.2,0.3-0.3,0.5-0.3s0.4,0.1,0.5,0.3c0.1-0.2,0.3-0.3,0.5-0.3
			s0.3,0.1,0.4,0.2s0.1,0.3,0.1,0.5v1.3h-0.6v-1.2H133.8z"/>
		<path id="XMLID_399_" class="st1" d="M134.9,461.9c0.2-0.2,0.5-0.3,0.7-0.3c0.3,0,0.5,0.1,0.7,0.3c0.2,0.2,0.3,0.5,0.3,0.7
			s-0.1,0.5-0.2,0.7c-0.2,0.2-0.5,0.4-0.8,0.4c-0.2,0-0.5-0.1-0.6-0.2c-0.2-0.2-0.4-0.5-0.4-0.8
			C134.6,462.3,134.7,462.1,134.9,461.9z M135.6,463.1c0.2,0,0.4-0.2,0.4-0.4c0-0.2-0.2-0.4-0.4-0.4c-0.2,0-0.4,0.2-0.4,0.4
			C135.1,462.9,135.3,463.1,135.6,463.1z"/>
		<path id="XMLID_397_" class="st1" d="M136.8,462.5L136.8,462.5c0-0.2,0-0.4,0.1-0.5c0.1-0.3,0.4-0.4,0.6-0.4s0.4,0.1,0.6,0.3
			c0.1,0.2,0.1,0.4,0.1,0.7v1.1h-0.6v-1.2c0-0.1,0-0.2-0.1-0.2s-0.1,0.1-0.1,0.2v1.2h-0.6V462.5z"/>
		<path id="XMLID_395_" class="st1" d="M139.2,463.6L139.2,463.6c-0.2,0-0.3,0-0.5-0.1s-0.3-0.3-0.3-0.5v-0.7c0-0.2,0-0.4,0.2-0.6
			c0.1-0.1,0.3-0.1,0.5-0.1h0.4v0.6h-0.4c-0.1,0-0.1,0-0.1,0.1s0,0.1,0.1,0.1h0.4v0.4h-0.4c-0.1,0-0.1,0-0.1,0.1s0,0.1,0.1,0.1h0.4
			v0.6H139.2z"/>
		<path id="XMLID_393_" class="st1" d="M140.2,463.6v-1.1l-0.6-0.9h0.6l0.3,0.4l0.3-0.4h0.6l-0.6,0.9v1.1H140.2z"/>
	</g>
	<path id="XMLID_374_" class="st1" d="M118.2,466.3c-0.1,0-0.3-0.1-0.4-0.1c0,0,0,0.1,0.1,0.1s0.3,0.1,0.4,0.1
		C118.2,466.4,118.2,466.4,118.2,466.3z M117.8,465.2c-0.2-0.5-0.3-1-0.5-1.5v-0.1h-0.1v0.8c0.1,0.2,0.1,0.4,0.2,0.6
		c0,0.1,0,0.1,0.1,0.2v0.1c0.1,0,0.3,0,0.4,0.1C117.8,465.3,117.8,465.2,117.8,465.2z M123.7,462.1
		C123.7,462.1,123.6,462.1,123.7,462.1c-0.9,0.1-1.6,0.2-2.2,0.2h-0.1h-0.1c-0.3,0-0.5,0-0.8,0c0,0.1,0,0.2,0,0.4c0.2,0,0.5,0,0.7,0
		l0,0h0.1h0.1c0.6,0,1.3-0.1,2.1-0.2h0.1h0.1C123.8,462.4,123.8,462.2,123.7,462.1L123.7,462.1z M125.6,461.8c0.1-2-0.2-3.6-0.6-4.9
		c0.5-0.1,1.1-0.3,1.6-0.5c0.7,1.1,1,2.1,1,2.2l0.3-0.1c0,0-1.3-4.7-5.5-4.8c-2-0.1-4,0.8-5.5,2.3c-1.6,1.6-2.5,3.8-2.4,6.1
		c0.2,4.6,4.2,7.3,6.8,7.4v-0.1l0,0l0.3-0.2c-0.5-0.8-0.9-1.5-1.2-2.3c0.7,0.1,1.4,0.2,2.2,0.2c0.6,0,1.1,0,1.6-0.1c0,0,0,0,0,0.1
		l0.3,0.1c0-0.1,0-0.2,0.1-0.2s0.2-0.1,0.3-0.1l-0.1-0.3h-0.1c0.4-1.5,0.6-2.9,0.7-4.2c0.7-0.2,1.5-0.4,2.3-0.6l-0.1-0.3
		C127,461.4,126.3,461.6,125.6,461.8z M126.4,456.1c-0.5,0.2-1,0.4-1.5,0.5c-0.3-1.1-0.8-1.9-1-2.4
		C125,454.6,125.8,455.3,126.4,456.1z M123.4,454.1c0.1,0.2,0.7,1.1,1.1,2.6c-1.3,0.3-2.6,0.4-3.7,0.3c0.8-1.6,1.8-2.7,2.1-3
		C123.2,454,123.3,454,123.4,454.1z M122.5,454C122.5,454,122.6,454,122.5,454c-0.4,0.5-1.3,1.5-2,3c-0.9-0.1-1.6-0.2-2.2-0.3
		C119.9,454.6,122.3,454,122.5,454z M119.3,460.6L119.3,460.6c0,0.2,0,0.4-0.1,0.5v0.1v0.1c0,0.3,0,0.5,0,0.8
		c-0.7-0.1-1.4-0.3-1.9-0.5c-0.1,0-0.1,0-0.2-0.1c-0.1,0-0.1,0-0.2-0.1c0-0.3,0-0.5,0-0.8v-0.1v-0.1c0-1.1,0.3-2.1,0.7-3
		c0.1-0.3,0.3-0.5,0.4-0.7c0.6,0.1,1.4,0.3,2.3,0.4c-0.1,0.3-0.2,0.5-0.3,0.8c-0.3,0.7-0.5,1.5-0.6,2.4
		C119.4,460.5,119.4,460.5,119.3,460.6z M118,465.8c-0.1-0.1-0.1-0.3-0.2-0.4v-0.1v-0.1c-0.2-0.5-0.3-1-0.5-1.5v-0.1v-0.1
		c0-0.2-0.1-0.3-0.1-0.5v-0.1c-0.1-0.3-0.1-0.6-0.1-0.9h0.1c0.1,0,0.1,0,0.2,0.1c0.5,0.2,1.2,0.3,1.9,0.4c0,1.2,0.3,2.4,0.8,3.8
		c-0.3-0.1-0.6-0.1-0.9-0.2c-0.1,0-0.1,0-0.2,0C118.6,466,118.3,465.9,118,465.8z M117.3,456.2c1-1.1,2.3-1.8,3.7-2.1
		c-0.9,0.4-2.1,1.2-3.1,2.4c-0.3-0.1-0.6-0.2-0.7-0.2C117.2,456.2,117.3,456.2,117.3,456.2z M116.9,456.6c0.1,0.1,0.4,0.1,0.8,0.3
		c-0.1,0.2-0.3,0.4-0.4,0.7c-0.5,0.9-0.7,2-0.7,3.1v0.1c0,0.2,0,0.5,0,0.7c-0.1,0-0.1-0.1-0.2-0.1c-0.7-0.3-1.1-0.6-1.3-0.8
		C115.3,459.1,115.9,457.7,116.9,456.6z M115.1,461.9c0-0.3,0-0.6,0-0.9c0.3,0.2,0.7,0.5,1.4,0.8c0.1,0,0.1,0.1,0.2,0.1l0,0
		c0.1,0.8,0.2,1.7,0.5,2.6c0.1,0.2,0.1,0.4,0.2,0.6c0,0.1,0,0.1,0.1,0.2v0.1v0.1c0,0.1,0.1,0.2,0.1,0.3c-0.4-0.1-0.7-0.2-1-0.3
		c-0.1,0-0.1,0-0.2-0.1c-0.3-0.1-0.4-0.2-0.5-0.2C115.4,464.2,115.1,463.1,115.1,461.9z M116.4,465.9L116.4,465.9L116.4,465.9
		c-0.1-0.1-0.2-0.2-0.2-0.4c0.1,0,0.1,0.1,0.2,0.1s0.1,0,0.2,0.1c0.3,0.1,0.7,0.2,1.1,0.4c0,0,0,0.1,0.1,0.1c0,0,0,0.1,0.1,0.1v0.1
		c0.2,0.5,0.4,1,0.7,1.5C117.8,467.5,117,466.8,116.4,465.9z M121.3,469c-0.7-0.1-1.5-0.3-2.2-0.7c-0.3-0.6-0.6-1.2-0.8-1.8v-0.1
		v-0.1v-0.1c0.2,0.1,0.4,0.1,0.6,0.1c0.1,0,0.1,0,0.2,0.1c0.1,0,0.1,0,0.2,0c0.3,0.1,0.7,0.2,1.1,0.2
		C120.5,467.4,120.9,468.2,121.3,469z M124.5,466.4c-1.3,0.3-2.8,0.2-4.1-0.1c-0.5-1.3-0.8-2.5-0.8-3.8c0.3,0,0.5,0.1,0.8,0.1h0.1
		h0.1c0.2,0,0.5,0,0.7,0l0,0h0.1h0.1c0.6,0,1.3-0.1,2.1-0.2h0.1h0.1c0.3,0,0.5-0.1,0.8-0.1h0.1h0.1c0.2,0,0.3-0.1,0.5-0.1
		C125.2,463.5,124.9,464.9,124.5,466.4z M125.2,461.9c-0.2,0-0.3,0.1-0.5,0.1h-0.1h-0.1c-0.3,0-0.5,0.1-0.8,0.1h-0.1h-0.1
		c-0.8,0.1-1.5,0.2-2.1,0.2h-0.1h-0.1c-0.3,0-0.5,0-0.8,0h-0.1h-0.1c-0.3,0-0.5,0-0.8-0.1c0-0.4,0-0.7,0.1-1.1c0-0.1,0-0.1,0-0.2
		v-0.1l0,0c0,0,0,0,0-0.1v-0.1c0.1-0.8,0.3-1.6,0.6-2.4c0.1-0.3,0.3-0.6,0.4-0.9c0.3,0,0.5,0,0.8,0c0.5,0,1.1,0,1.7-0.1h0.1h0.1
		c0.3,0,0.6-0.1,0.9-0.1h0.1h0.1c0.1,0,0.2,0,0.2-0.1C125,458.3,125.3,459.9,125.2,461.9z"/>
	<g id="XMLID_367_" class="st10">
		<path id="XMLID_373_" class="st1" d="M117.1,463h1.8v0.6h-1.8v1.8h0.1c0.6,0.2,1.4,0.2,1.7,0.2v1c-1,0-2.1-0.5-2.3-0.6v-5
			c1,0.1,2.2-0.3,2.4-0.4l0.7,0.4c-0.7,0.6-2.4,0.6-2.5,0.6h-0.1L117.1,463L117.1,463z"/>
		<path id="XMLID_372_" class="st9" d="M118.9,465.4L118.9,465.4c-0.3,0.1-1.1,0.1-1.7-0.1h-0.1v-0.1
			C117.9,465.4,118.9,465.4,118.9,465.4z"/>
		<rect id="XMLID_371_" x="117.1" y="463.5" class="st11" width="1.8" height="0.1"/>
		<rect id="XMLID_370_" x="117.1" y="462.9" class="st11" width="1.8" height="0.1"/>
		<path id="XMLID_369_" class="st9" d="M117.2,461.5c0,0,1.8,0,2.5-0.6l-0.7-0.4c-0.2,0.1-1.4,0.4-2.4,0.4v5
			c0.2,0.1,1.3,0.6,2.3,0.6v0.1c-1.3,0-2.5-0.6-2.5-0.6v-5.2c1.3,0.1,2.5-0.4,2.5-0.4l0.8,0.5C119.2,461.6,117.1,461.6,117.2,461.5
			L117.2,461.5L117.2,461.5z"/>
		<path id="XMLID_368_" class="st9" d="M117.3,461.7v1.1h1.8v0.9h-1.8v1.5c0.7,0.2,1.7,0.1,1.7,0.1h0.1v1.3H119h-0.1
			c-1.2,0-2.4-0.6-2.5-0.6h-0.1v-0.1c0,0,1.3,0.6,2.5,0.6v-1.1c0,0-1.1,0-1.8-0.1v-1.6h1.8V463H117v-1.3c0,0,2,0,2.6-0.7l-0.8-0.5
			c0,0-1.3,0.5-2.5,0.4v-0.1h0.1c1.1,0.1,2.5-0.3,2.5-0.4l0,0l0.9,0.6l-0.1,0.1C119.3,461.6,117.7,461.7,117.3,461.7z"/>
	</g>
	<g id="XMLID_360_">
		<path id="XMLID_366_" class="st1" d="M124.6,461.8c0,0.1,0,0.1,0,0.2s0,0.3,0,0.4c-0.3,3.5-2.3,3.7-2.3,3.7
			c-0.3,0-0.5-0.1-0.7-0.3c-0.6-0.6-0.9-1.9-1-3.1c0-0.1,0-0.3,0-0.4c-0.1-0.8-0.1-1.5-0.1-1.8h0.9c0,0.3-0.1,1,0,1.8
			c0,0.1,0,0.3,0,0.4c0.1,0.9,0.2,1.9,0.6,2.3c0.1,0.1,0.1,0.1,0.2,0.1c0.1,0.1,0.2,0.1,0.3,0.1c0.2,0,0.3,0,0.4-0.1
			s0.2-0.1,0.3-0.2c0.4-0.5,0.6-1.3,0.6-2.4c0-0.1,0-0.2,0-0.4c0.1-2-0.3-4.2-0.4-4.9v-0.1l0.9-0.1c0,0,0,0,0,0.1
			C124.4,457.4,124.7,458.5,124.6,461.8z"/>
		<path id="XMLID_364_" class="st9" d="M124.4,457c0-0.1-0.1-0.2-0.1-0.2l0,0l-1.2,0.2v0.1c0,0,0,0.1,0,0.2c0.1,0.7,0.4,3,0.4,4.9
			c0,0.1,0,0.3,0,0.4c-0.1,1-0.2,1.8-0.6,2.2c-0.2,0.2-0.4,0.3-0.6,0.3c-0.1,0-0.3,0-0.4-0.1c-0.4-0.4-0.5-1.3-0.6-2.2
			c0-0.1,0-0.3,0-0.4h-0.1c0,0.1,0,0.3,0,0.4c0.1,1.1,0.2,2.2,0.7,2.5c0.1,0,0.2,0,0.3,0c0.2,0,0.3,0,0.4-0.1
			c0.6-0.3,0.8-1.4,0.8-2.6c0-0.1,0-0.2,0-0.4c0-2-0.3-4.3-0.4-4.9c0-0.1,0-0.2,0-0.2l1-0.1C124.3,456.9,124.3,457,124.4,457
			c0,0.4,0.3,1.5,0.2,4.8v0.1c0,0.1,0,0.3,0,0.4c-0.3,3.7-2.4,3.8-2.4,3.8c-1.2,0-1.6-1.9-1.8-3.5c0-0.1,0-0.3,0-0.4h-0.1
			c0,0.1,0,0.3,0,0.4c0.1,1.2,0.4,2.6,1,3.2c0.2,0.2,0.5,0.4,0.8,0.4l0,0c0,0,2.2-0.2,2.5-3.9c0-0.1,0-0.2,0-0.4v-0.1
			C124.8,458.6,124.6,457.4,124.4,457z"/>
		<path id="XMLID_363_" class="st9" d="M121.5,460.4c0,0-0.1,0.9,0,1.9h-0.1C121.3,461.3,121.4,460.5,121.5,460.4l-1.1,0.1
			c0,0,0,0.8,0.1,1.8h-0.1c-0.1-1-0.1-1.8-0.1-1.8v-0.1H121.5L121.5,460.4z"/>
		<path id="XMLID_362_" class="st9" d="M122.1,465.1c-0.1,0-0.1-0.1-0.2-0.1c-0.4-0.4-0.5-1.4-0.6-2.3c0-0.1,0-0.3,0-0.4
			c0-0.8,0-1.5,0-1.8h0.1c0,0-0.1,0.8,0,1.8c0,0.1,0,0.3,0,0.4C121.4,463.7,121.6,464.8,122.1,465.1z"/>
		<path id="XMLID_361_" class="st9" d="M124.7,461.8v0.1c0,0.1,0,0.3,0,0.4c-0.3,3.7-2.4,3.8-2.4,3.8c-1.2,0-1.6-1.9-1.8-3.5
			c0-0.1,0-0.3,0-0.4c-0.1-1-0.1-1.8-0.1-1.8h0.1c0,0.2,0,0.9,0.1,1.8c0,0.1,0,0.3,0,0.4c0.1,1.2,0.4,2.5,1,3.1
			c0.2,0.2,0.4,0.3,0.7,0.3c0,0,2-0.1,2.3-3.7C124.6,462.2,124.6,462.1,124.7,461.8C124.6,461.9,124.6,461.9,124.7,461.8
			c0-3.3-0.3-4.5-0.4-4.8c0,0,0,0,0-0.1l-0.9,0.1v0.1c0.1,0.7,0.5,2.9,0.4,4.9c0,0.1,0,0.3,0,0.4c-0.1,1-0.2,1.9-0.6,2.4
			c-0.1,0.1-0.2,0.2-0.3,0.2c0.6-0.3,0.8-1.4,0.8-2.6c0-0.1,0-0.2,0-0.4c0-2-0.3-4.3-0.4-4.9c0-0.1,0-0.2,0-0.2l1-0.1
			c0,0,0,0,0.1,0.1C124.5,457.4,124.8,458.6,124.7,461.8z"/>
	</g>
	<path id="XMLID_357_" class="st1" d="M140.7,444.7c-4-0.1-6.4,0-9.5,0s-3.3,3-3.3,4.5s0,3.6,0,3.6l1.4,0.8v-5.8h14l0.2,13.4h1.1
		v-13.1C144.5,448.2,144.7,444.8,140.7,444.7z M139,446.2h-5.5v-0.5h5.5V446.2z"/>
	<path id="XMLID_356_" class="st1" d="M149.5,461.1l-1.5,4.2l-1.1-1c0,0-3.3,4.5-11,2.6c0,0,6.7,0.2,9.7-3.9c0,0-1.3-1.3-1.1-1.3
		C144.8,461.7,149.5,461.1,149.5,461.1z"/>
	<path id="XMLID_353_" class="st1" d="M143.1,468.4v6.4h-13.6v-8.9l-1.6,1.6c0,0,0,4.8,0,6.3s0.8,4.2,3.4,4.2h10.6
		c2.9,0,3-3.2,3-3.2v-7.3L143.1,468.4z M136.5,477.3c-0.5,0-1-0.4-1-1s0.4-1,1-1s1,0.4,1,1S137,477.3,136.5,477.3z"/>
	<path id="XMLID_352_" class="st1" d="M123.1,452.5c0,0,8.5,0.6,8.5,6.7s-8.7,11.5-12.3,12.2c0,0,9.6-5,9.5-12.2
		C128.7,453.7,123.1,452.5,123.1,452.5z"/>
	<path id="XMLID_351_" class="st1" d="M142.8,450.2c-3.7-2.3-7.1,3.2-7.1,3.2l1.3,1l-4.7,1.9l0.6-4.7l1,0.8c1.1-1.8,4.1-3.8,6-3.9
		C141.6,448.5,142.8,450.2,142.8,450.2z"/>
</g>
<g id="XMLID_70_">
	<path id="XMLID_239_" class="st9" d="M46.6,323.3l-46.7-24c-2.1-1.1-4.6-0.3-5.7,1.8l-27.7,53.7c-1.1,2.1-0.3,4.6,1.8,5.7l46.7,24
		c2.1,1.1,4.5,0.2,5.6-1.9l27.7-53.7C49.4,326.8,48.7,324.4,46.6,323.3z M-7.7,336.4c0,0-0.6,1.1-1.2,2.3c0,0-0.1,0-0.1-0.1
		c0.6-1.2,1.2-2.2,1.2-2.2l-1.3-0.7c0,0-0.5,1-1.1,2.2c0,0-0.1,0-0.1-0.1c0.5-1.3,1.1-2.2,1.1-2.3l0.1-0.1l1.5,0.8L-7.7,336.4z"/>
	<g id="XMLID_225_">
		<path id="XMLID_237_" class="st1" d="M8.3,343.2c0.1-0.1,0.1-0.2,0-0.3s-0.2,0-0.3,0.1l-0.8,1.6l-0.7-0.4l0.8-1.6
			c0.1-0.1,0.1-0.2,0-0.3c-0.1-0.1-0.2,0-0.3,0.1L6.2,344l-0.7-0.4l0.8-1.6c0.1-0.2,0.2-0.4,0.4-0.6c0.2-0.1,0.5-0.2,0.8,0
			c0.3,0.1,0.4,0.4,0.4,0.7c0.3-0.2,0.5-0.2,0.8,0c0.2,0.1,0.4,0.3,0.4,0.5c0.1,0.3,0,0.5-0.2,0.8L8.1,345l-0.7-0.4L8.3,343.2z"/>
		<path id="XMLID_234_" class="st1" d="M9.8,343.3c0.4-0.1,0.8-0.1,1.1,0.1c0.3,0.2,0.6,0.5,0.7,0.8c0.1,0.4,0.1,0.8-0.1,1.1
			c-0.1,0.3-0.4,0.5-0.7,0.7c-0.4,0.2-0.8,0.2-1.2,0c-0.3-0.1-0.5-0.4-0.7-0.7c-0.2-0.4-0.2-0.8,0-1.2
			C9.2,343.7,9.5,343.4,9.8,343.3z M10,345.2c0.3,0.2,0.7,0,0.8-0.3c0.2-0.3,0-0.7-0.3-0.8c-0.3-0.2-0.7,0-0.8,0.3
			C9.6,344.7,9.7,345.1,10,345.2z"/>
		<path id="XMLID_232_" class="st1" d="M11.2,346.7l1.3-2.5l0.9,0.5c0.5,0.3,0.7,0.6,0.5,1c-0.1,0.2-0.3,0.3-0.5,0.4
			c0.2,0.3,0.2,0.5,0,0.8c-0.2,0.4-0.7,0.6-1.2,0.3l-0.1-0.1l0.3-0.6l0.2,0.1c0.1,0.1,0.2,0,0.2-0.1c0.1-0.1,0-0.2-0.1-0.2l-0.2-0.1
			l0.3-0.6h0.1c0.1,0.1,0.2,0,0.2-0.1c0.1-0.1,0-0.2-0.1-0.2l-0.2-0.1l-0.9,1.8L11.2,346.7z"/>
		<path id="XMLID_230_" class="st1" d="M14.5,345.3l0.7,0.4l-1.3,2.5l-0.7-0.4L14.5,345.3z"/>
		<path id="XMLID_228_" class="st1" d="M16.3,346.2l-0.7,1.5c-0.1,0.2-0.1,0.3,0.1,0.4c0,0,0,0,0.1,0l-0.4,0.7l-0.2-0.1
			c-0.3-0.1-0.4-0.3-0.5-0.5c-0.1-0.4,0-0.6,0.2-1v-0.1l0.7-1.3L16.3,346.2z"/>
		<path id="XMLID_226_" class="st1" d="M16.5,349.4C16.5,349.4,16.4,349.4,16.5,349.4c-0.3-0.1-0.4-0.2-0.6-0.4
			c-0.2-0.2-0.2-0.5-0.1-0.7l0.5-0.9c0.1-0.3,0.3-0.5,0.6-0.6c0.2-0.1,0.5,0,0.7,0.2l0.5,0.2l-0.4,0.7l-0.5-0.2
			c-0.1,0-0.2-0.1-0.2,0c0,0.1,0,0.1,0.1,0.2l0.4,0.2l-0.3,0.5l-0.5-0.3c-0.1,0-0.2-0.1-0.2,0s0,0.1,0.1,0.2l0.5,0.3l-0.4,0.7
			L16.5,349.4z"/>
	</g>
	<g id="XMLID_213_">
		<path id="XMLID_223_" class="st1" d="M6.5,346.7c0.1-0.1,0.1-0.2,0-0.3s-0.2,0-0.3,0.1l-0.8,1.6l-0.7-0.4l0.8-1.6
			c0.1-0.1,0.1-0.2,0-0.3c-0.1-0.1-0.2,0-0.3,0.1l-0.8,1.6l-0.7-0.4l0.8-1.6c0.1-0.2,0.2-0.4,0.4-0.6c0.2-0.1,0.5-0.2,0.8,0
			c0.3,0.1,0.4,0.4,0.4,0.7c0.3-0.2,0.5-0.2,0.8,0c0.2,0.1,0.4,0.3,0.4,0.5c0.1,0.3,0,0.5-0.2,0.8l-0.8,1.6l-0.7-0.4L6.5,346.7z"/>
		<path id="XMLID_220_" class="st1" d="M8,346.8c0.4-0.1,0.8-0.1,1.1,0.1c0.3,0.2,0.6,0.5,0.7,0.8c0.1,0.4,0.1,0.8-0.1,1.1
			c-0.1,0.3-0.4,0.5-0.7,0.7c-0.4,0.2-0.8,0.2-1.2,0c-0.3-0.1-0.5-0.4-0.7-0.7c-0.2-0.4-0.2-0.8,0-1.2C7.3,347.2,7.6,347,8,346.8z
			 M8.2,348.8c0.3,0.2,0.7,0,0.8-0.3c0.2-0.3,0-0.7-0.3-0.8c-0.3-0.2-0.7,0-0.8,0.3C7.7,348.2,7.9,348.6,8.2,348.8z"/>
		<path id="XMLID_218_" class="st1" d="M10,348.9L10,348.9c0.1-0.3,0.2-0.4,0.5-0.6s0.7-0.3,1-0.1c0.3,0.1,0.5,0.4,0.5,0.7
			c0,0.3-0.1,0.6-0.2,0.9l-0.7,1.3l-0.7-0.4l0.8-1.5c0.1-0.2,0.1-0.3,0-0.4c-0.1-0.1-0.2,0-0.3,0.2l-0.8,1.5l-0.7-0.4L10,348.9z"/>
		<path id="XMLID_216_" class="st1" d="M12.3,351.8C12.3,351.8,12.3,351.7,12.3,351.8c-0.3-0.1-0.4-0.2-0.6-0.4
			c-0.2-0.2-0.2-0.5-0.1-0.7l0.5-0.9c0.1-0.3,0.3-0.5,0.6-0.6c0.2-0.1,0.5,0,0.7,0.2l0.5,0.2l-0.4,0.7l-0.5-0.2
			c-0.1,0-0.2-0.1-0.2,0s0,0.1,0.1,0.2l0.4,0.2L13,351l-0.5-0.3c-0.1,0-0.2-0.1-0.2,0c0,0.1,0,0.1,0.1,0.2l0.5,0.3l-0.4,0.7
			L12.3,351.8z"/>
		<path id="XMLID_214_" class="st1" d="M13.6,352.4l0.7-1.3l-0.1-1.5l0.7,0.4l0.1,0.7l0.6-0.3l0.7,0.4l-1.3,0.8l-0.7,1.3L13.6,352.4
			z"/>
	</g>
	<path id="XMLID_163_" class="st1" d="M-15.7,341.7c-0.2-0.1-0.3-0.3-0.5-0.4c0,0.1,0,0.1,0,0.2c0.1,0.1,0.3,0.2,0.5,0.4
		C-15.7,341.8-15.7,341.7-15.7,341.7z M-15.5,340c0.1-0.8,0.2-1.5,0.4-2.2c0-0.1,0-0.1,0-0.2l-0.2-0.1l-0.5,1.1
		c-0.1,0.3-0.1,0.6-0.2,0.8c0,0.1,0,0.2,0,0.2c0,0.1,0,0.1,0,0.2c0.1,0.1,0.3,0.2,0.5,0.3V340z M-6.1,340h-0.1
		c-1-0.4-1.9-0.8-2.8-1.2c0,0-0.1,0-0.1-0.1l-0.1-0.1c-0.3-0.2-0.6-0.3-0.9-0.5c-0.1,0.2-0.1,0.3-0.2,0.5c0.3,0.2,0.6,0.3,0.9,0.5
		l0,0c0,0,0.1,0,0.1,0.1c0,0,0.1,0,0.1,0.1c0.8,0.4,1.7,0.8,2.7,1.2h0.1h0.1c0.1-0.1,0.2-0.3,0.3-0.5H-6.1z M-3.5,340.8
		c1.3-2.4,2-4.6,2.4-6.5c0.8,0.2,1.5,0.3,2.4,0.4c0.2,1.8-0.1,3.3-0.1,3.4l0.5,0.1c0-0.1,1.5-6.7-3.7-9.6c-2.4-1.3-5.5-1.6-8.3-0.6
		c-3,1-5.5,3.2-6.8,6c-2.7,5.9,0.5,11.8,3.8,13.6l0.1-0.1l0,0l0.5-0.1c-0.1-1.3-0.2-2.5-0.1-3.7c0.8,0.6,1.7,1.2,2.6,1.6
		c0.7,0.4,1.4,0.7,2.1,0.9c0,0,0,0-0.1,0.1l0.4,0.4c0.1-0.1,0.2-0.2,0.2-0.3c0.2,0,0.3,0.1,0.5,0.1L-7,346c-0.1,0-0.1,0-0.2,0
		c1.5-1.6,2.7-3.2,3.6-4.8c1,0.3,2.1,0.5,3.3,0.7l0.1-0.5C-1.5,341.2-2.5,341-3.5,340.8z M1.2,334.1c-0.8-0.1-1.5-0.2-2.2-0.4
		c0.3-1.6,0.3-2.9,0.3-3.6C0.4,331.4,1,332.8,1.2,334.1z M-1.2,329.7c0,0.4,0.1,1.8-0.2,4c-1.9-0.5-3.5-1.2-4.8-2
		c2.1-1.5,4-2.2,4.6-2.3C-1.5,329.5-1.4,329.6-1.2,329.7z M-2.3,329L-2.3,329c-0.9,0.3-2.6,1.1-4.5,2.4c-1-0.6-1.9-1.3-2.5-1.8
		C-6,328-2.6,328.9-2.3,329z M-10.5,335.2C-10.5,335.3-10.6,335.3-10.5,335.2c-0.2,0.3-0.3,0.4-0.4,0.6c0,0,0,0.1-0.1,0.1l-0.1,0.1
		c-0.2,0.3-0.4,0.7-0.6,1c-0.8-0.6-1.5-1.2-2.1-1.8c-0.1-0.1-0.1-0.1-0.2-0.2c-0.1-0.1-0.1-0.1-0.2-0.2c0.1-0.3,0.3-0.7,0.5-1
		c0,0,0-0.1,0.1-0.1c0,0,0-0.1,0.1-0.1c0.7-1.4,1.7-2.5,2.8-3.3c0.3-0.2,0.7-0.4,1-0.6c0.6,0.6,1.5,1.2,2.6,1.9
		c-0.3,0.2-0.6,0.5-0.9,0.8c-0.8,0.7-1.6,1.5-2.3,2.6C-10.5,335.1-10.5,335.2-10.5,335.2z M-15.6,340.9c0-0.2,0-0.4,0.1-0.6v-0.1
		c0-0.1,0-0.1,0-0.2c0.1-0.8,0.2-1.5,0.4-2.2c0-0.1,0-0.1,0-0.2v-0.1c0.1-0.2,0.1-0.5,0.2-0.7v-0.1c0.1-0.4,0.3-0.8,0.4-1.2l0.1,0.1
		c0.1,0.1,0.1,0.1,0.2,0.2c0.6,0.6,1.3,1.2,2.1,1.8c-0.7,1.5-1.2,3.2-1.5,5.2c-0.3-0.3-0.7-0.5-1-0.8c-0.1-0.1-0.1-0.1-0.2-0.2
		C-14.9,341.5-15.3,341.2-15.6,340.9z M-10.2,328.4c2-0.7,4-0.7,5.9-0.2c-1.4-0.1-3.4,0.1-5.4,1c-0.3-0.3-0.6-0.6-0.8-0.8
		C-10.4,328.5-10.3,328.4-10.2,328.4z M-11,328.7c0.1,0.2,0.4,0.4,0.8,0.8c-0.3,0.2-0.6,0.4-0.9,0.6c-1.2,0.9-2.2,2-2.9,3.4
		c0,0,0,0.1-0.1,0.1c-0.2,0.3-0.3,0.6-0.4,0.9c-0.1-0.1-0.1-0.1-0.2-0.2c-0.7-0.9-1-1.5-1.1-1.8C-14.6,330.8-12.9,329.5-11,328.7z
		 M-16.8,334.2c0.2-0.4,0.4-0.8,0.6-1.2c0.2,0.4,0.6,1,1.2,1.8c0.1,0.1,0.1,0.1,0.2,0.2l0,0c-0.4,1.1-0.8,2.2-1,3.5
		c-0.1,0.3-0.1,0.6-0.2,0.8c0,0.1,0,0.2,0,0.2c0,0.1,0,0.1,0,0.2v0.1c0,0.2,0,0.3-0.1,0.5c-0.4-0.4-0.7-0.7-1-1
		c-0.1-0.1-0.1-0.1-0.2-0.2c-0.3-0.3-0.4-0.5-0.5-0.6C-17.7,337.2-17.5,335.7-16.8,334.2z M-17.6,340.1L-17.6,340.1L-17.6,340.1
		c0-0.2,0-0.4-0.1-0.6c0.1,0.1,0.1,0.2,0.2,0.3c0.1,0.1,0.1,0.1,0.2,0.2c0.3,0.3,0.7,0.7,1.2,1.2c0,0.1,0,0.1,0,0.2s0,0.1,0,0.2v0.1
		c-0.1,0.7-0.1,1.5-0.1,2.3C-16.9,342.8-17.4,341.5-17.6,340.1z M-13.4,347c-0.8-0.5-1.7-1.3-2.4-2.3c0-0.9,0-1.9,0.1-2.7v-0.1
		c0-0.1,0-0.1,0-0.2v-0.1c0.2,0.2,0.4,0.4,0.6,0.5c0.1,0.1,0.2,0.1,0.2,0.2c0.1,0.1,0.1,0.1,0.2,0.2c0.4,0.3,0.8,0.6,1.2,1
		C-13.5,344.5-13.5,345.7-13.4,347z M-7.9,345.9c-1.8-0.5-3.5-1.6-5.1-2.7c0.2-1.9,0.7-3.7,1.4-5.3c0.3,0.2,0.6,0.4,0.9,0.6
		c0,0,0.1,0,0.1,0.1c0,0,0.1,0,0.1,0.1c0.3,0.2,0.6,0.3,0.9,0.5l0,0c0,0,0.1,0,0.1,0.1c0,0,0.1,0,0.1,0.1c0.8,0.4,1.7,0.8,2.7,1.2
		h0.1h0.1c0.3,0.1,0.7,0.2,1.1,0.3h0.1h0.1c0.2,0.1,0.5,0.1,0.7,0.2C-5.2,342.6-6.3,344.2-7.9,345.9z M-4,340.6
		c-0.2-0.1-0.5-0.1-0.7-0.2h-0.1h-0.1c-0.4-0.1-0.7-0.2-1.1-0.3h-0.1h-0.1c-1-0.4-1.9-0.8-2.8-1.2c0,0-0.1,0-0.1-0.1l-0.1-0.1
		c-0.3-0.2-0.6-0.3-0.9-0.5l-0.1-0.1c0,0-0.1,0-0.1-0.1c-0.3-0.2-0.6-0.4-0.9-0.6c0.2-0.4,0.5-0.9,0.7-1.3c0-0.1,0.1-0.1,0.1-0.2
		c0,0,0-0.1,0.1-0.1c0,0,0,0,0-0.1c0,0,0-0.1,0.1-0.1l0.1-0.1c0.7-0.9,1.5-1.8,2.4-2.6c0.4-0.3,0.7-0.6,1.1-0.9
		c0.3,0.2,0.7,0.4,1,0.6c0.7,0.3,1.4,0.7,2.1,0.9h0.1h0.1c0.4,0.1,0.8,0.3,1.2,0.4H-2h0.1c0.1,0,0.2,0.1,0.3,0.1
		C-1.9,336-2.6,338.2-4,340.6z"/>
	<g id="XMLID_156_" class="st10">
		<path id="XMLID_162_" class="st1" d="M-14.8,336.8l2.3,1.1l-0.4,0.7l-2.2-1.2l-1.2,2.3l0.1,0.1c0.7,0.6,1.7,1.1,2.1,1.3l-0.6,1.2
			c-1.3-0.7-2.3-1.9-2.5-2.2l3.2-6.3c1.2,0.8,2.9,1,3.2,1.1l0.6,1c-1.2,0.3-3.5-0.8-3.5-0.8l-0.1-0.1L-14.8,336.8z"/>
		<path id="XMLID_161_" class="st9" d="M-14.1,340.9l-0.1,0.1c-0.3-0.2-1.4-0.7-2.1-1.3l-0.1-0.1v-0.1
			C-15.5,340.3-14.1,340.9-14.1,340.9z"/>
		
			<rect id="XMLID_160_" x="-14.1" y="336.8" transform="matrix(-0.458 0.889 -0.889 -0.458 280.0062 505.3803)" class="st11" width="0.1" height="2.5"/>
		
			<rect id="XMLID_159_" x="-13.7" y="336" transform="matrix(-0.458 0.889 -0.889 -0.458 279.8648 503.8915)" class="st11" width="0.1" height="2.5"/>
		<path id="XMLID_158_" class="st9" d="M-13.8,335c0,0,2.3,1.1,3.5,0.8l-0.6-1c-0.3-0.1-2-0.3-3.2-1.1l-3.2,6.3
			c0.2,0.3,1.2,1.5,2.5,2.2l-0.1,0.1c-1.6-0.8-2.7-2.4-2.7-2.4l3.3-6.5c1.5,1,3.4,1.2,3.4,1.2l0.7,1.2c-1.2,0.5-3.8-0.8-3.8-0.8
			l0.1-0.1L-13.8,335z"/>
		<path id="XMLID_157_" class="st9" d="M-13.8,335.3l-0.7,1.4l2.3,1.1l-0.6,1.2l-2.2-1.2l-1,1.8c0.8,0.6,2,1.3,2,1.3l0.1,0.1
			l-0.8,1.6l-0.1-0.1c0,0-0.1,0-0.1-0.1c-1.5-0.8-2.6-2.3-2.7-2.3V340v-0.1c0,0,1.2,1.6,2.7,2.4l0.7-1.4c0,0-1.4-0.7-2.1-1.3l1.1-2
			l2.2,1.2l0.5-0.9l-2.3-1.1l0.8-1.6c0,0,2.5,1.3,3.8,0.8l-0.7-1.2c0,0-1.9-0.2-3.4-1.2l0.1-0.1l0.1,0.1c1.3,0.9,3.3,1.1,3.3,1.1
			h0.1l0.8,1.3H-10C-11.2,336.4-13.2,335.5-13.8,335.3z"/>
	</g>
	<g id="XMLID_149_">
		<path id="XMLID_155_" class="st1" d="M-4.8,340.1c0,0.1-0.1,0.1-0.1,0.2c-0.1,0.2-0.2,0.3-0.3,0.5c-2.6,4.2-5.2,3.1-5.2,3.1
			c-0.3-0.2-0.6-0.4-0.7-0.8c-0.4-1.1,0.2-2.9,0.7-4.5c0.1-0.2,0.1-0.3,0.2-0.5c0.4-1.1,0.9-1.9,1-2.2l1.1,0.6
			c-0.2,0.3-0.7,1.2-1.2,2.2c-0.1,0.2-0.1,0.3-0.2,0.5c-0.5,1.2-0.9,2.5-0.7,3.3c0,0.1,0.1,0.2,0.2,0.3c0.1,0.1,0.2,0.2,0.3,0.3
			c0.2,0.1,0.4,0.1,0.6,0.1c0.2,0,0.4,0,0.5-0.1c0.8-0.3,1.6-1.3,2.3-2.5c0.1-0.1,0.2-0.3,0.3-0.5c1.3-2.4,2.4-5.5,2.7-6.4v-0.1
			l1.2,0.4v0.1C-2.2,334.5-2.5,336.1-4.8,340.1z"/>
		<path id="XMLID_153_" class="st9" d="M-1.9,334.1c0-0.2,0-0.3,0-0.3v-0.1l-1.5-0.5v0.1c0,0,0,0.1-0.1,0.2c-0.3,0.9-1.4,4-2.7,6.4
			c-0.1,0.2-0.2,0.3-0.3,0.5c-0.7,1.2-1.4,2.1-2.1,2.4c-0.3,0.1-0.6,0.1-0.9-0.1c-0.2-0.1-0.3-0.2-0.4-0.4c-0.2-0.7,0.2-1.9,0.7-3.1
			c0.1-0.2,0.1-0.3,0.2-0.5c0,0-0.1,0-0.1-0.1c-0.1,0.2-0.2,0.3-0.2,0.5c-0.6,1.3-1.1,2.8-0.7,3.5c0.1,0.1,0.2,0.2,0.3,0.2
			c0.2,0.1,0.4,0.2,0.6,0.2c0.9-0.1,1.9-1.2,2.7-2.7c0.1-0.1,0.2-0.3,0.3-0.5c1.3-2.4,2.4-5.5,2.7-6.4c0-0.1,0.1-0.2,0.1-0.2
			l1.4,0.5c0,0,0,0.1,0,0.2c-0.1,0.5-0.4,2.1-2.7,6.2c0,0.1-0.1,0.1-0.1,0.2c-0.1,0.2-0.2,0.3-0.3,0.5c-2.7,4.4-5.4,3.2-5.4,3.2
			c-1.5-0.7-0.8-3.4,0-5.5c0.1-0.2,0.1-0.3,0.2-0.5c0,0-0.1,0-0.1-0.1c-0.1,0.2-0.1,0.3-0.2,0.5c-0.6,1.6-1.2,3.5-0.8,4.7
			c0.1,0.4,0.4,0.8,0.8,1l0,0c0,0,2.8,1.2,5.6-3.3c0.1-0.1,0.2-0.3,0.3-0.5l0.1-0.1C-2.4,336.3-2,334.7-1.9,334.1z"/>
		<path id="XMLID_152_" class="st9" d="M-7.7,336.4c0,0-0.6,1.1-1.2,2.3c0,0-0.1,0-0.1-0.1c0.6-1.2,1.2-2.2,1.2-2.2l-1.3-0.7
			c0,0-0.5,1-1.1,2.2c0,0-0.1,0-0.1-0.1c0.5-1.3,1.1-2.2,1.1-2.3l0.1-0.1l1.5,0.8L-7.7,336.4z"/>
		<path id="XMLID_151_" class="st9" d="M-10,342.7c-0.1-0.1-0.1-0.2-0.2-0.3c-0.2-0.8,0.2-2.1,0.7-3.3c0.1-0.2,0.1-0.3,0.2-0.5
			c0.5-1,1-1.9,1.2-2.2l0.1,0.1c0,0-0.6,1-1.2,2.2c-0.1,0.2-0.2,0.3-0.2,0.5C-9.9,340.5-10.4,342-10,342.7z"/>
		<path id="XMLID_150_" class="st9" d="M-4.7,340.2c0,0.1-0.1,0.1-0.1,0.2c-0.1,0.2-0.2,0.3-0.3,0.5c-2.7,4.4-5.4,3.2-5.4,3.2
			c-1.5-0.7-0.8-3.4,0-5.5c0.1-0.2,0.1-0.3,0.2-0.5c0.5-1.3,1.1-2.2,1.1-2.2l0.1,0.1c-0.2,0.3-0.6,1.2-1,2.2
			c-0.1,0.2-0.1,0.3-0.2,0.5c-0.6,1.5-1.1,3.3-0.7,4.5c0.1,0.4,0.4,0.7,0.7,0.8c0,0,2.6,1.1,5.2-3.1c0.1-0.1,0.2-0.3,0.3-0.5
			C-4.9,340.3-4.8,340.2-4.7,340.2c2.2-4.2,2.5-5.7,2.5-6.2v-0.1l-1.2-0.4v0.1c-0.3,0.9-1.3,4-2.7,6.4c-0.1,0.2-0.2,0.3-0.3,0.5
			c-0.7,1.2-1.5,2.2-2.3,2.5c-0.2,0.1-0.4,0.1-0.5,0.1c0.9-0.1,1.9-1.2,2.7-2.7c0.1-0.1,0.2-0.3,0.3-0.5c1.3-2.4,2.4-5.5,2.7-6.4
			c0-0.1,0.1-0.2,0.1-0.2l1.4,0.5c0,0,0,0.1,0,0.2C-2.1,334.6-2.5,336.2-4.7,340.2z"/>
	</g>
	<path id="XMLID_145_" class="st1" d="M26.4,329.2c-5-2.6-8-4.1-11.9-6.1s-6.1,1.6-7.1,3.5c-1,1.9-2.3,4.5-2.3,4.5l1.3,1.9l3.8-7.3
		l17.4,9l-8.4,16.9l1.3,0.7l8.4-16.3C28.9,335.9,31.4,331.8,26.4,329.2z M23.2,329.9l-6.9-3.6l0.3-0.7l6.9,3.6L23.2,329.9z"/>
	<path id="XMLID_76_" class="st1" d="M26.8,355.4l-4.6,4.3l-0.7-2c0,0-7,3.5-15.4-3.8c0,0,8.2,4.6,14.7,1.3c0,0-0.8-2.4-0.5-2.3
		C20.5,352.9,26.8,355.4,26.8,355.4z"/>
	<path id="XMLID_73_" class="st1" d="M14.1,360.3l-4.1,8l-17-8.8l5.8-11.2l-3,1c0,0-3.1,6-4.1,7.9c-1,1.9-1.8,5.8,1.5,7.5l13.3,6.8
		c3.6,1.8,5.8-2.1,5.8-2.1l4.7-9.2L14.1,360.3z M0.1,367.1c-0.7-0.4-1-1.2-0.6-1.9s1.2-1,1.9-0.6s1,1.2,0.6,1.9S0.8,367.4,0.1,367.1
		z"/>
	<path id="XMLID_72_" class="st1" d="M-0.6,327.5c0,0,10.2,6.2,6.2,13.9s-18.2,8.7-23.2,7.4c0,0,15.1,0,19.7-9.1
		C5.6,332.6-0.6,327.5-0.6,327.5z"/>
	<path id="XMLID_71_" class="st1" d="M25.4,337.3c-3.2-5.3-10.9-0.6-10.9-0.6l0.9,2.1l-7.1-0.7l3.7-5.5l0.7,1.7
		c2.5-1.5,7.5-2.1,9.9-1C25.1,334.4,25.4,337.3,25.4,337.3z"/>
</g>
<g id="XMLID_60_">
	<polygon id="XMLID_498_" class="st12" points="69.6,523.9 20.3,542.3 36.3,510.2 	"/>
	
		<rect id="XMLID_486_" x="29.7" y="540.3" transform="matrix(-0.9364 0.3508 -0.3508 -0.9364 263.6183 1063.4994)" class="st12" width="11.6" height="30.7"/>
	
		<rect id="XMLID_490_" x="45.1" y="534.5" transform="matrix(-0.9364 0.3508 -0.3508 -0.9364 291.3994 1046.8916)" class="st12" width="11.6" height="30.7"/>
	
		<rect id="XMLID_491_" x="60.1" y="528.9" transform="matrix(-0.9364 0.3508 -0.3508 -0.9364 318.4802 1030.7657)" class="st12" width="11.6" height="30.7"/>
	
		<rect id="XMLID_492_" x="52.7" y="547.9" transform="matrix(-0.3508 -0.9364 0.9364 -0.3508 -456.3954 828.4166)" class="st12" width="12.5" height="49"/>
	<g id="XMLID_493_">
		<path id="XMLID_495_" class="st1" d="M39.8,574.3c0.5-0.3,1.6-0.8,2.7-1.2c1.3-0.5,2.1-0.7,3-0.5c0.8,0.1,1.5,0.6,1.8,1.4
			c0.3,0.8,0.1,1.8-0.8,2.6l0,0c1.2-0.1,2.3,0.4,2.7,1.6c0.3,0.8,0.2,1.7-0.2,2.4c-0.5,0.8-1.5,1.5-3.4,2.2c-1,0.4-1.9,0.6-2.3,0.7
			L39.8,574.3z M43.2,577.1l0.7-0.3c1.1-0.4,1.5-1.1,1.3-1.8c-0.3-0.7-1-0.9-1.9-0.5c-0.5,0.2-0.7,0.3-0.9,0.4L43.2,577.1z
			 M44.8,581.3c0.2-0.1,0.5-0.1,0.8-0.3c1-0.4,1.7-1,1.3-2c-0.4-0.9-1.3-1-2.4-0.6l-0.7,0.3L44.8,581.3z"/>
		<path id="XMLID_501_" class="st1" d="M52.9,577.2l0.2,2.7l-2.2,0.8l-0.6-10.5l2.8-1l6.4,8.3l-2.3,0.9l-1.6-2.1L52.9,577.2z
			 M54.7,574.7l-1.3-1.8c-0.4-0.5-0.8-1.1-1.2-1.6l0,0c0.1,0.6,0.2,1.4,0.2,2l0.2,2.2L54.7,574.7z"/>
		<path id="XMLID_519_" class="st1" d="M60.8,577l-3.5-9.4l2.5-0.9l3.2,2.7c0.9,0.8,1.9,1.7,2.7,2.6l0,0c-0.6-1.2-1.1-2.4-1.6-3.8
			l-1-2.7l2-0.7l3.5,9.4l-2.2,0.8l-3.4-2.9c-0.9-0.8-2-1.8-2.9-2.7l0,0c0.5,1.2,1,2.5,1.6,4.1l1.1,2.8L60.8,577z"/>
		<path id="XMLID_522_" class="st1" d="M66.9,564l2.1-0.8l1.6,4.2l0,0c0.1-0.4,0.2-0.9,0.3-1.3l1-3.9l2.6-1l-1.6,5.2l5.3,4.2
			l-2.5,0.9l-3.8-3.2l-0.4,1.3l1.1,3.1l-2.1,0.8L66.9,564z"/>
	</g>
</g>
<g id="XMLID_78_">
	<polygon id="XMLID_438_" class="st12" points="-25,431.7 -51.6,441.7 -42.9,424.3 	"/>
	
		<rect id="XMLID_435_" x="-46.5" y="440.6" transform="matrix(-0.9364 0.3508 -0.3508 -0.9364 73.4043 884.4088)" class="st12" width="6.2" height="16.5"/>
	
		<rect id="XMLID_432_" x="-38.2" y="437.5" transform="matrix(-0.9364 0.3508 -0.3508 -0.9364 88.4033 875.5017)" class="st12" width="6.2" height="16.5"/>
	
		<rect id="XMLID_429_" x="-30.1" y="434.4" transform="matrix(-0.9364 0.3508 -0.3508 -0.9364 102.9428 866.6569)" class="st12" width="6.2" height="16.5"/>
	
		<rect id="XMLID_349_" x="-34.1" y="444.6" transform="matrix(-0.3508 -0.9364 0.9364 -0.3508 -470.2888 589.66)" class="st12" width="6.7" height="26.4"/>
	<g id="XMLID_80_">
		<path id="XMLID_345_" class="st1" d="M-41,458.9c0.3-0.2,0.9-0.4,1.4-0.7c0.7-0.3,1.2-0.4,1.6-0.3c0.4,0.1,0.8,0.3,1,0.8
			s0.1,1-0.4,1.4l0,0c0.6-0.1,1.2,0.2,1.5,0.9c0.2,0.5,0.1,0.9-0.1,1.3c-0.3,0.4-0.8,0.8-1.8,1.2c-0.6,0.2-1,0.3-1.3,0.4L-41,458.9z
			 M-39.2,460.4l0.4-0.1c0.6-0.2,0.8-0.6,0.7-1s-0.5-0.5-1-0.3c-0.2,0.1-0.4,0.2-0.5,0.2L-39.2,460.4z M-38.3,462.7
			c0.1,0,0.3-0.1,0.4-0.2c0.5-0.2,0.9-0.6,0.7-1.1s-0.7-0.5-1.3-0.3l-0.4,0.1L-38.3,462.7z"/>
		<path id="XMLID_144_" class="st1" d="M-34,460.5l0.1,1.4l-1.2,0.4l-0.3-5.6l1.5-0.6l3.5,4.5l-1.2,0.5l-0.9-1.2L-34,460.5z
			 M-33,459.1l-0.7-1c-0.2-0.3-0.4-0.6-0.6-0.9l0,0c0,0.3,0.1,0.7,0.1,1.1l0.1,1.2L-33,459.1z"/>
		<path id="XMLID_141_" class="st1" d="M-29.7,460.4l-1.9-5.1l1.3-0.5l1.7,1.5c0.5,0.4,1,0.9,1.5,1.4l0,0c-0.3-0.6-0.6-1.3-0.9-2.1
			l-0.6-1.5l1.1-0.4l1.9,5.1l-1.2,0.5l-1.8-1.5c-0.5-0.4-1.1-1-1.5-1.5l0,0c0.3,0.7,0.6,1.4,0.9,2.2l0.6,1.5L-29.7,460.4z"/>
		<path id="XMLID_139_" class="st1" d="M-26.4,453.4l1.1-0.4l0.8,2.2l0,0c0-0.2,0.1-0.5,0.1-0.7l0.5-2.1l1.4-0.5l-0.9,2.8l2.9,2.2
			l-1.3,0.5l-2.1-1.7l-0.2,0.7l0.6,1.7l-1.1,0.4L-26.4,453.4z"/>
	</g>
</g>
<g id="XMLID_427_">
	<polygon id="XMLID_466_" class="st12" points="-24.1,579.1 -52.4,576.8 -37.2,564.8 	"/>
	
		<rect id="XMLID_463_" x="-51.1" y="578.6" transform="matrix(-0.9968 -7.940143e-002 7.940143e-002 -0.9968 -142.4604 1168.0027)" class="st12" width="6.2" height="16.5"/>
	
		<rect id="XMLID_460_" x="-42.3" y="579.3" transform="matrix(-0.9968 -7.940143e-002 7.940143e-002 -0.9968 -124.9432 1170.0909)" class="st12" width="6.2" height="16.5"/>
	
		<rect id="XMLID_457_" x="-33.7" y="579.9" transform="matrix(-0.9968 -7.940143e-002 7.940143e-002 -0.9968 -107.8054 1171.9745)" class="st12" width="6.2" height="16.5"/>
	
		<rect id="XMLID_454_" x="-43.8" y="587.1" transform="matrix(7.940143e-002 -0.9968 0.9968 7.940143e-002 -635.5957 512.3531)" class="st12" width="6.7" height="26.4"/>
	<g id="XMLID_428_">
		<path id="XMLID_450_" class="st1" d="M-50.2,596.9c0.3,0,1,0,1.6,0c0.7,0.1,1.2,0.2,1.6,0.4c0.4,0.2,0.6,0.6,0.6,1.1
			s-0.4,0.9-1,1.1l0,0c0.6,0.2,1,0.7,1,1.4c0,0.5-0.3,0.9-0.6,1.1c-0.4,0.3-1.1,0.4-2.2,0.3c-0.6,0-1-0.1-1.3-0.2L-50.2,596.9z
			 M-49.1,599.1h0.4c0.6,0.1,1-0.2,1-0.6s-0.3-0.6-0.8-0.7c-0.3,0-0.4,0-0.5,0L-49.1,599.1z M-49.3,601.5c0.1,0,0.3,0,0.5,0.1
			c0.6,0,1.1-0.1,1.1-0.7c0-0.5-0.4-0.8-1-0.8h-0.4L-49.3,601.5z"/>
		<path id="XMLID_436_" class="st1" d="M-44.4,601.3l-0.5,1.4l-1.3-0.1l2.1-5.3l1.6,0.1l1.2,5.5l-1.3-0.1l-0.3-1.4L-44.4,601.3z
			 M-43,600.5l-0.2-1.2c-0.1-0.3-0.1-0.7-0.2-1.1l0,0c-0.1,0.3-0.2,0.7-0.3,1l-0.4,1.1L-43,600.5z"/>
		<path id="XMLID_433_" class="st1" d="M-40.5,603l0.4-5.4l1.4,0.1l1,2.1c0.3,0.6,0.5,1.3,0.7,1.9l0,0c0-0.7,0-1.4,0.1-2.3l0.1-1.6
			l1.1,0.1l-0.4,5.4l-1.3-0.1l-1-2.2c-0.3-0.6-0.6-1.3-0.8-2l0,0c0,0.7-0.1,1.5-0.1,2.4l-0.1,1.6H-40.5z"/>
		<path id="XMLID_430_" class="st1" d="M-34.6,598.1l1.2,0.1l-0.2,2.4l0,0c0.1-0.2,0.3-0.4,0.4-0.6l1.4-1.7l1.5,0.1l-2,2.2l1.6,3.2
			l-1.4-0.1l-1.1-2.4l-0.5,0.5l-0.1,1.8l-1.2-0.1L-34.6,598.1z"/>
	</g>
</g>
<path id="XMLID_1_" class="st13" d="M180.6,537.3c2.8-8.9-10-12.9-10-12.9l2.3-8.1l-4.8-1.1l-2.2,7.7l-4.1-0.9l2.2-7.7l-4.8-1.4
	l-2.3,8.1l-9.5-2.4l-1.4,5c4.6,1.1,6.6,1.7,6.1,3.5c-0.5,1.8-5.1,20.1-5.7,22.1c-0.6,2-1.4,2.1-2.5,1.8c-1.1-0.3-3.9-1.1-3.9-1.1
	l-2.2,5.7l10.3,2.6l-2.4,8.2l4.7,1.1l2.1-8l4.1,1l-2.2,8.1l5,1.3l2-8.2c0.3,0.1,1.3,0.3,4.4,0.7c5.6,0.8,10.7-0.8,13.3-8.5
	c2.5-7.2-5-10.9-5-10.9S178.8,542.9,180.6,537.3z M169.8,551.2c-0.8,4-4.4,5.2-7.8,4.5c-3.7-0.8-8-2.1-8-2.1l3-11
	C166.9,545.1,170.5,547.8,169.8,551.2z M171.1,535.9c-0.6,2.6-4.2,3.9-7.1,3.3c-2.9-0.6-6-1.4-6-1.4l2.5-10c0,0,0.6,0,4.8,1.1
	C169.6,530.1,171.7,533.3,171.1,535.9z"/>
<path id="XMLID_46_" class="st13" d="M115.5,372.7c3.3-5.3-4.4-10-4.4-10l2.8-4.9l-2.9-1.5l-2.6,4.6l-2.5-1.3l2.6-4.6l-2.9-1.7
	l-2.8,4.9l-5.8-3.1l-1.7,3c2.8,1.5,4,2.2,3.4,3.3c-0.6,1.1-6.6,12.2-7.3,13.4c-0.7,1.2-1.3,1.2-1.9,0.8c-0.7-0.4-2.3-1.3-2.3-1.3
	l-2.3,3.4l6.3,3.4l-2.9,5l2.9,1.5l2.6-4.8l2.5,1.3l-2.7,4.9l3.1,1.6l2.6-5c0.2,0.1,0.8,0.4,2.8,1.2c3.5,1.4,7.1,1.2,10-3.4
	c2.8-4.3-1.5-7.9-1.5-7.9S113.4,376,115.5,372.7z M106.3,380c-1.2,2.5-3.7,2.7-5.8,1.7c-2.3-1.1-4.9-2.7-4.9-2.7l3.7-6.7
	C105.3,375.5,107.2,377.9,106.3,380z M109.5,370.2c-0.8,1.6-3.3,1.9-5.1,1c-1.8-0.9-3.6-1.9-3.6-1.9l3.2-6.1c0,0,0.4,0.1,3,1.5
	S110.4,368.6,109.5,370.2z"/>
<path id="XMLID_41_" class="st13" d="M101,644.7c4.2-13.1-14.7-19-14.7-19l3.4-11.8l-7-1.7l-3.2,11.3l-6-1.4l3.2-11.3l-7-2
	l-3.4,11.9l-14-3.5l-2.1,7.4c6.8,1.7,9.7,2.5,9,5.2c-0.7,2.7-7.5,29.5-8.4,32.4c-0.9,2.9-2.1,3.2-3.7,2.7c-1.6-0.5-5.7-1.6-5.7-1.6
	l-3.2,8.4l15.1,3.9l-3.5,12.1l7,1.6l3.1-11.7l6,1.5l-3.2,11.8l7.4,1.9l2.9-12.1c0.4,0.1,1.9,0.4,6.5,1c8.3,1.1,15.7-1.2,19.6-12.5
	c3.6-10.6-7.4-16.1-7.4-16.1S98.5,652.9,101,644.7z M85.2,665.1c-1.1,5.9-6.5,7.7-11.4,6.7c-5.4-1.1-11.8-3.1-11.8-3.1l4.5-16.1
	C80.9,656.1,86.2,660.2,85.2,665.1z M87.1,642.7c-0.9,3.8-6.1,5.7-10.4,4.8c-4.3-0.9-8.8-2.1-8.8-2.1l3.7-14.6c0,0,0.9,0,7.1,1.7
	S88,638.9,87.1,642.7z"/>
<path id="XMLID_36_" class="st13" d="M-78.1,499.3c-3.3-8.8-15.9-4-15.9-4l-3.2-7.8l-4.5,2.1l3.1,7.4l-3.8,1.8l-3.1-7.4l-4.6,1.9
	l3.2,7.8l-9,4l2,4.8c4.3-2,6.2-2.7,7-1c0.7,1.7,8.4,18.9,9.2,20.9c0.8,1.9,0.2,2.6-0.9,3c-1.1,0.4-3.7,1.5-3.7,1.5l1.8,5.9l9.7-4.3
	l3.2,7.9l4.4-2.1l-3.3-7.6l3.9-1.7l3.3,7.7l4.7-2.1l-3.5-7.7c0.3-0.1,1.2-0.6,3.9-2.2c4.9-2.9,7.9-7.3,5.2-14.9
	c-2.5-7.2-10.7-5.5-10.7-5.5S-76.1,504.7-78.1,499.3z M-78,516.9c1.9,3.6-0.3,6.9-3.3,8.4c-3.4,1.7-7.6,3.3-7.6,3.3l-4.4-10.5
	C-84.1,513.8-79.6,513.8-78,516.9z M-86.5,504.1c1.1,2.4-0.8,5.6-3.5,7c-2.7,1.3-5.6,2.6-5.6,2.6l-4.2-9.4c0,0,0.5-0.4,4.5-2.1
	C-91.3,500.4-87.6,501.6-86.5,504.1z"/>
</svg>
