<svg id="Groupe_50" data-name="Groupe 50" xmlns="http://www.w3.org/2000/svg" viewBox="0 0 380.224 755.079">
  <defs>
    <style>
      .cls-1 {
        fill: #1f2228;
      }

      .cls-2 {
        fill: #05122d;
      }

      .cls-3 {
        fill: #344aa5;
      }

      .cls-4 {
        fill: #6b8ef9;
      }

      .cls-5 {
        fill: #b58654;
      }

      .cls-6 {
        fill: #26592f;
      }

      .cls-7 {
        fill: #ffb41d;
      }

      .cls-8 {
        fill: #fff;
      }

      .cls-9 {
        fill: #141414;
      }
    </style>
  </defs>
  <g id="Groupe_49" data-name="Groupe 49" transform="translate(79.594 23.936)">
    <path id="Tracé_6" data-name="Tracé 6" class="cls-1" d="M213,64.277s.223-30.857,2.451-34.2,16.375-8.912,40.325-8.577,49.571,3.008,64.832,10.36,19.049,10.026,19.606,15.261-1.337,61.936-1.337,61.936-14.7-6.127-18.157,0-.111,11.14-6.8,11.14-15.818-6.572-13.367-10.805-7.018-28.072-8.577-33.419-17.712-14.816-17.712-14.816l-24.284-3.342L213,64.277" transform="translate(-55.322 -21.487)"/>
    <path id="Tracé_7" data-name="Tracé 7" class="cls-2" d="M267.9,611.318l2.785,21.722s-22.056,9.469-34.755,13.145c-12.81,3.676-21.5,7.018-27.849,9.246s-32.639,8.132-42.887,0,9.8-27.292,22.056-31.191,35.981-11.7,40.1-17.266,40.548,4.344,40.548,4.344" transform="translate(-61.092 45.038)"/>
    <path id="Tracé_8" data-name="Tracé 8" class="cls-2" d="M287.651,610.661s3.676,36.76,5.347,46.006,7.241,30.968,25.064,29.854,22.613-9.246,22.613-20.608c0-8.466-23.727-60.711-26.178-63.5s-25.732-.668-26.846,8.243h0" transform="translate(-46.871 44.582)"/>
    <path id="Tracé_9" data-name="Tracé 9" class="cls-3" d="M314.876,351.348s-2.451,152.612,0,208.309,8.577,71.293,8.577,71.293-22.836-2.228-26.735,8.355c0,0-42.887-177.676-45.672-207.753,0,0,5.013,165.422,8.355,187.144l3.342,21.722s-26.178,2.228-40.659-4.456c0,0,7.8-10.026,6.684-18.937s-16.709-95.243-20.051-143.7c-2.785-39.545.446-123.426.446-123.426s31.97,16.487,105.714,1.448" transform="translate(-55.939 15.937)"/>
    <path id="Tracé_10" data-name="Tracé 10" class="cls-4" d="M220.6,607.726s4.456-6.684,5.458-10.026h32.973l2.228,14.481S232.854,615.746,220.6,607.726Z" transform="translate(-54.456 44.175)"/>
    <path id="Tracé_11" data-name="Tracé 11" class="cls-4" d="M284.3,596.589s12.922-8.912,27.626-4.567l2.785,11.585s-16.821-.334-20.942,2.562a22.577,22.577,0,0,0-5.793,5.792Z" transform="translate(-47.197 43.392)"/>
    <path id="Tracé_12" data-name="Tracé 12" class="cls-5" d="M208.967,272.775s-21.945,18.937-32.3,20.831-46.006-60.933-57.591-69.4c-11.474-8.577-19.717-14.147-31.191-19.271C76.407,199.7,70.837,186,71.506,181.208s2.562-9.134,4.79-7.575c2.228,1.671,1.448,8.355,4.79,12.365,3.342,4.122,9.691,4.122,13.367,4.122s10.805-.334,10.805-3.008c0-2.562,2.228-13.479,4.456-13.479,4.79,0,3.342,5.013,3.676,9.8s3.008,7.464,4.456,11.14.334,8.132,7.018,13.033c6.684,4.79,59.04,46.452,59.04,46.452l10.805-9.246,14.259,27.96" transform="translate(-71.452 -4.186)"/>
    <path id="Tracé_13" data-name="Tracé 13" class="cls-6" d="M198.23,221.848s28.629-34.867,33.084-37.095,19.494-10.471,26.958-10.248c7.575.223,51.91-3.342,65.835,1.671,13.145,4.79,17.043,11.14,17.823,12.588s17.489,66.5,17.489,66.5l-47.12,4.456s9.246,46.786,9.246,58.705-3.676,53.136-3.676,53.136-61.936,23.059-105.826-1.448c0,0,1.782-67.951,2.228-80.2.334-12.253-2.228-27.849-2.228-27.849l-13.033,15.93L182.3,244.572Z" transform="translate(-58.82 -4.167)"/>
    <path id="Tracé_14" data-name="Tracé 14" class="cls-5" d="M353.107,247.6s10.026,53.024,8.577,62.27-122.535,25.955-133.675,26.4c-11.14.334-33.084,8.912-43.444,7.8s-21.165-11.474-22.613-14.481.334-4.122,3.342-3.676c3.008.334,13.7,8.912,19.271,8.577s13.7-11.474,13.7-11.474-15.6-3.342-16.375-5.57.78-5.57,5.9-4.456c5.236,1.114,13.033,3.342,15.6,2.228s7.909,4.344,11.919,4.79,37.874-8.132,47.9-11.474,57.146-24.618,57.146-24.618l-5.9-32.527Z" transform="translate(-61.197 4.279)"/>
    <path id="Tracé_15" data-name="Tracé 15" class="cls-5" d="M336.224,102.349c-7.464-1.894-13.7-3.676-19.717,12.254,0,0-10.805.334-12.254-6.684s-3.008-33.753-3.008-33.753S287.878,67.148,284.2,60.019,280.526,53,280.526,53s-51.242-4.456-66.837,5.57c0,0-3.008,27.515-4.456,43.11s0,66.5,47.9,74.3l-2.005,12.365h0l-.223,1.671h1c1.225,2.562,4.567,7.018,11.808,7.018,8.466,0,21.834-2.9,26.178-7.018h1.448V170.3h0c18.826-10.137,25.955-28.629,25.955-28.629s5.9,3.342,12.588-2.562S343.687,104.243,336.224,102.349Z" transform="translate(-55.788 -18.008)"/>
  </g>
  <g id="Layer_2_4_" transform="translate(0 0)">
    <circle id="Ellipse_4" data-name="Ellipse 4" class="cls-7" cx="84.995" cy="84.995" r="84.995"/>
  </g>
  <g id="Layer_1_3_" transform="translate(35.981 23.17)">
    <g id="Layer_2_3_">
      <path id="XMLID_1_" class="cls-8" d="M119.077,70.371C124.87,52.214,98.8,44.082,98.8,44.082l4.567-16.375-9.691-2.228-4.344,15.6L81.091,39.18l4.344-15.6L75.744,20.8,71.066,37.287l-19.383-4.9-2.9,10.248c9.469,2.228,13.367,3.453,12.365,7.129-.891,3.565-10.36,40.659-11.474,44.781-1.225,4.122-2.9,4.344-5.124,3.676l-7.8-2.228L32.3,107.577l20.942,5.347-4.9,16.709,9.58,2.228,4.233-16.152,8.355,2.117L66.164,134.2l10.248,2.562,4.01-16.709c.557.223,2.673.557,8.912,1.448,11.362,1.56,21.722-1.671,27.069-17.266,5.013-14.593-10.248-22.279-10.248-22.279S115.512,81.511,119.077,70.371ZM97.244,98.443c-1.56,8.132-9.023,10.583-15.818,9.246-7.464-1.56-16.264-4.233-16.264-4.233l6.127-22.279C91.34,85.966,98.58,91.647,97.244,98.443Zm2.562-30.968c-1.337,5.236-8.466,7.909-14.37,6.684-5.9-1.337-12.142-2.9-12.142-2.9l5.013-20.274s1.225,0,9.8,2.228C96.909,55.555,101.142,62.239,99.806,67.475Z" transform="translate(-32.3 -20.8)"/>
    </g>
  </g>
  <ellipse id="Ellipse_5" data-name="Ellipse 5" class="cls-9" cx="5.347" cy="8.689" rx="5.347" ry="8.689" transform="translate(286.62 100.59)"/>
  <ellipse id="Ellipse_6" data-name="Ellipse 6" class="cls-9" cx="5.347" cy="8.689" rx="5.347" ry="8.689" transform="translate(244.959 98.696)"/>
  <path id="Tracé_16" data-name="Tracé 16" class="cls-9" d="M254.38,81.918l-.78-.78c.111-.111,8.577-8.02,17.712-4.233l-.446,1C262.4,74.343,254.38,81.806,254.38,81.918Z" transform="translate(28.899 8.647)"/>
  <path id="Tracé_17" data-name="Tracé 17" class="cls-9" d="M230.864,81.824c-.334-.334-7.241-7.018-15.707-2.451l-.557-1c9.134-4.9,16.932,2.562,17.044,2.673Z" transform="translate(24.455 8.741)"/>
  <path id="Tracé_18" data-name="Tracé 18" class="cls-8" d="M223.2,124.2s26.735,7.463,46.786,0c0,0-4.79,18.6-21.5,18.6C225.874,142.8,223.2,124.2,223.2,124.2Z" transform="translate(25.435 14.153)"/>
</svg>
