<?xml version="1.0" encoding="utf-8"?>
<!-- Generator: Adobe Illustrator 19.0.0, SVG Export Plug-In . SVG Version: 6.00 Build 0)  -->
<svg version="1.1" id="Layer_1" xmlns="http://www.w3.org/2000/svg" xmlns:xlink="http://www.w3.org/1999/xlink" x="0px" y="0px"
	 viewBox="0 0 229.4 177.9" style="enable-background:new 0 0 229.4 177.9;" xml:space="preserve">
<style type="text/css">
	.st0{fill:#52A800;}
	.st1{fill:#161616;}
	.st2{fill:#FFFFFF;}
	.st3{fill:#8DF7FC;}
	.st4{fill:none;stroke:#FFFFFF;stroke-miterlimit:10;}
	.st5{fill:#FF0606;}
</style>
<path class="st0" d="M214.9,145.5H14.5C6.5,145.5,0,139,0,131V14.5C0,6.5,6.5,0,14.5,0h200.4c8,0,14.5,6.5,14.5,14.5V131
	C229.4,139,222.9,145.5,214.9,145.5z"/>
<rect y="15" class="st1" width="229.4" height="32.5"/>
<g>
	<rect x="14" y="61.5" class="st2" width="136" height="21"/>
	<rect x="14" y="65" class="st3" width="136" height="2.2"/>
	<rect x="14.3" y="69" class="st3" width="136" height="2.2"/>
	<rect x="14" y="72.8" class="st3" width="136" height="2.2"/>
	<rect x="14" y="77.3" class="st3" width="136" height="2.2"/>
</g>
<rect x="150" y="65.4" class="st2" width="20.8" height="13.5"/>
<g>
	<path d="M157.5,72c0,2-0.7,3.1-2,3.1c-1.1,0-1.9-1.1-1.9-3c0-2,0.8-3,2-3C156.8,69,157.5,70.1,157.5,72z M154.4,72.1
		c0,1.5,0.5,2.4,1.2,2.4c0.8,0,1.2-0.9,1.2-2.4c0-1.4-0.4-2.4-1.2-2.4C154.9,69.7,154.4,70.5,154.4,72.1z"/>
	<path d="M162.2,72c0,2-0.7,3.1-2,3.1c-1.1,0-1.9-1.1-1.9-3c0-2,0.8-3,2-3C161.5,69,162.2,70.1,162.2,72z M159,72.1
		c0,1.5,0.5,2.4,1.2,2.4c0.8,0,1.2-0.9,1.2-2.4c0-1.4-0.4-2.4-1.2-2.4C159.5,69.7,159,70.5,159,72.1z"/>
	<path d="M166.8,72c0,2-0.7,3.1-2,3.1c-1.1,0-1.9-1.1-1.9-3c0-2,0.8-3,2-3C166.1,69,166.8,70.1,166.8,72z M163.6,72.1
		c0,1.5,0.5,2.4,1.2,2.4c0.8,0,1.2-0.9,1.2-2.4c0-1.4-0.4-2.4-1.2-2.4C164.1,69.7,163.6,70.5,163.6,72.1z"/>
</g>
<g>
	<path d="M16.7,136.1c-0.2,0.1-0.7,0.2-1.4,0.2c-1.9,0-2.9-1.2-2.9-2.7c0-1.9,1.3-2.9,3-2.9c0.6,0,1.1,0.1,1.3,0.2l-0.3,1
		c-0.3-0.1-0.6-0.2-1-0.2c-1,0-1.7,0.6-1.7,1.8c0,1.1,0.6,1.8,1.7,1.8c0.4,0,0.8-0.1,1-0.2L16.7,136.1z"/>
	<path d="M17.5,130.5h1.2v5.7h-1.2V130.5z"/>
	<path d="M21,131.2c0,0.3-0.3,0.6-0.7,0.6c-0.4,0-0.6-0.3-0.6-0.6c0-0.4,0.3-0.6,0.6-0.6C20.7,130.6,21,130.8,21,131.2z M19.7,136.2
		v-4h1.2v4H19.7z"/>
	<path d="M22.9,134.6c0,0.5,0.5,0.8,1.1,0.8c0.4,0,0.8-0.1,1.1-0.2l0.2,0.8c-0.4,0.2-0.9,0.2-1.4,0.2c-1.3,0-2.1-0.8-2.1-2
		c0-1,0.6-2.1,2-2.1c1.3,0,1.8,1,1.8,2c0,0.2,0,0.4,0,0.5H22.9z M24.3,133.8c0-0.3-0.1-0.8-0.7-0.8c-0.5,0-0.7,0.5-0.8,0.8H24.3z"/>
	<path d="M26.2,133.5c0-0.5,0-0.9,0-1.3h1.1l0.1,0.5h0c0.2-0.3,0.6-0.6,1.2-0.6c0.8,0,1.4,0.5,1.4,1.7v2.3h-1.2V134
		c0-0.5-0.2-0.9-0.6-0.9c-0.3,0-0.5,0.2-0.6,0.5c0,0.1,0,0.2,0,0.3v2.3h-1.2V133.5z"/>
	<path d="M32.2,131.1v1.1h0.9v0.9h-0.9v1.4c0,0.5,0.1,0.7,0.5,0.7c0.2,0,0.3,0,0.4,0l0,0.9c-0.2,0.1-0.5,0.1-0.8,0.1
		c-0.4,0-0.7-0.1-0.9-0.3c-0.2-0.2-0.3-0.6-0.3-1.2v-1.6h-0.5v-0.9H31v-0.9L32.2,131.1z"/>
	<path d="M36.7,130.8v5.5h-1.2v-5.5H36.7z"/>
	<path d="M41.6,130.5v4.6c0,0.4,0,0.9,0,1.2h-1.1l-0.1-0.6h0c-0.3,0.4-0.7,0.7-1.2,0.7c-0.9,0-1.7-0.8-1.7-2c0-1.3,0.8-2.1,1.8-2.1
		c0.5,0,0.9,0.2,1,0.4h0v-2.1H41.6z M40.4,133.9c0-0.1,0-0.2,0-0.2c-0.1-0.3-0.3-0.6-0.7-0.6c-0.6,0-0.8,0.5-0.8,1.1
		c0,0.7,0.3,1.1,0.8,1.1c0.4,0,0.6-0.2,0.7-0.6c0-0.1,0-0.2,0-0.3V133.9z"/>
	<path d="M43.5,134.6c0,0.5,0.5,0.8,1.1,0.8c0.4,0,0.8-0.1,1.1-0.2l0.2,0.8c-0.4,0.2-0.9,0.2-1.4,0.2c-1.3,0-2.1-0.8-2.1-2
		c0-1,0.6-2.1,2-2.1c1.3,0,1.8,1,1.8,2c0,0.2,0,0.4,0,0.5H43.5z M45,133.8c0-0.3-0.1-0.8-0.7-0.8c-0.5,0-0.7,0.5-0.8,0.8H45z"/>
	<path d="M46.8,133.5c0-0.5,0-0.9,0-1.3h1.1l0.1,0.5h0c0.2-0.3,0.6-0.6,1.2-0.6c0.8,0,1.4,0.5,1.4,1.7v2.3h-1.2V134
		c0-0.5-0.2-0.9-0.6-0.9c-0.3,0-0.5,0.2-0.6,0.5c0,0.1,0,0.2,0,0.3v2.3h-1.2V133.5z"/>
	<path d="M52.9,131.1v1.1h0.9v0.9h-0.9v1.4c0,0.5,0.1,0.7,0.5,0.7c0.2,0,0.3,0,0.4,0l0,0.9c-0.2,0.1-0.5,0.1-0.8,0.1
		c-0.4,0-0.7-0.1-0.9-0.3c-0.2-0.2-0.3-0.6-0.3-1.2v-1.6h-0.5v-0.9h0.5v-0.9L52.9,131.1z"/>
	<path d="M55.8,131.2c0,0.3-0.3,0.6-0.7,0.6c-0.4,0-0.6-0.3-0.6-0.6c0-0.4,0.3-0.6,0.6-0.6C55.5,130.6,55.7,130.8,55.8,131.2z
		 M54.5,136.2v-4h1.2v4H54.5z"/>
	<path d="M56.8,136.2v-3h-0.5v-0.9h0.5v-0.2c0-1.1,0.8-1.7,2.1-1.7c0.4,0,0.9,0.1,1.2,0.2l-0.2,0.9c-0.2-0.1-0.5-0.2-0.9-0.2
		c-0.6,0-0.9,0.3-0.9,0.8v0.1h2.4v4h-1.2v-3h-1.2v3H56.8z"/>
	<path d="M64.4,136.1c-0.2,0.1-0.6,0.2-1.1,0.2c-1.3,0-2.1-0.8-2.1-2c0-1.2,0.8-2.1,2.3-2.1c0.3,0,0.7,0.1,0.9,0.2l-0.2,0.9
		c-0.1-0.1-0.4-0.1-0.7-0.1c-0.6,0-1.1,0.5-1.1,1.1c0,0.7,0.5,1.1,1.1,1.1c0.3,0,0.5,0,0.7-0.1L64.4,136.1z"/>
	<path d="M67.4,136.2l-0.1-0.4h0c-0.3,0.3-0.7,0.5-1.1,0.5c-0.8,0-1.3-0.6-1.3-1.2c0-1,0.9-1.5,2.3-1.5v-0.1c0-0.2-0.1-0.5-0.7-0.5
		c-0.4,0-0.8,0.1-1.1,0.3l-0.2-0.8c0.3-0.2,0.8-0.3,1.5-0.3c1.3,0,1.7,0.8,1.7,1.7v1.4c0,0.4,0,0.7,0.1,1H67.4z M67.2,134.4
		c-0.6,0-1.1,0.1-1.1,0.6c0,0.3,0.2,0.5,0.5,0.5c0.3,0,0.6-0.2,0.6-0.5c0-0.1,0-0.1,0-0.2V134.4z"/>
	<path d="M70.7,131.1v1.1h0.9v0.9h-0.9v1.4c0,0.5,0.1,0.7,0.5,0.7c0.2,0,0.3,0,0.4,0l0,0.9c-0.2,0.1-0.5,0.1-0.8,0.1
		c-0.4,0-0.7-0.1-0.9-0.3c-0.2-0.2-0.3-0.6-0.3-1.2v-1.6H69v-0.9h0.5v-0.9L70.7,131.1z"/>
	<path d="M73.6,131.2c0,0.3-0.3,0.6-0.7,0.6c-0.4,0-0.6-0.3-0.6-0.6c0-0.4,0.3-0.6,0.6-0.6C73.3,130.6,73.6,130.8,73.6,131.2z
		 M72.3,136.2v-4h1.2v4H72.3z"/>
	<path d="M78.4,134.2c0,1.4-1,2.1-2.1,2.1c-1.2,0-2-0.8-2-2c0-1.3,0.8-2.1,2.1-2.1C77.6,132.2,78.4,133,78.4,134.2z M75.5,134.2
		c0,0.7,0.3,1.2,0.8,1.2c0.5,0,0.8-0.5,0.8-1.2c0-0.6-0.2-1.2-0.8-1.2C75.8,133.1,75.5,133.7,75.5,134.2z"/>
	<path d="M79.2,133.5c0-0.5,0-0.9,0-1.3h1.1l0.1,0.5h0c0.2-0.3,0.6-0.6,1.2-0.6c0.8,0,1.4,0.5,1.4,1.7v2.3h-1.2V134
		c0-0.5-0.2-0.9-0.6-0.9c-0.3,0-0.5,0.2-0.6,0.5c0,0.1,0,0.2,0,0.3v2.3h-1.2V133.5z"/>
	<path d="M83.8,133c0-0.4,0.3-0.7,0.7-0.7s0.7,0.3,0.7,0.7c0,0.4-0.3,0.7-0.7,0.7C84.1,133.7,83.8,133.4,83.8,133z M83.8,135.6
		c0-0.4,0.3-0.7,0.7-0.7s0.7,0.3,0.7,0.7c0,0.4-0.3,0.7-0.7,0.7C84.1,136.3,83.8,136,83.8,135.6z"/>
</g>
<g id="XMLID_53_">
	<path id="XMLID_54_" class="st2" d="M95.3,133.3c0,2-0.7,3.1-2,3.1c-1.1,0-1.9-1.1-1.9-3c0-2,0.8-3,2-3
		C94.6,130.4,95.3,131.5,95.3,133.3z M92.1,133.4c0,1.5,0.5,2.4,1.2,2.4c0.8,0,1.2-0.9,1.2-2.4c0-1.4-0.4-2.4-1.2-2.4
		C92.6,131,92.1,131.8,92.1,133.4z"/>
	<path id="XMLID_57_" class="st2" d="M99.9,133.3c0,2-0.7,3.1-2,3.1c-1.1,0-1.9-1.1-1.9-3c0-2,0.8-3,2-3
		C99.2,130.4,99.9,131.5,99.9,133.3z M96.7,133.4c0,1.5,0.5,2.4,1.2,2.4c0.8,0,1.2-0.9,1.2-2.4c0-1.4-0.4-2.4-1.2-2.4
		C97.2,131,96.7,131.8,96.7,133.4z"/>
	<path id="XMLID_60_" class="st2" d="M104.5,133.3c0,2-0.7,3.1-2,3.1c-1.1,0-1.9-1.1-1.9-3c0-2,0.8-3,2-3
		C103.8,130.4,104.5,131.5,104.5,133.3z M101.3,133.4c0,1.5,0.5,2.4,1.2,2.4c0.8,0,1.2-0.9,1.2-2.4c0-1.4-0.4-2.4-1.2-2.4
		C101.9,131,101.3,131.8,101.3,133.4z"/>
	<path id="XMLID_63_" class="st2" d="M107,131.2L107,131.2l-1,0.5l-0.2-0.6l1.3-0.7h0.7v5.9H107V131.2z"/>
	<path id="XMLID_65_" class="st2" d="M109.9,136.3v-0.5l0.6-0.6c1.5-1.4,2.2-2.2,2.2-3.1c0-0.6-0.3-1.1-1.2-1.1
		c-0.5,0-1,0.3-1.2,0.5L110,131c0.4-0.3,1-0.6,1.7-0.6c1.3,0,1.8,0.9,1.8,1.7c0,1.1-0.8,2-2,3.1l-0.5,0.4v0h2.6v0.7H109.9z"/>
	<path id="XMLID_67_" class="st2" d="M114.7,135.4c0.2,0.1,0.7,0.4,1.3,0.4c1,0,1.3-0.6,1.3-1.1c0-0.8-0.7-1.2-1.5-1.2h-0.4v-0.6
		h0.4c0.6,0,1.3-0.3,1.3-1c0-0.5-0.3-0.9-1-0.9c-0.5,0-0.9,0.2-1.2,0.4l-0.2-0.6c0.3-0.2,0.9-0.5,1.5-0.5c1.2,0,1.7,0.7,1.7,1.4
		c0,0.6-0.4,1.1-1.1,1.4v0c0.7,0.1,1.3,0.7,1.3,1.5c0,0.9-0.7,1.8-2.1,1.8c-0.7,0-1.2-0.2-1.5-0.4L114.7,135.4z"/>
	<path id="XMLID_69_" class="st2" d="M121.6,136.3v-1.6h-2.7v-0.5l2.6-3.7h0.9v3.6h0.8v0.6h-0.8v1.6H121.6z M121.6,134.1v-2
		c0-0.3,0-0.6,0-0.9h0c-0.2,0.3-0.3,0.6-0.5,0.9l-1.4,2v0H121.6z"/>
	<path id="XMLID_72_" class="st2" d="M127.2,131.1H125l-0.2,1.5c0.1,0,0.3,0,0.5,0c0.5,0,0.9,0.1,1.3,0.3c0.5,0.3,0.8,0.8,0.8,1.5
		c0,1.1-0.9,2-2.2,2c-0.6,0-1.2-0.2-1.5-0.4l0.2-0.6c0.2,0.1,0.7,0.3,1.3,0.3c0.7,0,1.4-0.5,1.4-1.3c0-0.8-0.5-1.3-1.7-1.3
		c-0.3,0-0.6,0-0.8,0.1l0.4-2.8h2.8V131.1z"/>
	<path id="XMLID_74_" class="st2" d="M131.7,131c-0.2,0-0.4,0-0.6,0c-1.2,0.2-1.9,1.1-2,2.1h0c0.3-0.4,0.8-0.7,1.4-0.7
		c1,0,1.8,0.7,1.8,1.9c0,1.1-0.7,2.1-1.9,2.1c-1.3,0-2.1-1-2.1-2.5c0-1.2,0.4-2.1,1-2.6c0.5-0.5,1.1-0.8,1.9-0.9c0.2,0,0.4,0,0.6,0
		V131z M131.5,134.4c0-0.8-0.5-1.3-1.2-1.3c-0.5,0-0.9,0.3-1.1,0.7c-0.1,0.1-0.1,0.2-0.1,0.4c0,1,0.5,1.7,1.3,1.7
		C131,135.8,131.5,135.2,131.5,134.4z"/>
	<path id="XMLID_77_" class="st2" d="M136.8,130.5v0.5l-2.5,5.3h-0.8l2.5-5.2v0h-2.9v-0.7H136.8z"/>
</g>
<path class="st4" d="M134.2,141.1H93.3c-3.2,0-5.8-2.6-5.8-5.8v-4.1c0-3.2,2.6-5.8,5.8-5.8h40.9c3.2,0,5.8,2.6,5.8,5.8v4.1
	C140,138.5,137.4,141.1,134.2,141.1z"/>
<path class="st5" d="M141,174.3l-2.1,3.7c0,0-18-10.9-24.1-28.9l-3.2,8.3l-4-2l6.8-15.9l16.5,6.9l-1.4,4.4l-10.8-4.9
	C118.6,145.9,125.9,163,141,174.3z"/>
</svg>
