<?xml version="1.0" encoding="utf-8"?>
<!-- Generator: Adobe Illustrator 19.0.0, SVG Export Plug-In . SVG Version: 6.00 Build 0)  -->
<svg version="1.1" id="Layer_1" xmlns="http://www.w3.org/2000/svg" xmlns:xlink="http://www.w3.org/1999/xlink" x="0px" y="0px"
	 viewBox="0 0 720 720" style="enable-background:new 0 0 720 720;" xml:space="preserve">
<style type="text/css">
	.st0{fill:#D6DCC5;}
	.st1{fill:#FFFFFF;}
	.st2{fill:#B4D99C;}
	.st3{fill:#A07740;}
	.st4{fill:#FFFFFF;stroke:#231F20;stroke-miterlimit:10;}
	.st5{fill:#CFAD6B;}
</style>
<path id="XMLID_10_" class="st0" d="M701.8,339.3H571.4c-10.3-107.5-100.9-191.5-211-191.5c-82.7,0-154.3,47.3-189.2,116.3h-62.7
	c-14.8,0-26.8,12-26.8,26.8v0c0,14.8,12,26.8,26.8,26.8h44.1c-1,5.1-1.9,10.2-2.5,15.4H45.2c-17.6,0-31.9,14.3-31.9,31.9v0
	c0,17.6,14.3,31.9,31.9,31.9h106.4c1,5.8,2.3,11.6,3.8,17.3H44.8c-2.3,0-4.1,1.8-4.1,4.1c0,2.3,1.8,4.1,4.1,4.1h112.9
	c26.7,86.6,107.3,149.6,202.7,149.6c50.5,0,96.9-17.7,133.3-47.1h132.9c14.8,0,26.8-12,26.8-26.8v0c0-14.8-12-26.8-26.8-26.8h-85.7
	c2.7-4.3,5.2-8.8,7.6-13.3H589c14.8,0,26.8-12,26.8-26.8v0c0-14.8-12-26.8-26.8-26.8h-21.2c2.2-10.4,3.7-21.1,4.3-31.9h80.6
	c2.3,0,4.1-1.8,4.1-4.1v0c0-2.3-1.8-4.1-4.1-4.1h-80.3c0-1.4,0.1-2.9,0.1-4.3c0-4.1-0.1-8.3-0.4-12.3h129.7c2.3,0,4.1-1.8,4.1-4.1
	C705.9,341.1,704,339.3,701.8,339.3z"/>
<g id="XMLID_13_">
	<circle id="XMLID_1_" class="st1" cx="360.4" cy="359.8" r="138.1"/>
	<path id="XMLID_3_" class="st2" d="M360.4,500.2c-77.4,0-140.4-63-140.4-140.4c0-77.4,63-140.4,140.4-140.4
		c77.4,0,140.4,63,140.4,140.4C500.8,437.2,437.8,500.2,360.4,500.2z M360.4,223.9c-74.9,0-135.8,60.9-135.8,135.8
		c0,74.9,60.9,135.8,135.8,135.8s135.8-60.9,135.8-135.8C496.2,284.9,435.3,223.9,360.4,223.9z"/>
</g>
<path id="XMLID_27_" class="st3" d="M450.1,324l14.1-14.9c-13.3-17.6-33.5-39.3-33.5-39.3l-17.9,13.7c-6-3.6-11.4-5.5-15.3-4.7
	c-14.3,2.8-42.4,14.6-42.4,14.6l80.8,80.1c0,0,22.3-19,17.1-41.5C452.4,329.5,451.4,326.8,450.1,324z"/>
<path id="XMLID_116_" class="st4" d="M231.1,301.2"/>
<path id="XMLID_115_" class="st5" d="M436.9,372.4l-41.6-47c-1.1-1.3-21-23.8-27.5-29.3c-11.1-9.4-38.6,7.1-38.6,7.1l-22.3-18.9
	l-45.7,36.9l15.2,18.1c0,0-3.8,19.3,2,25.6s68.5,82.2,68.5,82.2c5.4,6.1,14.7,6.7,20.7,1.2h0c5.7-5.1,6.5-13.7,2.1-19.8l0.9,1
	c5.4,6.1,14.7,6.7,20.7,1.2c6-5.4,6.5-14.8,1.1-20.9l1.5,1c5.4,6.1,14.7,6.7,20.7,1.2c4.9-4.4,6.2-11.4,3.6-17.2
	c5.4,3.3,12.5,2.8,17.4-1.6v0C441.8,387.9,442.3,378.5,436.9,372.4z"/>
<path id="XMLID_114_" class="st3" d="M372.8,299.7c0,0-30.4,19-26.5,34.2s18.9,38.4,18.9,38.4s25.7-3.5,22.1-15.9
	c-3.7-12.3-11.2-25.4-11.2-25.4l17.1-9.2"/>
<ellipse id="XMLID_113_" transform="matrix(0.7079 -0.7063 0.7063 0.7079 -188.3097 323.9513)" class="st3" cx="297.5" cy="389.6" rx="11.3" ry="14.3"/>
<ellipse id="XMLID_112_" transform="matrix(0.7079 -0.7063 0.7063 0.7079 -196.7363 343.6391)" class="st3" cx="317.1" cy="409.7" rx="11.3" ry="14.3"/>
<ellipse id="XMLID_111_" transform="matrix(0.7079 -0.7063 0.7063 0.7079 -207.7097 359.788)" class="st3" cx="331.1" cy="431" rx="11.3" ry="14.3"/>
</svg>
