<?xml version="1.0" encoding="utf-8"?>
<!-- Generator: Adobe Illustrator 19.0.0, SVG Export Plug-In . SVG Version: 6.00 Build 0)  -->
<svg version="1.1" id="Layer_1" xmlns="http://www.w3.org/2000/svg" xmlns:xlink="http://www.w3.org/1999/xlink" x="0px" y="0px"
	 viewBox="0 0 128 128" style="enable-background:new 0 0 128 128;" xml:space="preserve">
<style type="text/css">
	.st0{fill:none;stroke:#5E9E26;stroke-miterlimit:10;}
	.st1{opacity:0.57;fill:#74E510;}
</style>
<path id="XMLID_4_" class="st0" d="M67.2,32.5c0,0-3.7-4.5,0-9.2c3.7-4.7,9-10,16-13.7s20.7-0.5,28.2,8.2c7.5,8.7,10.2,24.5,3,32.8
	c-7.2,8.3-23.7,27-36,34.2C66,92,55,84.7,50.7,80.3C46.3,76,50,68.5,55.5,69s6,4.7,12.5,5.3C74.5,75,96.5,49,103,42.7
	s-1-17.5-7.5-19.5S85,24.7,81,28.7S73.3,37.8,67.2,32.5z"/>
<path id="XMLID_8_" class="st0" d="M73.5,59c0,0-2.5,6.5-9,3.2c-6-3.1-9.1-6.7-15.7-1.4s-20.9,19.9-27.3,27S19,103.2,23.8,106
	s11,4.3,17.7-1.7s9.5-8.8,14.8-5.5c5.3,3.3,1.3,9.5-2.7,13s-12.3,13-25.7,10.7C14.7,120.2,4.9,107,4.9,99S6,82.7,18.5,70.8
	s11.1-11.2,20.7-20s22.6-7,27.6-4.2C71.8,49.5,76.2,53.8,73.5,59z"/>
<path id="XMLID_12_" class="st1" d="M69.2,28.5c0,0-3.7-4.5,0-9.2c3.7-4.7,9-10,16-13.7s20.7-0.5,28.2,8.2c7.5,8.7,10.2,24.5,3,32.8
	c-7.2,8.3-23.7,27-36,34.2C68,88,57,80.7,52.7,76.3C48.3,72,52,64.5,57.5,65s6,4.7,12.5,5.3C76.5,71,98.5,45,105,38.7
	s-1-17.5-7.5-19.5S87,20.7,83,24.7S75.3,33.8,69.2,28.5z"/>
<path id="XMLID_11_" class="st1" d="M77.5,57c0,0-2.5,6.5-9,3.2c-6-3.1-9.1-6.7-15.7-1.4s-20.9,19.9-27.3,27S23,101.2,27.8,104
	s11,4.3,17.7-1.7s9.5-8.8,14.8-5.5c5.3,3.3,1.3,9.5-2.7,13s-12.3,13-25.7,10.7C18.7,118.2,8.9,105,8.9,97S10,80.7,22.5,68.8
	s11.1-11.2,20.7-20s22.6-7,27.6-4.2C75.8,47.5,80.2,51.8,77.5,57z"/>
</svg>
