<?xml version="1.0" encoding="utf-8"?>
<!-- Generator: Adobe Illustrator 19.0.0, SVG Export Plug-In . SVG Version: 6.00 Build 0)  -->
<svg version="1.1" id="Layer_1" xmlns="http://www.w3.org/2000/svg" xmlns:xlink="http://www.w3.org/1999/xlink" x="0px" y="0px"
	 viewBox="0 0 128 128" style="enable-background:new 0 0 128 128;" xml:space="preserve">
<style type="text/css">
	.st0{fill:#74E510;}
	.st1{fill:#5E9E26;}
	.st2{fill:#FFFFFF;}
	.st3{fill:none;}
	.st4{fill:#49DD0B;}
</style>
<g id="XMLID_54_">
	<circle id="XMLID_6_" class="st0" cx="34.7" cy="44.3" r="21.7"/>
	<path id="XMLID_23_" class="st1" d="M31.7,64.5c-12.2,0-22.2-9.9-22.2-22.2s9.9-22.2,22.2-22.2c12.2,0,22.2,9.9,22.2,22.2
		S43.9,64.5,31.7,64.5z M31.7,21.2c-11.7,0-21.2,9.5-21.2,21.2c0,11.7,9.5,21.2,21.2,21.2S52.8,54,52.8,42.3
		C52.8,30.7,43.3,21.2,31.7,21.2z"/>
	<g id="XMLID_15_">
		<path id="XMLID_16_" class="st2" d="M26.8,45.6c0.1,0,0.2,0,0.2,0.1l0.6,0.7c-0.4,0.4-0.8,0.8-1.3,1c-0.5,0.2-1.1,0.3-1.9,0.3
			c-0.6,0-1.2-0.1-1.7-0.3c-0.5-0.2-1-0.5-1.3-0.9c-0.4-0.4-0.6-0.9-0.8-1.4c-0.2-0.5-0.3-1.1-0.3-1.8c0-0.7,0.1-1.2,0.3-1.8
			c0.2-0.5,0.5-1,0.9-1.4c0.4-0.4,0.9-0.7,1.4-0.9c0.5-0.2,1.1-0.3,1.8-0.3c0.6,0,1.2,0.1,1.7,0.3c0.5,0.2,0.9,0.5,1.2,0.8l-0.5,0.8
			c0,0-0.1,0.1-0.1,0.1c0,0-0.1,0.1-0.2,0.1c-0.1,0-0.2,0-0.3-0.1c-0.1-0.1-0.2-0.1-0.4-0.2s-0.3-0.2-0.6-0.2s-0.5-0.1-0.9-0.1
			c-0.4,0-0.8,0.1-1.1,0.2c-0.3,0.1-0.6,0.3-0.9,0.6c-0.2,0.3-0.4,0.6-0.6,1S22,42.9,22,43.3c0,0.5,0.1,0.9,0.2,1.3s0.3,0.7,0.6,1
			c0.2,0.3,0.5,0.5,0.8,0.6c0.3,0.1,0.7,0.2,1,0.2c0.2,0,0.4,0,0.6,0c0.2,0,0.3-0.1,0.5-0.1s0.3-0.1,0.4-0.2
			c0.1-0.1,0.3-0.2,0.4-0.3c0,0,0.1-0.1,0.1-0.1C26.7,45.6,26.8,45.6,26.8,45.6z"/>
		<path id="XMLID_18_" class="st2" d="M34.4,39v1.3h-3.8v2.6h3.2v1.3h-3.2v3.5h-1.6V39H34.4z"/>
		<path id="XMLID_20_" class="st2" d="M42.4,47.7h-1.2c-0.1,0-0.3,0-0.3-0.1c-0.1-0.1-0.2-0.2-0.2-0.3L40,45.5h-3.6l-0.6,1.8
			c0,0.1-0.1,0.2-0.2,0.3c-0.1,0.1-0.2,0.1-0.3,0.1h-1.3l3.4-8.7H39L42.4,47.7z M36.8,44.4h2.8l-1.1-2.9c0-0.1-0.1-0.3-0.2-0.5
			s-0.1-0.4-0.2-0.6c-0.1,0.2-0.1,0.4-0.2,0.6c-0.1,0.2-0.1,0.3-0.2,0.5L36.8,44.4z"/>
	</g>
	<circle id="XMLID_36_" class="st0" cx="97.7" cy="84.3" r="21.7"/>
	<path id="XMLID_33_" class="st1" d="M94.7,104.5c-12.2,0-22.2-9.9-22.2-22.2s9.9-22.2,22.2-22.2c12.2,0,22.2,9.9,22.2,22.2
		S106.9,104.5,94.7,104.5z M94.7,61.2c-11.7,0-21.2,9.5-21.2,21.2c0,11.7,9.5,21.2,21.2,21.2s21.2-9.5,21.2-21.2
		C115.8,70.7,106.3,61.2,94.7,61.2z"/>
	<path id="XMLID_13_" class="st2" d="M100.3,82.9c-0.5-0.6-1.2-1-2.2-1.2c0.6-0.3,1.1-0.5,1.2-0.6c0.4-0.3,0.6-0.5,0.8-0.9
		c0.2-0.3,0.3-0.7,0.3-1.1c0-0.4-0.1-0.7-0.2-1c-0.1-0.3-0.3-0.6-0.5-0.9c-0.2-0.3-0.5-0.5-0.9-0.6c-0.3-0.2-0.6-0.3-0.8-0.4
		c-0.6-0.2-1.1-0.3-1.6-0.3H96v-2h-1v2.1l-0.2,0l-0.8,0V74h-1v2.2l-1.5,0l-2.1,0l0,0.7c0.5,0.1,0.8,0.1,0.9,0.1
		c0.3,0,0.5,0.1,0.6,0.1c0,0,0.1,0.1,0.1,0.1c0.1,0.1,0.1,0.4,0.1,0.9c0,1.8,0.1,2.9,0.1,3.3l0,4.1c0,0.7,0,1.2-0.1,1.6
		c0,0.1-0.1,0.3-0.2,0.4c-0.3,0.1-0.6,0.2-1,0.3c-0.2,0-0.4,0.1-0.6,0.1l0,0.8c1.2,0,1.9-0.1,2.2-0.1c0.6,0,1.4-0.1,1.4-0.1V90h1
		v-1.4l1,0V90h1v-1.4c1,0,1.1,0,1.4-0.1c0.7-0.1,1.3-0.3,1.7-0.5c0.4-0.2,0.8-0.5,1.2-0.9c0.3-0.3,0.5-0.6,0.6-1
		c0.2-0.5,0.2-0.9,0.2-1.3C101.1,84.1,100.8,83.5,100.3,82.9z M94.9,77c0.9,0,1.6,0.2,2.1,0.6c0.5,0.4,0.7,0.9,0.7,1.5
		c0,0.9-0.2,1.5-0.7,1.8s-1.2,0.5-2.2,0.5c-0.3,0-0.6,0-0.9-0.1c0-0.3,0-0.5,0-0.6l0-0.8c0-1,0-1.7,0-2.3c0-0.3,0-0.5,0-0.6
		C94.3,77,94.6,77,94.9,77z M97.9,86.6c-0.2,0.4-0.5,0.7-1,0.9c-0.5,0.2-1.1,0.3-1.8,0.3c-0.4,0-0.9-0.1-1.3-0.2l-0.1-5.2
		c0-0.1,0.5-0.1,0.9-0.1c0.9,0,1.6,0.1,2.1,0.3c0.5,0.2,0.9,0.5,1.2,1c0.2,0.4,0.4,0.9,0.4,1.5C98.3,85.7,98.2,86.2,97.9,86.6z"/>
	<g id="XMLID_38_">
		<path id="XMLID_58_" class="st2" d="M102.3,54.7c-0.3,0.5-0.6,1.1-0.9,1.6l0,0l-0.4-0.9l-2.6-5.7l0.9-0.4l2.2,4.8
			c6.1-11.9,2-26.8-9.7-33.8c-12.2-7.4-28.1-3.5-35.5,8.6l-0.9-0.4c7.7-12.7,24.2-16.7,36.9-9C104.5,26.8,108.7,42.3,102.3,54.7z"/>
		<g id="XMLID_49_">
			<line id="XMLID_43_" class="st3" x1="107.6" y1="53" x2="101.4" y2="56.3"/>
			<path id="XMLID_32_" class="st4" d="M108.1,53.8l-0.9-1.8l-3.3,1.8c0,0,0,0,0,0c5.8-12.7,1.3-27.9-10.9-35.3
				c-13.1-8-30.3-3.8-38.3,9.4l0.9,0.5l0.9,0.5c0,0,0,0,0-0.1c7.4-12.1,23.3-16,35.5-8.6c11.6,7.1,15.7,21.9,9.7,33.8l-2.2-4.8
				l-0.9,0.4l-0.9,0.4l3.8,8.4L108.1,53.8z"/>
		</g>
	</g>
	<path id="XMLID_7_" class="st4" d="M73.4,101.2l-0.9-0.5c0,0,0,0,0,0.1c-7.4,12.1-23.3,16-35.5,8.6c-11.6-7.1-15.7-21.9-9.6-33.8
		l2.1,4.8l0.9-0.4l0.9-0.4l-3.8-8.4L27,71.5l-6.2,3.3l0.9,1.8l4-2.2c-0.2,0.4-0.5,0.9-0.7,1.3c-5.8,12.7-1.3,27.9,10.9,35.3
		c4.5,2.7,9.5,4,14.4,4c9.4,0,18.6-4.8,23.9-13.4L73.4,101.2z"/>
</g>
</svg>
