<?xml version="1.0" encoding="utf-8"?>
<!-- Generator: Adobe Illustrator 19.0.0, SVG Export Plug-In . SVG Version: 6.00 Build 0)  -->
<svg version="1.1" id="Layer_1" xmlns="http://www.w3.org/2000/svg" xmlns:xlink="http://www.w3.org/1999/xlink" x="0px" y="0px"
	 viewBox="0 0 128 128" style="enable-background:new 0 0 128 128;" xml:space="preserve">
<style type="text/css">
	.st0{fill:#49DD0B;}
	.st1{fill:none;stroke:#5E9E26;stroke-miterlimit:10;}
	.st2{fill:#74E510;}
	.st3{fill:#5E9E26;}
	.st4{fill:#FFFFFF;}
</style>
<path id="XMLID_40_" class="st0" d="M9,72.2c0,0,29.6-13.4,30.5-13.6C56,56.8,78,62.8,78,62.8s9.4,6.4-4.3,9.1
	c-3.8,0.7-20.1,0-20.1,0s24.6,15.1,32.9,15.1s26.4-10.6,26.4-10.6s12.8,2.3,5.3,10.5s-23.4,19.7-45.2,19.7S33.7,94,24.7,94
	S9,94,9,94V72.2z"/>
<path id="XMLID_39_" class="st1" d="M5.5,69.2c0,0,29.8-13.4,30.8-13.6c16.5-1.9,38.6,4.1,38.6,4.1s9.5,6.4-4.3,9.1
	c-3.8,0.7-20.1,0-20.1,0s24.6,15.1,32.9,15.1s26.4-10.6,26.4-10.6s12.8,2.3,5.3,10.5c-7.5,8.3-23.4,20.5-45.2,20.5
	S30.7,92.5,21.7,92.5s-16.2,0-16.2,0V69.2z"/>
<circle id="XMLID_53_" class="st2" cx="83.9" cy="38.3" r="16.5"/>
<path id="XMLID_50_" class="st3" d="M81.6,53.6c-9.3,0-16.9-7.6-16.9-16.9s7.6-16.9,16.9-16.9c9.3,0,16.9,7.6,16.9,16.9
	S90.9,53.6,81.6,53.6z M81.6,20.6c-8.9,0-16.1,7.2-16.1,16.1c0,8.9,7.2,16.1,16.1,16.1s16.1-7.2,16.1-16.1
	C97.7,27.9,90.5,20.6,81.6,20.6z"/>
<g id="XMLID_5_">
	<path id="XMLID_47_" class="st4" d="M76.1,40.2c0.1,0,0.2,0,0.3,0.1l0.7,0.8c-0.4,0.5-0.9,0.9-1.5,1.2c-0.6,0.3-1.3,0.4-2.2,0.4
		c-0.8,0-1.4-0.1-2-0.4c-0.6-0.3-1.1-0.6-1.5-1.1c-0.4-0.5-0.7-1-1-1.6c-0.2-0.6-0.3-1.3-0.3-2.1c0-0.8,0.1-1.5,0.4-2.1
		c0.3-0.6,0.6-1.2,1.1-1.6c0.5-0.5,1-0.8,1.6-1.1c0.6-0.3,1.3-0.4,2.1-0.4c0.8,0,1.4,0.1,2,0.4c0.6,0.2,1,0.6,1.4,1l-0.6,0.9
		c0,0.1-0.1,0.1-0.1,0.1c-0.1,0-0.1,0.1-0.2,0.1c-0.1,0-0.2,0-0.3-0.1c-0.1-0.1-0.3-0.2-0.4-0.3c-0.2-0.1-0.4-0.2-0.7-0.3
		c-0.3-0.1-0.6-0.1-1-0.1c-0.5,0-0.9,0.1-1.3,0.2c-0.4,0.2-0.7,0.4-1,0.7c-0.3,0.3-0.5,0.7-0.7,1.1c-0.2,0.4-0.2,0.9-0.2,1.5
		c0,0.6,0.1,1.1,0.2,1.5c0.2,0.4,0.4,0.8,0.7,1.1c0.3,0.3,0.6,0.5,1,0.7c0.4,0.2,0.8,0.2,1.2,0.2c0.3,0,0.5,0,0.7,0
		c0.2,0,0.4-0.1,0.6-0.1c0.2-0.1,0.3-0.1,0.5-0.2c0.2-0.1,0.3-0.2,0.5-0.4c0,0,0.1-0.1,0.1-0.1C76,40.2,76,40.2,76.1,40.2z"/>
	<path id="XMLID_45_" class="st4" d="M84.9,32.5v1.5h-4.5v3h3.8v1.5h-3.8v4.1h-1.9V32.5H84.9z"/>
	<path id="XMLID_41_" class="st4" d="M94.2,42.6h-1.5c-0.2,0-0.3,0-0.4-0.1c-0.1-0.1-0.2-0.2-0.2-0.3l-0.8-2.1h-4.2l-0.8,2.1
		c0,0.1-0.1,0.2-0.2,0.3c-0.1,0.1-0.2,0.1-0.4,0.1h-1.5l4-10.1h1.9L94.2,42.6z M87.7,38.7h3.2l-1.2-3.4c-0.1-0.1-0.1-0.3-0.2-0.5
		s-0.1-0.4-0.2-0.7c-0.1,0.2-0.1,0.5-0.2,0.7c-0.1,0.2-0.1,0.4-0.2,0.5L87.7,38.7z"/>
</g>
</svg>
