<svg xmlns="http://www.w3.org/2000/svg" xmlns:xlink="http://www.w3.org/1999/xlink" viewBox="0 0 608.197 436.871">
  <defs>
    <style>
      .cls-1 {
        fill: #707070;
        font-size: 31px;
        font-family: Roboto-Bold, Roboto;
        font-weight: 700;
      }

      .cls-2 {
        fill: #fff;
      }

      .cls-3 {
        fill: #ff6501;
      }

      .cls-4 {
        fill: #ffd500;
      }

      .cls-5 {
        fill: #fcd532;
      }

      .cls-6 {
        fill: #f93508;
      }

      .cls-7 {
        fill: #417baf;
      }

      .cls-8 {
        fill: #13507a;
      }

      .cls-9 {
        fill: #c11b00;
      }

      .cls-10 {
        fill: #f2f2f2;
      }

      .cls-11 {
        fill: #1d5fa7;
      }

      .cls-12 {
        fill: #4d97c1;
      }

      .cls-13 {
        filter: url(#Rectangle_35);
      }

      .cls-14 {
        filter: url(#Rectangle_32);
      }

      .cls-15 {
        filter: url(#Rectangle_31);
      }
    </style>
    <filter id="Rectangle_31" x="0" y="24.053" width="268.268" height="273.852" filterUnits="userSpaceOnUse">
      <feOffset dy="3" input="SourceAlpha"/>
      <feGaussianBlur stdDeviation="10" result="blur"/>
      <feFlood flood-opacity="0.161"/>
      <feComposite operator="in" in2="blur"/>
      <feComposite in="SourceGraphic"/>
    </filter>
    <filter id="Rectangle_32" x="170.717" y="163.019" width="268.268" height="273.852" filterUnits="userSpaceOnUse">
      <feOffset dy="4" input="SourceAlpha"/>
      <feGaussianBlur stdDeviation="10" result="blur-2"/>
      <feFlood flood-opacity="0.322"/>
      <feComposite operator="in" in2="blur-2"/>
      <feComposite in="SourceGraphic"/>
    </filter>
    <filter id="Rectangle_35" x="339.04" y="0" width="269.157" height="269.157" filterUnits="userSpaceOnUse">
      <feOffset dy="3" input="SourceAlpha"/>
      <feGaussianBlur stdDeviation="10" result="blur-3"/>
      <feFlood flood-opacity="0.161"/>
      <feComposite operator="in" in2="blur-3"/>
      <feComposite in="SourceGraphic"/>
    </filter>
  </defs>
  <g id="Groupe_44" data-name="Groupe 44" transform="translate(-1113.803 -2060.932)">
    <text id="_" data-name="
" class="cls-1" transform="translate(1206.756 2109.612)"><tspan x="0" y="0"></tspan><tspan x="0" y="37"></tspan></text>
    <g id="Groupe_22" data-name="Groupe 22" transform="translate(1143.803 2111.985)">
      <g class="cls-15" transform="matrix(1, 0, 0, 1, -30, -51.05)">
        <rect id="Rectangle_31-2" data-name="Rectangle 31" width="208.268" height="213.852" rx="26" transform="translate(30 51.05)"/>
      </g>
      <g id="Groupe_18" data-name="Groupe 18" transform="translate(30.14 35.382)">
        <rect id="XMLID_46_" width="148.162" height="151.159"/>
        <path id="XMLID_45_" class="cls-2" d="M66.3,23.3H28.381c-3.513,0-6.3,3.823-6.3,7.749s2.79,7.749,6.3,7.749H48.839L15.673,70a7.82,7.82,0,0,0-.827,10.022c2.273,3,5.579,3.41,8.266.827l35.542-34.1V72.378c0,3.926,4.236,7.129,7.749,7.129s7.749-3.2,7.749-7.129V31.669C74.152,27.846,69.813,23.3,66.3,23.3Z" transform="translate(0.445 0.774)"/>
        <path id="XMLID_44_" class="cls-3" d="M82.366,85.126h37.919c3.513,0,6.3-1.756,6.3-5.683s-2.79-5.683-6.3-5.683H99.931L133.1,41.525c2.686-2.48,3-7.542.827-10.539s-5.786-3.616-8.472-1.137L89.6,63.635V38.012c0-3.926-2.686-7.129-6.2-7.129s-6.2,3.2-6.2,7.129V78.72C77.2,82.647,78.853,85.126,82.366,85.126Z" transform="translate(2.564 0.94)"/>
        <g id="XMLID_15_" transform="translate(18.081 96.605)">
          <path id="XMLID_41_" class="cls-3" d="M27.625,99.906a6.744,6.744,0,0,1-.62,3,4.657,4.657,0,0,1-1.756,1.963,5.455,5.455,0,0,1-2.686.723,4.771,4.771,0,0,1-2.686-.723A4.657,4.657,0,0,1,18.12,102.9a6.6,6.6,0,0,1-.62-2.893v-.827a7.066,7.066,0,0,1,.62-3,4.657,4.657,0,0,1,1.756-1.963,5.779,5.779,0,0,1,2.686-.723,4.771,4.771,0,0,1,2.686.723,4.073,4.073,0,0,1,1.756,1.963,6.744,6.744,0,0,1,.62,3Zm-1.653-.723a4.93,4.93,0,0,0-.93-3.2,3.208,3.208,0,0,0-2.583-1.137,3.144,3.144,0,0,0-2.48,1.137,4.628,4.628,0,0,0-.93,3.1v.827a5.128,5.128,0,0,0,.93,3.2,3.144,3.144,0,0,0,2.48,1.137,3,3,0,0,0,2.48-1.137,4.628,4.628,0,0,0,.93-3.1v-.827Z" transform="translate(-17.5 -93.5)"/>
          <path id="XMLID_39_" class="cls-3" d="M34.049,97.947c-.207,0-.517-.1-.827-.1a2.22,2.22,0,0,0-2.17,1.24v6.2H29.4V96.6h1.653v1.033A2.4,2.4,0,0,1,33.326,96.5a1.532,1.532,0,0,1,.723.1Z" transform="translate(-17.105 -93.4)"/>
          <path id="XMLID_36_" class="cls-3" d="M40.8,105.282a2.063,2.063,0,0,1-.207-.93,3.659,3.659,0,0,1-2.686,1.033,3.339,3.339,0,0,1-2.273-.723,2.347,2.347,0,0,1-.93-1.86,2.264,2.264,0,0,1,1.137-2.066,5.3,5.3,0,0,1,3.1-.723h1.55V99.29a1.711,1.711,0,0,0-.517-1.24,2.02,2.02,0,0,0-1.447-.413,2.186,2.186,0,0,0-1.446.413,1.249,1.249,0,0,0-.62.93H34.8a2.147,2.147,0,0,1,.517-1.24,3.146,3.146,0,0,1,1.343-.93,5.85,5.85,0,0,1,1.86-.31,3.851,3.851,0,0,1,2.583.723,2.6,2.6,0,0,1,.93,2.066v4.03a4.317,4.317,0,0,0,.31,1.86v.1Zm-2.686-1.137a2.372,2.372,0,0,0,1.446-.413,2.262,2.262,0,0,0,1.033-.93v-1.756h-1.24c-1.963,0-3,.517-3,1.55a1.48,1.48,0,0,0,.517,1.137A1.647,1.647,0,0,0,38.11,104.146Z" transform="translate(-16.929 -93.4)"/>
          <path id="XMLID_34_" class="cls-3" d="M45.853,96.6l.1,1.137a3.538,3.538,0,0,1,2.79-1.24c1.963,0,3,1.033,3,3.1v5.786H50.089V99.6a1.63,1.63,0,0,0-.517-1.343,2.02,2.02,0,0,0-1.446-.413,2.077,2.077,0,0,0-1.343.413,2.262,2.262,0,0,0-.93,1.033v6.2H44.2V96.81h1.653Z" transform="translate(-16.613 -93.4)"/>
          <path id="XMLID_31_" class="cls-3" d="M53.5,100.843a4.435,4.435,0,0,1,1.033-3.2A3.332,3.332,0,0,1,57.22,96.4a3.425,3.425,0,0,1,2.686,1.137l.1-.93h1.446v8.472a3.5,3.5,0,0,1-1.033,2.686,4.927,4.927,0,0,1-4.856.517,3.246,3.246,0,0,1-1.446-1.137l.827-.93a3.177,3.177,0,0,0,2.583,1.137,2.7,2.7,0,0,0,1.86-.62,1.956,1.956,0,0,0,.62-1.756v-.723a3.749,3.749,0,0,1-5.373-.207A3.806,3.806,0,0,1,53.5,100.843Zm1.55.207a3.712,3.712,0,0,0,.62,2.273,2.27,2.27,0,0,0,1.86.827,2.479,2.479,0,0,0,2.273-1.24V98.983a2.513,2.513,0,0,0-4.03-.413A3.935,3.935,0,0,0,55.05,101.049Z" transform="translate(-16.304 -93.404)"/>
          <path id="XMLID_28_" class="cls-3" d="M67.439,105.489a4.573,4.573,0,0,1-3.1-1.137,4.047,4.047,0,0,1-1.24-3.1v-.31a5.26,5.26,0,0,1,.517-2.273,3.038,3.038,0,0,1,1.446-1.55,3.726,3.726,0,0,1,2.066-.62,3.888,3.888,0,0,1,2.893,1.137,4.435,4.435,0,0,1,1.033,3.2v.62H64.65a2.885,2.885,0,0,0,.827,2.066,2.645,2.645,0,0,0,1.963.827,3,3,0,0,0,1.447-.31,4.046,4.046,0,0,0,1.033-.827l1.033.723A4.351,4.351,0,0,1,67.439,105.489Zm-.207-7.852a2.346,2.346,0,0,0-1.653.62,3.12,3.12,0,0,0-.827,1.86h4.753v-.1a2.982,2.982,0,0,0-.62-1.756A2.034,2.034,0,0,0,67.233,97.637Z" transform="translate(-15.986 -93.4)"/>
          <path id="XMLID_26_" class="cls-3" d="M79.363,93.7l4.133,9.506L87.629,93.7H89.8v11.675H88.145v-4.546l.207-4.959-4.133,9.506h-1.24l-4.133-9.4.207,4.856v4.546H77.4V93.7Z" transform="translate(-15.511 -93.493)"/>
          <path id="XMLID_23_" class="cls-3" d="M91.6,100.839a5.26,5.26,0,0,1,.517-2.273,3.225,3.225,0,0,1,1.55-1.55,3.766,3.766,0,0,1,2.17-.517,4.205,4.205,0,0,1,3.1,1.24,4.311,4.311,0,0,1,1.137,3.306v.1a5.26,5.26,0,0,1-.517,2.273,2.849,2.849,0,0,1-1.55,1.55,4.115,4.115,0,0,1-2.273.517,4.206,4.206,0,0,1-3.1-1.24,4.311,4.311,0,0,1-1.137-3.306v-.1Zm1.55.207a3.171,3.171,0,0,0,.723,2.273,2.316,2.316,0,0,0,1.963.827,2.4,2.4,0,0,0,1.963-.93,3.732,3.732,0,0,0,.723-2.48,3.171,3.171,0,0,0-.723-2.273,2.4,2.4,0,0,0-1.963-.93,2.645,2.645,0,0,0-1.963.827A5.455,5.455,0,0,0,93.153,101.046Z" transform="translate(-15.042 -93.4)"/>
          <path id="XMLID_21_" class="cls-3" d="M103.353,96.6l.1,1.137a3.538,3.538,0,0,1,2.79-1.24c1.963,0,3,1.033,3,3.1v5.786h-1.653V99.6a1.63,1.63,0,0,0-.517-1.343,2.02,2.02,0,0,0-1.447-.413,2.077,2.077,0,0,0-1.343.413,2.262,2.262,0,0,0-.93,1.033v6.2H101.7V96.81h1.653Z" transform="translate(-14.704 -93.4)"/>
          <path id="XMLID_18_" class="cls-3" d="M115.239,105.489a4.573,4.573,0,0,1-3.1-1.137,4.047,4.047,0,0,1-1.24-3.1v-.31a5.26,5.26,0,0,1,.517-2.273,3.038,3.038,0,0,1,1.446-1.55,3.726,3.726,0,0,1,2.066-.62,3.888,3.888,0,0,1,2.893,1.137,4.435,4.435,0,0,1,1.033,3.2v.62H112.45a2.885,2.885,0,0,0,.827,2.066,2.645,2.645,0,0,0,1.963.827,3,3,0,0,0,1.447-.31,4.045,4.045,0,0,0,1.033-.827l1.033.723A4.207,4.207,0,0,1,115.239,105.489Zm-.207-7.852a2.346,2.346,0,0,0-1.653.62,3.12,3.12,0,0,0-.827,1.86h4.753v-.1a2.982,2.982,0,0,0-.62-1.756A2.181,2.181,0,0,0,115.033,97.637Z" transform="translate(-14.398 -93.4)"/>
          <path id="XMLID_16_" class="cls-3" d="M123.539,103.113l2.17-6.509h1.756l-3.823,10.022a3,3,0,0,1-2.79,2.17h-.31l-.62-.1v-1.24h.413a2.2,2.2,0,0,0,1.24-.31,2.4,2.4,0,0,0,.723-1.137l.31-.93L119.2,96.5h1.756Z" transform="translate(-14.122 -93.4)"/>
        </g>
      </g>
    </g>
    <g id="Groupe_23" data-name="Groupe 23" transform="translate(1314.52 2249.951)">
      <g class="cls-14" transform="matrix(1, 0, 0, 1, -200.72, -189.02)">
        <rect id="Rectangle_32-2" data-name="Rectangle 32" class="cls-4" width="208.268" height="213.852" rx="26" transform="translate(200.72 189.02)"/>
      </g>
      <g id="Groupe_17" data-name="Groupe 17" transform="translate(30.414 46.759)">
        <path id="XMLID_64_" class="cls-5" d="M121.885,95.958,100.057,88,110.765,36.1,85.643,27.867,91.82,16.61,30.182,15.1,4.647,34.045,3,92.664Z" transform="translate(1.118 5.629)"/>
        <g id="XMLID_59_" transform="translate(86.761)">
          <path id="XMLID_63_" class="cls-2" d="M65.945,29.044,79.673,5.432l1.236-2.059,9.61,5.354L96.97,2l11.669,9.2-.137,2.883,16.611.137,4.53,13.453-16.748,73.582,3.844.137-7.55,3.157-.686-2.059L79.535,91.781l10.021-49.7S79.124,34.81,68.828,33.437c-4.8-.686-4.118-1.236-4.118-1.236Z" transform="translate(-62.65 0.746)"/>
          <path id="XMLID_60_" class="cls-2" d="M108.914,107.216l-1.373-2.746L77.614,93.763,88.46,41.871c-3.02-1.785-11.257-3.844-19.219-6.452-3.432-1.1-4.53-1.1-6.04-1.785l17.435-32.4L90.793,6.727,98.481,0l10.845,11.943,1.647,1.647,17.435-.686,4.668,14.414L116.19,97.744l6.04.137ZM82.557,90.742l28.143,10.3.275-.137,17.709-73.445L125.388,17.3l-16.2-.137.137-3.981L98.893,5.629l-7.276,6.452L82.557,7l-.412.412-14,24.3c.412.137.961.137,1.647.275C80.36,33.5,90.931,40.635,91.48,40.91l1.236.824Z" transform="translate(-63.2)"/>
        </g>
        <path id="XMLID_56_" d="M104.939,99.723,74.6,88.878,91.074,10.9H91.9c6.864,0,29.653-.137,31.712.686h0c2.2.961,6.589,7.276,7.413,8.511l.275.412L116.333,94.643ZM77.071,87.368,104.8,97.252l9.61-4.393,14.552-72.21c-1.922-2.883-4.942-6.727-6.178-7.276-1.647-.549-18.945-.686-30.064-.549Z" transform="translate(27.811 4.061)"/>
        <path id="XMLID_55_" d="M89.6,94.68c.275,0,10.159,3.02,10.982-.275s16.2-73.445,17.023-76.74-2.059-5.629-5.354-5.766l5.354.412,6.864,8.1L109.643,93.582l-10.433,4.8Z" transform="translate(33.403 4.436)"/>
        <path id="XMLID_54_" d="M98.9,14.7l11.532,1.1-8.237,38.85C102.057,54.786,103.018,22.937,98.9,14.7Z" transform="translate(36.87 5.48)"/>
        <path id="XMLID_53_" d="M90.923,50.695a1.029,1.029,0,0,0-.686-1.1l-7.55-2.2L82,52.2v.137l8.237,2.608Z" transform="translate(30.57 17.671)"/>
        <path id="XMLID_52_" d="M100.223,53.595a1.029,1.029,0,0,0-.686-1.1l-7.55-2.2L91.3,55.1v.137l8.237,2.608Z" transform="translate(34.037 18.752)"/>
        <path id="XMLID_51_" d="M99.123,59.295a1.029,1.029,0,0,0-.686-1.1L90.886,56,90.2,60.8v.137l8.237,2.608Z" transform="translate(33.627 20.877)"/>
        <path id="XMLID_50_" d="M97.723,65.495a1.029,1.029,0,0,0-.686-1.1l-7.55-2.2L88.8,67v.137l8.237,2.608Z" transform="translate(33.105 23.188)"/>
        <path id="XMLID_49_" d="M88.623,62.495a1.029,1.029,0,0,0-.686-1.1l-7.55-2.2L79.7,64v.137l8.237,2.608Z" transform="translate(29.713 22.07)"/>
        <path id="XMLID_48_" d="M89.723,56.395a1.029,1.029,0,0,0-.686-1.1l-7.55-2.2L80.8,57.9v.137l8.237,2.608Z" transform="translate(30.123 19.796)"/>
        <path id="XMLID_47_" class="cls-6" d="M104.555,52.043S103.182,39.825,85.061,32c0,0,.137,12.355-.961,14.689Z" transform="translate(31.353 11.93)"/>
        <path id="XMLID_46_2" data-name="XMLID_46_" class="cls-7" d="M112.724,57.579S107.92,39.6,65.5,29.711L80.875,5C81.013,4.863,116.019,16.395,112.724,57.579Z" transform="translate(24.419 1.864)"/>
        <path id="XMLID_45_2" data-name="XMLID_45_" class="cls-7" d="M84.5,7.368c.686.137,18.258,14.277,20.592,26.907,0,0-1.373-22.651-15.65-31.575Z" transform="translate(31.502 1.007)"/>
        <g id="XMLID_41_2" data-name="XMLID_41_" transform="translate(25.26 30.339)">
          <path id="XMLID_44_2" data-name="XMLID_44_" class="cls-8" d="M29.52,35.142c.137.275.275.686.412.961.137-.275.275-.686.412-.961s.275-.686.412-.961L36.933,23.2c.137-.137.137-.275.275-.275.137-.137.137-.137.275-.137h.686l2.746.137-.549,20.043-3.295-.137.412-12.9V29.1a1.741,1.741,0,0,1,.137-.824L31.167,39.535a1.072,1.072,0,0,1-.549.549,1.486,1.486,0,0,1-.824.137h-.549a1.951,1.951,0,0,1-.824-.275,1.371,1.371,0,0,1-.549-.686L22.107,27.728v1.647l-.412,12.9L18.4,42.143,18.949,22.1l2.746.137h.412c.137,0,.275,0,.275.137.137,0,.137.137.275.137.137.137.137.275.275.412l5.629,11.257A2.025,2.025,0,0,1,29.52,35.142Z" transform="translate(-18.4 -22.1)"/>
          <path id="XMLID_43_" class="cls-8" d="M51.825,23.112l-.137,3.02-6.04-.137-.412,17.023-3.707-.137.412-17.023L35.9,25.72l.137-3.02Z" transform="translate(-11.876 -21.876)"/>
          <path id="XMLID_42_" class="cls-8" d="M51.083,23.137c.137,0,.137,0,.275.137.137,0,.137.137.275.137l.275.275L62.065,37.414V35.63l.275-12.218,3.295.137-.549,20.043H63.164a1.029,1.029,0,0,1-.686-.137c-.137-.137-.412-.275-.549-.549L51.769,29.315v1.647l-.275,12.355L48.2,43.18,48.612,23h1.922C50.808,23,50.946,23.137,51.083,23.137Z" transform="translate(-7.29 -21.764)"/>
        </g>
        <g id="XMLID_17_" transform="translate(24.848 55.461)">
          <path id="XMLID_40_" class="cls-9" d="M25.839,48.774c.137.137.137.412.275.686.137-.275.137-.412.275-.686a1.041,1.041,0,0,0,.275-.549l4.118-7.276a.134.134,0,0,1,.137-.137.134.134,0,0,0,.137-.137h2.334l-.412,13.179h-2.2l.275-8.511v-1.1l-4.118,7.413-.412.412c-.137.137-.275.137-.549.137H25.7a.825.825,0,0,1-.549-.137l-.412-.412-3.707-7.688v1.1L20.9,53.579H18.7L19.112,40.4h2.334l.137.137c0,.137.137.137.137.275l3.707,7.413C25.564,48.362,25.7,48.637,25.839,48.774Z" transform="translate(-17.876 -40.4)"/>
          <path id="XMLID_37_" class="cls-9" d="M35.042,43.4a4.385,4.385,0,0,1,1.922.412,3.5,3.5,0,0,1,1.373.961,5.669,5.669,0,0,1,.961,1.51,9.34,9.34,0,0,1,.275,2.059,5.508,5.508,0,0,1-.412,2.059,4.089,4.089,0,0,1-.961,1.51,5.669,5.669,0,0,1-1.51.961,4.363,4.363,0,0,1-1.922.275,4.385,4.385,0,0,1-1.922-.412,5.668,5.668,0,0,1-1.51-.961,5.668,5.668,0,0,1-.961-1.51A4.689,4.689,0,0,1,30.1,48.2a4.385,4.385,0,0,1,.412-1.922,5.669,5.669,0,0,1,.961-1.51,5.669,5.669,0,0,1,1.51-.961A3.713,3.713,0,0,1,35.042,43.4Zm-.275,7.962a2.372,2.372,0,0,0,1.785-.686,4.706,4.706,0,0,0,.686-2.334,3.928,3.928,0,0,0-.549-2.334,1.957,1.957,0,0,0-1.647-.824,2.04,2.04,0,0,0-1.785.824,4.706,4.706,0,0,0-.686,2.334,3.928,3.928,0,0,0,.549,2.334A3.709,3.709,0,0,0,34.768,51.362Z" transform="translate(-13.626 -39.282)"/>
          <path id="XMLID_34_2" data-name="XMLID_34_" class="cls-9" d="M37.7,54.191,38.112,40.6h2.2l-.137,5.354a7.543,7.543,0,0,1,1.236-.961,2.973,2.973,0,0,1,1.647-.275,4.061,4.061,0,0,1,1.373.275,3.7,3.7,0,0,1,1.1.961,5.074,5.074,0,0,1,.686,1.51,8.309,8.309,0,0,1,.275,2.059,8.1,8.1,0,0,1-.275,1.922,14.972,14.972,0,0,1-.824,1.51,4.931,4.931,0,0,1-1.373.961,3.483,3.483,0,0,1-1.647.275,1.741,1.741,0,0,1-.824-.137c-.275-.137-.412-.137-.686-.275-.137-.137-.412-.275-.549-.412a1.9,1.9,0,0,1-.412-.549l-.137.686a.3.3,0,0,1-.275.275c-.137,0-.137.137-.412.137l-1.373.275ZM42.368,46.5a4.008,4.008,0,0,0-1.236.275,1.846,1.846,0,0,0-.961.824l-.137,4.256a3.64,3.64,0,0,0,.824.686,2.545,2.545,0,0,0,.961.275,2.336,2.336,0,0,0,.961-.137,1.371,1.371,0,0,0,.686-.549,1.246,1.246,0,0,0,.412-.961c.137-.412.137-.824.275-1.373a4.232,4.232,0,0,0-.137-1.373c-.137-.412-.137-.686-.412-.961-.137-.275-.412-.412-.549-.549C42.917,46.5,42.642,46.5,42.368,46.5Z" transform="translate(-10.793 -40.325)"/>
          <path id="XMLID_31_2" data-name="XMLID_31_" class="cls-9" d="M47.883,42.273a.825.825,0,0,1-.137.549c-.137.137-.275.275-.275.412a.713.713,0,0,1-.549.275c-.137,0-.412.137-.549.137a.825.825,0,0,1-.549-.137c-.137-.137-.275-.137-.412-.275s-.275-.275-.275-.412S45,42.547,45,42.273a.825.825,0,0,1,.137-.549c.137-.137.137-.275.275-.412s.275-.275.412-.275.412-.137.549-.137a.825.825,0,0,1,.549.137c.137.137.275.137.412.275a.713.713,0,0,1,.275.549C47.883,41.861,47.883,42,47.883,42.273Zm-.412,2.608L47.2,54.216H45l.275-9.335Z" transform="translate(-8.072 -40.214)"/>
          <path id="XMLID_30_" class="cls-9" d="M50.708,40.9,50.3,54.491H48.1L48.512,40.9Z" transform="translate(-6.916 -40.214)"/>
          <path id="XMLID_27_" class="cls-9" d="M55.468,43.9a6.891,6.891,0,0,1,1.647.275A4.791,4.791,0,0,1,58.35,45a2.848,2.848,0,0,1,.824,1.373,6.956,6.956,0,0,1,.275,1.785v.412c0,.137,0,.137-.137.275l-.137.137H58.9l-5.766-.137a3.493,3.493,0,0,0,.686,2.2,1.961,1.961,0,0,0,1.785.686,2.036,2.036,0,0,0,.961-.137c.275-.137.549-.137.686-.275s.412-.137.549-.275a.5.5,0,0,1,.412-.137c.137,0,.137,0,.275.137l.137.137.686.824a3.64,3.64,0,0,1-.824.686,2.907,2.907,0,0,1-.961.412,2.219,2.219,0,0,1-1.373.549h-.961a3.8,3.8,0,0,1-1.785-.412,3.5,3.5,0,0,1-1.373-.961,4.747,4.747,0,0,1-.961-1.647,5.352,5.352,0,0,1-.275-2.2,3.8,3.8,0,0,1,.412-1.785,5.669,5.669,0,0,1,.961-1.51,4.089,4.089,0,0,1,1.51-.961A6.093,6.093,0,0,1,55.468,43.9Zm0,1.647a1.711,1.711,0,0,0-1.51.549,2.2,2.2,0,0,0-.686,1.51l4.256.137a1.741,1.741,0,0,0-.137-.824c0-.275-.137-.412-.412-.686-.137-.275-.412-.412-.549-.549C56.017,45.685,55.742,45.547,55.468,45.547Z" transform="translate(-5.909 -39.095)"/>
          <path id="XMLID_26_2" data-name="XMLID_26_" class="cls-9" d="M25.513,62.074c.137.137.137.412.275.686.137-.275.137-.412.275-.686a1.041,1.041,0,0,0,.275-.549l4.118-7.276a.134.134,0,0,1,.137-.137.134.134,0,0,0,.137-.137h2.334l-.412,13.179h-2.2l.275-8.511v-1.1l-4.118,7.413-.412.412c-.137.137-.275.137-.549.137h-.275a.825.825,0,0,1-.549-.137l-.412-.412-3.844-7.688v1.1L20.3,66.879H18.1L18.512,53.7h2.334l.137.137c0,.137.137.137.137.275l3.707,7.413C25.376,61.662,25.513,61.937,25.513,62.074Z" transform="translate(-18.1 -35.442)"/>
          <path id="XMLID_23_2" data-name="XMLID_23_" class="cls-9" d="M34.6,56.7a4.385,4.385,0,0,1,1.922.412,3.5,3.5,0,0,1,1.373.961,5.669,5.669,0,0,1,.961,1.51,8.309,8.309,0,0,1,.275,2.059,5.509,5.509,0,0,1-.412,2.059,4.089,4.089,0,0,1-.961,1.51,5.669,5.669,0,0,1-1.51.961,4.363,4.363,0,0,1-1.922.275,4.385,4.385,0,0,1-1.922-.412,5.375,5.375,0,0,1-1.373-1.1,5.669,5.669,0,0,1-.961-1.51,4.689,4.689,0,0,1-.275-2.059,4.385,4.385,0,0,1,.412-1.922,5.669,5.669,0,0,1,.961-1.51,5.669,5.669,0,0,1,1.51-.961A8.1,8.1,0,0,1,34.6,56.7Zm-.137,7.962a2.372,2.372,0,0,0,1.785-.686,4.706,4.706,0,0,0,.686-2.334,2.982,2.982,0,0,0-.549-2.334,1.957,1.957,0,0,0-1.647-.824,2.04,2.04,0,0,0-1.785.824,4.706,4.706,0,0,0-.686,2.334,3.928,3.928,0,0,0,.549,2.334A1.872,1.872,0,0,0,34.468,64.662Z" transform="translate(-13.738 -34.323)"/>
          <path id="XMLID_22_" class="cls-9" d="M37.3,66.41l.275-9.335h1.373c.275,0,.412.137.549.412l.137.686c.275-.137.412-.412.686-.549s.412-.275.686-.412.412-.137.686-.275c.275,0,.549-.137.824-.137a4.061,4.061,0,0,1,1.373.275,1.846,1.846,0,0,1,.961.824A2.76,2.76,0,0,1,45.4,59a5.147,5.147,0,0,1,.137,1.51l-.137,6.04H43.2l.137-6.04a2.319,2.319,0,0,0-.412-1.373,1.74,1.74,0,0,0-1.236-.549,3.231,3.231,0,0,0-1.1.275,4.171,4.171,0,0,0-.961.686V66.41Z" transform="translate(-10.942 -34.286)"/>
          <path id="XMLID_19_" class="cls-9" d="M48.693,57.1a6.89,6.89,0,0,1,1.647.275,4.791,4.791,0,0,1,1.236.824,2.848,2.848,0,0,1,.824,1.373,6.955,6.955,0,0,1,.275,1.785v.412c0,.137,0,.137-.137.275a.134.134,0,0,0-.137.137h-.275l-5.766-.137a3.493,3.493,0,0,0,.686,2.2,2.372,2.372,0,0,0,1.785.686,2.035,2.035,0,0,0,.961-.137c.275-.137.549-.137.686-.275s.412-.137.549-.275a.5.5,0,0,1,.412-.137c.137,0,.137,0,.275.137l.137.137.686.824a3.64,3.64,0,0,1-.824.686,2.907,2.907,0,0,1-.961.412c-.275.137-.686.137-1.1.275h-.961a3.8,3.8,0,0,1-1.785-.412,3.5,3.5,0,0,1-1.373-.961,4.747,4.747,0,0,1-.961-1.647,5.353,5.353,0,0,1-.275-2.2,3.8,3.8,0,0,1,.412-1.785,5.669,5.669,0,0,1,.961-1.51,4.089,4.089,0,0,1,1.51-.961C47.32,57.237,48.007,57.1,48.693,57.1Zm0,1.647a1.711,1.711,0,0,0-1.51.549,2.2,2.2,0,0,0-.686,1.51l4.256.137a1.741,1.741,0,0,0-.137-.824c0-.275-.137-.412-.412-.686-.137-.275-.412-.412-.549-.549A2.68,2.68,0,0,0,48.693,58.747Z" transform="translate(-8.333 -34.174)"/>
          <path id="XMLID_18_2" data-name="XMLID_18_" class="cls-9" d="M54.418,69.343c-.137.137-.137.275-.275.412-.137,0-.275.137-.549.137H51.947l1.922-3.707L50.3,57.4h1.922a.5.5,0,0,1,.412.137c.137.137.137.137.137.275l1.922,4.942c0,.137.137.275.137.549,0,.137.137.275.137.549,0-.137.137-.275.137-.549.137-.137.137-.275.275-.549l2.059-4.8a.3.3,0,0,1,.275-.275c.137,0,.275-.137.412-.137H59.91Z" transform="translate(-6.096 -34.062)"/>
        </g>
        <path id="XMLID_16_2" data-name="XMLID_16_" class="cls-10" d="M133.3,104.522l-11.257-2.2L0,99.031l1.785-64.8,28.28-21.141,67.679,1.785L94.586,19,31.3,17.486,5.766,36.431,4.118,95.049,123,98.344l10.021,3.157,10.159-5.766,15.238-73.72L150.6,11.995l-19.768-.549L130.142,8.7l21.828.961,9.472,11.669L144.968,98.207Z" transform="translate(0 3.243)"/>
        <path id="XMLID_15_2" data-name="XMLID_15_" class="cls-2" d="M82.234,31.481l5.354,2.746s1.1-2.746.824-2.883S79.9,27.5,79.9,27.5Z" transform="translate(29.787 10.252)"/>
      </g>
    </g>
    <g class="cls-13" transform="matrix(1, 0, 0, 1, 1113.8, 2060.93)">
      <rect id="Rectangle_35-2" data-name="Rectangle 35" class="cls-11" width="209.157" height="209.157" rx="24" transform="translate(369.04 27)"/>
    </g>
    <g id="XMLID_15_3" data-name="XMLID_15_" transform="translate(1495.302 2088.142)">
      <path id="XMLID_80_" class="cls-11" d="M171.913,208.948H12.878A12.862,12.862,0,0,1,0,196.07V12.878A12.814,12.814,0,0,1,12.878,0H171.989a12.862,12.862,0,0,1,12.878,12.878V196.146A12.961,12.961,0,0,1,171.913,208.948Z"/>
      <g id="XMLID_66_" transform="translate(89.538 102.645)">
        <path id="XMLID_78_" class="cls-2" d="M124.206,137.824c0-.457-.076-.762-.457-.762s-.533.229-.533.762v5.41h-2.362v-5.41c0-.457-.076-.762-.457-.762s-.533.229-.533.762v5.41H117.5V137.9a3.451,3.451,0,0,1,.381-2.057,2.4,2.4,0,0,1,2.057-1.143,2.526,2.526,0,0,1,2.134,1.219,2.432,2.432,0,0,1,2.134-1.219,2.477,2.477,0,0,1,1.905.838,3.33,3.33,0,0,1,.533,2.362v5.334h-2.362v-5.41Z" transform="translate(-117.5 -134.7)"/>
        <path id="XMLID_75_" class="cls-2" d="M131.6,136a4.324,4.324,0,0,1,6.172,0,4.272,4.272,0,0,1,1.3,3.048,4.059,4.059,0,0,1-.991,2.743,4.46,4.46,0,0,1-3.429,1.6,4.059,4.059,0,0,1-2.743-.991,4.422,4.422,0,0,1-1.6-3.353A4.272,4.272,0,0,1,131.6,136Zm3.124,5.029a1.905,1.905,0,1,0-1.905-1.905A1.887,1.887,0,0,0,134.72,141.025Z" transform="translate(-120.546 -134.7)"/>
        <path id="XMLID_73_" class="cls-2" d="M142.9,143.382V135h3.048c1.753,0,2.667.686,2.667,2.134a2.135,2.135,0,0,1-.914,1.753,2.288,2.288,0,0,1,1.219,2.134c0,1.448-.991,2.438-2.743,2.438h-.457v-2.134h.533c.3,0,.457-.152.457-.533,0-.457-.152-.533-.457-.533h-.533V138.2h.152c.3,0,.457-.152.457-.533,0-.457-.152-.533-.457-.533h-.533v6.249Z" transform="translate(-123.545 -134.771)"/>
        <path id="XMLID_71_" class="cls-2" d="M152,134.9h2.515v8.382H152Z" transform="translate(-125.71 -134.748)"/>
        <path id="XMLID_69_" class="cls-2" d="M159.238,134.876v4.953c0,.686.3.991.838.991h.229v2.438h-.533a2.823,2.823,0,0,1-2.134-.762c-.838-.762-.838-1.753-.838-2.9v-4.8h2.438Z" transform="translate(-126.852 -134.724)"/>
        <path id="XMLID_67_" class="cls-2" d="M165.677,143.382h-.3a3.567,3.567,0,0,1-1.753-.3,2.262,2.262,0,0,1-1.219-1.905v-3.124a2.652,2.652,0,0,1,.838-2.438,3.313,3.313,0,0,1,2.21-.61h1.6v2.438h-1.6c-.3,0-.457.076-.457.381a.4.4,0,0,0,.457.457h1.524v1.905H165.22c-.3,0-.457.076-.457.381a.4.4,0,0,0,.457.457h1.829v2.438h-1.372Z" transform="translate(-128.185 -134.771)"/>
      </g>
      <g id="XMLID_54_2" data-name="XMLID_54_" transform="translate(89.538 114.761)">
        <path id="XMLID_64_2" data-name="XMLID_64_" class="cls-2" d="M124.206,153.724c0-.457-.076-.762-.457-.762s-.533.229-.533.762v5.41h-2.362v-5.41c0-.457-.076-.762-.457-.762s-.533.229-.533.762v5.41H117.5V153.8a3.451,3.451,0,0,1,.381-2.057,2.4,2.4,0,0,1,2.057-1.143,2.526,2.526,0,0,1,2.134,1.219,2.432,2.432,0,0,1,2.134-1.219,2.477,2.477,0,0,1,1.905.838,3.33,3.33,0,0,1,.533,2.362v5.334h-2.362v-5.41Z" transform="translate(-117.5 -150.6)"/>
        <path id="XMLID_61_" class="cls-2" d="M131.6,151.9a4.324,4.324,0,0,1,6.172,0,4.272,4.272,0,0,1,1.3,3.048,4.059,4.059,0,0,1-.991,2.743,4.459,4.459,0,0,1-3.429,1.6,4.059,4.059,0,0,1-2.743-.991,4.422,4.422,0,0,1-1.6-3.353A4.272,4.272,0,0,1,131.6,151.9Zm3.124,5.029a1.905,1.905,0,1,0-1.905-1.905A1.887,1.887,0,0,0,134.72,156.925Z" transform="translate(-120.546 -150.6)"/>
        <path id="XMLID_59_2" data-name="XMLID_59_" class="cls-2" d="M142.8,154.739v-.229a4.247,4.247,0,0,1,.381-2.057,2.891,2.891,0,0,1,2.591-1.753,2.713,2.713,0,0,1,2.362,1.3,4.857,4.857,0,0,1,.61,2.743v4.5h-2.438v-5.106c0-.61-.152-.914-.533-.914-.457,0-.457.381-.457.914v5.106h-2.439v-4.5Z" transform="translate(-123.521 -150.624)"/>
        <path id="XMLID_57_" class="cls-2" d="M155.277,159.282h-.3a3.567,3.567,0,0,1-1.753-.3A2.262,2.262,0,0,1,152,157.072v-3.124a2.652,2.652,0,0,1,.838-2.439,3.314,3.314,0,0,1,2.21-.61h1.6v2.438h-1.6c-.3,0-.457.076-.457.381a.4.4,0,0,0,.457.457h1.524v1.905H154.82c-.3,0-.457.076-.457.381a.4.4,0,0,0,.457.457h1.829v2.438h-1.372Z" transform="translate(-125.71 -150.671)"/>
        <path id="XMLID_55_2" data-name="XMLID_55_" class="cls-2" d="M160.939,159.282V154.71L158.5,150.9h2.515l1.143,1.676L163.3,150.9h2.515l-2.439,3.81v4.572Z" transform="translate(-127.257 -150.671)"/>
      </g>
      <path id="XMLID_40_2" data-name="XMLID_40_" class="cls-2" d="M75.626,139.655l-.457-1.448c-3.277,1.067-6.4,1.905-9.373,2.591a67.783,67.783,0,0,0-2.515-20.8,66.933,66.933,0,0,0,6.934-2.286,34.976,34.976,0,0,1,4.42,9.221l1.448-.381c-.076-.229-5.334-20.118-23.394-20.651a31.884,31.884,0,0,0-23.318,9.83,34.645,34.645,0,0,0-9.983,25.757c.914,19.66,17.755,31.091,29.033,31.472v-.381h0l1.3-.838a72.949,72.949,0,0,1-5.334-9.754,61.852,61.852,0,0,0,9.221.762,41.242,41.242,0,0,0,6.934-.533c0,.076-.076.152-.076.229l1.448.457c.076-.381.229-.686.3-1.067a10.156,10.156,0,0,0,1.448-.381L63.281,160c-.152.076-.381.076-.533.152a86.941,86.941,0,0,0,2.972-17.831A84.3,84.3,0,0,0,75.626,139.655Zm-11.354,1.524a73.934,73.934,0,0,1-24.08,1.448,47.2,47.2,0,0,1,3.2-16.917c.533-1.372,1.067-2.591,1.676-3.81,1.143.076,2.286.076,3.505.076a56.417,56.417,0,0,0,13.335-1.524A69.2,69.2,0,0,1,64.271,141.179Zm-32.31-17.984a29.029,29.029,0,0,1,1.753-3.048,61.035,61.035,0,0,0,9.6,1.6c-.457,1.067-.991,2.134-1.448,3.353a46.5,46.5,0,0,0-3.2,17.374,46,46,0,0,1-9.6-2.438C28.609,133.635,29.523,128,31.961,123.195Zm-4.5,16.155a27.137,27.137,0,0,1-6.325-3.582,33.472,33.472,0,0,1,7.7-17.146c.61.229,1.753.61,3.277,1.067-.533.838-1.067,1.829-1.6,2.743A34.83,34.83,0,0,0,27.466,139.35ZM52.689,107.5h.076A55.9,55.9,0,0,0,44,120.223a59.609,59.609,0,0,1-9.373-1.448C41.334,110.088,51.7,107.726,52.689,107.5Zm3.81.457a46.781,46.781,0,0,1,4.877,10.973,58.146,58.146,0,0,1-15.7,1.372,54.044,54.044,0,0,1,9.068-12.65A17,17,0,0,0,56.5,107.954Zm-17.755,36.12a49.939,49.939,0,0,0,3.277,16c-3.124-.61-6.02-1.372-8.611-2.057a67.2,67.2,0,0,1-4.191-16.231A48.61,48.61,0,0,0,38.744,144.074ZM69.3,116.489c-2.21.838-4.344,1.524-6.477,2.134a54.057,54.057,0,0,0-4.267-10.059A21.605,21.605,0,0,1,69.3,116.489Zm-23.242-8.306A31.629,31.629,0,0,0,33.1,118.394a31.483,31.483,0,0,1-3.124-.991c.152-.152.3-.381.457-.533A31.712,31.712,0,0,1,46.059,108.183ZM20.988,137.521a30.184,30.184,0,0,0,6.63,3.582A62.466,62.466,0,0,0,31.58,157.41a74.114,74.114,0,0,1-7.087-2.515,32.679,32.679,0,0,1-3.658-13.412A35.113,35.113,0,0,1,20.988,137.521Zm4.725,19.584c1.524.61,3.734,1.372,6.553,2.21.991,2.515,2.134,5.182,3.429,7.849A33.96,33.96,0,0,1,25.713,157.105Zm21.946,14.4a24.131,24.131,0,0,1-9.525-2.972c-1.524-2.972-2.82-5.868-3.963-8.687,2.591.686,5.487,1.448,8.535,1.981A61.386,61.386,0,0,0,47.659,171.507Zm13.412-10.9a51.2,51.2,0,0,1-17.374-.229,47.392,47.392,0,0,1-3.505-16.155,68.963,68.963,0,0,0,7.163.381A79.608,79.608,0,0,0,64.2,142.7,82.008,82.008,0,0,1,61.071,160.61Z" transform="translate(-4.605 -25.198)"/>
      <g id="XMLID_33_" transform="translate(22.099 109.046)">
        <path id="XMLID_39_2" data-name="XMLID_39_" class="cls-2" d="M32.286,155.021l7.62-.152v2.362l-7.62-.152v7.7l.3.076a32.19,32.19,0,0,0,7.315.686v4.039A24.39,24.39,0,0,1,30,167.137V145.724A30.814,30.814,0,0,0,40.211,144.2l2.9,1.829c-2.819,2.591-10.364,2.743-10.44,2.743h-.381Z" transform="translate(-29.238 -143.362)"/>
        <path id="XMLID_38_" class="cls-11" d="M40.62,171.486v.381a31.856,31.856,0,0,1-7.315-.686L33,171.1v-.3A31.64,31.64,0,0,0,40.62,171.486Z" transform="translate(-29.952 -149.692)"/>
        <path id="XMLID_37_2" data-name="XMLID_37_" class="cls-12" d="M40.62,161.352v.381L33,161.581V161.2Z" transform="translate(-29.952 -147.407)"/>
        <path id="XMLID_36_2" data-name="XMLID_36_" class="cls-12" d="M40.62,157.7v.381l-7.62.152v-.381Z" transform="translate(-29.952 -146.574)"/>
        <path id="XMLID_35_" class="cls-11" d="M32.429,148.653c.076,0,7.62-.152,10.44-2.743l-2.9-1.829a30.813,30.813,0,0,1-10.211,1.524v21.413a27.276,27.276,0,0,0,9.906,2.438v.381A25.88,25.88,0,0,1,29,167.323v-22.1A27.066,27.066,0,0,0,39.745,143.7l3.505,2.134c-2.667,3.048-11.278,3.2-11.278,3.2v-.381Z" transform="translate(-29 -143.243)"/>
        <path id="XMLID_34_3" data-name="XMLID_34_" class="cls-11" d="M32.81,149.272V154l7.62-.152v3.963l-7.62-.152v6.325a33.948,33.948,0,0,0,7.239.533h.381v5.563h-.762a26.857,26.857,0,0,1-10.44-2.591L29,167.409v-.229a25.881,25.881,0,0,0,10.668,2.515v-4.8a34.343,34.343,0,0,1-7.62-.61v-7.011l7.62.152v-3.2l-7.62.152v-5.487s8.611-.152,11.278-3.2l-3.505-2.134a27.066,27.066,0,0,1-10.745,1.524v-.457l.457.076c4.648.457,10.44-1.524,10.516-1.524l.152-.076,3.963,2.515-.3.3C41.345,148.739,34.563,149.2,32.81,149.272Z" transform="translate(-29 -143.1)"/>
      </g>
      <g id="XMLID_25_" transform="translate(38.476 94.491)">
        <path id="XMLID_32_" class="cls-2" d="M69.022,145.5c-.457,17.3-9.83,17.908-9.906,17.908a4.1,4.1,0,0,1-3.048-1.3c-4.572-4.572-4.648-19.584-4.572-22.175h3.658c-.152,2.515-.838,15.393,2.515,18.974a3.188,3.188,0,0,0,.914.61,2.3,2.3,0,0,0,1.219.381,3.038,3.038,0,0,0,1.829-.533,3.929,3.929,0,0,0,1.3-.991c5.182-6.172,1.524-29.414.991-32.843L67.574,125C67.955,125.991,69.479,130.258,69.022,145.5Z" transform="translate(-50.727 -124.238)"/>
        <path id="XMLID_28_2" data-name="XMLID_28_" class="cls-11" d="M67.872,124.229,67.72,124l-4.953.686.076.381c.076.229,4.572,26.442-.686,32.691a3.17,3.17,0,0,1-2.591,1.143,1.894,1.894,0,0,1-1.524-.533c-3.429-3.658-2.286-18.67-2.286-18.822v-.381H50.5v.381c0,.762-.381,17.984,4.8,23.166a4.839,4.839,0,0,0,3.429,1.6h.152c.076,0,10.135-.762,10.668-18.746S67.948,124.3,67.872,124.229Zm1.3,21.184c-.533,17.831-10.287,18.365-10.287,18.365-8.611.229-8-24-8-24H55.3s-1.3,16.993,2.972,19.66a3.159,3.159,0,0,0,1.219.229,3.589,3.589,0,0,0,1.829-.381c7.011-4.267,1.829-34.139,1.829-34.139l4.344-.61C67.567,124.533,69.7,127.505,69.168,145.413Z" transform="translate(-50.492 -124)"/>
        <path id="XMLID_27_2" data-name="XMLID_27_" class="cls-11" d="M59.679,164.284a3.189,3.189,0,0,1-.914-.61c-3.353-3.582-2.667-16.46-2.515-18.974h.381C56.707,144.7,55.412,161.693,59.679,164.284Z" transform="translate(-51.824 -128.926)"/>
        <path id="XMLID_26_3" data-name="XMLID_26_" class="cls-11" d="M69.286,145.58C68.752,163.411,59,163.944,59,163.944c-8.611.229-8-24-8-24h.381c0,2.591,0,17.6,4.572,22.175a4.1,4.1,0,0,0,3.048,1.3c.076,0,9.449-.686,9.906-17.908.457-15.241-1.067-19.584-1.448-20.422l-3.658.533c.61,3.429,4.267,26.671-.991,32.843a3.928,3.928,0,0,1-1.3.991c7.011-4.267,1.829-34.139,1.829-34.139l4.344-.61S69.819,127.672,69.286,145.58Z" transform="translate(-50.61 -124.167)"/>
      </g>
      <path id="XMLID_22_2" data-name="XMLID_22_" class="cls-2" d="M147.79,56.368c-16.993-.229-27.357,0-40.54,0C93.991,56.368,93,69.094,93,75.5V90.888l6.1,3.505V69.551h59.438L159.3,126.7h4.572V71.075S164.783,56.6,147.79,56.368Zm-7.544,6.325H116.623V60.407h23.623Z" transform="translate(-22.132 -13.39)"/>
      <path id="XMLID_21_2" data-name="XMLID_21_" class="cls-2" d="M196.009,148.2l-6.325,17.908-4.572-4.344s-13.945,19.051-46.712,11.2c0,0,28.424.991,41.378-16.765,0,0-5.334-5.334-4.725-5.563C175.739,150.334,196.009,148.2,196.009,148.2Z" transform="translate(-32.936 -35.268)"/>
      <path id="XMLID_18_3" data-name="XMLID_18_" class="cls-2" d="M157.772,185.368V212.8H99.858V174.7L93,181.558v26.9c0,6.325,3.277,18.06,14.478,18.06h45.188c12.192,0,12.726-13.717,12.726-13.717V181.558Zm-28.195,37.72a4.179,4.179,0,0,1-4.191-4.191,4.191,4.191,0,1,1,8.382,0A4.179,4.179,0,0,1,129.577,223.089Z" transform="translate(-22.132 -41.574)"/>
      <path id="XMLID_17_2" data-name="XMLID_17_" class="cls-2" d="M61.307,99.7s36.044,2.515,36.044,28.728S60.545,177.2,45,180.475c0,0,40.692-21.108,40.387-51.818C85.159,104.806,61.307,99.7,61.307,99.7Z" transform="translate(-10.709 -23.726)"/>
      <path id="XMLID_16_3" data-name="XMLID_16_" class="cls-2" d="M162.088,84.852C146.238,74.945,131.76,98.34,131.76,98.34l5.334,4.344L116.9,110.761l2.362-19.813,4.344,3.582c4.725-7.468,17.3-16,25.375-16.536C157.135,77.536,162.088,84.852,162.088,84.852Z" transform="translate(-27.819 -18.555)"/>
    </g>
  </g>
</svg>
