<?xml version="1.0" encoding="utf-8"?>
<!-- Generator: Adobe Illustrator 19.0.0, SVG Export Plug-In . SVG Version: 6.00 Build 0)  -->
<svg version="1.1" id="Layer_1" xmlns="http://www.w3.org/2000/svg" xmlns:xlink="http://www.w3.org/1999/xlink" x="0px" y="0px"
	 viewBox="0 0 720 720" style="enable-background:new 0 0 720 720;" xml:space="preserve">
<style type="text/css">
	.st0{fill:#4BA606;}
	.st1{fill:#EFCF83;}
	.st2{fill:#FFFFFF;}
	.st3{opacity:0.41;fill:#766167;}
</style>
<g id="XMLID_2_">
	<circle id="XMLID_1_" class="st0" cx="362.9" cy="349.5" r="317.3"/>
	<path id="XMLID_30_" class="st1" d="M516.9,382.8c-29.1-96.3-63.1-164.1-130.1-181.8h0c0,0,45.2-71.9,46.5-90s-27.7-8.4-52.9-7.2
		c-25.3,1.2-33.7-6.1-51.7-3.6c-18,2.4-58.9,3.6-58.9,3.6l43.6,97.2c-64.3,17.8-88.8,85.9-111.6,181.8
		c-23.8,100.2-25.3,186.4,148,186.4C536.2,569.2,546.7,481.3,516.9,382.8z"/>
	<g id="XMLID_28_">
		<path id="XMLID_31_" class="st2" d="M352.5,488.9v-22.2c-15.7-0.7-30.9-4.9-39.8-10.1l7-27.4c9.8,5.4,23.7,10.3,38.9,10.3
			c13.3,0,22.5-5.2,22.5-14.5c0-8.9-7.5-14.5-24.8-20.4c-25.1-8.4-42.2-20.1-42.2-42.9c0-20.6,14.5-36.8,39.6-41.7v-22.2h22.9v20.6
			c15.7,0.7,26.2,4,34,7.7l-6.8,26.5c-6.1-2.6-16.9-8-33.7-8c-15.2,0-20.1,6.6-20.1,13.1c0,7.7,8.2,12.6,28.1,20.1
			c27.9,9.8,39.1,22.7,39.1,43.8c0,20.8-14.8,38.6-41.7,43.3v23.9H352.5z"/>
	</g>
</g>
<path id="XMLID_29_" class="st3" d="M313.4,201h73.5l10.9-17.8c0,0-78.3,13.3-91.3,2.5L313.4,201z"/>
</svg>
