<?xml version="1.0" encoding="utf-8"?>
<!-- Generator: Adobe Illustrator 19.0.0, SVG Export Plug-In . SVG Version: 6.00 Build 0)  -->
<svg version="1.1" id="Layer_1" xmlns="http://www.w3.org/2000/svg" xmlns:xlink="http://www.w3.org/1999/xlink" x="0px" y="0px"
	 viewBox="-87 110 784 342" style="enable-background:new -87 110 784 342;" xml:space="preserve">
<style type="text/css">
	.st0{fill:#289611;}
	.st1{fill:#00822D;}
	.st2{fill:#FFFFFF;}
	.st3{fill:#F9EC23;}
	.st4{enable-background:new    ;}
	.st5{fill:#4FB148;}
</style>
<g id="XMLID_57_">
	<path id="XMLID_66_" class="st0" d="M219.9,216v120.8c0,15-12.8,27.1-28.6,27.1H-73.4c-0.9,0-1.7,0-2.6-0.1V189.1
		c0.8-0.1,1.7-0.1,2.6-0.1h264.7C207,189,219.9,201.1,219.9,216z"/>
	<path id="XMLID_65_" class="st1" d="M171.8,144.8v32.3L6.4,181.4c54.3-14,149.3-38.5,155.5-40.3c1.4-0.4,2.8-0.6,4.1-0.6
		c1.8,0,3.3,0.4,4.4,1.2C171,142.1,171.8,142.9,171.8,144.8z"/>
	<path id="XMLID_64_" class="st1" d="M192.4,132.9c0,9.2,0,43.2,0,43.2l-12.9,0.3v-31.5c0-3.7-1.5-6.8-4.3-8.9
		c-3.6-2.7-8.7-3.3-14.2-1.8c-7.5,2.1-167.4,43.7-169,44.2l-13.1,3.4l-45.5,1.2c0,0,227.8-59.5,239.7-62.6
		C183.2,117.7,192.4,123.8,192.4,132.9z"/>
	<path id="XMLID_61_" class="st2" d="M192.4,294.1c-7.6,0-14-6-14.3-13.7c-0.2-3.8,1.2-7.5,3.8-10.3c2.6-2.8,6.1-4.5,10-4.6
		c3.9-0.2,7.5,1.2,10.3,3.8s4.5,6.1,4.6,10l0,0c0.2,3.8-1.2,7.5-3.8,10.3s-6.1,4.5-10,4.6C192.8,294.1,192.6,294.1,192.4,294.1z
		 M192.4,273.8c-0.1,0-0.2,0-0.3,0c-1.6,0.1-3.1,0.8-4.2,1.9c-1.1,1.2-1.6,2.7-1.6,4.3c0.1,3.3,3,5.9,6.3,5.7
		c1.6-0.1,3.1-0.8,4.2-1.9c1.1-1.2,1.6-2.7,1.6-4.3l0,0c-0.1-1.6-0.8-3.1-1.9-4.2C195.3,274.3,193.9,273.8,192.4,273.8z"/>
	<path id="XMLID_58_" class="st3" d="M97,215.8c-14,0-58.3,0-58.3,0l-5.9,28.8H8.3l-4.5,21.5h24.7l-1.5,7.3H2.7l-4.5,21.5h24.4
		l-10,48.9h26.1l9.8-48.7c55.7,3.8,75.2-12,78.9-41.9C130.6,226.3,111,215.8,97,215.8z M101.5,255.3c-1.6,9.3-6.3,20.4-48.5,17.7
		l1.3-6.9l4-21.5l1.4-7.3c0,0,17.7,0,29.8,0C101.5,237.3,102.7,248.3,101.5,255.3z"/>
</g>
<g id="XMLID_95_">
	<g class="st4">
		<path class="st5" d="M386.2,270.4h21.4l-9.8,46.9c-1.2,5.6-1.8,9.1-1.8,10.5c0,2.3,0.8,4.2,2.5,5.9c1.7,1.6,3.9,2.5,6.5,2.5
			c1.9,0,3.8-0.4,5.6-1.1c1.8-0.7,3.7-1.8,5.7-3.3c1.9-1.5,3.7-3.1,5.2-5s3-4.4,4.3-7.5c0.9-2.3,2-6,3.1-11.2l7.9-37.7h21.4
			l-16.6,79.2h-20l2.2-10.7c-8.8,8.4-18.3,12.6-28.6,12.6c-6.5,0-11.6-1.9-15.4-5.6c-3.7-3.7-5.6-8.7-5.6-15c0-2.7,0.8-8.2,2.5-16.3
			L386.2,270.4z"/>
		<path class="st5" d="M478.4,270.4h20l-3.2,15.4c7.5-11.5,15.5-17.2,24.2-17.2c3.1,0,6.4,0.8,9.9,2.3l-8.2,17.5c-1.9-0.7-4-1-6.2-1
			c-3.7,0-7.4,1.4-11.2,4.2c-3.8,2.8-6.8,6.5-8.9,11.1s-4.3,12-6.3,22.1l-5.2,24.8h-21.4L478.4,270.4z"/>
		<path class="st5" d="M519.7,327.4l20.7-3.3c1.8,4.4,4.1,7.5,6.9,9.3c2.7,1.8,6.5,2.7,11.2,2.7c4.9,0,8.8-1.1,11.7-3.3
			c2-1.5,3.1-3.3,3.1-5.4c0-1.4-0.5-2.7-1.6-3.9c-1.1-1.1-4.1-2.4-8.9-4c-12.9-4.3-20.9-7.7-24-10.1c-4.8-3.9-7.2-8.9-7.2-15.2
			s2.3-11.7,7-16.2c6.5-6.3,16.2-9.5,29-9.5c10.2,0,17.9,1.9,23.1,5.6c5.2,3.7,8.5,8.8,9.9,15.1l-19.8,3.4c-1-2.9-2.7-5-5.1-6.5
			c-3.2-1.9-7-2.9-11.5-2.9s-7.7,0.7-9.7,2.2s-2.9,3.2-2.9,5.1c0,2,1,3.6,3,4.9c1.2,0.8,5.2,2.2,12,4.2c10.4,3,17.4,6,21,8.9
			c5,4.1,7.5,9.1,7.5,14.9c0,7.5-3.2,14-9.5,19.5s-15.2,8.3-26.7,8.3c-11.4,0-20.3-2.1-26.5-6.3C526.2,341,521.9,335.1,519.7,327.4z
			"/>
		<path class="st5" d="M637.6,292.8l-20.9-1.8c2.4-7.1,6.5-12.6,12.5-16.6c5.9-4,13.8-6,23.6-6c10.2,0,17.7,2,22.6,6.2
			c4.9,4.1,7.3,9.1,7.3,15c0,2.4-0.2,4.9-0.6,7.6c-0.4,2.7-1.9,9.7-4.4,21.2c-2.1,9.4-3.1,16.1-3.1,19.8c0,3.4,0.6,7.1,1.8,11.3
			h-20.8c-0.8-2.9-1.4-5.9-1.6-8.9c-3.1,3.5-6.7,6.2-10.8,8c-4.1,1.9-8.2,2.8-12.3,2.8c-6.6,0-12-2.1-16.3-6.4
			c-4.3-4.3-6.4-9.8-6.4-16.6c0-7.6,2.3-13.6,7-18.1s13.1-7.3,25.2-8.2c10.2-0.8,17-1.9,20.4-3.1c0.9-3,1.3-5.4,1.3-7.2
			c0-2.3-0.9-4.2-2.8-5.7c-1.8-1.5-4.6-2.3-8.2-2.3c-3.8,0-6.8,0.8-9.1,2.3C639.9,287.7,638.4,290,637.6,292.8z M657.9,312.7
			c-1.3,0.3-3,0.7-5.1,1c-10.7,1.3-17.7,3.2-21,5.7c-2.3,1.8-3.5,4.2-3.5,7.2c0,2.5,0.9,4.6,2.7,6.3s4.2,2.6,7.1,2.6
			c3.2,0,6.3-0.8,9.1-2.3c2.9-1.6,5-3.6,6.4-6c1.4-2.5,2.7-6.3,3.8-11.5L657.9,312.7z"/>
	</g>
	<path id="XMLID_89_" class="st3" d="M354.7,208.2c-15.3,0-63.7,0-63.7,0l-6.4,31.4h-26.9l-4.9,23.4h26.9l-1.6,8h-26.5l-4.9,23.4
		h26.6l-10.9,53.3H291l10.7-53.1c60.7,4.1,82.1-13.1,86.1-45.8C391.4,219.8,369.9,208.2,354.7,208.2z M359.6,251.3
		c-1.7,10.1-6.9,22.2-53,19.3l1.4-7.5l4.4-23.4l1.5-8c0,0,19.3,0,32.6,0S360.9,243.7,359.6,251.3z"/>
</g>
<g>
	<path class="st2" d="M-51.7,439c-4.3,0-7.8-1.1-10.9-3c-0.4,0.5-0.7,0.7-1.3,1c-0.9,0.5-1.5,0.9-2.6,0.9h-8.2
		c1.4-0.9,2.1-1.8,2.9-3.3c0.5-1.2,0.6-2.1,0.6-3.4v-30.5c0-2-0.5-3.3-1.7-4.9c-0.6-0.8-1.2-1.2-1.9-1.9h14.6
		c-0.3,0.4-0.6,0.8-0.7,1.1c-0.3,0.6-0.4,1.2-0.4,1.9V409c3.8-2.1,6.8-3.1,11.3-3c12.3,0.5,17.2,6.6,17.6,15.7
		C-32,431.8-39.1,438.9-51.7,439z M-51.5,412.5c-5.9-0.1-9.5,4.3-9.9,9.9c-0.4,6.4,3.9,10.8,9.4,10.6c6.7-0.2,9.2-4.9,9.2-10.1
		C-42.8,417.6-44.8,412.5-51.5,412.5z"/>
	<path class="st2" d="M13.3,409.5c-1.2,1.5-1.9,2.6-2.9,4.2l-15.5,24.6c-1.1,1.9-1.7,4.1-1.5,5.9c0.1,1,0.3,1.6,0.7,2.5h-17.3
		c1.6-1.4,2.5-2.3,3.9-3.8c2.1-2.3,2.8-3.2,4.6-5.7l2.9-4.3l-11.4-17c-1.7-2.6-2.8-3.9-4.9-6.1c-1-1.1-1.6-1.7-2.7-2.7h17.5
		c-0.8,0.6-1.3,1.4-1.5,2.5c-0.1,1,0,1.7,0.5,2.5l8.2,13.1l7.5-12.5c0.6-1.1,1.2-2,1-3.2c-0.2-1.1-0.8-1.7-1.4-2.5h14.1
		C14.5,408.1,14,408.6,13.3,409.5z"/>
	<path class="st2" d="M84.7,413c-0.4,0.7-0.6,1.5-0.6,2.4v21c-1.4-0.3-2-0.6-3.7-0.5c-3.9,0.2-10.5,2.4-17.3,2.8
		c-16.5,0.7-27.5-8.5-27.2-22.3c0.4-16.5,13-23.4,28.2-23.3c6.1,0.1,11.3,1.6,15.2,1.4c1.3-0.1,2.2-0.2,3.5-0.4l-3.5,11.3
		c-4.2-2.7-10.9-4.3-14.7-4.3c-12.2,0.1-16.6,6.6-16.9,15.8c-0.2,10.2,6.6,14.3,14.5,14.1c5.7-0.2,11.6-2,11.5-7.3v-4.1h-9
		c-1.1,0-3.2,0.2-4.3,0.7c-0.7,0.3-1.2,0.5-1.9,0.9l1.9-6.7c0.3-1,0.7-1.8,1.6-2.3c0.7-0.4,1.3-0.4,2.2-0.4h21.5
		C85.3,412.1,84.9,412.7,84.7,413z"/>
	<path class="st2" d="M89.5,437.9c0.9-0.7,1.5-1.3,2.1-2.3c0.8-1.5,1.1-2.7,1.1-4.4v-29.7c0-2.2-0.3-3.8-1.6-5.4
		c-0.8-1.1-1.4-1.5-2.3-2.2h15.1c-0.4,0.3-0.5,0.6-0.7,1.1c-0.4,0.8-0.5,1.5-0.5,2.4v31.8c0,1.1,0.3,4,1.5,5.9
		c0.7,1.2,1.7,2,2.5,2.8L89.5,437.9L89.5,437.9z"/>
	<path class="st2" d="M129.6,438.7c-15.1-0.1-19.9-6.5-19.9-16.5c0.1-10.4,9.6-16.2,20.8-15.8c12.9,0.4,18.3,6.4,18.6,15.6
		C149.5,430.9,142.9,438.7,129.6,438.7z M129.6,412.6c-6.7,0-9.8,4.5-9.6,10.5c0.2,6.7,3.6,9.4,9.8,9.4c6.2,0,9.2-4.7,9.1-10
		C138.8,417.3,136.7,412.6,129.6,412.6z"/>
	<path class="st2" d="M175.2,439c-4.3,0-7.8-1.1-10.9-3c-0.4,0.5-0.7,0.7-1.3,1c-0.9,0.5-1.5,0.9-2.6,0.9h-8.2
		c1.4-0.9,2.1-1.8,2.9-3.3c0.5-1.2,0.6-2.1,0.6-3.4v-30.5c0-2-0.5-3.3-1.7-4.9c-0.6-0.8-1.2-1.2-1.9-1.9h14.6
		c-0.3,0.4-0.6,0.8-0.7,1.1c-0.3,0.6-0.4,1.2-0.4,1.9V409c3.8-2.1,6.8-3.1,11.3-3c12.3,0.5,17.2,6.6,17.6,15.7
		C194.9,431.8,187.8,438.9,175.2,439z M175.4,412.5c-5.9-0.1-9.5,4.3-9.9,9.9c-0.4,6.4,3.9,10.8,9.4,10.6c6.7-0.2,9.2-4.9,9.2-10.1
		C184.1,417.6,182.1,412.5,175.4,412.5z"/>
	<path class="st2" d="M232.9,425.7c-0.9-0.3-1.5-0.3-2.4-0.3h-22.8c0.2,4.2,3.8,7.3,12,7.2c3.3,0,8-0.8,12.4-3.3v9.2
		c-1.1-0.1-1.7-0.3-2.9-0.3c-3.2,0.1-6.5,1.1-10.9,1c-16-0.2-20.6-6.5-20.6-16.7c0-9.9,6.6-16.7,19.3-16.8
		c8.6-0.1,17.2,3.7,17.1,15.3v5.4C233.8,426,233.4,425.8,232.9,425.7z M224.5,417.7c0.1-3.7-3-5.9-7.6-5.9c-5.6,0.1-8.6,2.9-9.2,7.5
		h16.8V417.7z"/>
	<path class="st2" d="M268.2,437.9c0.6-0.5,1.4-1,1.5-1.9c0.2-1.2-1-2.3-1.5-2.8l-6.8-6.1l-6.5,5.6c-0.4,0.4-1.5,1.4-1.4,2.7
		c0.1,1.2,1.1,2.1,2,2.6H237l18.6-16.3l-9.9-9c-1.4-1.3-2.2-1.8-3.6-3c-1.3-1-2.1-1.5-3.5-2.4h19.6c-0.6,0.3-1.1,0.7-1.4,1.3
		c-0.7,1.5,0.3,2.9,1.5,3.9l4.3,3.6l6.9-5.6c0.5-0.5,1-1,1-1.7s-0.3-1.2-0.8-1.6h15.5l-16.7,14.3l17.6,16.4H268.2z"/>
	<path class="st2" d="M329.5,405.8c-3.9-3.1-7.7-4.3-12.8-4.5c-9.3-0.3-15.8,6.6-15.6,15c0.2,7.9,4.2,14.5,14.6,14.2
		c5-0.1,9.5-1.3,14.7-4.2l1.9-1.1v12.7c-1.1-0.4-1.7-0.8-2.9-0.8c-4.4,0.2-10.1,1.8-16.5,1.7c-15.3-0.1-24.2-10-23.5-22.8
		c0.7-13.6,9.1-22.6,26.4-22.9c5.3-0.1,11.6,1.1,14.8,1.3c1,0.1,1.8-0.2,2.7-0.5L329.5,405.8z"/>
	<path class="st2" d="M369.8,437.9c-0.9,0-1.6,0-2.3-0.7c-0.4-0.4-0.6-0.8-0.7-1.3l-1.9,1c-4.2,2.4-7.7,2.6-12.2,2.5
		c-7.2-0.1-16-1.4-16-9.9c0-6.9,11.2-9.5,15.7-9.9l11.7-1l-0.1-1.7c-0.2-3.2-3.4-4.4-7.3-4.3c-5.1,0-9.5,1.1-15.2,3.2l-2.5,0.9
		l3.2-9.2c0.7,0.1,1.3,0.2,2,0.2c4.7,0.1,9.3-1.9,15.2-1.8c10,0.3,14.6,4.7,14.6,12v11.3c0,2,0.2,3.4,1.2,5.2
		c0.8,1.5,1.7,2.5,3.2,3.4L369.8,437.9L369.8,437.9z M361.7,424.9c-6.8,0-14.6,1.3-14.1,5.2c0.4,3.1,3.3,3.2,5.8,3.4
		c4.8,0.3,10.7-1.7,11-6.7l0.2-2L361.7,424.9L361.7,424.9z"/>
	<path class="st2" d="M432.6,437.9c0.6-0.8,1-1.4,1.4-2.3c0.6-1.4,0.8-2.4,0.8-3.9v-11.3c0-4.1-1.6-7.5-7.4-7.5
		c-4.8-0.1-8.2,3.1-8.2,7.4v10.3c0,2.3,0.7,4.3,1.9,5.8c0.5,0.6,0.8,1,1.4,1.5h-15.6c0.7-0.8,1-1.4,1.5-2.3c0.6-1.2,1.3-3.1,1.3-5.1
		v-10.8c0-3.3-2.2-7-7.6-7c-4.1,0-7.9,3.3-7.9,6.9v12.1c0,1.6,0.5,2.9,1.2,4.1c0.5,0.8,0.9,1.3,1.6,2h-15.3c0.8-0.8,1.2-1.3,1.7-2.4
		c0.3-0.6,1-2.2,1-3.6v-17.6c0-2.2-0.5-3.7-1.7-5.5c-0.5-0.6-0.8-1.1-1.4-1.6h9.9c0.4,0,0.7-0.1,1.1-0.2c0.3-0.1,0.6-0.2,0.9-0.4v3
		c3-1.5,7.4-3.6,12.3-3.5c5.5,0.1,9.4,2.4,11.3,4.4c1.6-1.3,8.4-4.9,14.3-4.8c8.3,0.2,13.9,5,13.9,12.2v13.5c0,1.9,0.4,3.1,1.4,4.7
		c0.5,0.8,1.1,1.2,1.7,1.9L432.6,437.9L432.6,437.9z"/>
	<path class="st2" d="M517.5,413c-0.4,0.7-0.6,1.5-0.6,2.4v21c-1.4-0.3-2-0.6-3.7-0.5c-3.9,0.2-10.5,2.4-17.3,2.8
		c-16.5,0.7-27.5-8.5-27.2-22.3c0.4-16.5,13-23.4,28.2-23.3c6.1,0.1,11.3,1.6,15.2,1.4c1.3-0.1,2.2-0.2,3.5-0.4l-3.5,11.3
		c-4.2-2.7-10.9-4.3-14.7-4.3c-12.2,0.1-16.6,6.6-16.9,15.8c-0.2,10.2,6.6,14.3,14.5,14.1c5.7-0.2,11.6-2,11.5-7.3v-4.1h-9.2
		c-1.1,0-3.2,0.2-4.3,0.7c-0.7,0.3-1.2,0.5-1.9,0.9l1.9-6.7c0.3-1,0.7-1.8,1.6-2.3c0.7-0.4,1.3-0.4,2.2-0.4h21.7
		C518.1,412.1,517.7,412.7,517.5,413z"/>
	<path class="st2" d="M550.8,415.9c-4.2-3.2-9.6-2.7-11.4-1.7c-3,1.6-4.6,4.3-4.6,7.5v7.9c0,2.3,0.2,3.9,1.5,5.8
		c0.7,1.1,1.5,1.5,2.4,2.4h-17.2c1.1-0.6,1.7-1.3,2.4-2.3c0.6-1,1-2.5,1-4.2v-17.2c0-2-0.2-3.4-1.4-5.1c-0.5-0.8-1.1-1.3-1.9-1.9
		H532c0.3,0,0.6-0.2,1-0.3c0.3-0.2,0.4-0.4,0.6-0.5v3.5c3.4-2.5,6.1-3.6,10.4-3.8c2.8-0.1,4.8,1.1,7.5,1.1c0.8,0.1,1.3,0.1,2.1,0.1
		L550.8,415.9z"/>
	<path class="st2" d="M576.6,438.7c-15.1-0.1-19.9-6.5-19.9-16.5c0.1-10.4,9.6-16.2,20.8-15.8c12.9,0.4,18.3,6.4,18.6,15.6
		C596.5,430.9,589.9,438.7,576.6,438.7z M576.6,412.6c-6.7,0-9.8,4.5-9.6,10.5c0.2,6.7,3.6,9.4,9.8,9.4c6.2,0,9.2-4.7,9.1-10
		C585.7,417.3,583.7,412.6,576.6,412.6z"/>
	<path class="st2" d="M633.9,437.9c-0.3,0-1.8,0.1-2.4-0.7c-0.2-0.2-0.7-0.5-0.9-1.1l-0.3-0.9c-3.9,2.4-9.2,3.8-13,3.6
		c-7.3-0.3-14.7-2.6-14.7-12v-11.4c0-2.4-0.6-4-1.7-6.1c-0.5-0.8-0.8-1.3-1.5-2.1H613c-0.3,0.3-0.4,0.6-0.6,1
		c-0.3,0.5-0.4,1.1-0.4,1.7v14c0,6.4,3.4,8.3,7.8,8.3c4.7-0.1,8.6-2.9,8.6-8.5v-6.1c0-1.5,0.2-6.1-2-8.6c-0.7-0.8-1.3-1.2-2.2-1.7
		h15.1c-0.2,0.3-0.4,0.5-0.5,0.8c-0.3,0.5-0.4,1-0.4,1.5v20.7c0,2.1,0.3,3.4,1.4,5.2c0.6,1,1.5,1.7,2.3,2.3L633.9,437.9L633.9,437.9
		L633.9,437.9z"/>
	<path class="st2" d="M667.5,438.3c-3.9,0.1-6.9-0.6-9.8-2.4v2.4c0,1.7,0.2,4.1,1.5,6.1c0.8,1.2,1.6,1.9,2.7,2.5H645
		c0.8-0.8,1.3-1.4,1.8-2.4s1-2.3,1-3.8v-27.3c0-1.9-0.6-2.8-1.6-4.2c-0.5-0.8-1.1-1.3-1.9-2h8.3c1,0,1.8,0.2,2.4,1
		c0.5,0.5,0.5,0.8,0.8,1.4c4-3.1,7.5-3.8,12.6-3.9c12-0.2,17.1,6.2,17.6,15.2C686.7,430.9,680.7,437.8,667.5,438.3z M666.8,412.4
		c-6.6-0.2-9.8,5-9.4,10.5c0.3,5.1,2.7,9.2,9.4,9.3c5.9,0.1,9.3-5.5,8.8-10.8C675.2,416.5,673.6,412.5,666.8,412.4z"/>
</g>
<image style="overflow:visible;enable-background:new    ;" width="546" height="143" xlink:href="915F5F65.jpg"  transform="matrix(0.9996 0 0 0.9996 -7972.8779 -7022.1685)">
</image>
</svg>
