<?xml version="1.0" encoding="utf-8"?>
<!-- Generator: Adobe Illustrator 19.0.0, SVG Export Plug-In . SVG Version: 6.00 Build 0)  -->
<svg version="1.1" id="Layer_1" xmlns="http://www.w3.org/2000/svg" xmlns:xlink="http://www.w3.org/1999/xlink" x="0px" y="0px"
	 viewBox="0 0 90 90" style="enable-background:new 0 0 90 90;" xml:space="preserve">
<style type="text/css">
	.st0{fill:#F9EC23;}
</style>
<path id="XMLID_130_" class="st0" d="M67.9,1.6c-9.5,0-39.4,0-39.4,0l-4,19.5H7.9L4.9,35.6h16.7l-1,4.9H4.1L1.1,55.1h16.5l-6.7,33.1
	h17.7l6.6-33c37.6,2.6,50.8-8.1,53.3-28.3C90.6,8.8,77.4,1.6,67.9,1.6z M70.9,28.3c-1.1,6.3-4.3,13.8-32.8,12l0.9-4.6l2.7-14.5
	l0.9-4.9c0,0,12,0,20.2,0S71.7,23.6,70.9,28.3z"/>
</svg>
