<?xml version="1.0" encoding="utf-8"?>
<!-- Generator: Adobe Illustrator 23.0.0, SVG Export Plug-In . SVG Version: 6.00 Build 0)  -->
<svg version="1.1" id="Layer_1" xmlns="http://www.w3.org/2000/svg" xmlns:xlink="http://www.w3.org/1999/xlink" x="0px" y="0px"
	 viewBox="0 0 17 10" style="enable-background:new 0 0 17 10;" xml:space="preserve">
<style type="text/css">
	.st0{fill:#FFE000;}
	.st1{fill:#31910D;}
</style>
<path class="st0" d="M7.1,0.7c-1.4,0-3.7,0-3.7,0L3.1,2.1H1.5L1.2,3.7h1.6L2.7,4.4H1.2L0.8,5.9h1.6L1.9,9.3h2l0.6-3.3
	c0,0,0.1,0,1.9,0s2.9-1.2,3-2.5C9.4,2.1,8.5,0.7,7.1,0.7z M7.4,3.5c0,0.4-0.5,0.8-1.3,0.8c-0.6,0-1.4,0-1.4,0l0.4-2.1
	c0,0,1.1,0,1.7,0.1C7.3,2.5,7.4,3.1,7.4,3.5z"/>
<g>
	<path class="st1" d="M15.4,9.3h-2.5L12,6.3l-2,2.9H7.4l3.3-4.6l-1.3-4h2.4l0.7,2.8l1.8-2.8H17l-3.2,4.3L15.4,9.3z"/>
</g>
</svg>
