<?xml version="1.0" encoding="utf-8"?>
<!-- Generator: Adobe Illustrator 19.0.0, SVG Export Plug-In . SVG Version: 6.00 Build 0)  -->
<svg version="1.1" id="Layer_1" xmlns="http://www.w3.org/2000/svg" xmlns:xlink="http://www.w3.org/1999/xlink" x="0px" y="0px"
	 viewBox="0 0 720 720" style="enable-background:new 0 0 720 720;" xml:space="preserve">
<style type="text/css">
	.st0{fill:#289611;}
	.st1{fill:#00822D;}
	.st2{fill:#FFFFFF;}
	.st3{fill:#F9EC23;}
	.st4{fill:#4FB148;}
	.st5{font-family:'Arial-BoldItalicMT';}
	.st6{font-size:194.0447px;}
</style>
<g>
	<path id="XMLID_3_" class="st0" d="M583.6,176.2v178.1c0,22.1-18.9,40-42.2,40H151c-1.3,0-2.6-0.1-3.8-0.2V136.4
		c1.2-0.1,2.5-0.2,3.8-0.2h390.4C564.7,136.2,583.6,154.1,583.6,176.2z"/>
	<path id="XMLID_2_" class="st1" d="M512.7,71.1v47.6l-244.1,6.4c80.1-20.7,220.2-56.8,229.5-59.5c2.1-0.6,4.1-0.9,6-0.9
		c2.6,0,4.9,0.6,6.5,1.7C511.5,67.1,512.7,68.3,512.7,71.1z"/>
	<path id="XMLID_1_" class="st1" d="M543.1,53.6c0,13.5,0,63.7,0,63.7l-19,0.5V71.2c0-5.4-2.3-10.1-6.4-13.2
		c-5.3-4-12.9-4.9-20.9-2.6c-11,3.2-247,64.5-249.3,65.1l-19.3,5l-67.2,1.8c0,0,336-87.8,353.6-92.4C529.6,31,543.1,40.1,543.1,53.6
		z"/>
	<path id="XMLID_248_" class="st2" d="M543.1,291.4c-11.3,0-20.6-8.9-21.1-20.2c-0.2-5.7,1.7-11.1,5.5-15.2c3.8-4.2,9-6.6,14.7-6.9
		c5.7-0.3,11.1,1.7,15.2,5.5c4.2,3.8,6.6,9,6.9,14.7l0,0c0.2,5.7-1.7,11.1-5.5,15.2c-3.8,4.2-9,6.6-14.7,6.9
		C543.7,291.4,543.4,291.4,543.1,291.4z M543.1,261.3c-0.1,0-0.3,0-0.4,0c-2.4,0.1-4.5,1.1-6.1,2.9c-1.6,1.7-2.4,4-2.3,6.4
		c0.2,4.9,4.4,8.7,9.2,8.5c2.4-0.1,4.5-1.1,6.1-2.9c1.6-1.7,2.4-4,2.3-6.4v0c-0.1-2.4-1.1-4.5-2.9-6.1
		C547.4,262.1,545.3,261.3,543.1,261.3z"/>
	<path id="XMLID_130_" class="st3" d="M402.3,175.8c-20.6,0-86,0-86,0l-8.7,42.5h-36.2l-6.7,31.7h36.4l-2.2,10.7h-35.7l-6.7,31.7
		h35.9l-14.7,72.1h38.5l14.4-71.9c82.1,5.6,110.9-17.7,116.4-61.8C451.9,191.4,423,175.8,402.3,175.8z M408.9,234
		c-2.3,13.7-9.3,30.1-71.6,26.1l1.9-10.1l5.9-31.7l2-10.7c0,0,26.1,0,44,0C408.9,207.5,410.7,223.8,408.9,234z"/>
</g>
<text id="XMLID_138_" transform="matrix(1 0 0 1 205.8227 614.6484)" class="st4 st5 st6">ursa</text>
<path id="XMLID_89_" class="st3" d="M194.4,435c-19.4,0-80.9,0-80.9,0l-8.2,39.9h-34L65,504.8h34.2l-2.1,10.1H63.6l-6.3,29.8h33.8
	l-13.8,67.8h36.2l13.5-67.6c77.2,5.3,104.3-16.6,109.5-58.2C241.1,449.6,213.8,435,194.4,435z M200.6,489.7
	c-2.2,12.8-8.8,28.3-67.4,24.6l1.8-9.5l5.5-29.8l1.9-10.1c0,0,24.5,0,41.4,0S202.3,480.1,200.6,489.7z"/>
</svg>
