<?xml version="1.0" encoding="utf-8"?>
<!-- Generator: Adobe Illustrator 19.0.0, SVG Export Plug-In . SVG Version: 6.00 Build 0)  -->
<svg version="1.1" id="Layer_1" xmlns="http://www.w3.org/2000/svg" xmlns:xlink="http://www.w3.org/1999/xlink" x="0px" y="0px"
	 viewBox="0 0 784 260.7" style="enable-background:new 0 0 784 260.7;" xml:space="preserve">
<style type="text/css">
	.st0{fill:#289611;}
	.st1{fill:#00822D;}
	.st2{fill:#FFFFFF;}
	.st3{fill:#F9EC23;}
	.st4{fill:#4FB148;}
	.st5{font-family:'Arial-BoldItalicMT';}
	.st6{font-size:140.0355px;}
</style>
<g id="XMLID_57_">
	<path id="XMLID_66_" class="st0" d="M311.2,103.1v120.8c0,15-12.8,27.1-28.6,27.1H17.9c-0.9,0-1.7,0-2.6-0.1V76.2
		c0.8-0.1,1.7-0.1,2.6-0.1h264.7C298.3,76.1,311.2,88.2,311.2,103.1z"/>
	<path id="XMLID_65_" class="st1" d="M263.1,31.9v32.3L97.7,68.5C152,54.5,247,30,253.2,28.2c1.4-0.4,2.8-0.6,4.1-0.6
		c1.8,0,3.3,0.4,4.4,1.2C262.3,29.2,263.1,30,263.1,31.9z"/>
	<path id="XMLID_64_" class="st1" d="M283.7,20c0,9.2,0,43.2,0,43.2l-12.9,0.3V32c0-3.7-1.5-6.8-4.3-8.9c-3.6-2.7-8.7-3.3-14.2-1.8
		c-7.5,2.1-167.4,43.7-169,44.2l-13.1,3.4l-45.5,1.2c0,0,227.8-59.5,239.7-62.6C274.5,4.8,283.7,10.9,283.7,20z"/>
	<path id="XMLID_61_" class="st2" d="M283.7,181.2c-7.6,0-14-6-14.3-13.7c-0.2-3.8,1.2-7.5,3.8-10.3c2.6-2.8,6.1-4.5,10-4.6
		c3.9-0.2,7.5,1.2,10.3,3.8c2.8,2.6,4.5,6.1,4.6,10l0,0c0.2,3.8-1.2,7.5-3.8,10.3c-2.6,2.8-6.1,4.5-10,4.6
		C284.1,181.2,283.9,181.2,283.7,181.2z M283.7,160.9c-0.1,0-0.2,0-0.3,0c-1.6,0.1-3.1,0.8-4.2,1.9c-1.1,1.2-1.6,2.7-1.6,4.3
		c0.1,3.3,3,5.9,6.3,5.7c1.6-0.1,3.1-0.8,4.2-1.9c1.1-1.2,1.6-2.7,1.6-4.3v0c-0.1-1.6-0.8-3.1-1.9-4.2
		C286.6,161.4,285.2,160.9,283.7,160.9z"/>
	<path id="XMLID_58_" class="st3" d="M188.3,102.9c-14,0-58.3,0-58.3,0l-5.9,28.8H99.6l-4.5,21.5h24.7l-1.5,7.3H94L89.5,182h24.4
		l-10,48.9H130l9.8-48.7c55.7,3.8,75.2-12,78.9-41.9C221.9,113.4,202.3,102.9,188.3,102.9z M192.8,142.4
		c-1.6,9.3-6.3,20.4-48.5,17.7l1.3-6.9l4-21.5l1.4-7.3c0,0,17.7,0,29.8,0C192.8,124.4,194,135.4,192.8,142.4z"/>
</g>
<g id="XMLID_95_">
	<text id="XMLID_138_" transform="matrix(1 0 0 1 464.3344 217.3384)" class="st4 st5 st6">ursa</text>
	<path id="XMLID_89_" class="st3" d="M456.1,87.7c-14,0-58.4,0-58.4,0l-5.9,28.8h-24.6l-4.5,21.5h24.7l-1.5,7.3h-24.3l-4.5,21.5
		h24.4l-10,48.9h26.2l9.8-48.8c55.7,3.8,75.3-12,79-42C489.8,98.3,470.1,87.7,456.1,87.7z M460.6,127.2c-1.6,9.3-6.3,20.4-48.6,17.7
		l1.3-6.9l4-21.5l1.4-7.3c0,0,17.7,0,29.9,0S461.8,120.2,460.6,127.2z"/>
</g>
</svg>
