<?xml version="1.0" encoding="utf-8"?>
<!-- Generator: Adobe Illustrator 19.0.0, SVG Export Plug-In . SVG Version: 6.00 Build 0)  -->
<svg version="1.1" xmlns="http://www.w3.org/2000/svg" xmlns:xlink="http://www.w3.org/1999/xlink" x="0px" y="0px"
	 viewBox="0 0 847.5 291" style="enable-background:new 0 0 847.5 291;" xml:space="preserve">
<style type="text/css">
	.st0{fill:#FFFFFF;}
	.st1{fill:#F7CD00;}
	.st2{fill:#F93508;}
	.st3{fill:#417BAF;}
	.st4{fill:#13507A;}
	.st5{fill:#C11B00;}
	.st6{fill:#FF6501;}
	.st7{fill:#1D5FA7;}
	.st8{fill:url(#XMLID_255_);}
	.st9{fill:#FF9100;}
	.st10{fill:#FFCE00;}
	.st11{fill:#1E377C;}
	.st12{fill:none;}
	.st13{fill:#002A4F;}
	.st14{fill:#FF0000;}
	.st15{fill:#FFCC00;}
	.st16{fill:#D45500;}
	.st17{fill:#FFB41D;}
	.st18{fill:#289611;}
	.st19{fill:#00822D;}
	.st20{fill:#F9EC23;}
	.st21{enable-background:new    ;}
	.st22{fill:#4FB148;}
</style>
<g id="Layer_2">
</g>
<g id="Layer_1">
	<g id="XMLID_253_">
		<path id="XMLID_206_" class="st0" d="M97.8,103.9l0.1-41.8c0-6,4-11.3,9.8-13l107.8-31.6c8.7-2.6,17.4,4,17.4,13.1v15.7
			c0,7.5,6.1,13.6,13.6,13.6h145.9c7.5,0,13.5,6,13.6,13.5l0.2,17.1c0.1,7.5,6.2,13.5,13.6,13.5h379.8c20.6,0,37.3,16.7,37.3,37.3
			v97.5c0,20.5-16.6,37.2-37.2,37.2H47.1c-20.5,0-37.2-16.6-37.2-37.2v-97.5c0-20.6,16.7-37.3,37.3-37.3h50.2H97.8z"/>
		<g id="XMLID_5_">
			<rect id="XMLID_52_" x="49.7" y="152.7" class="st1" width="103.8" height="104.7"/>
			<g id="XMLID_97_">
				<path id="XMLID_32_" class="st0" d="M107.7,187l7.9-14.4l0.7-1.3l5.8,3l3.8-4.1l7.2,5.3v1.7l10-0.2l2.9,8l-8.9,44.3h2.3l-4.4,2
					l-0.5-1.2l-17.5-5.9l5.2-30c0,0-6.4-4.2-12.5-4.8c-2.9-0.3-2.4-0.7-2.4-0.7L107.7,187z"/>
				<path id="XMLID_75_" class="st0" d="M134.4,232.6l-0.9-1.7l-18.1-5.9l5.6-31.3c-1.8-1.1-6.8-2.1-11.6-3.5
					c-2.1-0.6-2.8-0.6-3.6-1l10-19.6l6.2,3.2l4.5-4.2l6.7,7l1.1,1l10.5-0.7l3.1,8.5l-9,42.5h3.6L134.4,232.6z M118.4,223.2l17.1,5.7
					l0.1-0.1l9.3-44.4l-2.1-6.1l-9.7,0.2v-2.3l-6.4-4.4l-4.3,4l-5.5-2.9l-0.1,0.2l-8,14.8c0.2,0,0.6,0.1,1,0.1
					c6.4,0.7,12.9,4.8,13.1,5l0.7,0.5L118.4,223.2z"/>
			</g>
			<path id="XMLID_91_" d="M134.5,230.6l-18.4-6l8.6-47l0.5,0c4.1-0.1,17.8-0.6,19-0.1l0,0c1.4,0.5,4,4.2,4.6,5l0.2,0.2l-7.8,44.7
				L134.5,230.6z M117.6,223.7l16.8,5.5l5.7-2.8l7.5-43.5c-1.2-1.7-3.1-4-3.8-4.3c-1-0.3-11.4-0.1-18,0.2L117.6,223.7z"/>
			<path id="XMLID_78_" d="M128.6,228c0.2,0,6.2,1.6,6.6-0.3c0.4-2,8.5-44.3,8.9-46.3c0.4-2-1.4-3.3-3.3-3.4l3.2,0.1l4.2,4.7
				l-7.6,44.1l-6.2,3L128.6,228z"/>
			<path id="XMLID_79_" d="M134.9,180.5l6.9,0.5l-4.3,23.5C137.6,204.4,137.6,185.3,134.9,180.5z"/>
			<path id="XMLID_54_" d="M127.2,209.5c0-0.3-0.1-0.5-0.4-0.6l-4.5-1.2l-0.3,2.9c0,0,0,0.1,0,0.1l5,1.4L127.2,209.5z"/>
			<path id="XMLID_83_" d="M134.9,211.7c0-0.3-0.1-0.5-0.4-0.6l-4.5-1.2l-0.3,2.9c0,0,0,0.1,0,0.1l5,1.4L134.9,211.7z"/>
			<path id="XMLID_84_" d="M134.1,216.5c0-0.3-0.1-0.5-0.4-0.6l-4.5-1.2l-0.3,2.9c0,0,0,0.1,0,0.1l5,1.4L134.1,216.5z"/>
			<path id="XMLID_85_" d="M133.2,221.5c0-0.3-0.1-0.5-0.4-0.6l-4.5-1.2l-0.3,2.9c0,0,0,0.1,0,0.1l5,1.4L133.2,221.5z"/>
			<path id="XMLID_86_" d="M125.6,219.3c0-0.3-0.1-0.5-0.4-0.6l-4.5-1.2l-0.3,2.9c0,0,0,0.1,0,0.1l5,1.4L125.6,219.3z"/>
			<path id="XMLID_87_" d="M126.4,214.3c0-0.3-0.1-0.5-0.4-0.6l-4.5-1.2l-0.3,2.9c0,0,0,0.1,0,0.1l5,1.4L126.4,214.3z"/>
			<path id="XMLID_88_" class="st2" d="M135.8,206.7c0,0-1-7.3-12-11.7c0,0,0.3,7.4-0.3,8.8L135.8,206.7z"/>
			<path id="XMLID_81_" class="st3" d="M136.4,203.9c0,0-3.2-10.7-28.7-15.9l8.8-15.1C116.6,172.9,137.8,179.2,136.4,203.9z"/>
			<path id="XMLID_90_" class="st3" d="M122.9,173.7c0.4,0.1,11.2,8.3,12.8,15.8c0,0-1.2-13.6-9.9-18.7L122.9,173.7z"/>
			<g id="XMLID_128_">
				<path id="XMLID_129_" class="st4" d="M75.8,196c0.1,0.2,0.2,0.4,0.2,0.6c0.1-0.2,0.2-0.4,0.2-0.6c0.1-0.2,0.2-0.4,0.3-0.6
					l3.6-6.7c0-0.1,0.1-0.1,0.1-0.2c0-0.1,0.1-0.1,0.2-0.1c0.1,0,0.1,0,0.2,0c0.1,0,0.2,0,0.3,0h1.7v12h-2v-7.8c0-0.1,0-0.3,0-0.5
					c0-0.2,0-0.3,0-0.5l-3.6,6.8c-0.1,0.2-0.2,0.3-0.3,0.4c-0.1,0.1-0.3,0.1-0.5,0.1h-0.3c-0.2,0-0.3,0-0.5-0.1s-0.2-0.2-0.3-0.4
					l-3.7-6.8c0,0.2,0,0.4,0,0.5c0,0.2,0,0.3,0,0.5v7.8h-2v-12h1.7c0.1,0,0.2,0,0.3,0s0.1,0,0.2,0c0.1,0,0.1,0.1,0.2,0.1
					c0.1,0,0.1,0.1,0.1,0.2l3.6,6.7C75.6,195.6,75.7,195.8,75.8,196z"/>
				<path id="XMLID_4_" class="st4" d="M92.9,188.4v1.8h-3.6v10.2H87v-10.2h-3.6v-1.8H92.9z"/>
				<path id="XMLID_3_" class="st4" d="M95.2,188.4c0.1,0,0.1,0,0.2,0s0.1,0.1,0.2,0.1c0.1,0,0.1,0.1,0.2,0.2l6.3,8
					c0-0.2,0-0.4,0-0.6s0-0.4,0-0.5v-7.3h2v12h-1.2c-0.2,0-0.3,0-0.4-0.1c-0.1-0.1-0.2-0.2-0.3-0.3l-6.3-8c0,0.2,0,0.3,0,0.5
					s0,0.3,0,0.5v7.4h-2v-12h1.2C95,188.4,95.1,188.4,95.2,188.4z"/>
			</g>
			<g id="XMLID_98_">
				<path id="XMLID_100_" class="st5" d="M74,208.3c0.1,0.1,0.1,0.3,0.2,0.4c0.1-0.1,0.1-0.3,0.2-0.4c0.1-0.1,0.1-0.2,0.2-0.4
					l2.3-4.4c0-0.1,0.1-0.1,0.1-0.1c0,0,0.1-0.1,0.1-0.1c0,0,0.1,0,0.1,0c0,0,0.1,0,0.2,0h1.1v7.9h-1.3v-5.1c0-0.1,0-0.2,0-0.3
					c0-0.1,0-0.2,0-0.3l-2.4,4.5c-0.1,0.1-0.1,0.2-0.2,0.2c-0.1,0.1-0.2,0.1-0.3,0.1H74c-0.1,0-0.2,0-0.3-0.1
					c-0.1-0.1-0.2-0.1-0.2-0.2l-2.4-4.5c0,0.1,0,0.2,0,0.3c0,0.1,0,0.2,0,0.3v5.1h-1.3v-7.9h1.1c0.1,0,0.1,0,0.2,0s0.1,0,0.1,0
					c0,0,0.1,0,0.1,0.1c0,0,0.1,0.1,0.1,0.1l2.4,4.4C73.9,208.1,73.9,208.2,74,208.3z"/>
				<path id="XMLID_102_" class="st5" d="M82,205.5c0.4,0,0.8,0.1,1.2,0.2c0.3,0.1,0.6,0.3,0.9,0.6s0.4,0.5,0.6,0.9
					c0.1,0.4,0.2,0.7,0.2,1.2s-0.1,0.8-0.2,1.2s-0.3,0.7-0.6,0.9s-0.5,0.4-0.9,0.6c-0.3,0.1-0.7,0.2-1.2,0.2c-0.4,0-0.8-0.1-1.2-0.2
					c-0.3-0.1-0.6-0.3-0.9-0.6c-0.2-0.2-0.4-0.6-0.6-0.9c-0.1-0.4-0.2-0.8-0.2-1.2s0.1-0.8,0.2-1.2c0.1-0.4,0.3-0.7,0.6-0.9
					s0.5-0.4,0.9-0.6C81.2,205.6,81.6,205.5,82,205.5z M82,210.3c0.5,0,0.8-0.2,1-0.5c0.2-0.3,0.3-0.8,0.3-1.4
					c0-0.6-0.1-1.1-0.3-1.4c-0.2-0.3-0.6-0.5-1-0.5c-0.5,0-0.8,0.2-1.1,0.5c-0.2,0.3-0.3,0.8-0.3,1.4c0,0.6,0.1,1.1,0.3,1.4
					C81.2,210.1,81.5,210.3,82,210.3z"/>
				<path id="XMLID_105_" class="st5" d="M85.5,211.2v-8.2h1.4v3.2c0.2-0.2,0.5-0.4,0.7-0.6c0.3-0.1,0.6-0.2,1-0.2
					c0.3,0,0.6,0.1,0.8,0.2c0.2,0.1,0.5,0.3,0.6,0.5s0.3,0.5,0.4,0.9c0.1,0.4,0.2,0.8,0.2,1.2c0,0.4-0.1,0.8-0.2,1.2
					c-0.1,0.4-0.3,0.7-0.5,0.9c-0.2,0.3-0.5,0.5-0.8,0.6c-0.3,0.1-0.6,0.2-1,0.2c-0.2,0-0.3,0-0.5-0.1c-0.1,0-0.3-0.1-0.4-0.1
					c-0.1-0.1-0.2-0.1-0.3-0.2s-0.2-0.2-0.3-0.3l-0.1,0.4c0,0.1-0.1,0.2-0.1,0.2c-0.1,0-0.1,0.1-0.2,0.1L85.5,211.2L85.5,211.2z
					 M88.1,206.6c-0.3,0-0.5,0.1-0.7,0.2c-0.2,0.1-0.4,0.3-0.6,0.5v2.5c0.2,0.2,0.3,0.3,0.5,0.4c0.2,0.1,0.4,0.1,0.6,0.1
					c0.2,0,0.4,0,0.5-0.1c0.2-0.1,0.3-0.2,0.4-0.3c0.1-0.2,0.2-0.4,0.3-0.6c0.1-0.2,0.1-0.5,0.1-0.8s0-0.6-0.1-0.8
					c-0.1-0.2-0.1-0.4-0.2-0.5c-0.1-0.1-0.2-0.2-0.4-0.3C88.4,206.6,88.3,206.6,88.1,206.6z"/>
				<path id="XMLID_108_" class="st5" d="M93,204c0,0.1,0,0.2-0.1,0.3c0,0.1-0.1,0.2-0.2,0.3c-0.1,0.1-0.2,0.1-0.3,0.2
					s-0.2,0.1-0.3,0.1c-0.1,0-0.2,0-0.3-0.1c-0.1,0-0.2-0.1-0.3-0.2c-0.1-0.1-0.1-0.2-0.2-0.3c0-0.1-0.1-0.2-0.1-0.3
					c0-0.1,0-0.2,0.1-0.3c0-0.1,0.1-0.2,0.2-0.3c0.1-0.1,0.2-0.1,0.3-0.2c0.1,0,0.2-0.1,0.3-0.1c0.1,0,0.2,0,0.3,0.1
					c0.1,0,0.2,0.1,0.3,0.2c0.1,0.1,0.1,0.2,0.2,0.3C93,203.7,93,203.8,93,204z M92.8,205.6v5.6h-1.4v-5.6H92.8z"/>
				<path id="XMLID_2_" class="st5" d="M95.4,203.1v8.2H94v-8.2H95.4z"/>
				<path id="XMLID_113_" class="st5" d="M98.9,205.5c0.3,0,0.7,0.1,1,0.2c0.3,0.1,0.5,0.3,0.8,0.5c0.2,0.2,0.4,0.5,0.5,0.8
					c0.1,0.3,0.2,0.7,0.2,1.1c0,0.1,0,0.2,0,0.3c0,0.1,0,0.1-0.1,0.2c0,0-0.1,0.1-0.1,0.1c0,0-0.1,0-0.2,0h-3.5c0,0.6,0.2,1,0.5,1.3
					c0.3,0.3,0.6,0.4,1.1,0.4c0.2,0,0.4,0,0.6-0.1c0.2-0.1,0.3-0.1,0.4-0.2c0.1-0.1,0.2-0.1,0.3-0.2c0.1-0.1,0.2-0.1,0.3-0.1
					c0.1,0,0.1,0,0.1,0s0.1,0.1,0.1,0.1l0.4,0.5c-0.1,0.2-0.3,0.3-0.5,0.4c-0.2,0.1-0.4,0.2-0.6,0.3c-0.2,0.1-0.4,0.1-0.6,0.1
					c-0.2,0-0.4,0-0.6,0c-0.4,0-0.7-0.1-1.1-0.2c-0.3-0.1-0.6-0.3-0.9-0.6c-0.2-0.3-0.4-0.6-0.6-1c-0.1-0.4-0.2-0.8-0.2-1.3
					c0-0.4,0.1-0.7,0.2-1.1c0.1-0.3,0.3-0.6,0.5-0.9c0.2-0.2,0.5-0.4,0.8-0.6C98.1,205.6,98.4,205.5,98.9,205.5z M98.9,206.5
					c-0.4,0-0.7,0.1-0.9,0.3c-0.2,0.2-0.4,0.5-0.4,1h2.5c0-0.2,0-0.3-0.1-0.5c0-0.2-0.1-0.3-0.2-0.4c-0.1-0.1-0.2-0.2-0.4-0.3
					C99.3,206.5,99.1,206.5,98.9,206.5z"/>
				<path id="XMLID_116_" class="st5" d="M74,219.3c0.1,0.1,0.1,0.3,0.2,0.4c0.1-0.1,0.1-0.3,0.2-0.4c0.1-0.1,0.1-0.2,0.2-0.4
					l2.3-4.4c0-0.1,0.1-0.1,0.1-0.1c0,0,0.1-0.1,0.1-0.1c0,0,0.1,0,0.1,0s0.1,0,0.2,0h1.1v7.9h-1.3v-5.1c0-0.1,0-0.2,0-0.3
					c0-0.1,0-0.2,0-0.3l-2.4,4.5c-0.1,0.1-0.1,0.2-0.2,0.2c-0.1,0.1-0.2,0.1-0.3,0.1H74c-0.1,0-0.2,0-0.3-0.1
					c-0.1-0.1-0.2-0.1-0.2-0.2l-2.4-4.5c0,0.1,0,0.2,0,0.3c0,0.1,0,0.2,0,0.3v5.1h-1.3v-7.9h1.1c0.1,0,0.1,0,0.2,0s0.1,0,0.1,0
					c0,0,0.1,0,0.1,0.1c0,0,0.1,0.1,0.1,0.1l2.4,4.4C73.9,219,73.9,219.2,74,219.3z"/>
				<path id="XMLID_118_" class="st5" d="M82,216.5c0.4,0,0.8,0.1,1.2,0.2c0.3,0.1,0.6,0.3,0.9,0.6c0.2,0.2,0.4,0.5,0.6,0.9
					c0.1,0.4,0.2,0.7,0.2,1.2s-0.1,0.8-0.2,1.2s-0.3,0.7-0.6,0.9s-0.5,0.4-0.9,0.6c-0.3,0.1-0.7,0.2-1.2,0.2c-0.4,0-0.8-0.1-1.2-0.2
					c-0.3-0.1-0.6-0.3-0.9-0.6c-0.2-0.2-0.4-0.6-0.6-0.9c-0.1-0.4-0.2-0.8-0.2-1.2s0.1-0.8,0.2-1.2c0.1-0.4,0.3-0.7,0.6-0.9
					c0.2-0.2,0.5-0.4,0.9-0.6C81.2,216.6,81.6,216.5,82,216.5z M82,221.2c0.5,0,0.8-0.2,1-0.5c0.2-0.3,0.3-0.8,0.3-1.4
					c0-0.6-0.1-1.1-0.3-1.4c-0.2-0.3-0.6-0.5-1-0.5c-0.5,0-0.8,0.2-1.1,0.5c-0.2,0.3-0.3,0.8-0.3,1.4c0,0.6,0.1,1.1,0.3,1.4
					C81.2,221.1,81.5,221.2,82,221.2z"/>
				<path id="XMLID_121_" class="st5" d="M85.4,222.2v-5.6h0.8c0.2,0,0.3,0.1,0.3,0.2l0.1,0.4c0.1-0.1,0.2-0.2,0.4-0.3
					s0.3-0.2,0.4-0.2s0.3-0.1,0.4-0.2c0.2,0,0.3-0.1,0.5-0.1c0.3,0,0.6,0.1,0.8,0.2c0.2,0.1,0.4,0.2,0.6,0.4
					c0.2,0.2,0.3,0.4,0.4,0.7c0.1,0.3,0.1,0.5,0.1,0.9v3.6H89v-3.6c0-0.3-0.1-0.6-0.2-0.8s-0.4-0.3-0.7-0.3c-0.2,0-0.4,0.1-0.7,0.2
					c-0.2,0.1-0.4,0.2-0.6,0.4v4.1L85.4,222.2L85.4,222.2z"/>
				<path id="XMLID_123_" class="st5" d="M93.6,216.5c0.3,0,0.7,0.1,1,0.2c0.3,0.1,0.5,0.3,0.8,0.5c0.2,0.2,0.4,0.5,0.5,0.8
					c0.1,0.3,0.2,0.7,0.2,1.1c0,0.1,0,0.2,0,0.3c0,0.1,0,0.1-0.1,0.2s-0.1,0.1-0.1,0.1c0,0-0.1,0-0.2,0h-3.5c0,0.6,0.2,1,0.5,1.3
					c0.3,0.3,0.6,0.4,1.1,0.4c0.2,0,0.4,0,0.6-0.1c0.2-0.1,0.3-0.1,0.4-0.2c0.1-0.1,0.2-0.1,0.3-0.2c0.1-0.1,0.2-0.1,0.3-0.1
					c0.1,0,0.1,0,0.1,0s0.1,0.1,0.1,0.1l0.4,0.5c-0.1,0.2-0.3,0.3-0.5,0.4c-0.2,0.1-0.4,0.2-0.6,0.3c-0.2,0.1-0.4,0.1-0.6,0.1
					c-0.2,0-0.4,0-0.6,0c-0.4,0-0.7-0.1-1.1-0.2c-0.3-0.1-0.6-0.3-0.9-0.6c-0.2-0.3-0.4-0.6-0.6-1c-0.1-0.4-0.2-0.8-0.2-1.3
					c0-0.4,0.1-0.7,0.2-1.1c0.1-0.3,0.3-0.6,0.5-0.9c0.2-0.2,0.5-0.4,0.8-0.6C92.8,216.6,93.2,216.5,93.6,216.5z M93.7,217.5
					c-0.4,0-0.7,0.1-0.9,0.3c-0.2,0.2-0.4,0.5-0.4,1h2.5c0-0.2,0-0.3-0.1-0.5c0-0.2-0.1-0.3-0.2-0.4c-0.1-0.1-0.2-0.2-0.4-0.3
					C94,217.5,93.9,217.5,93.7,217.5z"/>
				<path id="XMLID_126_" class="st5" d="M98.6,223.7c0,0.1-0.1,0.2-0.2,0.2c-0.1,0-0.2,0.1-0.3,0.1h-1l1.1-2.2l-2.3-5.2h1.2
					c0.1,0,0.2,0,0.3,0.1c0.1,0.1,0.1,0.1,0.1,0.2l1.2,2.9c0,0.1,0.1,0.2,0.1,0.3c0,0.1,0.1,0.2,0.1,0.3c0-0.1,0.1-0.2,0.1-0.3
					c0-0.1,0.1-0.2,0.1-0.3l1.1-2.9c0-0.1,0.1-0.1,0.1-0.2c0.1,0,0.1-0.1,0.2-0.1h1.1L98.6,223.7z"/>
			</g>
			<polygon id="XMLID_77_" class="st0" points="134.9,232.9 128.2,231.9 55,231.9 55,193 71.5,179.9 112.2,179.9 110.3,182.3 
				72.4,182.5 57.4,194.2 57.4,229.4 128.7,229.5 134.7,231.1 140.7,227.5 148.6,183.1 143.8,177.2 133.1,177.2 133.1,175.6 
				144.6,175.8 150.4,182.6 141.9,229 			"/>
			<path id="XMLID_76_" class="st0" d="M121.1,193.8l3.3,1.6c0,0,0.6-1.7,0.5-1.8c-0.2-0.1-5.2-2.2-5.2-2.2L121.1,193.8z"/>
			<path id="XMLID_99_" class="st0" d="M124,176.7l1.5-1.1c0,0,3.3,3,4.3,4.1l-0.8,1.4C128.9,181.1,126,178,124,176.7z"/>
		</g>
		<g id="XMLID_6_">
			<rect id="XMLID_33_" x="172.8" y="151.9" width="106.9" height="106.9"/>
			<path id="XMLID_109_" class="st0" d="M221.8,172.5l-26.4-0.2c-2.4,0-4.4,2.8-4.4,5.6c0,2.7,1.5,3.7,3.9,3.8l14.3-0.2l-22.9,23
				c-1.9,1.7-2.2,4.5-0.6,6.6c1.5,2.1,5.3,1.6,7.2-0.2l24.5-22.6l-0.6,16.8c0,2.7,1.7,5.6,4.2,5.6c2.4,0,5.6-2.2,5.6-4.9l0.3-28.3
				C226.9,174.7,224.2,172.5,221.8,172.5z"/>
			<path id="XMLID_107_" class="st6" d="M234.1,213.7l26.4,0.2c2.4,0,4.4-1,4.4-3.7c0-2.7-1.9-3.8-4.4-3.8l-14.2-0.1l23.2-21.9
				c1.9-1.7,2.2-5,0.6-7.2s-6.2-2.5-8.1-0.8l-24.2,21.1l0.1-16.1c0-2.7-1.5-4.3-3.9-4.3c-2.4,0-3.5,2-3.5,4.7l-0.3,28.3
				C230.3,213,231.7,213.7,234.1,213.7z"/>
			<g id="XMLID_34_">
				<path id="XMLID_103_" class="st6" d="M194.5,226.2c0,0.8-0.2,1.5-0.4,2.1c-0.3,0.6-0.7,1-1.2,1.3c-0.5,0.3-1.2,0.5-1.9,0.5
					c-0.7,0-1.3-0.2-1.8-0.5c-0.5-0.3-1-0.8-1.2-1.4c-0.3-0.6-0.4-1.3-0.4-2l0-0.6c0-0.8,0.2-1.5,0.5-2.1c0.3-0.6,0.7-1,1.3-1.4
					c0.6-0.3,1.2-0.5,1.9-0.5c0.7,0,1.3,0.2,1.9,0.5c0.5,0.3,1,0.8,1.2,1.4c0.3,0.6,0.4,1.3,0.4,2.1L194.5,226.2z M193.4,225.7
					c0-1-0.2-1.7-0.6-2.2c-0.4-0.5-1-0.8-1.8-0.8c-0.7,0-1.3,0.2-1.7,0.8c-0.4,0.5-0.6,1.2-0.7,2.1l0,0.6c0,0.9,0.2,1.7,0.6,2.2
					c0.4,0.5,1,0.8,1.7,0.8c0.8,0,1.3-0.2,1.8-0.7c0.4-0.5,0.6-1.2,0.7-2.2L193.4,225.7z"/>
				<path id="XMLID_101_" class="st6" d="M199.3,224.9c-0.2,0-0.4,0-0.6,0c-0.7,0-1.2,0.3-1.5,0.9l0,4.3l-1.1,0l0.1-6l1.1,0l0,0.7
					c0.4-0.5,0.9-0.8,1.6-0.8c0.2,0,0.4,0,0.5,0.1L199.3,224.9z"/>
				<path id="XMLID_82_" class="st6" d="M204.1,230.1c-0.1-0.1-0.1-0.3-0.2-0.6c-0.5,0.5-1.1,0.7-1.9,0.7c-0.7,0-1.2-0.2-1.6-0.5
					c-0.4-0.3-0.6-0.8-0.6-1.3c0-0.6,0.3-1.1,0.8-1.5c0.5-0.3,1.3-0.5,2.2-0.5l1.1,0l0-0.5c0-0.4-0.1-0.7-0.3-0.9
					c-0.2-0.2-0.6-0.3-1-0.3c-0.4,0-0.7,0.1-1,0.3c-0.3,0.2-0.4,0.4-0.4,0.7l-1.1,0c0-0.3,0.1-0.6,0.4-0.9s0.6-0.5,0.9-0.7
					c0.4-0.2,0.8-0.2,1.3-0.2c0.8,0,1.3,0.2,1.8,0.5c0.4,0.4,0.6,0.8,0.7,1.4l0,2.8c0,0.6,0.1,1,0.2,1.3l0,0.1L204.1,230.1z
					 M202.2,229.3c0.4,0,0.7-0.1,1-0.2c0.3-0.2,0.6-0.4,0.7-0.7l0-1.2l-0.9,0c-1.4,0-2.1,0.3-2.1,1.1c0,0.3,0.1,0.6,0.3,0.8
					C201.5,229.2,201.8,229.3,202.2,229.3z"/>
				<path id="XMLID_80_" class="st6" d="M207.9,224.1l0,0.8c0.5-0.6,1.2-0.9,2-0.9c1.4,0,2.1,0.7,2.1,2.2l0,4l-1.1,0l0-4
					c0-0.4-0.1-0.7-0.3-1s-0.5-0.3-1-0.3c-0.4,0-0.7,0.1-1,0.3c-0.3,0.2-0.5,0.4-0.6,0.7l0,4.3l-1.1,0l0.1-6L207.9,224.1z"/>
				<path id="XMLID_72_" class="st6" d="M213.3,227.1c0-0.9,0.2-1.7,0.7-2.2c0.5-0.6,1.1-0.8,1.9-0.8s1.4,0.3,1.9,0.8l0.1-0.7l1,0
					l-0.1,5.9c0,0.8-0.3,1.4-0.8,1.8c-0.5,0.4-1.2,0.7-2,0.7c-0.5,0-0.9-0.1-1.4-0.3c-0.5-0.2-0.8-0.5-1-0.8l0.6-0.6
					c0.5,0.6,1.1,0.8,1.8,0.8c0.6,0,1-0.1,1.3-0.4c0.3-0.3,0.5-0.7,0.5-1.2l0-0.5c-0.5,0.5-1.1,0.7-1.8,0.7c-0.8,0-1.4-0.3-1.9-0.9
					C213.6,228.8,213.3,228.1,213.3,227.1z M214.5,227.2c0,0.7,0.1,1.2,0.4,1.6c0.3,0.4,0.7,0.6,1.3,0.6c0.7,0,1.2-0.3,1.6-0.9
					l0-2.8c-0.3-0.6-0.9-0.9-1.5-0.9c-0.6,0-1,0.2-1.3,0.6C214.6,225.9,214.5,226.4,214.5,227.2z"/>
				<path id="XMLID_67_" class="st6" d="M223.3,230.3c-0.9,0-1.6-0.3-2.2-0.8c-0.6-0.6-0.8-1.3-0.8-2.2l0-0.2c0-0.6,0.1-1.1,0.4-1.6
					s0.6-0.8,1-1.1c0.5-0.3,0.9-0.4,1.5-0.4c0.8,0,1.5,0.3,2,0.8c0.5,0.5,0.7,1.3,0.7,2.2l0,0.4l-4.4,0c0,0.6,0.2,1.1,0.6,1.4
					c0.4,0.4,0.8,0.5,1.4,0.6c0.4,0,0.7-0.1,1-0.2c0.3-0.1,0.5-0.3,0.7-0.6l0.7,0.5C225.2,230,224.4,230.4,223.3,230.3z
					 M223.2,224.9c-0.5,0-0.8,0.1-1.1,0.4s-0.5,0.7-0.6,1.3l3.3,0l0-0.1c0-0.5-0.2-0.9-0.4-1.2C224,225.1,223.6,224.9,223.2,224.9z"
					/>
				<path id="XMLID_64_" class="st6" d="M231.9,222.2l2.8,6.7l2.9-6.6l1.5,0l-0.1,8.1l-1.1,0l0-3.2l0.1-3.4l-3,6.6l-0.9,0l-2.8-6.6
					l0.1,3.4l0,3.2l-1.2,0l0.1-8.1L231.9,222.2z"/>
				<path id="XMLID_49_" class="st6" d="M240.7,227.3c0-0.6,0.1-1.1,0.4-1.6s0.6-0.8,1.1-1.1c0.5-0.3,1-0.4,1.5-0.4
					c0.9,0,1.6,0.3,2.2,0.9s0.8,1.3,0.8,2.3l0,0.1c0,0.6-0.1,1.1-0.4,1.6c-0.3,0.5-0.6,0.8-1.1,1.1c-0.5,0.3-1,0.4-1.6,0.4
					c-0.9,0-1.6-0.3-2.2-0.9C241,229.1,240.7,228.4,240.7,227.3L240.7,227.3z M241.9,227.4c0,0.7,0.2,1.2,0.5,1.6
					c0.3,0.4,0.8,0.6,1.3,0.6c0.6,0,1-0.2,1.4-0.6c0.3-0.4,0.5-1,0.5-1.7c0-0.7-0.2-1.2-0.5-1.6s-0.8-0.6-1.3-0.6
					c-0.6,0-1,0.2-1.3,0.6C242,226.1,241.9,226.7,241.9,227.4z"/>
				<path id="XMLID_48_" class="st6" d="M249.2,224.4l0,0.8c0.5-0.6,1.2-0.9,2-0.9c1.4,0,2.1,0.7,2.1,2.2l0,4l-1.1,0l0-4
					c0-0.4-0.1-0.7-0.3-1c-0.2-0.2-0.5-0.3-1-0.3c-0.4,0-0.7,0.1-1,0.3s-0.5,0.4-0.6,0.7l0,4.3l-1.1,0l0.1-6L249.2,224.4z"/>
				<path id="XMLID_35_" class="st6" d="M257.6,230.7c-0.9,0-1.6-0.3-2.2-0.8c-0.6-0.6-0.8-1.3-0.8-2.2l0-0.2c0-0.6,0.1-1.1,0.4-1.6
					s0.6-0.8,1-1.1c0.5-0.3,0.9-0.4,1.5-0.4c0.8,0,1.5,0.3,2,0.8c0.5,0.5,0.7,1.3,0.7,2.2l0,0.4l-4.4,0c0,0.6,0.2,1.1,0.6,1.4
					c0.4,0.4,0.8,0.5,1.4,0.6c0.4,0,0.7-0.1,1-0.2c0.3-0.2,0.5-0.3,0.7-0.6l0.7,0.5C259.5,230.3,258.7,230.7,257.6,230.7z
					 M257.5,225.2c-0.5,0-0.8,0.1-1.1,0.4c-0.3,0.3-0.5,0.7-0.6,1.3l3.3,0l0-0.1c0-0.5-0.2-0.9-0.4-1.2
					C258.4,225.4,258,225.2,257.5,225.2z"/>
				<path id="XMLID_36_" class="st6" d="M263.6,229.1l1.6-4.5l1.2,0l-2.7,6.9c-0.4,1-1.1,1.5-1.9,1.5l-0.2,0l-0.4-0.1l0-0.8l0.3,0
					c0.4,0,0.7-0.1,0.9-0.2c0.2-0.1,0.4-0.4,0.5-0.8l0.3-0.6l-2.3-6l1.2,0L263.6,229.1z"/>
			</g>
		</g>
		<rect id="XMLID_14_" x="295.4" y="152.2" class="st7" width="106.9" height="106.9"/>
		<g id="XMLID_171_">
			<path id="XMLID_179_" class="st0" d="M347.8,203.5c0-0.2,0-0.4-0.2-0.4s-0.3,0.1-0.3,0.4v2.6h-1.1v-2.6c0-0.2,0-0.4-0.2-0.4
				s-0.3,0.1-0.3,0.4v2.6h-1.1v-2.5c0-0.4,0-0.7,0.2-1c0.2-0.3,0.6-0.5,1-0.5s0.8,0.2,1,0.6c0.2-0.4,0.6-0.6,1-0.6
				c0.4,0,0.7,0.1,0.9,0.4c0.2,0.3,0.3,0.7,0.3,1.1v2.5h-1.1V203.5z"/>
			<path id="XMLID_176_" class="st0" d="M349.9,202.7c0.4-0.4,0.9-0.6,1.5-0.6c0.6,0,1.1,0.2,1.5,0.6s0.6,0.9,0.6,1.5
				c0,0.5-0.2,0.9-0.5,1.3c-0.4,0.5-1,0.8-1.6,0.8c-0.5,0-0.9-0.2-1.3-0.5c-0.5-0.4-0.8-1-0.8-1.6
				C349.3,203.6,349.5,203,349.9,202.7z M351.3,205c0.5,0,0.9-0.4,0.9-0.9c0-0.5-0.4-0.9-0.9-0.9c-0.5,0-0.9,0.4-0.9,0.9
				C350.4,204.6,350.8,205,351.3,205z"/>
			<path id="XMLID_175_" class="st0" d="M353.8,206.1v-4h1.5c0.8,0,1.3,0.3,1.3,1c0,0.3-0.1,0.6-0.4,0.8c0.4,0.2,0.6,0.6,0.6,1
				c0,0.7-0.5,1.1-1.3,1.1c-0.1,0-0.2,0-0.2,0v-1h0.3c0.2,0,0.2-0.1,0.2-0.3s-0.1-0.2-0.2-0.2h-0.3v-1h0.1c0.2,0,0.2-0.1,0.2-0.3
				s-0.1-0.2-0.2-0.2H355v3L353.8,206.1L353.8,206.1z"/>
			<path id="XMLID_174_" class="st0" d="M357.1,202.1h1.2v4h-1.2V202.1z"/>
			<path id="XMLID_173_" class="st0" d="M360,202.1v2.3c0,0.3,0.1,0.5,0.4,0.5c0,0,0.1,0,0.1,0v1.2h-0.3c-0.4,0-0.8-0.1-1-0.3
				c-0.4-0.4-0.4-0.8-0.4-1.4c0,0,0-0.1,0-0.1v-2.1H360z"/>
			<path id="XMLID_172_" class="st0" d="M362.4,206.1c-0.1,0-0.1,0-0.2,0c-0.3,0-0.5,0-0.8-0.2c-0.4-0.2-0.6-0.6-0.6-0.9v-1.5
				c0-0.5,0-0.8,0.4-1.1c0.3-0.2,0.6-0.3,1.1-0.3h0.8v1.2h-0.8c-0.2,0-0.2,0-0.2,0.2c0,0.2,0.1,0.2,0.2,0.2h0.7v0.9h-0.8
				c-0.2,0-0.2,0-0.2,0.2c0,0.2,0.1,0.2,0.2,0.2h0.9v1.2L362.4,206.1L362.4,206.1z"/>
		</g>
		<g id="XMLID_163_">
			<path id="XMLID_170_" class="st0" d="M347.8,209.3c0-0.2,0-0.4-0.2-0.4s-0.3,0.1-0.3,0.4v2.6h-1.1v-2.6c0-0.2,0-0.4-0.2-0.4
				s-0.3,0.1-0.3,0.4v2.6h-1.1v-2.5c0-0.4,0-0.7,0.2-1c0.2-0.3,0.6-0.5,1-0.5s0.8,0.2,1,0.6c0.2-0.4,0.6-0.6,1-0.6
				c0.4,0,0.7,0.1,0.9,0.4c0.2,0.3,0.3,0.7,0.3,1.1v2.5h-1.1V209.3z"/>
			<path id="XMLID_167_" class="st0" d="M349.9,208.4c0.4-0.4,0.9-0.6,1.5-0.6c0.6,0,1.1,0.2,1.5,0.6s0.6,0.9,0.6,1.5
				c0,0.5-0.2,0.9-0.5,1.3c-0.4,0.5-1,0.8-1.6,0.8c-0.5,0-0.9-0.2-1.3-0.5c-0.5-0.4-0.8-1-0.8-1.6
				C349.3,209.3,349.5,208.8,349.9,208.4z M351.3,210.8c0.5,0,0.9-0.4,0.9-0.9c0-0.5-0.4-0.9-0.9-0.9c-0.5,0-0.9,0.4-0.9,0.9
				C350.4,210.4,350.8,210.8,351.3,210.8z"/>
			<path id="XMLID_166_" class="st0" d="M353.8,209.7c0,0,0-0.1,0-0.1c0-0.3,0-0.6,0.2-1c0.2-0.5,0.7-0.8,1.3-0.8
				c0.5,0,0.9,0.2,1.1,0.6c0.3,0.4,0.3,0.8,0.3,1.3v2.1h-1.2v-2.4c0-0.3-0.1-0.4-0.3-0.4c-0.2,0-0.2,0.2-0.2,0.4v2.4h-1.2
				L353.8,209.7L353.8,209.7z"/>
			<path id="XMLID_165_" class="st0" d="M358.7,211.9c-0.1,0-0.1,0-0.2,0c-0.3,0-0.5,0-0.8-0.2c-0.4-0.2-0.6-0.6-0.6-0.9v-1.5
				c0-0.5,0-0.8,0.4-1.1c0.3-0.2,0.6-0.3,1.1-0.3h0.8v1.2h-0.8c-0.2,0-0.2,0-0.2,0.2c0,0.2,0.1,0.2,0.2,0.2h0.7v0.9h-0.8
				c-0.2,0-0.2,0-0.2,0.2s0.1,0.2,0.2,0.2h0.9v1.2L358.7,211.9L358.7,211.9z"/>
			<path id="XMLID_164_" class="st0" d="M360.6,211.9v-2.2l-1.2-1.8h1.2l0.6,0.8l0.6-0.8h1.2l-1.2,1.8v2.2H360.6z"/>
		</g>
		<path id="XMLID_31_" class="st0" d="M316.2,217.4c-0.3-0.1-0.6-0.1-0.8-0.2c0,0.1,0.1,0.2,0.1,0.3c0.3,0.1,0.6,0.1,0.8,0.2
			C316.3,217.5,316.2,217.5,316.2,217.4z M315.3,215.1c-0.4-1-0.7-2.1-0.9-3c0-0.1,0-0.2-0.1-0.3h-0.3v1.7c0.1,0.4,0.2,0.8,0.4,1.2
			c0,0.1,0.1,0.2,0.1,0.3c0,0.1,0.1,0.2,0.1,0.2c0.3,0,0.5,0.1,0.8,0.1C315.4,215.3,315.4,215.2,315.3,215.1z M327.3,208.9
			c-0.1,0-0.1,0-0.2,0c-1.5,0.2-3,0.3-4.3,0.3c-0.1,0-0.1,0-0.2,0h-0.2c-0.5,0-1,0-1.5-0.1c0,0.3,0,0.5,0.1,0.8c0.5,0,0.9,0,1.4,0
			h0.1c0.1,0,0.1,0,0.2,0c0.1,0,0.1,0,0.2,0c1.3,0,2.7-0.1,4.2-0.3c0.1,0,0.1,0,0.2,0c0.1,0,0.1,0,0.2,0c0-0.3,0-0.5,0-0.8
			C327.4,208.9,327.4,208.9,327.3,208.9z M331.2,208.2c0.1-3.9-0.4-7.3-1.2-9.9c1.1-0.3,2.2-0.6,3.3-1.1c1.5,2.2,2.1,4.3,2.1,4.4
			l0.7-0.2c0-0.1-2.5-9.5-11.1-9.8c-4-0.1-8,1.6-11.1,4.7c-3.2,3.3-4.9,7.7-4.8,12.2c0.4,9.3,8.4,14.7,13.8,14.9v-0.2l0,0l0.6-0.4
			c-1-1.5-1.8-3.1-2.5-4.6c1.4,0.2,2.9,0.4,4.4,0.4c1.1,0,2.2-0.1,3.3-0.3c0,0,0,0.1,0,0.1l0.7,0.2c0.1-0.2,0.1-0.3,0.1-0.5
			c0.2-0.1,0.5-0.1,0.7-0.2l-0.2-0.7c-0.1,0-0.2,0-0.3,0.1c0.8-3.1,1.3-5.9,1.4-8.5c1.5-0.3,3-0.8,4.7-1.3l-0.2-0.7
			C334,207.5,332.6,207.9,331.2,208.2z M332.8,196.7c-1,0.4-2.1,0.7-3.1,1c-0.7-2.3-1.5-3.9-2-4.8
			C330,193.6,331.7,195.1,332.8,196.7z M326.7,192.6c0.3,0.5,1.4,2.3,2.3,5.2c-2.7,0.6-5.2,0.8-7.4,0.7c1.7-3.3,3.7-5.4,4.3-6
			C326.2,192.5,326.5,192.6,326.7,192.6z M325,192.4C325,192.4,325,192.4,325,192.4c-0.9,1-2.6,3.1-4.1,6c-1.8-0.1-3.3-0.4-4.4-0.7
			C319.6,193.6,324.5,192.5,325,192.4z M318.5,205.8c0,0,0,0.1,0,0.1c0,0.3-0.1,0.6-0.1,1c0,0.1,0,0.1,0,0.2c0,0.1,0,0.2,0,0.3
			c0,0.5-0.1,1.1-0.1,1.7c-1.5-0.2-2.8-0.6-3.9-0.9c-0.1,0-0.3-0.1-0.4-0.1c-0.1,0-0.2-0.1-0.3-0.1c0-0.5-0.1-1,0-1.5
			c0-0.1,0-0.1,0-0.2s0-0.1,0-0.2c0.1-2.2,0.5-4.2,1.4-6c0.3-0.5,0.5-1,0.8-1.4c1.2,0.3,2.8,0.6,4.6,0.8c-0.2,0.5-0.5,1-0.7,1.6
			c-0.5,1.4-1,3-1.3,4.8C318.5,205.6,318.5,205.7,318.5,205.8z M315.8,216.4c-0.1-0.3-0.2-0.6-0.3-0.8c0-0.1,0-0.1-0.1-0.2
			c0-0.1-0.1-0.2-0.1-0.2c-0.4-1-0.7-2.1-0.9-3c0-0.1,0-0.2-0.1-0.3c0-0.1,0-0.1,0-0.2c-0.1-0.3-0.2-0.7-0.2-1c0-0.1,0-0.1,0-0.2
			c-0.1-0.6-0.2-1.2-0.3-1.8c0.1,0,0.2,0.1,0.3,0.1c0.1,0,0.2,0.1,0.4,0.1c1.1,0.3,2.4,0.7,3.9,0.9c0.1,2.3,0.5,4.9,1.6,7.6
			c-0.6-0.1-1.2-0.3-1.8-0.4c-0.1,0-0.3-0.1-0.4-0.1C317,216.7,316.4,216.5,315.8,216.4z M314.4,196.9c2.1-2.1,4.7-3.6,7.4-4.2
			c-1.9,0.8-4.3,2.3-6.2,4.9c-0.6-0.2-1.1-0.3-1.5-0.5C314.3,197,314.3,196.9,314.4,196.9z M313.7,197.7c0.3,0.1,0.8,0.3,1.6,0.5
			c-0.3,0.4-0.5,0.8-0.8,1.3c-0.9,1.9-1.4,4-1.5,6.4c0,0.1,0,0.1,0,0.2c0,0.5,0,1,0,1.4c-0.1-0.1-0.3-0.1-0.4-0.2
			c-1.5-0.7-2.3-1.3-2.6-1.5C310.4,202.8,311.7,200,313.7,197.7z M309.9,208.5c0-0.6,0-1.3,0-1.9c0.5,0.4,1.4,1,2.7,1.5
			c0.1,0.1,0.2,0.1,0.4,0.2c0,0,0,0,0.1,0c0.2,1.6,0.5,3.4,1,5.2c0.1,0.4,0.2,0.8,0.4,1.2c0,0.1,0.1,0.2,0.1,0.3
			c0,0.1,0.1,0.2,0.1,0.2c0,0.1,0,0.1,0.1,0.2c0.1,0.2,0.2,0.5,0.3,0.7c-0.8-0.2-1.4-0.5-1.9-0.7c-0.1,0-0.3-0.1-0.4-0.1
			c-0.5-0.2-0.9-0.3-1.1-0.4C310.6,213.1,310,210.9,309.9,208.5z M312.6,216.6L312.6,216.6L312.6,216.6c-0.2-0.2-0.3-0.5-0.5-0.7
			c0.2,0.1,0.3,0.1,0.5,0.2c0.1,0,0.2,0.1,0.4,0.1c0.6,0.2,1.4,0.5,2.3,0.8c0,0.1,0.1,0.2,0.1,0.3c0,0.1,0.1,0.2,0.1,0.3
			c0,0.1,0,0.1,0.1,0.2c0.4,1,0.9,2,1.4,3C315.3,219.7,313.8,218.3,312.6,216.6z M322.6,222.7c-1.4-0.1-3-0.6-4.5-1.4
			c-0.6-1.2-1.2-2.4-1.7-3.5c0-0.1,0-0.1-0.1-0.2c0-0.1-0.1-0.2-0.1-0.2c0-0.1,0-0.1-0.1-0.2c0.4,0.1,0.7,0.2,1.1,0.3
			c0.2,0,0.3,0.1,0.4,0.1c0.1,0,0.2,0.1,0.4,0.1c0.7,0.2,1.4,0.3,2.1,0.4C320.8,219.6,321.6,221.2,322.6,222.7z M328.9,217.6
			c-2.6,0.5-5.6,0.3-8.3-0.1c-1-2.6-1.6-5.1-1.7-7.7c0.5,0.1,1,0.1,1.6,0.1c0.1,0,0.1,0,0.2,0c0.1,0,0.1,0,0.2,0c0.5,0,0.9,0,1.4,0
			h0.1c0.1,0,0.1,0,0.2,0c0.1,0,0.1,0,0.2,0c1.3,0,2.7-0.1,4.2-0.3c0.1,0,0.1,0,0.2,0c0.1,0,0.1,0,0.2,0c0.5-0.1,1-0.2,1.6-0.3
			c0.1,0,0.1,0,0.2,0c0.1,0,0.1,0,0.2,0c0.3-0.1,0.7-0.1,1-0.2C330.2,211.7,329.8,214.5,328.9,217.6z M330.4,208.4
			c-0.3,0.1-0.7,0.1-1,0.2c-0.1,0-0.1,0-0.2,0c-0.1,0-0.1,0-0.2,0c-0.5,0.1-1.1,0.2-1.6,0.3c-0.1,0-0.1,0-0.2,0c-0.1,0-0.1,0-0.2,0
			c-1.5,0.2-3,0.3-4.3,0.3c-0.1,0-0.1,0-0.2,0h-0.2c-0.5,0-1,0-1.5-0.1l-0.2,0c-0.1,0-0.1,0-0.2,0c-0.5,0-1-0.1-1.5-0.2
			c0-0.7,0-1.4,0.1-2.1c0-0.1,0-0.2,0-0.3c0-0.1,0-0.1,0-0.2c0,0,0-0.1,0-0.1c0,0,0-0.1,0-0.2c0-0.1,0-0.2,0-0.3
			c0.2-1.6,0.7-3.3,1.3-4.9c0.3-0.6,0.5-1.2,0.8-1.8c0.5,0,1.1,0,1.7,0c1.1,0,2.2-0.1,3.4-0.2c0.1,0,0.1,0,0.2,0s0.1,0,0.2,0
			c0.6-0.1,1.2-0.2,1.8-0.3c0.1,0,0.1,0,0.2,0c0.1,0,0.1,0,0.2,0c0.2,0,0.3-0.1,0.5-0.1C330,201.1,330.6,204.4,330.4,208.4z"/>
		<g id="XMLID_25_">
			<path id="XMLID_30_" class="st0" d="M329.1,208.3c0,0.1,0,0.3,0,0.4c0,0.3,0,0.5,0,0.8c-0.6,7.1-4.6,7.4-4.6,7.4
				c-0.5,0-1-0.2-1.4-0.6c-1.2-1.2-1.7-3.8-2-6.2c0-0.3-0.1-0.5-0.1-0.8c-0.1-1.7-0.1-3.1-0.1-3.5h1.7c0,0.5-0.1,2-0.1,3.6
				c0,0.3,0,0.5,0,0.8c0.1,1.9,0.4,3.8,1.2,4.7c0.1,0.1,0.3,0.2,0.4,0.3c0.2,0.1,0.4,0.2,0.6,0.2c0.3,0,0.6-0.1,0.9-0.2
				c0.2-0.1,0.4-0.3,0.6-0.5c0.8-0.9,1.2-2.7,1.3-4.8c0-0.3,0-0.5,0-0.8c0.1-4-0.6-8.6-0.8-9.9c0-0.1,0-0.1,0-0.2l1.7-0.3
				c0,0,0,0.1,0.1,0.1C328.7,199.3,329.3,201.6,329.1,208.3z"/>
			<path id="XMLID_29_" class="st7" d="M328.8,198.6c-0.1-0.3-0.2-0.3-0.2-0.3l-0.1-0.1l-2.3,0.3l0,0.2c0,0,0,0.2,0.1,0.4
				c0.2,1.3,0.9,6,0.8,9.9c0,0.3,0,0.5,0,0.8c-0.1,1.9-0.4,3.6-1.2,4.5c-0.3,0.4-0.8,0.5-1.2,0.5c-0.3,0-0.5,0-0.7-0.3
				c-0.7-0.8-1-2.6-1.1-4.4c0-0.3,0-0.5,0-0.8c-0.1,0-0.1,0-0.2,0c0,0.3,0,0.5,0,0.8c0.1,2.1,0.5,4.4,1.5,4.9
				c0.2,0.1,0.4,0.1,0.6,0.1c0.3,0,0.6,0,0.9-0.2c1.1-0.7,1.6-2.8,1.7-5.2c0-0.3,0-0.5,0-0.8c0.1-4-0.6-8.6-0.8-9.9
				c0-0.2-0.1-0.3-0.1-0.3l2-0.3c0,0,0,0.1,0.1,0.3c0.3,0.7,0.8,3,0.7,9.6c0,0.1,0,0.2,0,0.3c0,0.3,0,0.5,0,0.8
				c-0.6,7.5-4.8,7.7-4.8,7.7c-2.4,0.1-3.3-3.8-3.6-7.1c0-0.3-0.1-0.5-0.1-0.8c-0.1,0-0.1,0-0.2,0c0,0.3,0,0.5,0.1,0.8
				c0.3,2.4,0.8,5.2,2.1,6.5c0.5,0.5,1,0.8,1.6,0.8h0.1c0,0,4.4-0.3,5-7.9c0-0.3,0-0.5,0-0.8c0-0.1,0-0.2,0-0.2
				C329.6,201.9,329.1,199.4,328.8,198.6z"/>
			<path id="XMLID_28_" class="st7" d="M322.9,205.5c0,0-0.1,1.8-0.1,3.8c-0.1,0-0.1,0-0.2,0c-0.1-1.9,0.1-3.6,0.1-3.6h-2.1
				c0,0,0,1.6,0.1,3.5c-0.1,0-0.1,0-0.2,0c-0.2-2-0.1-3.6-0.1-3.7v-0.2h2.5L322.9,205.5z"/>
			<path id="XMLID_27_" class="st7" d="M324.1,215c-0.2-0.1-0.3-0.2-0.4-0.3c-0.8-0.8-1.1-2.8-1.2-4.7c0-0.3,0-0.5,0-0.8
				c-0.1-1.6,0-3.1,0.1-3.6h0.2c0,0-0.1,1.7-0.1,3.6c0,0.3,0,0.5,0,0.8C322.8,212.1,323.1,214.4,324.1,215z"/>
			<path id="XMLID_26_" class="st7" d="M329.3,208.3c0,0.1,0,0.2,0,0.3c0,0.3,0,0.5,0,0.8c-0.6,7.5-4.8,7.7-4.8,7.7
				c-2.4,0.1-3.3-3.8-3.6-7.1c0-0.3-0.1-0.5-0.1-0.8c-0.2-2-0.1-3.5-0.1-3.5h0.2c0,0.5,0,1.9,0.1,3.5c0,0.3,0,0.5,0.1,0.8
				c0.3,2.4,0.8,5,2,6.2c0.4,0.4,0.9,0.6,1.4,0.6c0,0,4.1-0.3,4.6-7.4c0-0.3,0-0.5,0-0.8c0-0.1,0-0.2,0-0.4c0.2-6.7-0.4-8.9-0.7-9.6
				c0-0.1,0-0.1-0.1-0.1l-1.7,0.3c0,0,0,0.1,0,0.2c0.2,1.3,0.9,5.9,0.8,9.9c0,0.3,0,0.5,0,0.8c-0.1,2-0.5,3.8-1.3,4.8
				c-0.2,0.2-0.4,0.4-0.6,0.5c1.1-0.7,1.6-2.8,1.7-5.2c0-0.3,0-0.5,0-0.8c0.1-4-0.6-8.6-0.8-9.9c0-0.2-0.1-0.3-0.1-0.3l2-0.3
				c0,0,0,0.1,0.1,0.3C328.9,199.4,329.4,201.7,329.3,208.3z"/>
		</g>
		<path id="XMLID_22_" class="st0" d="M361.7,173.7c-8.1-0.1-13,0-19.3,0c-6.3,0-6.7,6-6.7,9.1c0,3.1,0,7.3,0,7.3l2.9,1.7V180h28.2
			l0.4,27.1h2.2v-26.4C369.4,180.7,369.8,173.8,361.7,173.7z M358.2,176.7H347v-1.1h11.2V176.7z"/>
		<path id="XMLID_21_" class="st0" d="M379.5,206.9l-3,8.5l-2.2-2c0,0-6.6,9-22.2,5.3c0,0,13.5,0.5,19.7-8c0,0-2.5-2.5-2.2-2.7
			C369.9,207.9,379.5,206.9,379.5,206.9z"/>
		<path id="XMLID_18_" class="st0" d="M366.5,221.6v13H339v-18.1l-3.3,3.3c0,0,0,9.8,0,12.8s1.6,8.6,6.9,8.6h21.4c5.8,0,6-6.5,6-6.5
			v-14.8L366.5,221.6z M353.1,239.5c-1.1,0-2-0.9-2-2s0.9-2,2-2s2,0.9,2,2S354.2,239.5,353.1,239.5z"/>
		<path id="XMLID_17_" class="st0" d="M326.1,189.4c0,0,17.1,1.2,17.1,13.6s-17.5,23.1-24.8,24.7c0,0,19.3-10,19.2-24.6
			C337.5,191.8,326.1,189.4,326.1,189.4z"/>
		<path id="XMLID_16_" class="st0" d="M365.8,184.8c-7.5-4.7-14.4,6.4-14.4,6.4l2.5,2l-9.5,3.9l1.1-9.4l2,1.7
			c2.2-3.6,8.2-7.6,12.1-7.8C363.5,181.3,365.8,184.8,365.8,184.8z"/>
		<linearGradient id="XMLID_255_" gradientUnits="userSpaceOnUse" x1="415.3897" y1="160.2979" x2="530.0563" y2="160.2979">
			<stop  offset="0" style="stop-color:#263090"/>
			<stop  offset="1" style="stop-color:#122D98"/>
		</linearGradient>
		<rect id="XMLID_9_" x="415.4" y="152" class="st8" width="114.7" height="16.6"/>
		<rect id="XMLID_10_" x="415.4" y="241.1" class="st9" width="113.8" height="17.6"/>
		<g id="Layer_2_1_">
			<path id="XMLID_53_" class="st10" d="M437.2,199.8c-0.8-0.7-16.3-7.9-17.7-8.6l-0.1,0c0,0,0,0,0,0l0,0c15.6-1,15.7-0.1,16.4,2.6
				C436.1,194.6,436.6,197.1,437.2,199.8z"/>
			<path id="XMLID_45_" class="st11" d="M455.9,191.1l-13.1,29.7h-8.4l-7.5-26.2l-7.4-3.5c1.4,0.7,16.9,7.9,17.7,8.6
				c1.1,5,2.3,10.9,2.3,10.9l7.4-19.6H455.9z"/>
			<polygon id="XMLID_44_" class="st11" points="467.7,190.7 462.2,220.8 454,220.8 459.2,190.7 			"/>
			<path id="XMLID_37_" class="st11" d="M483.4,202.8c4.1,1.8,8.3,5.6,6.5,10.3c-1.8,4.7-6.5,8.4-13.4,7.7S467,219,467,219l2-6.7
				c0,0,4,3.3,9.6,1.8c5.6-1.5,2.4-4.9,0.6-5.5c-1.8-0.6-9.7-3.6-8.8-10c1-6.3,9-10.2,20.9-7.2l-0.9,6.5c0,0-7.2-2.2-10.1-0.9
				C477.5,198.4,479.3,201,483.4,202.8z"/>
			<path id="XMLID_12_" class="st11" d="M512.1,190.7c0,0-8.5-1.1-9.3,0.6c-0.2,0.4-13.2,29.4-13.2,29.4h8.2l2.1-4.9h10.3l0.9,4.9
				h7.9L512.1,190.7z M502.3,210.4l4.1-10.6l2.8,10.6H502.3z"/>
			<polygon id="XMLID_11_" class="st12" points="509.2,210.4 502.3,210.4 506.3,199.8 			"/>
			<polygon id="XMLID_8_" class="st12" points="509.2,210.4 502.3,210.4 506.3,199.8 			"/>
		</g>
		<rect id="XMLID_115_" x="547.7" y="152.9" class="st13" width="131.1" height="106.5"/>
		<g id="layer1" inkscape:label="Capa 1" inkscape:groupmode="layer">
			<ellipse id="path4286" class="st14" cx="589" cy="204.3" rx="33" ry="32"/>
			<ellipse id="circle4288" class="st15" cx="633.4" cy="204.3" rx="33" ry="32"/>
			<path id="circle4295" inkscape:connector-curvature="0" class="st16" d="M611.2,180.7c-6.9,6-10.8,14.6-10.8,23.6
				c0,9,3.9,17.6,10.8,23.6c6.9-6,10.8-14.6,10.8-23.6C622,195.3,618.1,186.7,611.2,180.7z"/>
			<g id="text4290" transform="matrix(1.1807719,0,0,1.1807719,-45.705918,-440.07872)">
				<path id="path4332" inkscape:connector-curvature="0" class="st0" d="M511.9,539.6v11.7h2.8v-4.6c0-1.1-0.1-2.1-0.1-3.2
					c0.3,0.8,0.5,1.6,0.8,2.4c0.2,0.6,0.4,1.2,0.6,1.7l1.3,3.7h2.2c0.3-0.7,0.5-1.5,0.8-2.2c0.3-0.9,0.6-1.7,0.9-2.6
					c0.3-1,0.7-2.1,1-3.1c0,1-0.1,2.1-0.1,3.2v4.7h2.9v-11.7h-4.1c-0.2,0.6-0.4,1.2-0.6,1.9c-0.3,0.8-0.6,1.7-0.9,2.5
					c-0.3,1-0.6,2-0.9,3c-0.3-1-0.6-2-1-3c-0.5-1.5-1-2.9-1.5-4.4H511.9L511.9,539.6z"/>
				<path id="path4334" inkscape:connector-curvature="0" class="st0" d="M532.3,542.9c-0.4-0.2-1.1-0.7-2.3-0.7
					c-1.4,0-2.6,0.7-3.5,1.7c-0.9,1.2-1,2.4-1,2.9c0,1.9,1.1,3.1,1.6,3.6c1.1,1,2.1,1.1,2.7,1.1c1.4,0,2.1-0.6,2.5-0.9v0.7h2.7v-8.9
					h-2.8V542.9z M528.9,548.2c-0.4-0.4-0.6-0.9-0.6-1.4c0-1.1,0.9-2,2.1-2c1.2,0,2.1,0.9,2.1,2c0,1.1-0.9,2-2.1,2
					C529.8,548.8,529.3,548.6,528.9,548.2L528.9,548.2z"/>
				<path id="path4336" inkscape:connector-curvature="0" class="st0" d="M542.6,545c0-0.1,0-0.5-0.2-0.9c-0.3-0.8-1.1-1.9-3.2-1.9
					c-1.3,0-2.6,0.5-3.2,1.7c-0.1,0.2-0.3,0.6-0.3,1.3c0,0.3,0,1.1,0.7,1.8c0.4,0.3,0.9,0.6,1.9,0.9c0.7,0.2,1.1,0.2,1.4,0.5
					c0.1,0.2,0.2,0.3,0.2,0.4c0,0.2-0.2,0.7-0.8,0.7c-0.1,0-0.3,0-0.4-0.1c-0.4-0.2-0.4-0.6-0.4-0.8h-2.8c0,0.2,0.1,0.7,0.3,1.2
					c0.2,0.3,0.4,0.6,0.7,0.9c0.4,0.4,1.2,0.8,2.6,0.8c1.6,0,2.5-0.7,3-1.1c0.7-0.7,0.8-1.5,0.8-1.9c0-0.8-0.3-1.5-1-2
					c-0.6-0.4-1.2-0.6-1.9-0.7c-0.5-0.1-0.9-0.2-1.1-0.4c-0.2-0.1-0.3-0.3-0.3-0.6c0-0.4,0.3-0.7,0.7-0.7c0.1,0,0.3,0,0.4,0.1
					c0.3,0.2,0.3,0.4,0.4,0.7H542.6L542.6,545z"/>
				<path id="path4338" inkscape:connector-curvature="0" class="st0" d="M543.7,539.6v2.7h-1v2.1h1v6.9h2.8v-6.9h1.2v-2.1h-1.2
					v-2.7H543.7L543.7,539.6z"/>
				<path id="path4340" inkscape:connector-curvature="0" class="st0" d="M550.2,545.8c0.1-0.2,0.2-0.3,0.3-0.4c0,0,0.2-0.2,0.4-0.3
					c0.4-0.3,0.8-0.4,1.3-0.4c1.3,0,1.8,0.8,2.1,1.2H550.2z M557,547.7c0-0.3,0.1-0.6,0.1-0.9c0-1.3-0.7-2.7-1.7-3.5
					c-1.2-1-2.5-1.1-3.1-1.1c-1.4,0-2.8,0.6-3.7,1.7c-1,1.2-1.1,2.4-1.1,3c0,1.4,0.7,2.7,1.7,3.6c1.2,1,2.5,1.1,3.1,1.1
					c1.8,0,2.8-0.8,3.3-1.3c0.7-0.7,0.9-1.2,1.1-1.6h-2.9c-0.2,0.2-0.2,0.2-0.4,0.3c-0.3,0.2-0.8,0.3-1.2,0.3
					c-0.7,0-1.4-0.3-1.9-0.9c-0.2-0.2-0.3-0.5-0.3-0.5H557L557,547.7z"/>
				<path id="path4342" inkscape:connector-curvature="0" class="st0" d="M557.6,542.3v8.9h2.8v-5c0-0.4,0.1-0.6,0.2-0.8
					c0.4-0.6,1.5-0.7,1.6-0.7c0.2,0,0.4,0,0.6,0v-2.5c-0.4,0-1.3-0.1-2.1,0.7c-0.2,0.2-0.4,0.5-0.5,0.5v-1.2H557.6L557.6,542.3z"/>
				<path id="path4344" inkscape:connector-curvature="0" class="st0" d="M575.3,544c-0.2-0.7-0.6-2.1-2.1-3.2
					c-1.6-1.3-3.2-1.4-4-1.4c-1.5,0-2.6,0.5-3.1,0.8c-1,0.6-3.1,2.2-3.1,5.4c0,1.7,0.6,2.7,1,3.3c0.6,0.9,2.2,2.7,5.3,2.7
					c0.7,0,1.2-0.1,1.5-0.2c0.9-0.2,2.8-0.9,3.9-3c0.2-0.3,0.3-0.7,0.6-1.4h-3.3c-0.2,0.3-0.3,0.4-0.4,0.5c-0.5,0.5-1.1,0.8-1.3,0.9
					c-0.2,0.1-0.5,0.2-1,0.2c-1.9,0-2.7-1.4-3-1.9c-0.1-0.2-0.2-0.6-0.2-1.1c0-1.2,0.7-2.3,1.9-2.8c0.2-0.1,0.7-0.3,1.3-0.3
					c1,0,1.8,0.4,2.4,1.2c0.1,0.1,0.2,0.3,0.3,0.4H575.3z"/>
				<path id="path4346" inkscape:connector-curvature="0" class="st0" d="M582.2,542.9c-0.4-0.2-1.1-0.7-2.3-0.7
					c-1.4,0-2.6,0.7-3.5,1.7c-0.9,1.2-1,2.4-1,2.9c0,1.9,1.1,3.1,1.6,3.6c1.1,1,2.1,1.1,2.7,1.1c1.4,0,2.1-0.6,2.5-0.9v0.7h2.7v-8.9
					h-2.8V542.9z M578.8,548.2c-0.4-0.4-0.6-0.9-0.6-1.4c0-1.1,0.9-2,2.1-2c1.2,0,2.1,0.9,2.1,2c0,1.1-0.9,2-2.1,2
					C579.7,548.8,579.2,548.6,578.8,548.2L578.8,548.2z"/>
				<path id="path4348" inkscape:connector-curvature="0" class="st0" d="M586,542.3v8.9h2.8v-5c0-0.4,0.1-0.6,0.2-0.8
					c0.4-0.6,1.5-0.7,1.6-0.7c0.2,0,0.4,0,0.6,0v-2.5c-0.4,0-1.3-0.1-2.1,0.7c-0.2,0.2-0.4,0.5-0.5,0.5v-1.2H586L586,542.3z"/>
				<path id="path4350" inkscape:connector-curvature="0" class="st0" d="M597.9,542.9c-0.4-0.2-1.1-0.7-2.3-0.7
					c-1.4,0-2.7,0.7-3.5,1.7c-0.9,1.2-1,2.4-1,2.9c0,1.9,1.1,3.1,1.6,3.6c1.1,1,2.1,1.1,2.7,1.1c1.3,0,2.1-0.6,2.5-0.9l0,0.7h2.7
					v-11.7h-2.8V542.9L597.9,542.9z M594.5,548.3c-0.4-0.4-0.6-0.9-0.6-1.4c0-1.1,0.9-2,2.1-2c1.1,0,2.1,0.9,2.1,2
					c0,1.1-0.9,2-2.1,2C595.4,548.8,594.9,548.6,594.5,548.3L594.5,548.3z"/>
			</g>
		</g>
		<g id="XMLID_180_">
			<g id="Layer_2_4_">
				<circle id="XMLID_185_" class="st17" cx="749.8" cy="205.6" r="51.8"/>
			</g>
			<g id="Layer_1_3_">
				<g id="Layer_1_4_">
				</g>
				<g id="Layer_2_3_">
					<path id="XMLID_181_" class="st0" d="M772.7,198.1c3.5-11-12.4-16-12.4-16l2.8-10l-5.9-1.4l-2.7,9.5l-5-1.2l2.7-9.5l-5.9-1.7
						l-2.8,10l-11.8-3l-1.8,6.2c5.7,1.4,8.2,2.1,7.6,4.4c-0.6,2.2-6.3,24.8-7.1,27.3c-0.7,2.5-1.8,2.7-3.1,2.2
						c-1.4-0.4-4.8-1.3-4.8-1.3l-2.7,7.1l12.7,3.3l-3,10.2l5.9,1.3l2.6-9.9l5.1,1.3l-2.7,10l6.2,1.6l2.5-10.2
						c0.3,0.1,1.6,0.3,5.5,0.9c7,1,13.2-1,16.5-10.5c3.1-8.9-6.2-13.5-6.2-13.5S770.6,204.9,772.7,198.1z M759.4,215.2
						c-1,5-5.5,6.5-9.6,5.6c-4.6-0.9-9.9-2.6-9.9-2.6l3.7-13.6C755.8,207.6,760.3,211.1,759.4,215.2z M761,196.3
						c-0.8,3.2-5.1,4.8-8.8,4.1c-3.6-0.8-7.4-1.8-7.4-1.8l3.1-12.3c0,0,0.7,0,6,1.4C759.2,189.1,761.8,193.1,761,196.3z"/>
				</g>
			</g>
		</g>
		<g id="XMLID_204_">
			<g id="XMLID_187_">
				<path id="XMLID_192_" class="st18" d="M226.1,71.4V114c0,5.3-4.5,9.6-10.1,9.6h-93.4c-0.3,0-0.6,0-0.9,0V61.9c0.3,0,0.6,0,0.9,0
					H216C221.5,61.8,226.1,66.1,226.1,71.4z"/>
				<path id="XMLID_191_" class="st19" d="M209.1,46.2v11.4l-58.4,1.5c19.2-4.9,52.7-13.6,54.9-14.2c0.5-0.1,1-0.2,1.4-0.2
					c0.6,0,1.2,0.1,1.6,0.4C208.8,45.3,209.1,45.6,209.1,46.2z"/>
				<path id="XMLID_190_" class="st19" d="M216.4,42c0,3.2,0,15.2,0,15.2l-4.6,0.1V46.3c0-1.3-0.5-2.4-1.5-3.1c-1.3-1-3.1-1.2-5-0.6
					c-2.6,0.7-59.1,15.4-59.6,15.6l-4.6,1.2L125,59.7c0,0,80.4-21,84.6-22.1C213.1,36.7,216.4,38.8,216.4,42z"/>
				<path id="XMLID_189_" class="st0" d="M216.4,98.9c-2.7,0-4.9-2.1-5-4.8c-0.1-1.3,0.4-2.6,1.3-3.6c0.9-1,2.2-1.6,3.5-1.6
					c1.4-0.1,2.6,0.4,3.6,1.3c1,0.9,1.6,2.2,1.6,3.5l0,0c0.1,1.3-0.4,2.6-1.3,3.6c-0.9,1-2.2,1.6-3.5,1.6
					C216.5,98.9,216.5,98.9,216.4,98.9z M216.4,91.7c0,0-0.1,0-0.1,0c-0.6,0-1.1,0.3-1.5,0.7c-0.4,0.4-0.6,1-0.6,1.5
					c0,1.2,1.1,2.1,2.2,2c0.6,0,1.1-0.3,1.5-0.7c0.4-0.4,0.6-1,0.6-1.5l0,0c0-0.6-0.3-1.1-0.7-1.5C217.4,91.9,216.9,91.7,216.4,91.7
					z"/>
				<path id="XMLID_188_" class="st20" d="M182.7,71.3c-4.9,0-20.6,0-20.6,0l-2.1,10.2h-8.6l-1.6,7.6h8.7l-0.5,2.6h-8.6l-1.6,7.6
					h8.6l-3.5,17.3h9.2l3.5-17.2c19.7,1.3,26.5-4.2,27.8-14.8C194.6,75,187.7,71.3,182.7,71.3z M184.3,85.2
					c-0.6,3.3-2.2,7.2-17.1,6.2l0.5-2.4l1.4-7.6l0.5-2.6c0,0,6.2,0,10.5,0C184.3,78.9,184.7,82.8,184.3,85.2z"/>
			</g>
			<g id="XMLID_119_">
				<g id="XMLID_209_" class="st21">
					<path id="XMLID_199_" class="st22" d="M284.8,90.5h7.6l-3.5,16.5c-0.4,2-0.6,3.2-0.6,3.7c0,0.8,0.3,1.5,0.9,2.1
						c0.6,0.6,1.4,0.9,2.3,0.9c0.7,0,1.3-0.1,2-0.4c0.6-0.2,1.3-0.6,2-1.2c0.7-0.5,1.3-1.1,1.8-1.8c0.5-0.7,1.1-1.6,1.5-2.6
						c0.3-0.8,0.7-2.1,1.1-4l2.8-13.3h7.6l-5.9,27.9h-7.1l0.8-3.8c-3.1,3-6.5,4.4-10.1,4.4c-2.3,0-4.1-0.7-5.4-2
						c-1.3-1.3-2-3.1-2-5.3c0-1,0.3-2.9,0.9-5.8L284.8,90.5z"/>
					<path id="XMLID_198_" class="st22" d="M317.3,90.5h7.1l-1.1,5.4c2.6-4.1,5.5-6.1,8.5-6.1c1.1,0,2.3,0.3,3.5,0.8l-2.9,6.2
						c-0.7-0.2-1.4-0.4-2.2-0.4c-1.3,0-2.6,0.5-4,1.5c-1.3,1-2.4,2.3-3.1,3.9c-0.7,1.6-1.5,4.2-2.2,7.8l-1.8,8.7h-7.6L317.3,90.5z"
						/>
					<path id="XMLID_197_" class="st22" d="M331.9,110.7l7.3-1.2c0.6,1.6,1.4,2.6,2.4,3.3c1,0.6,2.3,1,4,1c1.7,0,3.1-0.4,4.1-1.2
						c0.7-0.5,1.1-1.2,1.1-1.9c0-0.5-0.2-1-0.6-1.4c-0.4-0.4-1.4-0.8-3.1-1.4c-4.6-1.5-7.4-2.7-8.5-3.6c-1.7-1.4-2.5-3.1-2.5-5.4
						c0-2.2,0.8-4.1,2.5-5.7c2.3-2.2,5.7-3.4,10.2-3.4c3.6,0,6.3,0.7,8.2,2s3,3.1,3.5,5.3l-7,1.2c-0.4-1-1-1.8-1.8-2.3
						c-1.1-0.7-2.5-1-4.1-1s-2.7,0.2-3.4,0.8c-0.7,0.5-1,1.1-1,1.8c0,0.7,0.4,1.3,1.1,1.7c0.4,0.3,1.8,0.8,4.2,1.5
						c3.7,1.1,6.1,2.1,7.4,3.1c1.8,1.4,2.6,3.2,2.6,5.3c0,2.6-1.1,4.9-3.4,6.9c-2.2,1.9-5.4,2.9-9.4,2.9c-4,0-7.2-0.7-9.3-2.2
						C334.2,115.5,332.6,113.4,331.9,110.7z"/>
					<path id="XMLID_210_" class="st22" d="M373.5,98.5l-7.4-0.6c0.8-2.5,2.3-4.4,4.4-5.9c2.1-1.4,4.9-2.1,8.3-2.1
						c3.6,0,6.2,0.7,8,2.2c1.7,1.4,2.6,3.2,2.6,5.3c0,0.8-0.1,1.7-0.2,2.7s-0.7,3.4-1.6,7.5c-0.7,3.3-1.1,5.7-1.1,7
						c0,1.2,0.2,2.5,0.6,4h-7.3c-0.3-1-0.5-2.1-0.6-3.1c-1.1,1.2-2.4,2.2-3.8,2.8c-1.4,0.7-2.9,1-4.3,1c-2.3,0-4.2-0.7-5.8-2.3
						c-1.5-1.5-2.3-3.5-2.3-5.9c0-2.7,0.8-4.8,2.5-6.4c1.7-1.6,4.6-2.6,8.9-2.9c3.6-0.3,6-0.7,7.2-1.1c0.3-1.1,0.5-1.9,0.5-2.5
						c0-0.8-0.3-1.5-1-2c-0.6-0.5-1.6-0.8-2.9-0.8c-1.3,0-2.4,0.3-3.2,0.8C374.3,96.7,373.7,97.5,373.5,98.5z M380.6,105.5
						c-0.5,0.1-1.1,0.2-1.8,0.4c-3.8,0.5-6.2,1.1-7.4,2c-0.8,0.6-1.2,1.5-1.2,2.5c0,0.9,0.3,1.6,1,2.2c0.6,0.6,1.5,0.9,2.5,0.9
						c1.1,0,2.2-0.3,3.2-0.8c1-0.6,1.8-1.3,2.3-2.1c0.5-0.9,1-2.2,1.3-4.1L380.6,105.5z"/>
				</g>
				<path id="XMLID_186_" class="st20" d="M273.6,68.6c-5.4,0-22.5,0-22.5,0l-2.3,11.1h-9.5l-1.7,8.3h9.5l-0.6,2.8h-9.3l-1.7,8.3
					h9.4l-3.8,18.8h10.1l3.8-18.7c21.4,1.4,29-4.6,30.4-16.2C286.6,72.7,279,68.6,273.6,68.6z M275.4,83.8
					c-0.6,3.6-2.4,7.8-18.7,6.8l0.5-2.6l1.6-8.3l0.5-2.8c0,0,6.8,0,11.5,0S275.8,81.1,275.4,83.8z"/>
			</g>
		</g>
	</g>
</g>
</svg>
