<?xml version="1.0" encoding="utf-8"?>
<!-- Generator: Adobe Illustrator 19.0.0, SVG Export Plug-In . SVG Version: 6.00 Build 0)  -->
<svg version="1.1" xmlns="http://www.w3.org/2000/svg" xmlns:xlink="http://www.w3.org/1999/xlink" x="0px" y="0px"
	 viewBox="0 0 720 720" style="enable-background:new 0 0 720 720;" xml:space="preserve">
<style type="text/css">
	.st0{fill:#103307;}
	.st1{fill:#289611;}
	.st2{fill:#00822D;}
	.st3{fill:#FFFFFF;}
	.st4{fill:#F9EC23;}
</style>
<g id="Layer_2">
	<path id="XMLID_5_" class="st0" d="M664.3,720H55.7C24.9,720,0,695.1,0,664.3V55.7C0,24.9,24.9,0,55.7,0h608.6
		C695.1,0,720,24.9,720,55.7v608.6C720,695.1,695.1,720,664.3,720z"/>
</g>
<g id="Layer_1">
	<g id="XMLID_1_">
		<path id="XMLID_3_" class="st1" d="M666.4,281.1v245.7c0,30.5-26.1,55.1-58.2,55.1H69.6c-1.8,0-3.5-0.1-5.2-0.2V226.2
			c1.7-0.2,3.5-0.2,5.2-0.2h538.5C640.3,225.9,666.4,250.6,666.4,281.1z"/>
		<path id="XMLID_2_" class="st2" d="M568.6,136.1v65.7L232,210.6c110.5-28.5,303.8-78.4,316.6-82.1c2.9-0.8,5.7-1.2,8.3-1.2
			c3.6,0,6.8,0.8,8.9,2.4C567,130.6,568.6,132.3,568.6,136.1z"/>
		<path id="XMLID_4_" class="st2" d="M610.5,111.9c0,18.7,0,87.8,0,87.8l-26.2,0.7v-64.2c0-7.5-3.1-13.9-8.8-18.2
			c-7.3-5.5-17.8-6.8-28.9-3.6c-15.2,4.4-340.6,89-343.9,89.9l-26.6,6.9l-92.6,2.5c0,0,463.4-121.1,487.8-127.5
			C591.9,80.9,610.5,93.3,610.5,111.9z"/>
		<path id="XMLID_248_" class="st3" d="M610.5,439.9c-15.5,0-28.5-12.3-29.2-27.9c-0.3-7.8,2.4-15.3,7.6-21
			c5.3-5.8,12.5-9.1,20.3-9.5c7.8-0.4,15.3,2.4,21,7.6c5.8,5.3,9.1,12.5,9.5,20.3l0,0c0.3,7.8-2.4,15.3-7.6,21
			c-5.3,5.8-12.5,9.1-20.3,9.5C611.4,439.9,611,439.9,610.5,439.9z M610.5,398.5c-0.2,0-0.4,0-0.6,0c-3.3,0.1-6.3,1.5-8.5,4
			c-2.2,2.4-3.3,5.5-3.2,8.8c0.3,6.7,6,12,12.7,11.7c3.3-0.1,6.3-1.5,8.5-4c2.2-2.4,3.3-5.5,3.2-8.8v0c-0.1-3.3-1.5-6.3-4-8.5
			C616.5,399.6,613.6,398.5,610.5,398.5z"/>
		<path id="XMLID_130_" class="st4" d="M416.3,280.5c-28.5,0-118.6,0-118.6,0l-12,58.6h-49.9l-9.2,43.8h50.2l-3,14.8h-49.3
			l-9.2,43.8h49.6l-20.3,99.5h53.1l19.9-99.2c113.3,7.8,153-24.4,160.5-85.3C484.8,302,444.8,280.5,416.3,280.5z M425.5,360.8
			c-3.2,18.8-12.9,41.5-98.8,36l2.6-14l8.1-43.8l2.7-14.8c0,0,36,0,60.7,0C425.5,324.3,427.9,346.7,425.5,360.8z"/>
	</g>
</g>
</svg>
