<?xml version="1.0" encoding="utf-8"?>
<!-- Generator: Adobe Illustrator 19.0.0, SVG Export Plug-In . SVG Version: 6.00 Build 0)  -->
<svg version="1.1" id="Layer_1" xmlns="http://www.w3.org/2000/svg" xmlns:xlink="http://www.w3.org/1999/xlink" x="0px" y="0px"
	 viewBox="-87 150.3 784 342" style="enable-background:new -87 150.3 784 342;" xml:space="preserve">
<style type="text/css">
	.st0{fill:#289611;}
	.st1{fill:#00822D;}
	.st2{fill:#FFFFFF;}
	.st3{fill:#F9EC23;}
	.st4{enable-background:new    ;}
	.st5{fill:#4FB148;}
</style>
<g id="XMLID_57_">
	<path id="XMLID_66_" class="st0" d="M224.2,253.4v120.8c0,15-12.8,27.1-28.6,27.1H-69.1c-0.9,0-1.7,0-2.6-0.1V226.5
		c0.8-0.1,1.7-0.1,2.6-0.1h264.7C211.3,226.4,224.2,238.5,224.2,253.4z"/>
	<path id="XMLID_65_" class="st1" d="M176.1,182.2v32.3l-165.4,4.3c54.3-14,149.3-38.5,155.5-40.3c1.4-0.4,2.8-0.6,4.1-0.6
		c1.8,0,3.3,0.4,4.4,1.2C175.3,179.5,176.1,180.3,176.1,182.2z"/>
	<path id="XMLID_64_" class="st1" d="M196.7,170.3c0,9.2,0,43.2,0,43.2l-12.9,0.3v-31.5c0-3.7-1.5-6.8-4.3-8.9
		c-3.6-2.7-8.7-3.3-14.2-1.8c-7.5,2.1-167.4,43.7-169,44.2l-13.1,3.4l-45.5,1.2c0,0,227.8-59.5,239.7-62.6
		C187.5,155.1,196.7,161.2,196.7,170.3z"/>
	<path id="XMLID_61_" class="st2" d="M196.7,331.5c-7.6,0-14-6-14.3-13.7c-0.2-3.8,1.2-7.5,3.8-10.3c2.6-2.8,6.1-4.5,10-4.6
		c3.9-0.2,7.5,1.2,10.3,3.8s4.5,6.1,4.6,10l0,0c0.2,3.8-1.2,7.5-3.8,10.3c-2.6,2.8-6.1,4.5-10,4.6
		C197.1,331.5,196.9,331.5,196.7,331.5z M196.7,311.2c-0.1,0-0.2,0-0.3,0c-1.6,0.1-3.1,0.8-4.2,1.9c-1.1,1.2-1.6,2.7-1.6,4.3
		c0.1,3.3,3,5.9,6.3,5.7c1.6-0.1,3.1-0.8,4.2-1.9c1.1-1.2,1.6-2.7,1.6-4.3l0,0c-0.1-1.6-0.8-3.1-1.9-4.2
		C199.6,311.7,198.2,311.2,196.7,311.2z"/>
	<path id="XMLID_58_" class="st3" d="M101.3,253.2c-14,0-58.3,0-58.3,0L37.1,282H12.6l-4.5,21.5h24.7l-1.5,7.3H7l-4.5,21.5h24.4
		l-10,48.9H43l9.8-48.7c55.7,3.8,75.2-12,78.9-41.9C134.9,263.7,115.3,253.2,101.3,253.2z M105.8,292.7c-1.6,9.3-6.3,20.4-48.5,17.7
		l1.3-6.9l4-21.5l1.4-7.3c0,0,17.7,0,29.8,0C105.8,274.7,107,285.7,105.8,292.7z"/>
</g>
<g id="XMLID_95_">
	<g class="st4">
		<path class="st5" d="M390.5,307.8h21.4l-9.8,46.9c-1.2,5.6-1.8,9.1-1.8,10.5c0,2.3,0.8,4.2,2.5,5.9c1.7,1.6,3.9,2.5,6.5,2.5
			c1.9,0,3.8-0.4,5.6-1.1c1.8-0.7,3.7-1.8,5.7-3.3c1.9-1.5,3.7-3.1,5.2-5c1.5-1.9,3-4.4,4.3-7.5c0.9-2.3,2-6,3.1-11.2l7.9-37.7h21.4
			L445.9,387h-20l2.2-10.7c-8.8,8.4-18.3,12.6-28.6,12.6c-6.5,0-11.6-1.9-15.4-5.6c-3.7-3.7-5.6-8.7-5.6-15c0-2.7,0.8-8.2,2.5-16.3
			L390.5,307.8z"/>
		<path class="st5" d="M482.7,307.8h20l-3.2,15.4c7.5-11.5,15.5-17.2,24.2-17.2c3.1,0,6.4,0.8,9.9,2.3l-8.2,17.5c-1.9-0.7-4-1-6.2-1
			c-3.7,0-7.4,1.4-11.2,4.2c-3.8,2.8-6.8,6.5-8.9,11.1c-2.1,4.6-4.3,12-6.3,22.1l-5.2,24.8h-21.4L482.7,307.8z"/>
		<path class="st5" d="M524,364.8l20.7-3.3c1.8,4.4,4.1,7.5,6.9,9.3c2.7,1.8,6.5,2.7,11.2,2.7c4.9,0,8.8-1.1,11.7-3.3
			c2-1.5,3.1-3.3,3.1-5.4c0-1.4-0.5-2.7-1.6-3.9c-1.1-1.1-4.1-2.4-8.9-4c-12.9-4.3-20.9-7.7-24-10.1c-4.8-3.9-7.2-8.9-7.2-15.2
			c0-6.3,2.3-11.7,7-16.2c6.5-6.3,16.2-9.5,29-9.5c10.2,0,17.9,1.9,23.1,5.6c5.2,3.7,8.5,8.8,9.9,15.1l-19.8,3.4
			c-1-2.9-2.7-5-5.1-6.5c-3.2-1.9-7-2.9-11.5-2.9s-7.7,0.7-9.7,2.2c-2,1.5-2.9,3.2-2.9,5.1c0,2,1,3.6,3,4.9c1.2,0.8,5.2,2.2,12,4.2
			c10.4,3,17.4,6,21,8.9c5,4.1,7.5,9.1,7.5,14.9c0,7.5-3.2,14-9.5,19.5c-6.3,5.5-15.2,8.3-26.7,8.3c-11.4,0-20.3-2.1-26.5-6.3
			C530.5,378.4,526.2,372.5,524,364.8z"/>
		<path class="st5" d="M641.9,330.2l-20.9-1.8c2.4-7.1,6.5-12.6,12.5-16.6c5.9-4,13.8-6,23.6-6c10.2,0,17.7,2,22.6,6.2
			c4.9,4.1,7.3,9.1,7.3,15c0,2.4-0.2,4.9-0.6,7.6c-0.4,2.7-1.9,9.7-4.4,21.2c-2.1,9.4-3.1,16.1-3.1,19.8c0,3.4,0.6,7.1,1.8,11.3
			h-20.8c-0.8-2.9-1.4-5.9-1.6-8.9c-3.1,3.5-6.7,6.2-10.8,8c-4.1,1.9-8.2,2.8-12.3,2.8c-6.6,0-12-2.1-16.3-6.4
			c-4.3-4.3-6.4-9.8-6.4-16.6c0-7.6,2.3-13.6,7-18.1s13.1-7.3,25.2-8.2c10.2-0.8,17-1.9,20.4-3.1c0.9-3,1.3-5.4,1.3-7.2
			c0-2.3-0.9-4.2-2.8-5.7c-1.8-1.5-4.6-2.3-8.2-2.3c-3.8,0-6.8,0.8-9.1,2.3C644.2,325.1,642.7,327.4,641.9,330.2z M662.2,350.1
			c-1.3,0.3-3,0.7-5.1,1c-10.7,1.3-17.7,3.2-21,5.7c-2.3,1.8-3.5,4.2-3.5,7.2c0,2.5,0.9,4.6,2.7,6.3c1.8,1.7,4.2,2.6,7.1,2.6
			c3.2,0,6.3-0.8,9.1-2.3c2.9-1.6,5-3.6,6.4-6c1.4-2.5,2.7-6.3,3.8-11.5L662.2,350.1z"/>
	</g>
	<path id="XMLID_89_" class="st3" d="M359,245.6c-15.3,0-63.7,0-63.7,0l-6.4,31.4H262l-4.9,23.4H284l-1.6,8h-26.5l-4.9,23.4h26.6
		l-10.9,53.3h28.6L306,332c60.7,4.1,82.1-13.1,86.1-45.8C395.7,257.2,374.2,245.6,359,245.6z M363.9,288.7
		c-1.7,10.1-6.9,22.2-53,19.3l1.4-7.5l4.4-23.4l1.5-8c0,0,19.3,0,32.6,0C364.1,269.1,365.2,281.1,363.9,288.7z"/>
</g>
<g>
	<path d="M-47.4,476.4c-4.3,0-7.8-1.1-10.9-3c-0.4,0.5-0.7,0.7-1.3,1c-0.9,0.5-1.5,0.9-2.6,0.9h-8.2c1.4-0.9,2.1-1.8,2.9-3.3
		c0.5-1.2,0.6-2.1,0.6-3.4v-30.5c0-2-0.5-3.3-1.7-4.9c-0.6-0.8-1.2-1.2-1.9-1.9h14.6c-0.3,0.4-0.6,0.8-0.7,1.1
		c-0.3,0.6-0.4,1.2-0.4,1.9v12.1c3.8-2.1,6.8-3.1,11.3-3c12.3,0.5,17.2,6.6,17.6,15.7C-27.7,469.2-34.8,476.3-47.4,476.4z
		 M-47.2,449.9c-5.9-0.1-9.5,4.3-9.9,9.9c-0.4,6.4,3.9,10.8,9.4,10.6c6.7-0.2,9.2-4.9,9.2-10.1C-38.5,455-40.5,449.9-47.2,449.9z"/>
	<path d="M17.6,446.9c-1.2,1.5-1.9,2.6-2.9,4.2l-15.5,24.6c-1.1,1.9-1.7,4.1-1.5,5.9c0.1,1,0.3,1.6,0.7,2.5h-17.3
		c1.6-1.4,2.5-2.3,3.9-3.8c2.1-2.3,2.8-3.2,4.6-5.7l2.9-4.3l-11.4-17c-1.7-2.6-2.8-3.9-4.9-6.1c-1-1.1-1.6-1.7-2.7-2.7H-9
		c-0.8,0.6-1.3,1.4-1.5,2.5c-0.1,1,0,1.7,0.5,2.5l8.2,13.1l7.5-12.5c0.6-1.1,1.2-2,1-3.2c-0.2-1.1-0.8-1.7-1.4-2.5h14.1
		C18.8,445.5,18.3,446,17.6,446.9z"/>
	<path d="M89,450.4c-0.4,0.7-0.6,1.5-0.6,2.4v21c-1.4-0.3-2-0.6-3.7-0.5c-3.9,0.2-10.5,2.4-17.3,2.8c-16.5,0.7-27.5-8.5-27.2-22.3
		c0.4-16.5,13-23.4,28.2-23.3c6.1,0.1,11.3,1.6,15.2,1.4c1.3-0.1,2.2-0.2,3.5-0.4l-3.5,11.3c-4.2-2.7-10.9-4.3-14.7-4.3
		c-12.2,0.1-16.6,6.6-16.9,15.8c-0.2,10.2,6.6,14.3,14.5,14.1c5.7-0.2,11.6-2,11.5-7.3V457H69c-1.1,0-3.2,0.2-4.3,0.7
		c-0.7,0.3-1.2,0.5-1.9,0.9l1.9-6.7c0.3-1,0.7-1.8,1.6-2.3c0.7-0.4,1.3-0.4,2.2-0.4H90C89.6,449.5,89.2,450.1,89,450.4z"/>
	<path d="M93.8,475.3c0.9-0.7,1.5-1.3,2.1-2.3c0.8-1.5,1.1-2.7,1.1-4.4v-29.7c0-2.2-0.3-3.8-1.6-5.4c-0.8-1.1-1.4-1.5-2.3-2.2h15.1
		c-0.4,0.3-0.5,0.6-0.7,1.1c-0.4,0.8-0.5,1.5-0.5,2.4v31.8c0,1.1,0.3,4,1.5,5.9c0.7,1.2,1.7,2,2.5,2.8H93.8z"/>
	<path d="M133.9,476.1c-15.1-0.1-19.9-6.5-19.9-16.5c0.1-10.4,9.6-16.2,20.8-15.8c12.9,0.4,18.3,6.4,18.6,15.6
		C153.8,468.3,147.2,476.1,133.9,476.1z M133.9,450c-6.7,0-9.8,4.5-9.6,10.5c0.2,6.7,3.6,9.4,9.8,9.4c6.2,0,9.2-4.7,9.1-10
		C143.1,454.7,141,450,133.9,450z"/>
	<path d="M179.5,476.4c-4.3,0-7.8-1.1-10.9-3c-0.4,0.5-0.7,0.7-1.3,1c-0.9,0.5-1.5,0.9-2.6,0.9h-8.2c1.4-0.9,2.1-1.8,2.9-3.3
		c0.5-1.2,0.6-2.1,0.6-3.4v-30.5c0-2-0.5-3.3-1.7-4.9c-0.6-0.8-1.2-1.2-1.9-1.9H171c-0.3,0.4-0.6,0.8-0.7,1.1
		c-0.3,0.6-0.4,1.2-0.4,1.9v12.1c3.8-2.1,6.8-3.1,11.3-3c12.3,0.5,17.2,6.6,17.6,15.7C199.2,469.2,192.1,476.3,179.5,476.4z
		 M179.7,449.9c-5.9-0.1-9.5,4.3-9.9,9.9c-0.4,6.4,3.9,10.8,9.4,10.6c6.7-0.2,9.2-4.9,9.2-10.1C188.4,455,186.4,449.9,179.7,449.9z"
		/>
	<path d="M237.2,463.1c-0.9-0.3-1.5-0.3-2.4-0.3H212c0.2,4.2,3.8,7.3,12,7.2c3.3,0,8-0.8,12.4-3.3v9.2c-1.1-0.1-1.7-0.3-2.9-0.3
		c-3.2,0.1-6.5,1.1-10.9,1c-16-0.2-20.6-6.5-20.6-16.7c0-9.9,6.6-16.7,19.3-16.8c8.6-0.1,17.2,3.7,17.1,15.3v5.4
		C238.1,463.4,237.7,463.2,237.2,463.1z M228.8,455.1c0.1-3.7-3-5.9-7.6-5.9c-5.6,0.1-8.6,2.9-9.2,7.5h16.8V455.1z"/>
	<path d="M272.5,475.3c0.6-0.5,1.4-1,1.5-1.9c0.2-1.2-1-2.3-1.5-2.8l-6.8-6.1l-6.5,5.6c-0.4,0.4-1.5,1.4-1.4,2.7
		c0.1,1.2,1.1,2.1,2,2.6h-18.5l18.6-16.3l-9.9-9c-1.4-1.3-2.2-1.8-3.6-3c-1.3-1-2.1-1.5-3.5-2.4h19.6c-0.6,0.3-1.1,0.7-1.4,1.3
		c-0.7,1.5,0.3,2.9,1.5,3.9l4.3,3.6l6.9-5.6c0.5-0.5,1-1,1-1.7c0-0.7-0.3-1.2-0.8-1.6h15.5l-16.7,14.3l17.6,16.4H272.5z"/>
	<path d="M333.8,443.2c-3.9-3.1-7.7-4.3-12.8-4.5c-9.3-0.3-15.8,6.6-15.6,15c0.2,7.9,4.2,14.5,14.6,14.2c5-0.1,9.5-1.3,14.7-4.2
		l1.9-1.1v12.7c-1.1-0.4-1.7-0.8-2.9-0.8c-4.4,0.2-10.1,1.8-16.5,1.7c-15.3-0.1-24.2-10-23.5-22.8c0.7-13.6,9.1-22.6,26.4-22.9
		c5.3-0.1,11.6,1.1,14.8,1.3c1,0.1,1.8-0.2,2.7-0.5L333.8,443.2z"/>
	<path d="M374.1,475.3c-0.9,0-1.6,0-2.3-0.7c-0.4-0.4-0.6-0.8-0.7-1.3l-1.9,1c-4.2,2.4-7.7,2.6-12.2,2.5c-7.2-0.1-16-1.4-16-9.9
		c0-6.9,11.2-9.5,15.7-9.9l11.7-1l-0.1-1.7c-0.2-3.2-3.4-4.4-7.3-4.3c-5.1,0-9.5,1.1-15.2,3.2l-2.5,0.9l3.2-9.2
		c0.7,0.1,1.3,0.2,2,0.2c4.7,0.1,9.3-1.9,15.2-1.8c10,0.3,14.6,4.7,14.6,12v11.3c0,2,0.2,3.4,1.2,5.2c0.8,1.5,1.7,2.5,3.2,3.4H374.1
		z M366,462.3c-6.8,0-14.6,1.3-14.1,5.2c0.4,3.1,3.3,3.2,5.8,3.4c4.8,0.3,10.7-1.7,11-6.7l0.2-2H366z"/>
	<path d="M436.9,475.3c0.6-0.8,1-1.4,1.4-2.3c0.6-1.4,0.8-2.4,0.8-3.9v-11.3c0-4.1-1.6-7.5-7.4-7.5c-4.8-0.1-8.2,3.1-8.2,7.4V468
		c0,2.3,0.7,4.3,1.9,5.8c0.5,0.6,0.8,1,1.4,1.5h-15.6c0.7-0.8,1-1.4,1.5-2.3c0.6-1.2,1.3-3.1,1.3-5.1v-10.8c0-3.3-2.2-7-7.6-7
		c-4.1,0-7.9,3.3-7.9,6.9v12.1c0,1.6,0.5,2.9,1.2,4.1c0.5,0.8,0.9,1.3,1.6,2H386c0.8-0.8,1.2-1.3,1.7-2.4c0.3-0.6,1-2.2,1-3.6v-17.6
		c0-2.2-0.5-3.7-1.7-5.5c-0.5-0.6-0.8-1.1-1.4-1.6h9.9c0.4,0,0.7-0.1,1.1-0.2c0.3-0.1,0.6-0.2,0.9-0.4v3c3-1.5,7.4-3.6,12.3-3.5
		c5.5,0.1,9.4,2.4,11.3,4.4c1.6-1.3,8.4-4.9,14.3-4.8c8.3,0.2,13.9,5,13.9,12.2v13.5c0,1.9,0.4,3.1,1.4,4.7c0.5,0.8,1.1,1.2,1.7,1.9
		H436.9z"/>
	<path d="M521.8,450.4c-0.4,0.7-0.6,1.5-0.6,2.4v21c-1.4-0.3-2-0.6-3.7-0.5c-3.9,0.2-10.5,2.4-17.3,2.8
		c-16.5,0.7-27.5-8.5-27.2-22.3c0.4-16.5,13-23.4,28.2-23.3c6.1,0.1,11.3,1.6,15.2,1.4c1.3-0.1,2.2-0.2,3.5-0.4l-3.5,11.3
		c-4.2-2.7-10.9-4.3-14.7-4.3c-12.2,0.1-16.6,6.6-16.9,15.8c-0.2,10.2,6.6,14.3,14.5,14.1c5.7-0.2,11.6-2,11.5-7.3V457h-9.2
		c-1.1,0-3.2,0.2-4.3,0.7c-0.7,0.3-1.2,0.5-1.9,0.9l1.9-6.7c0.3-1,0.7-1.8,1.6-2.3c0.7-0.4,1.3-0.4,2.2-0.4h21.7
		C522.4,449.5,522,450.1,521.8,450.4z"/>
	<path d="M555.1,453.3c-4.2-3.2-9.6-2.7-11.4-1.7c-3,1.6-4.6,4.3-4.6,7.5v7.9c0,2.3,0.2,3.9,1.5,5.8c0.7,1.1,1.5,1.5,2.4,2.4h-17.2
		c1.1-0.6,1.7-1.3,2.4-2.3c0.6-1,1-2.5,1-4.2v-17.2c0-2-0.2-3.4-1.4-5.1c-0.5-0.8-1.1-1.3-1.9-1.9h10.4c0.3,0,0.6-0.2,1-0.3
		c0.3-0.2,0.4-0.4,0.6-0.5v3.5c3.4-2.5,6.1-3.6,10.4-3.8c2.8-0.1,4.8,1.1,7.5,1.1c0.8,0.1,1.3,0.1,2.1,0.1L555.1,453.3z"/>
	<path d="M580.9,476.1c-15.1-0.1-19.9-6.5-19.9-16.5c0.1-10.4,9.6-16.2,20.8-15.8c12.9,0.4,18.3,6.4,18.6,15.6
		C600.8,468.3,594.2,476.1,580.9,476.1z M580.9,450c-6.7,0-9.8,4.5-9.6,10.5c0.2,6.7,3.6,9.4,9.8,9.4c6.2,0,9.2-4.7,9.1-10
		C590,454.7,588,450,580.9,450z"/>
	<path d="M638.2,475.3c-0.3,0-1.8,0.1-2.4-0.7c-0.2-0.2-0.7-0.5-0.9-1.1l-0.3-0.9c-3.9,2.4-9.2,3.8-13,3.6
		c-7.3-0.3-14.7-2.6-14.7-12v-11.4c0-2.4-0.6-4-1.7-6.1c-0.5-0.8-0.8-1.3-1.5-2.1h13.6c-0.3,0.3-0.4,0.6-0.6,1
		c-0.3,0.5-0.4,1.1-0.4,1.7v14c0,6.4,3.4,8.3,7.8,8.3c4.7-0.1,8.6-2.9,8.6-8.5V455c0-1.5,0.2-6.1-2-8.6c-0.7-0.8-1.3-1.2-2.2-1.7
		h15.1c-0.2,0.3-0.4,0.5-0.5,0.8c-0.3,0.5-0.4,1-0.4,1.5v20.7c0,2.1,0.3,3.4,1.4,5.2c0.6,1,1.5,1.7,2.3,2.3H638.2z"/>
	<path d="M671.8,475.7c-3.9,0.1-6.9-0.6-9.8-2.4v2.4c0,1.7,0.2,4.1,1.5,6.1c0.8,1.2,1.6,1.9,2.7,2.5h-16.9c0.8-0.8,1.3-1.4,1.8-2.4
		c0.5-1,1-2.3,1-3.8v-27.3c0-1.9-0.6-2.8-1.6-4.2c-0.5-0.8-1.1-1.3-1.9-2h8.3c1,0,1.8,0.2,2.4,1c0.5,0.5,0.5,0.8,0.8,1.4
		c4-3.1,7.5-3.8,12.6-3.9c12-0.2,17.1,6.2,17.6,15.2C691,468.3,685,475.2,671.8,475.7z M671.1,449.8c-6.6-0.2-9.8,5-9.4,10.5
		c0.3,5.1,2.7,9.2,9.4,9.3c5.9,0.1,9.3-5.5,8.8-10.8C679.5,453.9,677.9,449.9,671.1,449.8z"/>
</g>
<image style="overflow:visible;" width="546" height="142" xlink:href="915F5F65.jpg"  transform="matrix(1 0 0 1 -7739 -7501.7002)">
</image>
</svg>
