<?xml version="1.0" encoding="utf-8"?>
<!-- Generator: Adobe Illustrator 19.0.0, SVG Export Plug-In . SVG Version: 6.00 Build 0)  -->
<svg version="1.1" id="Layer_1" xmlns="http://www.w3.org/2000/svg" xmlns:xlink="http://www.w3.org/1999/xlink" x="0px" y="0px"
	 viewBox="-179 181 720 720" style="enable-background:new -179 181 720 720;" xml:space="preserve">
<style type="text/css">
	.st0{fill:#289611;}
	.st1{fill:#00822D;}
	.st2{fill:#FFFFFF;}
	.st3{fill:#F9EC23;}
	.st4{fill:#4FB148;}
	.st5{font-family:'Arial-BoldItalicMT';}
	.st6{font-size:237.1574px;}
</style>
<g>
	<path id="XMLID_3_" class="st0" d="M467.2,357.8v217.7c0,27-23.1,48.9-51.6,48.9H-61.5c-1.6,0-3.2-0.1-4.6-0.2v-315
		c1.5-0.1,3.1-0.2,4.6-0.2h477.1C444.1,308.9,467.2,330.8,467.2,357.8z"/>
	<path id="XMLID_2_" class="st1" d="M380.6,229.4v58.2l-298.3,7.8c97.9-25.3,269.1-69.4,280.5-72.7c2.6-0.7,5-1.1,7.3-1.1
		c3.2,0,6,0.7,7.9,2.1C379.1,224.5,380.6,225.9,380.6,229.4z"/>
	<path id="XMLID_1_" class="st1" d="M417.7,208c0,16.5,0,77.9,0,77.9l-23.2,0.6v-57c0-6.6-2.8-12.3-7.8-16.1
		c-6.5-4.9-15.8-6-25.5-3.2c-13.4,3.9-301.9,78.8-304.7,79.6l-23.6,6.1l-82.1,2.2c0,0,410.7-107.3,432.2-112.9
		C401.2,180.3,417.7,191.5,417.7,208z"/>
	<path id="XMLID_248_" class="st2" d="M417.7,498.6c-13.8,0-25.2-10.9-25.8-24.7c-0.2-7,2.1-13.6,6.7-18.6c4.6-5.1,11-8.1,18-8.4
		c7-0.4,13.6,2.1,18.6,6.7c5.1,4.6,8.1,11,8.4,18l0,0c0.2,7-2.1,13.6-6.7,18.6c-4.6,5.1-11,8.1-18,8.4
		C418.5,498.6,418.1,498.6,417.7,498.6z M417.7,461.8c-0.1,0-0.4,0-0.5,0c-2.9,0.1-5.5,1.3-7.5,3.5c-2,2.1-2.9,4.9-2.8,7.8
		c0.2,6,5.4,10.6,11.2,10.4c2.9-0.1,5.5-1.3,7.5-3.5c2-2.1,2.9-4.9,2.8-7.8l0,0c-0.1-2.9-1.3-5.5-3.5-7.5
		C423,462.8,420.4,461.8,417.7,461.8z"/>
	<path id="XMLID_130_" class="st3" d="M245.7,357.3c-25.2,0-105.1,0-105.1,0l-10.6,51.9H85.7L77.5,448H122l-2.7,13.1H75.6l-8.2,38.7
		h43.9l-18,88.1h47.1l17.6-87.9c100.3,6.8,135.5-21.6,142.3-75.5C306.3,376.4,271,357.3,245.7,357.3z M253.7,428.4
		c-2.8,16.7-11.4,36.8-87.5,31.9l2.3-12.3l7.2-38.7l2.4-13.1c0,0,31.9,0,53.8,0C253.7,396.1,255.9,416,253.7,428.4z"/>
</g>
<text id="XMLID_138_" transform="matrix(1 0 0 1 5.522 893.668)" class="st4 st5 st6">ursa</text>
<path id="XMLID_89_" class="st3" d="M-8.4,674.1c-23.7,0-98.9,0-98.9,0l-10,48.8h-41.6l-7.7,36.5h41.8l-2.6,12.3h-40.9l-7.7,36.4
	h41.3l-16.9,82.9h44.2l16.5-82.6C3.5,814.9,36.7,788.1,43,737.3C48.6,691.9,15.3,674.1-8.4,674.1z M-0.9,741
	c-2.7,15.6-10.8,34.6-82.4,30.1l2.2-11.6l6.7-36.4l2.3-12.3c0,0,29.9,0,50.6,0S1.2,729.2-0.9,741z"/>
</svg>
