<?xml version="1.0" encoding="utf-8"?>
<!-- Generator: Adobe Illustrator 19.0.0, SVG Export Plug-In . SVG Version: 6.00 Build 0)  -->
<svg version="1.1" id="Layer_1" xmlns="http://www.w3.org/2000/svg" xmlns:xlink="http://www.w3.org/1999/xlink" x="0px" y="0px"
	 viewBox="-333 193.1 292.5 175.9" style="enable-background:new -333 193.1 292.5 175.9;" xml:space="preserve">
<style type="text/css">
	.st0{fill:#E8153E;}
	.st1{fill:#FCDF12;}
	.st2{opacity:0.31;fill:#0E5906;enable-background:new    ;}
	.st3{fill:#FFFFFF;}
</style>
<path id="XMLID_55_" class="st0" d="M-52.4,369h-267.5c-5.9,0-10.7-4.7-10.7-10.7l0,0V206c0-5.9,4.7-10.7,10.7-10.7l0,0h267.5
	c5.9,0,10.7,4.7,10.7,10.7l0,0v152.4C-41.7,364.2-46.4,369-52.4,369L-52.4,369z"/>
<g id="XMLID_45_" transform="translate(426.518 199.16)">
	<path id="XMLID_54_" class="st1" d="M-729.3,46.1v9.3h9.3v-5.7h24.3v5.7h9.3v-9.3H-729.3z"/>
	<rect id="XMLID_53_" x="-729.3" y="59" class="st1" width="9.3" height="9.3"/>
	<rect id="XMLID_52_" x="-695.6" y="59" class="st1" width="9.3" height="9.3"/>
	<path id="XMLID_51_" class="st1" d="M-695.6,77.6h-24.3v-5h-9.3v9.3h42.9v-9.3h-9.3V77.6L-695.6,77.6z"/>
	<path id="XMLID_50_" class="st1" d="M-698.5,68.3V52.6H-717v22.1h18.6V68.3z"/>
</g>
<circle id="XMLID_44_" class="st2" cx="-173.3" cy="286.8" r="55.3"/>
<g id="XMLID_17_" transform="translate(424.111 256.655)">
	<path id="XMLID_43_" class="st3" d="M-724.4,36.6v13.1h-1.3V37.8h-3.1v-1.2H-724.4z"/>
	<path id="XMLID_42_" class="st3" d="M-712.4,48.5v1.2h-9.2v-1l5.4-5.3c0.6-0.5,1-1.1,1.3-1.7c0.2-0.5,0.3-1,0.3-1.5
		c0-0.7-0.2-1.3-0.7-1.7c-0.7-0.5-1.5-0.7-2.3-0.7c-1.3-0.1-2.7,0.5-3.6,1.4l-0.9-0.7c0.5-0.6,1.2-1.1,1.9-1.3
		c0.8-0.3,1.7-0.5,2.7-0.5c1.2-0.1,2.2,0.2,3.2,0.9c0.7,0.7,1.2,1.6,1.2,2.6c0,0.7-0.2,1.3-0.4,1.9c-0.4,0.8-1,1.6-1.7,2.2l-4.4,4.3
		H-712.4z"/>
	<path id="XMLID_41_" class="st3" d="M-703.2,43.3c0.7,0.7,1.1,1.6,1.1,2.6c0,0.7-0.2,1.4-0.6,2s-0.9,1.1-1.6,1.3
		c-0.8,0.3-1.7,0.5-2.6,0.5s-1.8-0.2-2.7-0.4c-0.7-0.2-1.4-0.7-2-1.2l0.7-1.1c0.5,0.5,1.1,0.8,1.7,1.1c0.7,0.2,1.5,0.4,2.3,0.4
		c0.9,0.1,1.7-0.2,2.5-0.7c0.6-0.5,0.9-1.2,0.8-1.9c0-0.7-0.3-1.4-0.8-1.9c-0.7-0.5-1.7-0.7-2.7-0.7h-0.9v-1l3.6-4.5h-6.7v-1.2h8.4
		v0.9l-3.7,4.7C-705.2,42.2-704.1,42.6-703.2,43.3z"/>
	<path id="XMLID_39_" class="st3" d="M-689.2,46.2h-2.6v3.5h-1.3v-3.4h-7.4v-1l6.9-8.7h1.5l-6.7,8.4h5.7v-3h1.3v3h2.6V46.2
		L-689.2,46.2z"/>
	<path id="XMLID_38_" class="st3" d="M-670.7,43c0.8,0.7,1.3,1.7,1.2,2.8c0,0.7-0.2,1.4-0.5,2c-0.4,0.6-0.9,1.1-1.6,1.4
		c-0.8,0.3-1.7,0.5-2.6,0.5s-1.8-0.2-2.7-0.4c-0.7-0.2-1.4-0.7-2-1.2l0.7-1.1c0.5,0.5,1.1,0.8,1.7,1.1c0.7,0.2,1.5,0.4,2.3,0.4
		c0.9,0.1,1.7-0.2,2.5-0.7c0.6-0.5,0.9-1.2,0.8-1.9c0-0.8-0.3-1.6-1-2c-1-0.6-2.2-0.8-3.3-0.7h-2.8l0.7-6.5h7.2v1.2h-6l-0.4,4.2h1.7
		C-673.4,41.9-671.9,42.2-670.7,43z"/>
	<path id="XMLID_37_" class="st3" d="M-660,42.3c0.7,0.3,1.2,0.7,1.6,1.3c0.7,1.2,0.7,2.8,0,4.2c-0.4,0.6-0.9,1.1-1.6,1.4
		c-2.1,1-4.7,0.5-6.2-1.2c-1-1.4-1.5-3.1-1.3-4.8c-0.1-1.2,0.2-2.5,0.7-3.7c0.4-0.9,1.2-1.7,2.1-2.3c1-0.5,2.1-0.8,3.2-0.7
		c1.1-0.1,2.2,0.2,3.1,0.7l-0.6,1.1c-0.7-0.5-1.7-0.7-2.5-0.7c-1.2-0.1-2.5,0.4-3.3,1.3c-0.9,1.2-1.3,2.6-1.2,4c0,0.3,0,0.7,0.1,1.1
		c0.3-0.7,0.9-1.2,1.6-1.7c0.7-0.4,1.6-0.6,2.4-0.6C-661.4,41.8-660.7,42-660,42.3z M-660.1,47.8c0.6-0.5,0.9-1.2,0.8-2.1
		c0-0.7-0.2-1.5-0.8-2.1c-0.7-0.6-1.5-0.8-2.3-0.7c-0.6,0-1.2,0.1-1.7,0.3c-0.5,0.2-0.9,0.6-1.2,1c-0.2,0.4-0.4,0.9-0.4,1.4
		s0.2,1,0.4,1.3c0.2,0.5,0.7,0.8,1.2,1c0.6,0.2,1.2,0.4,1.8,0.3C-661.5,48.6-660.7,48.4-660.1,47.8z"/>
	<path id="XMLID_30_" class="st3" d="M-647.3,36.6v0.9l-5.4,12.1h-1.4l5.3-11.8h-6.7v2.4h-1.2v-3.7L-647.3,36.6L-647.3,36.6
		L-647.3,36.6z"/>
	<path id="XMLID_26_" class="st3" d="M-636.6,44.1c0.8,1.2,0.8,2.8,0,4c-0.4,0.6-1.1,1.1-1.7,1.2c-0.8,0.3-1.8,0.4-2.7,0.4
		c-1.3,0.1-2.6-0.2-3.7-1c-0.8-0.7-1.4-1.7-1.3-2.7c0-0.7,0.2-1.4,0.7-2c0.5-0.6,1.2-1,1.8-1.2c-0.6-0.2-1.1-0.7-1.5-1.2
		c-0.3-0.5-0.5-1.1-0.5-1.7c0-1,0.4-1.9,1.2-2.5c1-0.7,2.1-1,3.2-0.9c0.8,0,1.7,0.2,2.4,0.4c0.7,0.2,1.2,0.7,1.6,1.2
		c0.3,0.5,0.6,1.2,0.6,1.7c0,0.6-0.2,1.2-0.6,1.7s-0.9,0.9-1.6,1.2C-637.9,43-637.1,43.4-636.6,44.1z M-638.3,47.9
		c1.1-0.7,1.3-2.2,0.6-3.3c-0.2-0.2-0.3-0.4-0.6-0.6c-0.8-0.5-1.7-0.7-2.7-0.7c-1-0.1-1.9,0.2-2.7,0.7c-0.7,0.4-1,1.2-1,1.9
		s0.3,1.5,1,1.9c0.8,0.5,1.7,0.7,2.7,0.7C-640.1,48.7-639.1,48.5-638.3,47.9L-638.3,47.9z M-643.3,41.7c1.5,0.8,3.2,0.8,4.7,0
		c0.9-0.7,1.2-2.1,0.4-3c-0.1-0.2-0.2-0.3-0.4-0.4c-1.5-0.8-3.2-0.8-4.7,0c-0.9,0.7-1.2,2.1-0.4,3
		C-643.6,41.4-643.5,41.6-643.3,41.7z"/>
	<path id="XMLID_25_" class="st3" d="M-616.3,38.2c1,1.4,1.5,3.1,1.3,4.8c0.1,1.2-0.2,2.5-0.7,3.7c-0.4,0.9-1.2,1.7-2.1,2.3
		c-1,0.5-2.1,0.8-3.2,0.7c-1.1,0.1-2.2-0.2-3.1-0.7l0.6-1.1c0.7,0.5,1.7,0.7,2.5,0.7c1.2,0.1,2.5-0.4,3.3-1.3c0.9-1.2,1.3-2.6,1.2-4
		c0-0.3,0-0.7-0.1-1.1c-0.3,0.7-0.9,1.2-1.6,1.7c-0.7,0.4-1.6,0.6-2.4,0.6s-1.6-0.2-2.3-0.5c-0.7-0.3-1.2-0.7-1.6-1.3
		c-0.7-1.2-0.7-2.8,0-4.2c0.4-0.6,0.9-1.1,1.6-1.4c0.7-0.3,1.5-0.5,2.3-0.5C-618.8,36.4-617.3,37.1-616.3,38.2z M-618.3,42.9
		c0.5-0.2,0.9-0.6,1.2-1c0.2-0.4,0.4-0.9,0.4-1.4s-0.2-1-0.4-1.3c-0.2-0.5-0.7-0.8-1.2-1c-0.6-0.2-1.2-0.4-1.8-0.3
		c-0.8,0-1.7,0.2-2.3,0.7c-0.6,0.5-0.9,1.2-0.8,2.1c0,0.7,0.2,1.5,0.8,2.1c0.7,0.6,1.5,0.8,2.3,0.7
		C-619.5,43.3-618.9,43.2-618.3,42.9z"/>
	<path id="XMLID_24_" class="st3" d="M-610.5,49c-0.8-0.6-1.5-1.3-1.8-2.3c-0.8-2.2-0.8-4.7,0-7c1-2.5,3.8-3.7,6.4-2.7
		c1.2,0.5,2.2,1.5,2.7,2.7c0.8,2.2,0.8,4.7,0,7c-0.7,1.9-2.6,3.1-4.6,3.1C-608.8,49.8-609.7,49.5-610.5,49z M-605.9,47.9
		c0.6-0.5,1.1-1.2,1.3-1.8c0.7-1.9,0.7-4,0-5.8c-0.2-0.7-0.7-1.3-1.3-1.8c-1.2-0.8-2.8-0.8-4,0c-0.6,0.5-1.1,1.2-1.3,1.8
		c-0.7,1.9-0.7,4,0,5.8c0.2,0.7,0.7,1.3,1.3,1.8C-608.7,48.7-607,48.7-605.9,47.9z"/>
	<path id="XMLID_23_" class="st3" d="M-597.1,36.6v13.1h-1.3V37.8h-3.1v-1.2H-597.1z"/>
	<path id="XMLID_22_" class="st3" d="M-585.1,48.5v1.2h-9.2v-1l5.4-5.3c0.6-0.5,1-1.1,1.3-1.7c0.2-0.5,0.3-1,0.3-1.5
		c0-0.7-0.2-1.3-0.7-1.7c-0.7-0.5-1.5-0.7-2.3-0.7c-1.3-0.1-2.7,0.5-3.6,1.4l-0.9-0.7c0.5-0.6,1.2-1.1,1.9-1.3
		c0.8-0.3,1.7-0.5,2.7-0.5c1.2-0.1,2.2,0.2,3.2,0.9c0.7,0.7,1.2,1.6,1.2,2.6c0,0.7-0.2,1.3-0.4,1.9c-0.4,0.8-1,1.6-1.7,2.2l-4.4,4.3
		H-585.1z"/>
	<path id="XMLID_21_" class="st3" d="M-566.2,43.3c0.7,0.7,1.1,1.6,1.1,2.6c0,0.7-0.2,1.4-0.6,2s-0.9,1.1-1.6,1.3
		c-0.8,0.3-1.7,0.5-2.6,0.5c-0.9,0-1.8-0.2-2.7-0.4c-0.7-0.2-1.4-0.7-2-1.2l0.7-1.1c0.5,0.5,1.1,0.8,1.7,1.1
		c0.7,0.2,1.5,0.4,2.3,0.4c0.9,0.1,1.7-0.2,2.5-0.7c0.6-0.5,0.9-1.2,0.8-1.9c0-0.7-0.3-1.4-0.8-1.9c-0.7-0.5-1.7-0.7-2.7-0.7h-1v-1
		l3.6-4.5h-6.7v-1.2h8.4v0.9l-3.7,4.7C-568.2,42.2-567.1,42.6-566.2,43.3z"/>
	<path id="XMLID_20_" class="st3" d="M-552.1,46.2h-2.6v3.5h-1.3v-3.4h-7.4v-1l6.9-8.7h1.5l-6.7,8.4h5.7v-3h1.3v3h2.6L-552.1,46.2
		L-552.1,46.2z"/>
	<path id="XMLID_19_" class="st3" d="M-543.4,43c0.8,0.7,1.3,1.7,1.2,2.8c0,0.7-0.2,1.4-0.5,2c-0.4,0.6-0.9,1.1-1.6,1.4
		c-0.8,0.3-1.7,0.5-2.6,0.5c-0.9,0-1.8-0.2-2.7-0.4c-0.7-0.2-1.4-0.7-2-1.2l0.7-1.1c0.5,0.5,1.1,0.8,1.7,1.1
		c0.7,0.2,1.5,0.4,2.3,0.4c0.9,0.1,1.7-0.2,2.5-0.7c0.6-0.5,0.9-1.2,0.8-1.9c0-0.8-0.3-1.6-1-2c-1-0.6-2.2-0.8-3.3-0.7h-2.8l0.7-6.5
		h7.2v1.2h-5.9l-0.4,4.2h1.7C-546.1,41.9-544.7,42.2-543.4,43z"/>
	<path id="XMLID_18_" class="st3" d="M-532.8,42.3c0.7,0.3,1.2,0.7,1.6,1.3c0.7,1.2,0.7,2.8,0,4.2c-0.4,0.6-0.9,1.1-1.6,1.4
		c-2.1,1-4.7,0.5-6.2-1.2c-1-1.4-1.5-3.1-1.3-4.8c-0.1-1.2,0.2-2.5,0.7-3.7c0.4-0.9,1.2-1.7,2.1-2.3c1-0.5,2.1-0.8,3.2-0.7
		c1.1-0.1,2.2,0.2,3.1,0.7l-0.6,1.1c-0.7-0.5-1.7-0.7-2.5-0.7c-1.2-0.1-2.5,0.4-3.3,1.3c-0.9,1.2-1.3,2.6-1.2,4c0,0.3,0,0.7,0.1,1.1
		c0.3-0.7,0.9-1.2,1.6-1.7c0.7-0.4,1.6-0.6,2.4-0.6C-534.2,41.8-533.5,42-532.8,42.3z M-532.9,47.8c0.6-0.5,0.9-1.2,0.8-2.1
		c0-0.7-0.2-1.5-0.8-2.1c-0.7-0.6-1.5-0.8-2.3-0.7c-0.6,0-1.2,0.1-1.7,0.3c-0.5,0.2-0.9,0.6-1.2,1c-0.2,0.4-0.4,0.9-0.4,1.4
		s0.2,1,0.4,1.3c0.2,0.5,0.7,0.8,1.2,1c0.6,0.2,1.2,0.4,1.8,0.3C-534.3,48.6-533.5,48.4-532.9,47.8z"/>
</g>
<g id="XMLID_4_" transform="translate(425.4 310.455)">
	<path id="XMLID_16_" class="st3" d="M-722.7,27.5V35h-0.7l-4.8-6.1V35h-0.7v-7.5h0.7l4.8,6.1v-6.1H-722.7z"/>
	<path id="XMLID_15_" class="st3" d="M-716.8,29.8c0.4,0.4,0.6,1.1,0.6,1.7V35h-0.7v-0.8c-0.2,0.3-0.5,0.6-0.7,0.7
		c-0.4,0.2-0.8,0.2-1.2,0.2c-0.5,0-1.1-0.1-1.5-0.4c-0.3-0.3-0.6-0.7-0.6-1.2c0-0.4,0.2-0.8,0.5-1.2c0.5-0.3,1.1-0.5,1.7-0.4h1.7
		v-0.4c0-0.4-0.2-0.8-0.4-1.2c-0.3-0.2-0.7-0.4-1.2-0.3c-0.3,0-0.7,0.1-1,0.2s-0.6,0.2-0.8,0.5L-721,30c0.3-0.2,0.7-0.4,1-0.6
		c0.4-0.2,0.8-0.2,1.2-0.2C-718,29.1-717.3,29.4-716.8,29.8z M-717.7,34.1c0.3-0.2,0.6-0.5,0.7-0.8v-1h-1.7c-1,0-1.4,0.3-1.4,1
		c0,0.3,0.2,0.6,0.3,0.7c0.3,0.2,0.7,0.3,1.1,0.2C-718.4,34.4-718,34.3-717.7,34.1L-717.7,34.1z"/>
	<path id="XMLID_14_" class="st3" d="M-705.4,29.9c0.4,0.5,0.7,1.2,0.6,1.7V35h-0.7v-3.2c0-0.5-0.2-1-0.4-1.3
		c-0.3-0.3-0.7-0.4-1.2-0.4s-1,0.2-1.3,0.6c-0.3,0.4-0.6,0.9-0.5,1.5V35h-0.7v-3.2c0-0.5-0.2-1-0.4-1.3c-0.3-0.3-0.7-0.4-1.2-0.4
		s-1,0.2-1.3,0.6c-0.3,0.4-0.6,0.9-0.5,1.5V35h-0.7v-5.7h0.7v1c0.2-0.3,0.5-0.6,0.8-0.7c0.3-0.2,0.8-0.3,1.2-0.2
		c0.4,0,0.8,0.1,1.2,0.2c0.3,0.2,0.6,0.5,0.7,0.8c0.2-0.3,0.6-0.7,0.9-0.8c0.4-0.2,0.9-0.3,1.3-0.2
		C-706.5,29.1-705.9,29.4-705.4,29.9z"/>
	<path id="XMLID_13_" class="st3" d="M-697.9,32.4h-4.7c0.1,0.5,0.2,1,0.7,1.4c0.4,0.4,1,0.6,1.6,0.6c0.3,0,0.7-0.1,0.9-0.2
		c0.3-0.1,0.6-0.3,0.7-0.6l0.4,0.5c-0.2,0.2-0.6,0.5-0.9,0.7c-0.4,0.2-0.8,0.2-1.2,0.2c-0.6,0-1.1-0.2-1.6-0.3
		c-0.4-0.2-0.8-0.6-1.1-1c-0.5-0.9-0.5-2.1,0-3c0.2-0.4,0.6-0.7,1-1s0.9-0.3,1.4-0.3c0.5,0,1,0.2,1.4,0.3c0.4,0.2,0.7,0.6,1,1
		c0.2,0.5,0.3,1,0.3,1.5L-697.9,32.4z M-701.9,30.5c-0.3,0.3-0.6,0.8-0.7,1.3h4c-0.1-0.5-0.2-1-0.7-1.3
		C-700,29.8-701.2,29.8-701.9,30.5L-701.9,30.5z"/>
	<path id="XMLID_12_" class="st3" d="M-693.3,34.8c-0.3-0.1-0.7-0.2-1-0.5l0.3-0.6c0.2,0.2,0.5,0.4,0.8,0.4c0.4,0.1,0.7,0.2,1.2,0.2
		s0.7-0.1,1.2-0.2c0.2-0.2,0.4-0.4,0.3-0.7c0-0.2-0.1-0.3-0.2-0.5s-0.3-0.2-0.5-0.2c-0.2-0.1-0.6-0.2-0.8-0.2
		c-0.3,0-0.7-0.2-1.1-0.2c-0.2-0.1-0.5-0.2-0.7-0.4c-0.2-0.2-0.3-0.6-0.2-0.8c0-0.4,0.2-0.9,0.6-1.2c0.5-0.3,1.1-0.5,1.7-0.4
		c0.3,0,0.7,0.1,1.1,0.2c0.3,0.1,0.7,0.2,0.9,0.3l-0.3,0.7c-0.5-0.3-1.1-0.5-1.7-0.5c-0.4-0.1-0.7,0.1-1.1,0.2
		c-0.2,0.2-0.3,0.4-0.3,0.7c0,0.2,0.1,0.3,0.2,0.5c0.2,0.2,0.3,0.2,0.5,0.2c0.2,0.1,0.6,0.2,0.8,0.2c0.3,0.1,0.7,0.2,1.1,0.2
		c0.2,0.1,0.5,0.2,0.7,0.4c0.2,0.2,0.3,0.6,0.2,0.8c0,0.5-0.2,0.9-0.7,1.2c-0.5,0.3-1.1,0.5-1.7,0.4C-692.5,35-692.9,35-693.3,34.8z
		"/>
	<path id="XMLID_11_" class="st3" d="M-683.1,29.3V35h-0.7v-1c-0.2,0.3-0.5,0.7-0.8,0.7c-0.4,0.2-0.8,0.2-1.2,0.2
		c-0.7,0-1.2-0.2-1.7-0.7c-0.4-0.5-0.7-1.2-0.7-1.7v-3.3h0.7v3.2c0,0.5,0.1,1,0.4,1.3s0.8,0.5,1.2,0.4c1,0.1,1.9-0.7,1.9-1.7
		c0-0.1,0-0.2,0-0.3v-2.9L-683.1,29.3L-683.1,29.3z"/>
	<path id="XMLID_10_" class="st3" d="M-679.5,29.5c0.4-0.2,0.8-0.3,1.2-0.2V30h-0.2c-1-0.1-1.9,0.7-1.9,1.7c0,0.1,0,0.2,0,0.3V35
		h-0.7v-5.7h0.7v1.1C-680.2,30-679.9,29.8-679.5,29.5z"/>
	<path id="XMLID_9_" class="st3" d="M-671.9,32.4h-4.7c0.1,0.5,0.2,1,0.7,1.4c0.4,0.4,1,0.6,1.6,0.6c0.3,0,0.7-0.1,0.9-0.2
		c0.3-0.1,0.6-0.3,0.7-0.6l0.4,0.5c-0.2,0.2-0.6,0.5-0.9,0.7c-0.4,0.2-0.8,0.2-1.2,0.2c-0.6,0-1.1-0.2-1.6-0.3
		c-0.4-0.2-0.8-0.6-1.1-1c-0.5-0.9-0.5-2.1,0-3c0.2-0.4,0.6-0.7,1-1s0.9-0.3,1.4-0.3s1,0.2,1.4,0.3c0.4,0.2,0.7,0.6,1,1
		c0.2,0.5,0.3,1,0.3,1.5L-671.9,32.4z M-676,30.5c-0.3,0.3-0.6,0.8-0.7,1.3h4c-0.1-0.5-0.2-1-0.7-1.3c-0.3-0.3-0.8-0.5-1.3-0.5
		C-675.1,29.9-675.6,30-676,30.5L-676,30.5z"/>
	<path id="XMLID_8_" class="st3" d="M-665.7,29.9c0.4,0.5,0.7,1.2,0.7,1.7V35h-0.7v-3.2c0-0.5-0.2-1-0.4-1.3
		c-0.3-0.3-0.8-0.5-1.2-0.4c-1-0.1-1.9,0.7-1.9,1.7c0,0.1,0,0.2,0,0.3V35h-0.7v-5.7h0.7v1.1c0.2-0.3,0.5-0.7,0.8-0.7
		c0.4-0.2,0.8-0.3,1.2-0.2C-666.8,29.2-666.2,29.4-665.7,29.9z"/>
	<path id="XMLID_7_" class="st3" d="M-659.4,29.8c0.4,0.4,0.6,1.1,0.6,1.7V35h-0.7v-0.8c-0.2,0.3-0.5,0.6-0.7,0.7
		c-0.4,0.2-0.8,0.2-1.2,0.2c-0.5,0-1.1-0.1-1.5-0.4c-0.3-0.3-0.6-0.7-0.6-1.2c0-0.4,0.2-0.8,0.5-1.2c0.5-0.3,1.1-0.5,1.7-0.4h1.7
		v-0.4c0-0.4-0.2-0.8-0.4-1.2c-0.3-0.2-0.7-0.4-1.2-0.3c-0.3,0-0.7,0.1-1,0.2s-0.6,0.2-0.8,0.5l-0.3-0.6c0.3-0.2,0.7-0.4,1-0.6
		c0.4-0.2,0.8-0.2,1.2-0.2C-660.6,29.2-659.9,29.4-659.4,29.8z M-660.2,34.1c0.3-0.2,0.6-0.5,0.7-0.8v-1h-1.7c-1,0-1.4,0.3-1.4,1
		c0,0.3,0.2,0.6,0.3,0.7c0.3,0.2,0.7,0.3,1.1,0.2C-661,34.4-660.6,34.3-660.2,34.1L-660.2,34.1z"/>
	<path id="XMLID_6_" class="st3" d="M-648,29.9c0.4,0.5,0.7,1.2,0.6,1.7V35h-0.7v-3.2c0-0.5-0.2-1-0.4-1.3c-0.3-0.3-0.7-0.4-1.2-0.4
		s-1,0.2-1.3,0.6c-0.3,0.4-0.6,0.9-0.5,1.5V35h-0.7v-3.2c0-0.5-0.2-1-0.4-1.3c-0.3-0.3-0.7-0.4-1.2-0.4s-1,0.2-1.3,0.6
		c-0.3,0.4-0.6,0.9-0.5,1.5V35h-0.7v-5.7h0.7v1c0.2-0.3,0.5-0.6,0.8-0.7c0.3-0.2,0.8-0.3,1.2-0.2c0.4,0,0.8,0.1,1.2,0.2
		c0.3,0.2,0.6,0.5,0.7,0.8c0.2-0.3,0.6-0.7,0.9-0.8c0.4-0.2,0.9-0.3,1.3-0.2C-649.1,29.2-648.5,29.4-648,29.9z"/>
	<path id="XMLID_5_" class="st3" d="M-640.4,32.4h-4.7c0.1,0.5,0.2,1,0.7,1.4c0.4,0.4,1,0.6,1.6,0.6c0.3,0,0.7-0.1,0.9-0.2
		c0.3-0.1,0.6-0.3,0.7-0.6l0.4,0.5c-0.2,0.2-0.6,0.5-0.9,0.7c-0.4,0.2-0.8,0.2-1.2,0.2c-0.6,0-1.1-0.2-1.6-0.3
		c-0.4-0.2-0.8-0.6-1.1-1c-0.5-0.9-0.5-2.1,0-3c0.2-0.4,0.6-0.7,1-1s0.9-0.3,1.4-0.3c0.5,0,1,0.2,1.4,0.3c0.4,0.2,0.7,0.6,1,1
		c0.2,0.5,0.3,1,0.3,1.5L-640.4,32.4z M-644.5,30.5c-0.3,0.3-0.6,0.8-0.7,1.3h4c-0.1-0.5-0.2-1-0.7-1.3c-0.3-0.3-0.8-0.5-1.3-0.5
		C-643.7,29.9-644.2,30-644.5,30.5L-644.5,30.5z"/>
</g>
<g id="Group_4_1_">
	<g id="Layer_2_1_" transform="translate(405.965 1800.434)">
		<path class="st3" d="M-527.4-1465.6l-3.7,9.6c0,0-0.5-2.3-1.1-4.5c0.1,0.1,0.2,0.1,0.2,0.1c-0.1-1.3-0.8-3.5-0.7-4.1
			c-0.4-1.3-0.4-1.8-8-1.2c0.2,0.1,0.7,0.4,1.4,0.9c-0.8-0.4-1.3-0.6-1.5-0.7l1.9,0.9c0.5,0.3,1.1,0.7,1.7,1.1l3.6,12.3h4l6.5-14.4
			H-527.4z"/>
		<path id="XMLID_33_2_1_" class="st3" d="M-517.3-1465.9l-2.6,14.5h-4l2.5-14.5H-517.3z"/>
		<path id="XMLID_32_2_1_" class="st3" d="M-509.7-1460.1c2,0.9,4,2.6,3.1,5c-1,2.6-3.8,4.2-6.6,3.7c-1.6,0-3.1-0.4-4.6-0.9l0.9-3.1
			c1.3,0.9,3,1.3,4.6,0.9c2.8-0.8,1.2-2.3,0.2-2.6c-0.9-0.2-4.7-1.7-4.2-4.8c0.6-3.1,4.4-5,10-3.6l-0.4,3.1c0,0-3.6-1-4.8-0.4
			C-512.6-1462.2-511.7-1460.8-509.7-1460.1z"/>
		<path id="XMLID_3_" class="st3" d="M-495.9-1465.9c0,0-4.2-0.6-4.6,0.2c-0.1,0.2-6.5,14.3-6.5,14.3h3.9l1-2.3h5l0.4,2.3h3.8
			L-495.9-1465.9z M-500.6-1456.4l2-5.1l1.3,5.1H-500.6z"/>
		<path id="XMLID_2_" class="st3" d="M-497.2-1456.4h-3.2l2-5.1L-497.2-1456.4z"/>
		<path id="XMLID_1_" class="st0" d="M-497.2-1456.4h-3.2l2-5.1L-497.2-1456.4z"/>
	</g>
</g>
</svg>
