<?xml version="1.0" encoding="utf-8"?>
<!-- Generator: Adobe Illustrator 19.0.0, SVG Export Plug-In . SVG Version: 6.00 Build 0)  -->
<svg version="1.1" id="Layer_1" xmlns="http://www.w3.org/2000/svg" xmlns:xlink="http://www.w3.org/1999/xlink" x="0px" y="0px"
	 viewBox="0 0 222 241" style="enable-background:new 0 0 222 241;" xml:space="preserve">
<style type="text/css">
	.st0{fill:#D71A0B;}
	.st1{fill:#FFFFFF;}
</style>
<path class="st0" d="M200.5,241h-179C9.6,241,0,231.4,0,219.5v-198C0,9.6,9.6,0,21.5,0h179C212.4,0,222,9.6,222,21.5v198
	C222,231.4,212.4,241,200.5,241z"/>
<path class="st1" d="M81.7,54.5l-21.8,102c0,0,12.8,0,35.3,0s32.3-16.8,21.5-34.7S81.7,54.5,81.7,54.5z"/>
<path class="st1" d="M140.3,132.5l21.8-102c0,0-12.8,0-35.3,0s-32.3,16.8-21.5,34.7S140.3,132.5,140.3,132.5z"/>
<g>
	<path class="st1" d="M66.8,185.3l-4.7,20.5c-0.3,1.3-0.5,2.8-0.5,4.3c0.1,3.6,2.6,5.8,7,5.8c5.2,0,8.8-2.9,10.5-10l4.7-20.5h7.4
		l-4.7,20.4C84,216.3,78.1,221,67.7,221c-8,0-13.4-3.4-13.4-10.8c0-1.5,0.3-3.2,0.6-4.8l4.6-20H66.8z"/>
	<path class="st1" d="M99.8,185.9c2.8-0.5,6.4-0.8,10.2-0.8c4.4,0,7.6,0.6,10.2,2.1c2.5,1.2,4.1,3.3,4.1,6c0,4.4-4.2,7.4-8.8,8.5
		v0.2c4,1,6.8,3.7,6.8,7.7c0,3.7-2.4,6.5-5.5,8.2c-3.5,2.1-8.6,2.9-15,2.9c-4.3,0-7.8-0.2-9.8-0.5L99.8,185.9z M100.1,215.7
		c1.2,0.1,2.5,0.2,3.9,0.2c5.5,0,10.5-1.8,10.5-6.5c0-3.7-3.8-5.2-8.3-5.2h-3.5L100.1,215.7z M103.9,199.7h3.4
		c5.5,0,9.5-2.1,9.5-5.7c0-2.9-2.7-4.1-6.8-4.1c-1.7,0-3.2,0.1-3.9,0.3L103.9,199.7z"/>
	<path class="st1" d="M137.1,210.4l-5.8,10h-7.8l21.3-35.1h9.2l5.4,35.1h-7.7l-1.2-10H137.1z M150,205.8l-1.2-8.7
		c-0.2-1.9-0.4-4.6-0.6-6.7H148c-1.1,2.1-2.3,4.6-3.5,6.7l-5.2,8.7H150z"/>
</g>
</svg>
