<svg xmlns="http://www.w3.org/2000/svg" viewBox="0 0 649.716 400.68">
  <defs>
    <style>
      .cls-1 {
        fill: #1c7cea;
      }

      .cls-2 {
        fill: #ffed0d;
      }

      .cls-3, .cls-7 {
        fill: none;
      }

      .cls-3 {
        stroke: #937805;
        stroke-miterlimit: 10;
      }

      .cls-4 {
        fill: #fff;
      }

      .cls-5 {
        fill: #ffce00;
      }

      .cls-6 {
        fill: #1e377c;
      }

      .cls-8 {
        fill: #c8c9c7;
      }

      .cls-9 {
        fill: #ea521c;
      }

      .cls-10 {
        fill: #52a800;
      }
    </style>
  </defs>
  <g id="Groupe_43" data-name="Groupe 43" transform="translate(-296.5 -2830)">
    <g id="Groupe_41" data-name="Groupe 41" transform="translate(524 2830)">
      <path id="XMLID_228_" class="cls-1" d="M401.8,267.68H20.421A20.493,20.493,0,0,1,0,247.259V20.421A20.493,20.493,0,0,1,20.421,0H401.8a20.493,20.493,0,0,1,20.421,20.421V247.443A20.576,20.576,0,0,1,401.8,267.68Z"/>
      <path id="XMLID_227_" class="cls-2" d="M57.175,101.749H33.258A11.934,11.934,0,0,1,21.3,89.791V66.058A11.934,11.934,0,0,1,33.258,54.1H56.991A11.934,11.934,0,0,1,68.949,66.058V89.791A11.9,11.9,0,0,1,57.175,101.749Z" transform="translate(17.886 45.429)"/>
      <line id="XMLID_226_" class="cls-3" y2="45.993" transform="translate(54.272 100.265)"/>
      <line id="XMLID_225_" class="cls-3" y2="45.993" transform="translate(70.829 100.265)"/>
      <line id="XMLID_224_" class="cls-3" x2="18.397" transform="translate(69.909 114.063)"/>
      <line id="XMLID_223_" class="cls-3" x2="12.878" transform="translate(40.474 110.383)"/>
      <line id="XMLID_222_" class="cls-3" x2="12.878" transform="translate(40.474 115.903)"/>
      <line id="XMLID_221_" class="cls-3" x2="18.397" transform="translate(69.909 126.941)"/>
      <g id="XMLID_73_" transform="translate(41.578 167.047)">
        <path id="XMLID_219_" class="cls-4" d="M29.775,109.949H27.383V93.944L22.6,95.783V93.576L29.407,91h.368v18.949Z" transform="translate(-22.6 -90.632)"/>
        <path id="XMLID_217_" class="cls-4" d="M42.91,110.117H30.584v-1.656l6.623-7.359a16.884,16.884,0,0,0,2.024-2.76,4.9,4.9,0,0,0,.552-2.208,3.514,3.514,0,0,0-6.071-2.208,3.613,3.613,0,0,0-.92,2.76H30.4a5.828,5.828,0,0,1,1.656-4.231A5.967,5.967,0,0,1,36.471,90.8,6.208,6.208,0,0,1,40.7,92.272a4.486,4.486,0,0,1,1.472,3.679c0,1.84-1.1,4.047-3.5,6.623l-5.151,5.519h9.567v2.024Z" transform="translate(-16.05 -90.8)"/>
        <path id="XMLID_215_" class="cls-4" d="M42.379,99.363h1.84a4.519,4.519,0,0,0,2.76-.92,2.627,2.627,0,0,0,.92-2.392q0-3.311-3.312-3.312a3.988,3.988,0,0,0-2.576.92,3.5,3.5,0,0,0-.92,2.392H38.7a4.632,4.632,0,0,1,1.656-3.679A6.56,6.56,0,0,1,44.587,90.9a6.208,6.208,0,0,1,4.231,1.472,5.27,5.27,0,0,1,1.472,3.863,4.047,4.047,0,0,1-.736,2.392,5.023,5.023,0,0,1-2.208,1.656,4.672,4.672,0,0,1,2.392,1.656,4.519,4.519,0,0,1,.92,2.76A5.137,5.137,0,0,1,49,108.745a6.56,6.56,0,0,1-4.231,1.472,7.082,7.082,0,0,1-4.415-1.472,4.752,4.752,0,0,1-1.656-3.863h2.392a3.5,3.5,0,0,0,.92,2.392,3.988,3.988,0,0,0,2.576.92,3.649,3.649,0,0,0,2.576-6.071,4.681,4.681,0,0,0-2.944-.92h-1.84v-1.84Z" transform="translate(-9.08 -90.716)"/>
        <path id="XMLID_212_" class="cls-4" d="M57.638,103.51h2.576v2.024H57.638v4.415H55.247v-4.415H46.6v-1.472L55.063,91h2.576Zm-8.279,0h5.887v-9.2l-.368.552Z" transform="translate(-2.447 -90.632)"/>
        <path id="XMLID_210_" class="cls-4" d="M71.42,100.383,72.34,91H82.09v2.208H74.363l-.552,5.151a6.047,6.047,0,0,1,3.128-.736,5.137,5.137,0,0,1,4.047,1.656,6.315,6.315,0,0,1,1.472,4.6,6.122,6.122,0,0,1-1.656,4.6,5.967,5.967,0,0,1-4.415,1.656,6.061,6.061,0,0,1-4.047-1.472A5.526,5.526,0,0,1,70.5,104.8h2.208a4.159,4.159,0,0,0,1.1,2.392,3.393,3.393,0,0,0,2.392.736,3.087,3.087,0,0,0,2.576-1.1,5.262,5.262,0,0,0,.92-3.128,4.642,4.642,0,0,0-1.1-3.128,3.158,3.158,0,0,0-2.76-1.1,3.122,3.122,0,0,0-2.392.736l-.184.736Z" transform="translate(17.623 -90.632)"/>
        <path id="XMLID_207_" class="cls-4" d="M88,91v2.024h-.368a5.967,5.967,0,0,0-4.415,1.656,6.217,6.217,0,0,0-1.84,4.6,5.137,5.137,0,0,1,4.047-1.656,4.752,4.752,0,0,1,3.863,1.656,6.713,6.713,0,0,1,1.472,4.415,6.122,6.122,0,0,1-1.656,4.6,5.672,5.672,0,0,1-4.231,1.84,5.6,5.6,0,0,1-4.415-2.024,8.394,8.394,0,0,1-1.656-5.335v-.92c0-3.5.736-6.071,2.208-7.911s3.679-2.76,6.623-2.76H88Zm-3.128,8.463a3.212,3.212,0,0,0-2.208.736,4.672,4.672,0,0,0-1.472,1.84v.92a5.838,5.838,0,0,0,1.1,3.679,3.446,3.446,0,0,0,2.576,1.472,3.34,3.34,0,0,0,2.576-1.1,5.777,5.777,0,0,0,0-6.255A3.213,3.213,0,0,0,84.871,99.463Z" transform="translate(24.592 -90.632)"/>
        <path id="XMLID_205_" class="cls-4" d="M99.478,92.288l-7.911,17.477H89.176L96.9,92.84H86.6V91H99.294v1.288Z" transform="translate(31.142 -90.632)"/>
        <path id="XMLID_116_" class="cls-4" d="M106.79,96.135a4.224,4.224,0,0,1-.736,2.576,4.5,4.5,0,0,1-2.024,1.656,5.977,5.977,0,0,1,2.392,1.84,4.519,4.519,0,0,1,.92,2.76,4.752,4.752,0,0,1-1.656,3.863,7.359,7.359,0,0,1-8.831,0,4.752,4.752,0,0,1-1.656-3.863,4.519,4.519,0,0,1,.92-2.76,4.936,4.936,0,0,1,2.392-1.84,4.5,4.5,0,0,1-2.024-1.656,4.224,4.224,0,0,1-.736-2.576,5.27,5.27,0,0,1,1.472-3.863,6.3,6.3,0,0,1,8.095,0A5.27,5.27,0,0,1,106.79,96.135Zm-2.024,8.831a3.988,3.988,0,0,0-.92-2.576,2.988,2.988,0,0,0-2.576-.92,3.639,3.639,0,0,0-2.576.92,3.2,3.2,0,0,0-.92,2.576,3.988,3.988,0,0,0,.92,2.576,2.988,2.988,0,0,0,2.576.92,3.639,3.639,0,0,0,2.576-.92A4.4,4.4,0,0,0,104.767,104.966Zm-3.5-12.142a3.047,3.047,0,0,0-2.208.92,3.178,3.178,0,0,0-.92,2.392,3.875,3.875,0,0,0,.92,2.392,3.178,3.178,0,0,0,2.392.92,3.5,3.5,0,0,0,2.392-.92,3.178,3.178,0,0,0,.92-2.392,3.5,3.5,0,0,0-.92-2.392A4.883,4.883,0,0,0,101.271,92.824Z" transform="translate(38.364 -90.8)"/>
        <path id="XMLID_91_" class="cls-4" d="M127.783,101.654a7.2,7.2,0,0,1-1.84,1.472,4.9,4.9,0,0,1-2.208.552,4.434,4.434,0,0,1-2.76-.736,5.408,5.408,0,0,1-1.84-2.208,8.787,8.787,0,0,1-.736-3.312,7.466,7.466,0,0,1,.736-3.5,5.243,5.243,0,0,1,2.024-2.392,6.233,6.233,0,0,1,7.543,1.288,8.778,8.778,0,0,1,1.656,5.7v.736c0,3.679-.736,6.439-2.208,8.095a8.446,8.446,0,0,1-6.623,2.576h-.552v-2.024h.552a6.885,6.885,0,0,0,4.6-1.472C127.231,105.518,127.783,103.862,127.783,101.654Zm-3.679,0a3.535,3.535,0,0,0,2.208-.736,4.672,4.672,0,0,0,1.472-1.84v-.92a6.036,6.036,0,0,0-1.1-3.863,3.17,3.17,0,0,0-2.576-1.472,2.984,2.984,0,0,0-2.576,1.288,5.777,5.777,0,0,0,0,6.255A3.212,3.212,0,0,0,124.1,101.654Z" transform="translate(57.845 -90.8)"/>
        <path id="XMLID_88_" class="cls-4" d="M138.674,102.022a11.181,11.181,0,0,1-1.472,6.255,5.829,5.829,0,0,1-8.831,0,10.5,10.5,0,0,1-1.472-6.071V99.079a11.621,11.621,0,0,1,1.472-6.255,5.234,5.234,0,0,1,4.6-2.024,5.106,5.106,0,0,1,4.415,2.024,10.5,10.5,0,0,1,1.472,6.071v3.128Zm-2.392-3.312a8.78,8.78,0,0,0-.92-4.415,3.323,3.323,0,0,0-5.519,0,8.494,8.494,0,0,0-.92,4.231v3.863a10.138,10.138,0,0,0,.92,4.6,2.715,2.715,0,0,0,2.76,1.472,2.784,2.784,0,0,0,2.576-1.288,8.779,8.779,0,0,0,.92-4.415V98.711Z" transform="translate(64.983 -90.8)"/>
        <path id="XMLID_86_" class="cls-4" d="M142.675,109.949h-2.392V93.944l-4.783,1.84V93.576L142.307,91h.368v18.949Z" transform="translate(72.205 -90.632)"/>
        <path id="XMLID_84_" class="cls-4" d="M155.81,110.117H143.484v-1.656l6.623-7.359a16.885,16.885,0,0,0,2.024-2.76,4.9,4.9,0,0,0,.552-2.208,3.514,3.514,0,0,0-6.071-2.208,3.613,3.613,0,0,0-.92,2.76H143.3a5.828,5.828,0,0,1,1.656-4.231,5.967,5.967,0,0,1,4.415-1.656,6.208,6.208,0,0,1,4.231,1.472,4.486,4.486,0,0,1,1.472,3.679c0,1.84-1.1,4.047-3.5,6.623l-5.151,5.519h9.567v2.024Z" transform="translate(78.755 -90.8)"/>
        <path id="XMLID_82_" class="cls-4" d="M170.279,99.363h1.84a4.519,4.519,0,0,0,2.76-.92,2.628,2.628,0,0,0,.92-2.392q0-3.311-3.311-3.312a3.988,3.988,0,0,0-2.576.92,3.5,3.5,0,0,0-.92,2.392H166.6a4.632,4.632,0,0,1,1.656-3.679,6.56,6.56,0,0,1,4.231-1.472,6.208,6.208,0,0,1,4.231,1.472,5.27,5.27,0,0,1,1.472,3.863,4.047,4.047,0,0,1-.736,2.392,5.022,5.022,0,0,1-2.208,1.656,4.672,4.672,0,0,1,2.392,1.656,4.519,4.519,0,0,1,.92,2.76,5.137,5.137,0,0,1-1.656,4.047,6.56,6.56,0,0,1-4.231,1.472,7.082,7.082,0,0,1-4.415-1.472,4.752,4.752,0,0,1-1.656-3.863h2.392a3.5,3.5,0,0,0,.92,2.392,3.988,3.988,0,0,0,2.576.92,3.649,3.649,0,0,0,2.576-6.071,4.681,4.681,0,0,0-2.944-.92h-1.84v-1.84Z" transform="translate(98.32 -90.716)"/>
        <path id="XMLID_79_" class="cls-4" d="M185.538,103.51h2.576v2.024h-2.576v4.415h-2.392v-4.415H174.5v-1.472L182.963,91h2.576Zm-8.279,0h5.887v-9.2l-.368.552Z" transform="translate(104.954 -90.632)"/>
        <path id="XMLID_77_" class="cls-4" d="M184.32,100.383,185.24,91h9.751v2.208h-7.727l-.552,5.151a6.047,6.047,0,0,1,3.128-.736,5.137,5.137,0,0,1,4.047,1.656,6.315,6.315,0,0,1,1.472,4.6,6.122,6.122,0,0,1-1.656,4.6,5.967,5.967,0,0,1-4.415,1.656,6.061,6.061,0,0,1-4.047-1.472,5.526,5.526,0,0,1-1.84-3.863h2.208a4.159,4.159,0,0,0,1.1,2.392,3.393,3.393,0,0,0,2.392.736,3.087,3.087,0,0,0,2.576-1.1,5.262,5.262,0,0,0,.92-3.128,4.642,4.642,0,0,0-1.1-3.128,3.158,3.158,0,0,0-2.76-1.1,3.122,3.122,0,0,0-2.392.736l-.552.552Z" transform="translate(112.427 -90.632)"/>
        <path id="XMLID_74_" class="cls-4" d="M200.9,91v2.024h-.368a5.967,5.967,0,0,0-4.415,1.656,6.217,6.217,0,0,0-1.84,4.6,5.137,5.137,0,0,1,4.047-1.656,4.752,4.752,0,0,1,3.863,1.656,6.713,6.713,0,0,1,1.472,4.415,6.122,6.122,0,0,1-1.656,4.6,5.672,5.672,0,0,1-4.231,1.84,5.6,5.6,0,0,1-4.415-2.024,8.394,8.394,0,0,1-1.656-5.335v-.92c0-3.5.736-6.071,2.208-7.911s3.679-2.76,6.623-2.76h.368Zm-3.128,8.463a3.212,3.212,0,0,0-2.208.736,4.672,4.672,0,0,0-1.472,1.84v.92a5.838,5.838,0,0,0,1.1,3.679,3.446,3.446,0,0,0,2.576,1.472,3.34,3.34,0,0,0,2.576-1.1,5.777,5.777,0,0,0,0-6.255A3.213,3.213,0,0,0,197.771,99.463Z" transform="translate(119.397 -90.632)"/>
      </g>
      <path id="XMLID_72_" class="cls-4" d="M30.626,121.3,18.3,132.338l12.326,11.406Z" transform="translate(15.367 101.858)"/>
      <g id="XMLID_60_" transform="translate(209.176 202.554)">
        <path id="XMLID_70_" class="cls-4" d="M116.46,117.207h-.92V111.32l-1.84.736v-.736l2.576-.92h.184Z" transform="translate(-113.7 -109.848)"/>
        <path id="XMLID_68_" class="cls-4" d="M121.367,117.123h-4.6v-.552L119.16,114c.368-.368.552-.736.736-.92a1.106,1.106,0,0,0,.184-.736,1.258,1.258,0,0,0-1.288-1.288,2.615,2.615,0,0,0-1.1.368,1.555,1.555,0,0,0-.368,1.1h-.92a2.089,2.089,0,0,1,.552-1.472,2.249,2.249,0,0,1,1.656-.552,2.089,2.089,0,0,1,1.472.552,1.67,1.67,0,0,1,.552,1.288,3.453,3.453,0,0,1-1.288,2.392l-1.84,2.024H121v.368Z" transform="translate(-111.433 -109.764)"/>
        <path id="XMLID_66_" class="cls-4" d="M120.136,117.843H119.4l2.944-7.543h.736Z" transform="translate(-108.914 -109.932)"/>
        <path id="XMLID_64_" class="cls-4" d="M124.76,117.207h-.92V111.32l-1.84.736v-.736l2.576-.92h.184Z" transform="translate(-106.73 -109.848)"/>
        <path id="XMLID_61_" class="cls-4" d="M128.479,114.331a2.54,2.54,0,0,1-.736.552,1.659,1.659,0,0,1-.92.184,2.615,2.615,0,0,1-1.1-.368,1.837,1.837,0,0,1-.736-.92,2.333,2.333,0,0,1-.184-1.1,2.728,2.728,0,0,1,.184-1.288,1.837,1.837,0,0,1,.736-.92,2.615,2.615,0,0,1,1.1-.368,1.793,1.793,0,0,1,1.656.736,3.709,3.709,0,0,1,.552,2.024v.184a4.349,4.349,0,0,1-.736,2.944,3.178,3.178,0,0,1-2.392.92h-.184v-.736h.184a2.249,2.249,0,0,0,1.656-.552C127.928,115.251,128.479,115.251,128.479,114.331Zm-1.288,0c.368,0,.552,0,.736-.184a2.54,2.54,0,0,0,.552-.736v-.368a3.466,3.466,0,0,0-.368-1.472,1.012,1.012,0,0,0-.92-.552,1.405,1.405,0,0,0-.92.368,2.615,2.615,0,0,0-.368,1.1,1.555,1.555,0,0,0,.368,1.1C126.456,113.779,126.824,114.331,127.192,114.331Z" transform="translate(-104.379 -110.1)"/>
      </g>
      <g id="XMLID_37_" transform="translate(168.519 200.714)">
        <path id="XMLID_58_" class="cls-4" d="M94.544,111.96H92.336v1.84h2.576v.552H91.6V109.2h3.312v.552H92.336v1.656h2.208Z" transform="translate(-91.6 -109.016)"/>
        <path id="XMLID_56_" class="cls-4" d="M95.356,111.372l.92-1.472h.736l-1.288,1.84,1.288,2.024h-.736l-.92-1.472-.92,1.472H93.7l1.288-2.024L93.7,109.9h.736Z" transform="translate(-89.837 -108.428)"/>
        <path id="XMLID_53_" class="cls-4" d="M99.212,111.924a3.466,3.466,0,0,1-.368,1.472,1.112,1.112,0,0,1-1.1.552,1.555,1.555,0,0,1-1.1-.368v1.84H95.9v-5.335h.552v.368a1.311,1.311,0,0,1,1.1-.552,1.112,1.112,0,0,1,1.1.552,2.742,2.742,0,0,1,.552,1.472Zm-.552-.184a2.615,2.615,0,0,0-.368-1.1c-.184-.368-.368-.368-.736-.368a1.012,1.012,0,0,0-.92.552v1.84a1.012,1.012,0,0,0,.92.552.956.956,0,0,0,.736-.368A1.555,1.555,0,0,0,98.66,111.74Z" transform="translate(-87.989 -108.428)"/>
        <path id="XMLID_50_" class="cls-4" d="M98.2,109.468c0-.184,0-.184.184-.184s.184-.184.368-.184.184,0,.368.184l.184.184a.18.18,0,0,1-.184.184c-.184,0-.184.184-.368.184s-.184,0-.368-.184S98.2,109.652,98.2,109.468Zm.736,4.967H98.2v-3.863h.736Z" transform="translate(-86.058 -109.1)"/>
        <path id="XMLID_48_" class="cls-4" d="M101.224,110.536h-.368a1.012,1.012,0,0,0-.92.552v2.76H99.2v-3.863h.736v.368a1.012,1.012,0,0,1,.92-.552h.368Z" transform="translate(-85.218 -108.512)"/>
        <path id="XMLID_45_" class="cls-4" d="M102.34,113.931a1.67,1.67,0,0,1-1.288-.552,1.811,1.811,0,0,1-.552-1.472v-.184a2.333,2.333,0,0,1,.184-1.1,2.54,2.54,0,0,1,.552-.736,1.379,1.379,0,0,1,.92-.184,1.112,1.112,0,0,1,1.1.552,2.85,2.85,0,0,1,.368,1.472v.368h-2.576a1.276,1.276,0,0,0,1.1,1.288.676.676,0,0,0,.552-.184c.184-.184.368-.184.368-.368l.368.368C103.444,113.747,102.892,113.931,102.34,113.931Zm-.184-3.5a1.3,1.3,0,0,0-1.1,1.1h2.024c0-.368-.184-.552-.184-.736S102.524,110.436,102.156,110.436Z" transform="translate(-84.126 -108.596)"/>
        <path id="XMLID_43_" class="cls-4" d="M105.008,112.66c0-.184,0-.368-.184-.368s-.368-.184-.736-.184-.552-.184-.736-.184a.4.4,0,0,1-.368-.368c0-.184-.184-.368-.184-.552a.956.956,0,0,1,.368-.736,1.555,1.555,0,0,1,1.1-.368,2.615,2.615,0,0,1,1.1.368c.368.184.368.552.368.92h-.736a.783.783,0,0,0-1.288-.552c-.184.184-.184.184-.184.368s0,.368.184.368.368.184.736.184.552.184.736.184a.4.4,0,0,1,.368.368c0,.184.184.368.184.552,0,.368-.184.552-.368.92s-.552.368-1.1.368c-.368,0-.552,0-.736-.184s-.368-.184-.552-.552-.184-.368-.184-.552h.736c0,.184.184.368.184.552s.368.184.736.184a.676.676,0,0,0,.552-.184C105.192,113.028,105.008,112.844,105.008,112.66Z" transform="translate(-82.195 -108.428)"/>
        <path id="XMLID_40_" class="cls-4" d="M105.8,111.824a2.334,2.334,0,0,1,.184-1.1,2.54,2.54,0,0,1,.552-.736,1.379,1.379,0,0,1,.92-.184,1.67,1.67,0,0,1,1.288.552,2.089,2.089,0,0,1,.552,1.472h0a2.334,2.334,0,0,1-.184,1.1,2.54,2.54,0,0,1-.552.736,1.379,1.379,0,0,1-.92.184,1.67,1.67,0,0,1-1.288-.552,1.811,1.811,0,0,1-.552-1.472Zm.736.184a2.615,2.615,0,0,0,.368,1.1.734.734,0,0,0,.736.368.956.956,0,0,0,.736-.368,1.555,1.555,0,0,0,.368-1.1,2.615,2.615,0,0,0-.368-1.1.734.734,0,0,0-.736-.368.956.956,0,0,0-.736.368A1.555,1.555,0,0,0,106.536,112.008Z" transform="translate(-79.676 -108.512)"/>
        <path id="XMLID_38_" class="cls-4" d="M108.936,109.9v.552a1.59,1.59,0,0,1,1.1-.552,1.312,1.312,0,0,1,1.288,1.472v2.576h-.736v-2.576c0-.368,0-.552-.184-.552s-.368-.184-.552-.184a.676.676,0,0,0-.552.184c-.184.184-.368.184-.368.368v2.76H108.2v-3.863h.736Z" transform="translate(-77.661 -108.428)"/>
      </g>
      <rect id="XMLID_36_" class="cls-4" width="107.624" height="42.498" transform="translate(298.587 209.912)"/>
      <g id="Layer_2_2_" transform="translate(303.002 217.855)">
        <path id="XMLID_35_" class="cls-5" d="M179.97,126.434c-.736-.552-13.982-6.807-15.27-7.359h0c13.43-.92,13.43-.184,14.166,2.208C179.05,122.019,179.6,124.226,179.97,126.434Z" transform="translate(-164.7 -118.187)"/>
        <path id="XMLID_34_" class="cls-6" d="M196.075,118.9l-11.406,25.572h-7.175l-6.439-22.445-6.255-2.944c1.288.552,14.534,6.807,15.27,7.359.92,4.231,2.024,9.383,2.024,9.383l6.439-16.925Z" transform="translate(-164.616 -118.012)"/>
        <path id="XMLID_33_" class="cls-6" d="M192.674,118.7l-4.6,25.94H180.9l4.415-25.94Z" transform="translate(-151.096 -118.18)"/>
        <path id="XMLID_32_" class="cls-6" d="M201.166,129.24c3.5,1.656,7.175,4.783,5.519,8.831s-5.519,7.175-11.59,6.623c-5.887-.552-8.095-1.656-8.095-1.656l1.656-5.7a10.417,10.417,0,0,0,8.279,1.656c4.783-1.288,2.024-4.231.552-4.783-1.656-.552-8.463-3.128-7.543-8.647s7.727-8.831,18.029-6.255l-.736,5.519s-6.255-1.84-8.647-.736C196.015,125.56,197.486,127.768,201.166,129.24Z" transform="translate(-145.974 -118.417)"/>
        <path id="XMLID_29_" class="cls-6" d="M217,118.83s-7.359-.92-8.095.552c-.184.368-11.406,25.388-11.406,25.388h6.991l1.84-4.231h8.831l.736,4.231H222.7Zm-8.463,16.925,3.5-9.2,2.392,9.2Z" transform="translate(-137.157 -118.309)"/>
        <path id="XMLID_28_" class="cls-7" d="M209.387,132.1H203.5l3.5-9.2Z" transform="translate(-132.119 -114.653)"/>
        <path id="XMLID_27_" class="cls-7" d="M209.387,132.1H203.5l3.5-9.2Z" transform="translate(-132.119 -114.653)"/>
      </g>
      <rect id="XMLID_26_" class="cls-8" width="56.663" height="40.842" transform="translate(344.028 106.52)"/>
      <g id="XMLID_15_" transform="translate(47.465 193.907)">
        <path id="XMLID_24_" class="cls-4" d="M26.168,107.976l.184-2.576h2.76v.552H26.9l-.184,1.472a1.379,1.379,0,0,1,.92-.184,1.112,1.112,0,0,1,1.1.552,2.438,2.438,0,0,1,0,2.576,1.432,1.432,0,0,1-1.288.552,1.555,1.555,0,0,1-1.1-.368,3,3,0,0,1-.552-1.1h.552a.956.956,0,0,0,.368.736c.184.184.368.184.736.184a.956.956,0,0,0,.736-.368,1.379,1.379,0,0,0,.184-.92c0-.368-.184-.552-.368-.92s-.368-.368-.736-.368-.552,0-.736.184l-.184.184Z" transform="translate(-25.8 -105.4)"/>
        <path id="XMLID_22_" class="cls-4" d="M30.224,110.551h-.736v-4.415l-1.288.552v-.552l1.84-.736h.184Z" transform="translate(-23.785 -105.4)"/>
        <path id="XMLID_19_" class="cls-4" d="M32.976,108.26c-.184.184-.368.368-.552.368s-.368.184-.552.184c-.368,0-.552,0-.736-.184l-.552-.552a2.392,2.392,0,0,1,0-1.84c.184-.184.368-.552.552-.552a7.967,7.967,0,0,1,.92-.184,1.67,1.67,0,0,1,1.288.552c.368.368.368.92.368,1.656v.184a3.2,3.2,0,0,1-.552,2.208,2.452,2.452,0,0,1-1.84.736h-.184v-.552h.184a2.659,2.659,0,0,0,1.288-.368A5.372,5.372,0,0,0,32.976,108.26Zm-1.1,0a.676.676,0,0,0,.552-.184c.184-.184.368-.368.368-.552v-.184a2.615,2.615,0,0,0-.368-1.1c-.184-.368-.368-.368-.736-.368a.956.956,0,0,0-.736.368,2.392,2.392,0,0,0,0,1.84C31.136,108.26,31.688,108.26,31.872,108.26Z" transform="translate(-21.937 -105.316)"/>
        <path id="XMLID_16_" class="cls-4" d="M35.276,108.26c-.184.184-.368.368-.552.368s-.368.184-.552.184c-.368,0-.552,0-.736-.184l-.552-.552a2.392,2.392,0,0,1,0-1.84c.184-.184.368-.552.552-.552a7.967,7.967,0,0,1,.92-.184,1.67,1.67,0,0,1,1.288.552c.368.368.368.92.368,1.656v.184a3.2,3.2,0,0,1-.552,2.208,2.452,2.452,0,0,1-1.84.736h-.368v-.552h.184a2.659,2.659,0,0,0,1.288-.368A5.846,5.846,0,0,0,35.276,108.26Zm-1.1,0a.676.676,0,0,0,.552-.184c.184-.184.368-.368.368-.552v-.184a2.615,2.615,0,0,0-.368-1.1c-.184-.368-.368-.368-.736-.368a.956.956,0,0,0-.736.368,2.392,2.392,0,0,0,0,1.84C33.436,108.26,33.988,108.26,34.172,108.26Z" transform="translate(-20.006 -105.316)"/>
      </g>
    </g>
    <g id="Groupe_40" data-name="Groupe 40" transform="translate(391 2909)">
      <path id="XMLID_228_2" data-name="XMLID_228_" class="cls-9" d="M401.8,267.68H20.421A20.493,20.493,0,0,1,0,247.259V20.421A20.493,20.493,0,0,1,20.421,0H401.8a20.493,20.493,0,0,1,20.421,20.421V247.443A20.576,20.576,0,0,1,401.8,267.68Z"/>
      <path id="XMLID_227_2" data-name="XMLID_227_" class="cls-2" d="M57.175,101.749H33.258A11.934,11.934,0,0,1,21.3,89.791V66.058A11.934,11.934,0,0,1,33.258,54.1H56.991A11.934,11.934,0,0,1,68.949,66.058V89.791A11.9,11.9,0,0,1,57.175,101.749Z" transform="translate(17.886 45.429)"/>
      <line id="XMLID_226_2" data-name="XMLID_226_" class="cls-3" y2="45.993" transform="translate(54.272 100.265)"/>
      <line id="XMLID_225_2" data-name="XMLID_225_" class="cls-3" y2="45.993" transform="translate(70.829 100.265)"/>
      <line id="XMLID_224_2" data-name="XMLID_224_" class="cls-3" x2="18.397" transform="translate(69.909 114.063)"/>
      <line id="XMLID_223_2" data-name="XMLID_223_" class="cls-3" x2="12.878" transform="translate(40.474 110.383)"/>
      <line id="XMLID_222_2" data-name="XMLID_222_" class="cls-3" x2="12.878" transform="translate(40.474 115.903)"/>
      <line id="XMLID_221_2" data-name="XMLID_221_" class="cls-3" x2="18.397" transform="translate(69.909 126.941)"/>
      <g id="XMLID_73_2" data-name="XMLID_73_" transform="translate(41.578 167.047)">
        <path id="XMLID_219_2" data-name="XMLID_219_" class="cls-4" d="M29.775,109.949H27.383V93.944L22.6,95.783V93.576L29.407,91h.368v18.949Z" transform="translate(-22.6 -90.632)"/>
        <path id="XMLID_217_2" data-name="XMLID_217_" class="cls-4" d="M42.91,110.117H30.584v-1.656l6.623-7.359a16.884,16.884,0,0,0,2.024-2.76,4.9,4.9,0,0,0,.552-2.208,3.514,3.514,0,0,0-6.071-2.208,3.613,3.613,0,0,0-.92,2.76H30.4a5.828,5.828,0,0,1,1.656-4.231A5.967,5.967,0,0,1,36.471,90.8,6.208,6.208,0,0,1,40.7,92.272a4.486,4.486,0,0,1,1.472,3.679c0,1.84-1.1,4.047-3.5,6.623l-5.151,5.519h9.567v2.024Z" transform="translate(-16.05 -90.8)"/>
        <path id="XMLID_215_2" data-name="XMLID_215_" class="cls-4" d="M42.379,99.363h1.84a4.519,4.519,0,0,0,2.76-.92,2.627,2.627,0,0,0,.92-2.392q0-3.311-3.312-3.312a3.988,3.988,0,0,0-2.576.92,3.5,3.5,0,0,0-.92,2.392H38.7a4.632,4.632,0,0,1,1.656-3.679A6.56,6.56,0,0,1,44.587,90.9a6.208,6.208,0,0,1,4.231,1.472,5.27,5.27,0,0,1,1.472,3.863,4.047,4.047,0,0,1-.736,2.392,5.023,5.023,0,0,1-2.208,1.656,4.672,4.672,0,0,1,2.392,1.656,4.519,4.519,0,0,1,.92,2.76A5.137,5.137,0,0,1,49,108.745a6.56,6.56,0,0,1-4.231,1.472,7.082,7.082,0,0,1-4.415-1.472,4.752,4.752,0,0,1-1.656-3.863h2.392a3.5,3.5,0,0,0,.92,2.392,3.988,3.988,0,0,0,2.576.92,3.649,3.649,0,0,0,2.576-6.071,4.681,4.681,0,0,0-2.944-.92h-1.84v-1.84Z" transform="translate(-9.08 -90.716)"/>
        <path id="XMLID_212_2" data-name="XMLID_212_" class="cls-4" d="M57.638,103.51h2.576v2.024H57.638v4.415H55.247v-4.415H46.6v-1.472L55.063,91h2.576Zm-8.279,0h5.887v-9.2l-.368.552Z" transform="translate(-2.447 -90.632)"/>
        <path id="XMLID_210_2" data-name="XMLID_210_" class="cls-4" d="M71.42,100.383,72.34,91H82.09v2.208H74.363l-.552,5.151a6.047,6.047,0,0,1,3.128-.736,5.137,5.137,0,0,1,4.047,1.656,6.315,6.315,0,0,1,1.472,4.6,6.122,6.122,0,0,1-1.656,4.6,5.967,5.967,0,0,1-4.415,1.656,6.061,6.061,0,0,1-4.047-1.472A5.526,5.526,0,0,1,70.5,104.8h2.208a4.159,4.159,0,0,0,1.1,2.392,3.393,3.393,0,0,0,2.392.736,3.087,3.087,0,0,0,2.576-1.1,5.262,5.262,0,0,0,.92-3.128,4.642,4.642,0,0,0-1.1-3.128,3.158,3.158,0,0,0-2.76-1.1,3.122,3.122,0,0,0-2.392.736l-.184.736Z" transform="translate(17.623 -90.632)"/>
        <path id="XMLID_207_2" data-name="XMLID_207_" class="cls-4" d="M88,91v2.024h-.368a5.967,5.967,0,0,0-4.415,1.656,6.217,6.217,0,0,0-1.84,4.6,5.137,5.137,0,0,1,4.047-1.656,4.752,4.752,0,0,1,3.863,1.656,6.713,6.713,0,0,1,1.472,4.415,6.122,6.122,0,0,1-1.656,4.6,5.672,5.672,0,0,1-4.231,1.84,5.6,5.6,0,0,1-4.415-2.024,8.394,8.394,0,0,1-1.656-5.335v-.92c0-3.5.736-6.071,2.208-7.911s3.679-2.76,6.623-2.76H88Zm-3.128,8.463a3.212,3.212,0,0,0-2.208.736,4.672,4.672,0,0,0-1.472,1.84v.92a5.838,5.838,0,0,0,1.1,3.679,3.446,3.446,0,0,0,2.576,1.472,3.34,3.34,0,0,0,2.576-1.1,5.777,5.777,0,0,0,0-6.255A3.213,3.213,0,0,0,84.871,99.463Z" transform="translate(24.592 -90.632)"/>
        <path id="XMLID_205_2" data-name="XMLID_205_" class="cls-4" d="M99.478,92.288l-7.911,17.477H89.176L96.9,92.84H86.6V91H99.294v1.288Z" transform="translate(31.142 -90.632)"/>
        <path id="XMLID_116_2" data-name="XMLID_116_" class="cls-4" d="M106.79,96.135a4.224,4.224,0,0,1-.736,2.576,4.5,4.5,0,0,1-2.024,1.656,5.977,5.977,0,0,1,2.392,1.84,4.519,4.519,0,0,1,.92,2.76,4.752,4.752,0,0,1-1.656,3.863,7.359,7.359,0,0,1-8.831,0,4.752,4.752,0,0,1-1.656-3.863,4.519,4.519,0,0,1,.92-2.76,4.936,4.936,0,0,1,2.392-1.84,4.5,4.5,0,0,1-2.024-1.656,4.224,4.224,0,0,1-.736-2.576,5.27,5.27,0,0,1,1.472-3.863,6.3,6.3,0,0,1,8.095,0A5.27,5.27,0,0,1,106.79,96.135Zm-2.024,8.831a3.988,3.988,0,0,0-.92-2.576,2.988,2.988,0,0,0-2.576-.92,3.639,3.639,0,0,0-2.576.92,3.2,3.2,0,0,0-.92,2.576,3.988,3.988,0,0,0,.92,2.576,2.988,2.988,0,0,0,2.576.92,3.639,3.639,0,0,0,2.576-.92A4.4,4.4,0,0,0,104.767,104.966Zm-3.5-12.142a3.047,3.047,0,0,0-2.208.92,3.178,3.178,0,0,0-.92,2.392,3.875,3.875,0,0,0,.92,2.392,3.178,3.178,0,0,0,2.392.92,3.5,3.5,0,0,0,2.392-.92,3.178,3.178,0,0,0,.92-2.392,3.5,3.5,0,0,0-.92-2.392A4.883,4.883,0,0,0,101.271,92.824Z" transform="translate(38.364 -90.8)"/>
        <path id="XMLID_91_2" data-name="XMLID_91_" class="cls-4" d="M127.783,101.654a7.2,7.2,0,0,1-1.84,1.472,4.9,4.9,0,0,1-2.208.552,4.434,4.434,0,0,1-2.76-.736,5.408,5.408,0,0,1-1.84-2.208,8.787,8.787,0,0,1-.736-3.312,7.466,7.466,0,0,1,.736-3.5,5.243,5.243,0,0,1,2.024-2.392,6.233,6.233,0,0,1,7.543,1.288,8.778,8.778,0,0,1,1.656,5.7v.736c0,3.679-.736,6.439-2.208,8.095a8.446,8.446,0,0,1-6.623,2.576h-.552v-2.024h.552a6.885,6.885,0,0,0,4.6-1.472C127.231,105.518,127.783,103.862,127.783,101.654Zm-3.679,0a3.535,3.535,0,0,0,2.208-.736,4.672,4.672,0,0,0,1.472-1.84v-.92a6.036,6.036,0,0,0-1.1-3.863,3.17,3.17,0,0,0-2.576-1.472,2.984,2.984,0,0,0-2.576,1.288,5.777,5.777,0,0,0,0,6.255A3.212,3.212,0,0,0,124.1,101.654Z" transform="translate(57.845 -90.8)"/>
        <path id="XMLID_88_2" data-name="XMLID_88_" class="cls-4" d="M138.674,102.022a11.181,11.181,0,0,1-1.472,6.255,5.829,5.829,0,0,1-8.831,0,10.5,10.5,0,0,1-1.472-6.071V99.079a11.621,11.621,0,0,1,1.472-6.255,5.234,5.234,0,0,1,4.6-2.024,5.106,5.106,0,0,1,4.415,2.024,10.5,10.5,0,0,1,1.472,6.071v3.128Zm-2.392-3.312a8.78,8.78,0,0,0-.92-4.415,3.323,3.323,0,0,0-5.519,0,8.494,8.494,0,0,0-.92,4.231v3.863a10.138,10.138,0,0,0,.92,4.6,2.715,2.715,0,0,0,2.76,1.472,2.784,2.784,0,0,0,2.576-1.288,8.779,8.779,0,0,0,.92-4.415V98.711Z" transform="translate(64.983 -90.8)"/>
        <path id="XMLID_86_2" data-name="XMLID_86_" class="cls-4" d="M142.675,109.949h-2.392V93.944l-4.783,1.84V93.576L142.307,91h.368v18.949Z" transform="translate(72.205 -90.632)"/>
        <path id="XMLID_84_2" data-name="XMLID_84_" class="cls-4" d="M155.81,110.117H143.484v-1.656l6.623-7.359a16.885,16.885,0,0,0,2.024-2.76,4.9,4.9,0,0,0,.552-2.208,3.514,3.514,0,0,0-6.071-2.208,3.613,3.613,0,0,0-.92,2.76H143.3a5.828,5.828,0,0,1,1.656-4.231,5.967,5.967,0,0,1,4.415-1.656,6.208,6.208,0,0,1,4.231,1.472,4.486,4.486,0,0,1,1.472,3.679c0,1.84-1.1,4.047-3.5,6.623l-5.151,5.519h9.567v2.024Z" transform="translate(78.755 -90.8)"/>
        <path id="XMLID_82_2" data-name="XMLID_82_" class="cls-4" d="M170.279,99.363h1.84a4.519,4.519,0,0,0,2.76-.92,2.628,2.628,0,0,0,.92-2.392q0-3.311-3.311-3.312a3.988,3.988,0,0,0-2.576.92,3.5,3.5,0,0,0-.92,2.392H166.6a4.632,4.632,0,0,1,1.656-3.679,6.56,6.56,0,0,1,4.231-1.472,6.208,6.208,0,0,1,4.231,1.472,5.27,5.27,0,0,1,1.472,3.863,4.047,4.047,0,0,1-.736,2.392,5.022,5.022,0,0,1-2.208,1.656,4.672,4.672,0,0,1,2.392,1.656,4.519,4.519,0,0,1,.92,2.76,5.137,5.137,0,0,1-1.656,4.047,6.56,6.56,0,0,1-4.231,1.472,7.082,7.082,0,0,1-4.415-1.472,4.752,4.752,0,0,1-1.656-3.863h2.392a3.5,3.5,0,0,0,.92,2.392,3.988,3.988,0,0,0,2.576.92,3.649,3.649,0,0,0,2.576-6.071,4.681,4.681,0,0,0-2.944-.92h-1.84v-1.84Z" transform="translate(98.32 -90.716)"/>
        <path id="XMLID_79_2" data-name="XMLID_79_" class="cls-4" d="M185.538,103.51h2.576v2.024h-2.576v4.415h-2.392v-4.415H174.5v-1.472L182.963,91h2.576Zm-8.279,0h5.887v-9.2l-.368.552Z" transform="translate(104.954 -90.632)"/>
        <path id="XMLID_77_2" data-name="XMLID_77_" class="cls-4" d="M184.32,100.383,185.24,91h9.751v2.208h-7.727l-.552,5.151a6.047,6.047,0,0,1,3.128-.736,5.137,5.137,0,0,1,4.047,1.656,6.315,6.315,0,0,1,1.472,4.6,6.122,6.122,0,0,1-1.656,4.6,5.967,5.967,0,0,1-4.415,1.656,6.061,6.061,0,0,1-4.047-1.472,5.526,5.526,0,0,1-1.84-3.863h2.208a4.159,4.159,0,0,0,1.1,2.392,3.393,3.393,0,0,0,2.392.736,3.087,3.087,0,0,0,2.576-1.1,5.262,5.262,0,0,0,.92-3.128,4.642,4.642,0,0,0-1.1-3.128,3.158,3.158,0,0,0-2.76-1.1,3.122,3.122,0,0,0-2.392.736l-.552.552Z" transform="translate(112.427 -90.632)"/>
        <path id="XMLID_74_2" data-name="XMLID_74_" class="cls-4" d="M200.9,91v2.024h-.368a5.967,5.967,0,0,0-4.415,1.656,6.217,6.217,0,0,0-1.84,4.6,5.137,5.137,0,0,1,4.047-1.656,4.752,4.752,0,0,1,3.863,1.656,6.713,6.713,0,0,1,1.472,4.415,6.122,6.122,0,0,1-1.656,4.6,5.672,5.672,0,0,1-4.231,1.84,5.6,5.6,0,0,1-4.415-2.024,8.394,8.394,0,0,1-1.656-5.335v-.92c0-3.5.736-6.071,2.208-7.911s3.679-2.76,6.623-2.76h.368Zm-3.128,8.463a3.212,3.212,0,0,0-2.208.736,4.672,4.672,0,0,0-1.472,1.84v.92a5.838,5.838,0,0,0,1.1,3.679,3.446,3.446,0,0,0,2.576,1.472,3.34,3.34,0,0,0,2.576-1.1,5.777,5.777,0,0,0,0-6.255A3.213,3.213,0,0,0,197.771,99.463Z" transform="translate(119.397 -90.632)"/>
      </g>
      <path id="XMLID_72_2" data-name="XMLID_72_" class="cls-4" d="M30.626,121.3,18.3,132.338l12.326,11.406Z" transform="translate(15.367 101.858)"/>
      <g id="XMLID_60_2" data-name="XMLID_60_" transform="translate(209.176 202.554)">
        <path id="XMLID_70_2" data-name="XMLID_70_" class="cls-4" d="M116.46,117.207h-.92V111.32l-1.84.736v-.736l2.576-.92h.184Z" transform="translate(-113.7 -109.848)"/>
        <path id="XMLID_68_2" data-name="XMLID_68_" class="cls-4" d="M121.367,117.123h-4.6v-.552L119.16,114c.368-.368.552-.736.736-.92a1.106,1.106,0,0,0,.184-.736,1.258,1.258,0,0,0-1.288-1.288,2.615,2.615,0,0,0-1.1.368,1.555,1.555,0,0,0-.368,1.1h-.92a2.089,2.089,0,0,1,.552-1.472,2.249,2.249,0,0,1,1.656-.552,2.089,2.089,0,0,1,1.472.552,1.67,1.67,0,0,1,.552,1.288,3.453,3.453,0,0,1-1.288,2.392l-1.84,2.024H121v.368Z" transform="translate(-111.433 -109.764)"/>
        <path id="XMLID_66_2" data-name="XMLID_66_" class="cls-4" d="M120.136,117.843H119.4l2.944-7.543h.736Z" transform="translate(-108.914 -109.932)"/>
        <path id="XMLID_64_2" data-name="XMLID_64_" class="cls-4" d="M124.76,117.207h-.92V111.32l-1.84.736v-.736l2.576-.92h.184Z" transform="translate(-106.73 -109.848)"/>
        <path id="XMLID_61_2" data-name="XMLID_61_" class="cls-4" d="M128.479,114.331a2.54,2.54,0,0,1-.736.552,1.659,1.659,0,0,1-.92.184,2.615,2.615,0,0,1-1.1-.368,1.837,1.837,0,0,1-.736-.92,2.333,2.333,0,0,1-.184-1.1,2.728,2.728,0,0,1,.184-1.288,1.837,1.837,0,0,1,.736-.92,2.615,2.615,0,0,1,1.1-.368,1.793,1.793,0,0,1,1.656.736,3.709,3.709,0,0,1,.552,2.024v.184a4.349,4.349,0,0,1-.736,2.944,3.178,3.178,0,0,1-2.392.92h-.184v-.736h.184a2.249,2.249,0,0,0,1.656-.552C127.928,115.251,128.479,115.251,128.479,114.331Zm-1.288,0c.368,0,.552,0,.736-.184a2.54,2.54,0,0,0,.552-.736v-.368a3.466,3.466,0,0,0-.368-1.472,1.012,1.012,0,0,0-.92-.552,1.405,1.405,0,0,0-.92.368,2.615,2.615,0,0,0-.368,1.1,1.555,1.555,0,0,0,.368,1.1C126.456,113.779,126.824,114.331,127.192,114.331Z" transform="translate(-104.379 -110.1)"/>
      </g>
      <g id="XMLID_37_2" data-name="XMLID_37_" transform="translate(168.519 200.714)">
        <path id="XMLID_58_2" data-name="XMLID_58_" class="cls-4" d="M94.544,111.96H92.336v1.84h2.576v.552H91.6V109.2h3.312v.552H92.336v1.656h2.208Z" transform="translate(-91.6 -109.016)"/>
        <path id="XMLID_56_2" data-name="XMLID_56_" class="cls-4" d="M95.356,111.372l.92-1.472h.736l-1.288,1.84,1.288,2.024h-.736l-.92-1.472-.92,1.472H93.7l1.288-2.024L93.7,109.9h.736Z" transform="translate(-89.837 -108.428)"/>
        <path id="XMLID_53_2" data-name="XMLID_53_" class="cls-4" d="M99.212,111.924a3.466,3.466,0,0,1-.368,1.472,1.112,1.112,0,0,1-1.1.552,1.555,1.555,0,0,1-1.1-.368v1.84H95.9v-5.335h.552v.368a1.311,1.311,0,0,1,1.1-.552,1.112,1.112,0,0,1,1.1.552,2.742,2.742,0,0,1,.552,1.472Zm-.552-.184a2.615,2.615,0,0,0-.368-1.1c-.184-.368-.368-.368-.736-.368a1.012,1.012,0,0,0-.92.552v1.84a1.012,1.012,0,0,0,.92.552.956.956,0,0,0,.736-.368A1.555,1.555,0,0,0,98.66,111.74Z" transform="translate(-87.989 -108.428)"/>
        <path id="XMLID_50_2" data-name="XMLID_50_" class="cls-4" d="M98.2,109.468c0-.184,0-.184.184-.184s.184-.184.368-.184.184,0,.368.184l.184.184a.18.18,0,0,1-.184.184c-.184,0-.184.184-.368.184s-.184,0-.368-.184S98.2,109.652,98.2,109.468Zm.736,4.967H98.2v-3.863h.736Z" transform="translate(-86.058 -109.1)"/>
        <path id="XMLID_48_2" data-name="XMLID_48_" class="cls-4" d="M101.224,110.536h-.368a1.012,1.012,0,0,0-.92.552v2.76H99.2v-3.863h.736v.368a1.012,1.012,0,0,1,.92-.552h.368Z" transform="translate(-85.218 -108.512)"/>
        <path id="XMLID_45_2" data-name="XMLID_45_" class="cls-4" d="M102.34,113.931a1.67,1.67,0,0,1-1.288-.552,1.811,1.811,0,0,1-.552-1.472v-.184a2.333,2.333,0,0,1,.184-1.1,2.54,2.54,0,0,1,.552-.736,1.379,1.379,0,0,1,.92-.184,1.112,1.112,0,0,1,1.1.552,2.85,2.85,0,0,1,.368,1.472v.368h-2.576a1.276,1.276,0,0,0,1.1,1.288.676.676,0,0,0,.552-.184c.184-.184.368-.184.368-.368l.368.368C103.444,113.747,102.892,113.931,102.34,113.931Zm-.184-3.5a1.3,1.3,0,0,0-1.1,1.1h2.024c0-.368-.184-.552-.184-.736S102.524,110.436,102.156,110.436Z" transform="translate(-84.126 -108.596)"/>
        <path id="XMLID_43_2" data-name="XMLID_43_" class="cls-4" d="M105.008,112.66c0-.184,0-.368-.184-.368s-.368-.184-.736-.184-.552-.184-.736-.184a.4.4,0,0,1-.368-.368c0-.184-.184-.368-.184-.552a.956.956,0,0,1,.368-.736,1.555,1.555,0,0,1,1.1-.368,2.615,2.615,0,0,1,1.1.368c.368.184.368.552.368.92h-.736a.783.783,0,0,0-1.288-.552c-.184.184-.184.184-.184.368s0,.368.184.368.368.184.736.184.552.184.736.184a.4.4,0,0,1,.368.368c0,.184.184.368.184.552,0,.368-.184.552-.368.92s-.552.368-1.1.368c-.368,0-.552,0-.736-.184s-.368-.184-.552-.552-.184-.368-.184-.552h.736c0,.184.184.368.184.552s.368.184.736.184a.676.676,0,0,0,.552-.184C105.192,113.028,105.008,112.844,105.008,112.66Z" transform="translate(-82.195 -108.428)"/>
        <path id="XMLID_40_2" data-name="XMLID_40_" class="cls-4" d="M105.8,111.824a2.334,2.334,0,0,1,.184-1.1,2.54,2.54,0,0,1,.552-.736,1.379,1.379,0,0,1,.92-.184,1.67,1.67,0,0,1,1.288.552,2.089,2.089,0,0,1,.552,1.472h0a2.334,2.334,0,0,1-.184,1.1,2.54,2.54,0,0,1-.552.736,1.379,1.379,0,0,1-.92.184,1.67,1.67,0,0,1-1.288-.552,1.811,1.811,0,0,1-.552-1.472Zm.736.184a2.615,2.615,0,0,0,.368,1.1.734.734,0,0,0,.736.368.956.956,0,0,0,.736-.368,1.555,1.555,0,0,0,.368-1.1,2.615,2.615,0,0,0-.368-1.1.734.734,0,0,0-.736-.368.956.956,0,0,0-.736.368A1.555,1.555,0,0,0,106.536,112.008Z" transform="translate(-79.676 -108.512)"/>
        <path id="XMLID_38_2" data-name="XMLID_38_" class="cls-4" d="M108.936,109.9v.552a1.59,1.59,0,0,1,1.1-.552,1.312,1.312,0,0,1,1.288,1.472v2.576h-.736v-2.576c0-.368,0-.552-.184-.552s-.368-.184-.552-.184a.676.676,0,0,0-.552.184c-.184.184-.368.184-.368.368v2.76H108.2v-3.863h.736Z" transform="translate(-77.661 -108.428)"/>
      </g>
      <rect id="XMLID_36_2" data-name="XMLID_36_" class="cls-4" width="107.624" height="42.498" transform="translate(298.587 209.912)"/>
      <g id="Layer_2_2_2" data-name="Layer_2_2_" transform="translate(303.002 217.855)">
        <path id="XMLID_35_2" data-name="XMLID_35_" class="cls-5" d="M179.97,126.434c-.736-.552-13.982-6.807-15.27-7.359h0c13.43-.92,13.43-.184,14.166,2.208C179.05,122.019,179.6,124.226,179.97,126.434Z" transform="translate(-164.7 -118.187)"/>
        <path id="XMLID_34_2" data-name="XMLID_34_" class="cls-6" d="M196.075,118.9l-11.406,25.572h-7.175l-6.439-22.445-6.255-2.944c1.288.552,14.534,6.807,15.27,7.359.92,4.231,2.024,9.383,2.024,9.383l6.439-16.925Z" transform="translate(-164.616 -118.012)"/>
        <path id="XMLID_33_2" data-name="XMLID_33_" class="cls-6" d="M192.674,118.7l-4.6,25.94H180.9l4.415-25.94Z" transform="translate(-151.096 -118.18)"/>
        <path id="XMLID_32_2" data-name="XMLID_32_" class="cls-6" d="M201.166,129.24c3.5,1.656,7.175,4.783,5.519,8.831s-5.519,7.175-11.59,6.623c-5.887-.552-8.095-1.656-8.095-1.656l1.656-5.7a10.417,10.417,0,0,0,8.279,1.656c4.783-1.288,2.024-4.231.552-4.783-1.656-.552-8.463-3.128-7.543-8.647s7.727-8.831,18.029-6.255l-.736,5.519s-6.255-1.84-8.647-.736C196.015,125.56,197.486,127.768,201.166,129.24Z" transform="translate(-145.974 -118.417)"/>
        <path id="XMLID_29_2" data-name="XMLID_29_" class="cls-6" d="M217,118.83s-7.359-.92-8.095.552c-.184.368-11.406,25.388-11.406,25.388h6.991l1.84-4.231h8.831l.736,4.231H222.7Zm-8.463,16.925,3.5-9.2,2.392,9.2Z" transform="translate(-137.157 -118.309)"/>
        <path id="XMLID_28_2" data-name="XMLID_28_" class="cls-7" d="M209.387,132.1H203.5l3.5-9.2Z" transform="translate(-132.119 -114.653)"/>
        <path id="XMLID_27_2" data-name="XMLID_27_" class="cls-7" d="M209.387,132.1H203.5l3.5-9.2Z" transform="translate(-132.119 -114.653)"/>
      </g>
      <rect id="XMLID_26_2" data-name="XMLID_26_" class="cls-8" width="56.663" height="40.842" transform="translate(344.028 106.52)"/>
      <g id="XMLID_15_2" data-name="XMLID_15_" transform="translate(47.465 193.907)">
        <path id="XMLID_24_2" data-name="XMLID_24_" class="cls-4" d="M26.168,107.976l.184-2.576h2.76v.552H26.9l-.184,1.472a1.379,1.379,0,0,1,.92-.184,1.112,1.112,0,0,1,1.1.552,2.438,2.438,0,0,1,0,2.576,1.432,1.432,0,0,1-1.288.552,1.555,1.555,0,0,1-1.1-.368,3,3,0,0,1-.552-1.1h.552a.956.956,0,0,0,.368.736c.184.184.368.184.736.184a.956.956,0,0,0,.736-.368,1.379,1.379,0,0,0,.184-.92c0-.368-.184-.552-.368-.92s-.368-.368-.736-.368-.552,0-.736.184l-.184.184Z" transform="translate(-25.8 -105.4)"/>
        <path id="XMLID_22_2" data-name="XMLID_22_" class="cls-4" d="M30.224,110.551h-.736v-4.415l-1.288.552v-.552l1.84-.736h.184Z" transform="translate(-23.785 -105.4)"/>
        <path id="XMLID_19_2" data-name="XMLID_19_" class="cls-4" d="M32.976,108.26c-.184.184-.368.368-.552.368s-.368.184-.552.184c-.368,0-.552,0-.736-.184l-.552-.552a2.392,2.392,0,0,1,0-1.84c.184-.184.368-.552.552-.552a7.967,7.967,0,0,1,.92-.184,1.67,1.67,0,0,1,1.288.552c.368.368.368.92.368,1.656v.184a3.2,3.2,0,0,1-.552,2.208,2.452,2.452,0,0,1-1.84.736h-.184v-.552h.184a2.659,2.659,0,0,0,1.288-.368A5.372,5.372,0,0,0,32.976,108.26Zm-1.1,0a.676.676,0,0,0,.552-.184c.184-.184.368-.368.368-.552v-.184a2.615,2.615,0,0,0-.368-1.1c-.184-.368-.368-.368-.736-.368a.956.956,0,0,0-.736.368,2.392,2.392,0,0,0,0,1.84C31.136,108.26,31.688,108.26,31.872,108.26Z" transform="translate(-21.937 -105.316)"/>
        <path id="XMLID_16_2" data-name="XMLID_16_" class="cls-4" d="M35.276,108.26c-.184.184-.368.368-.552.368s-.368.184-.552.184c-.368,0-.552,0-.736-.184l-.552-.552a2.392,2.392,0,0,1,0-1.84c.184-.184.368-.552.552-.552a7.967,7.967,0,0,1,.92-.184,1.67,1.67,0,0,1,1.288.552c.368.368.368.92.368,1.656v.184a3.2,3.2,0,0,1-.552,2.208,2.452,2.452,0,0,1-1.84.736h-.368v-.552h.184a2.659,2.659,0,0,0,1.288-.368A5.846,5.846,0,0,0,35.276,108.26Zm-1.1,0a.676.676,0,0,0,.552-.184c.184-.184.368-.368.368-.552v-.184a2.615,2.615,0,0,0-.368-1.1c-.184-.368-.368-.368-.736-.368a.956.956,0,0,0-.736.368,2.392,2.392,0,0,0,0,1.84C33.436,108.26,33.988,108.26,34.172,108.26Z" transform="translate(-20.006 -105.316)"/>
      </g>
    </g>
    <g id="Groupe_39" data-name="Groupe 39" transform="translate(296.5 2962.82)">
      <path id="XMLID_228_3" data-name="XMLID_228_" class="cls-10" d="M402.065,267.859H20.435A20.507,20.507,0,0,1,0,247.425V20.435A20.507,20.507,0,0,1,20.435,0H402.065A20.507,20.507,0,0,1,422.5,20.435V247.609A20.59,20.59,0,0,1,402.065,267.859Z"/>
      <path id="XMLID_227_3" data-name="XMLID_227_" class="cls-2" d="M57.2,101.781H33.266A11.942,11.942,0,0,1,21.3,89.815V66.066A11.942,11.942,0,0,1,33.266,54.1H57.015A11.942,11.942,0,0,1,68.981,66.066V89.815A11.9,11.9,0,0,1,57.2,101.781Z" transform="translate(17.912 45.496)"/>
      <line id="XMLID_226_3" data-name="XMLID_226_" class="cls-3" y2="46.024" transform="translate(54.308 100.332)"/>
      <line id="XMLID_225_3" data-name="XMLID_225_" class="cls-3" y2="46.024" transform="translate(70.877 100.332)"/>
      <line id="XMLID_224_3" data-name="XMLID_224_" class="cls-3" x2="18.41" transform="translate(69.956 114.139)"/>
      <line id="XMLID_223_3" data-name="XMLID_223_" class="cls-3" x2="12.887" transform="translate(40.501 110.458)"/>
      <line id="XMLID_222_3" data-name="XMLID_222_" class="cls-3" x2="12.887" transform="translate(40.501 115.98)"/>
      <line id="XMLID_221_3" data-name="XMLID_221_" class="cls-3" x2="18.41" transform="translate(69.956 127.026)"/>
      <g id="XMLID_73_3" data-name="XMLID_73_" transform="translate(41.606 167.159)">
        <path id="XMLID_219_3" data-name="XMLID_219_" class="cls-4" d="M29.78,109.962H27.386V93.946L22.6,95.786V93.577L29.412,91h.368v18.962Z" transform="translate(-22.6 -90.632)"/>
        <path id="XMLID_217_3" data-name="XMLID_217_" class="cls-4" d="M42.919,110.13H30.584v-1.657l6.627-7.364a16.9,16.9,0,0,0,2.025-2.761,4.9,4.9,0,0,0,.552-2.209,3.517,3.517,0,0,0-6.075-2.209,3.615,3.615,0,0,0-.92,2.761H30.4a5.832,5.832,0,0,1,1.657-4.234A5.971,5.971,0,0,1,36.475,90.8a6.212,6.212,0,0,1,4.234,1.473,4.489,4.489,0,0,1,1.473,3.682c0,1.841-1.1,4.05-3.5,6.627l-5.155,5.523H43.1v2.025Z" transform="translate(-16.041 -90.8)"/>
        <path id="XMLID_215_3" data-name="XMLID_215_" class="cls-4" d="M42.382,99.368h1.841a4.522,4.522,0,0,0,2.761-.92,2.629,2.629,0,0,0,.92-2.393q0-3.314-3.314-3.314a3.991,3.991,0,0,0-2.577.92,3.5,3.5,0,0,0-.92,2.393H38.7a4.635,4.635,0,0,1,1.657-3.682A6.564,6.564,0,0,1,44.591,90.9a6.212,6.212,0,0,1,4.234,1.473A5.274,5.274,0,0,1,50.3,96.239a4.049,4.049,0,0,1-.736,2.393,5.026,5.026,0,0,1-2.209,1.657,4.675,4.675,0,0,1,2.393,1.657,4.522,4.522,0,0,1,.92,2.761,5.14,5.14,0,0,1-1.657,4.05,6.564,6.564,0,0,1-4.234,1.473,7.087,7.087,0,0,1-4.418-1.473,4.755,4.755,0,0,1-1.657-3.866h2.393a3.5,3.5,0,0,0,.92,2.393,3.991,3.991,0,0,0,2.577.92,3.651,3.651,0,0,0,2.577-6.075,4.684,4.684,0,0,0-2.946-.92H42.382V99.368Z" transform="translate(-9.061 -90.716)"/>
        <path id="XMLID_212_3" data-name="XMLID_212_" class="cls-4" d="M57.646,103.519h2.577v2.025H57.646v4.418H55.253v-4.418H46.6v-1.473L55.068,91h2.577Zm-8.284,0h5.891v-9.2l-.368.552Z" transform="translate(-2.417 -90.632)"/>
        <path id="XMLID_210_3" data-name="XMLID_210_" class="cls-4" d="M71.42,100.389,72.341,91H82.1v2.209H74.366l-.552,5.155a6.051,6.051,0,0,1,3.13-.736,5.14,5.14,0,0,1,4.05,1.657,6.319,6.319,0,0,1,1.473,4.6,6.126,6.126,0,0,1-1.657,4.6,5.971,5.971,0,0,1-4.418,1.657,6.065,6.065,0,0,1-4.05-1.473,5.53,5.53,0,0,1-1.841-3.866h2.209a4.162,4.162,0,0,0,1.1,2.393,3.4,3.4,0,0,0,2.393.736,3.089,3.089,0,0,0,2.577-1.1,5.265,5.265,0,0,0,.92-3.13,4.645,4.645,0,0,0-1.1-3.13,3.16,3.16,0,0,0-2.761-1.1,3.124,3.124,0,0,0-2.393.736l-.184.736Z" transform="translate(17.682 -90.632)"/>
        <path id="XMLID_207_3" data-name="XMLID_207_" class="cls-4" d="M88,91v2.025h-.368a5.971,5.971,0,0,0-4.418,1.657,6.221,6.221,0,0,0-1.841,4.6,5.141,5.141,0,0,1,4.05-1.657,4.755,4.755,0,0,1,3.866,1.657,6.718,6.718,0,0,1,1.473,4.418,6.126,6.126,0,0,1-1.657,4.6,5.676,5.676,0,0,1-4.234,1.841,5.6,5.6,0,0,1-4.418-2.025,8.4,8.4,0,0,1-1.657-5.339v-.92c0-3.5.736-6.075,2.209-7.916s3.682-2.761,6.627-2.761H88Zm-3.13,8.468a3.214,3.214,0,0,0-2.209.736,4.675,4.675,0,0,0-1.473,1.841v.92a5.842,5.842,0,0,0,1.1,3.682,3.449,3.449,0,0,0,2.577,1.473,3.343,3.343,0,0,0,2.577-1.1,5.781,5.781,0,0,0,0-6.259A3.215,3.215,0,0,0,84.875,99.468Z" transform="translate(24.662 -90.632)"/>
        <path id="XMLID_205_3" data-name="XMLID_205_" class="cls-4" d="M99.487,92.289l-7.916,17.489H89.177l7.732-16.937H86.6V91H99.3v1.289Z" transform="translate(31.221 -90.632)"/>
        <path id="XMLID_116_3" data-name="XMLID_116_" class="cls-4" d="M106.8,96.139a4.227,4.227,0,0,1-.736,2.577,4.5,4.5,0,0,1-2.025,1.657,5.981,5.981,0,0,1,2.393,1.841,4.522,4.522,0,0,1,.92,2.761,4.755,4.755,0,0,1-1.657,3.866,7.364,7.364,0,0,1-8.837,0,4.755,4.755,0,0,1-1.657-3.866,4.522,4.522,0,0,1,.92-2.761,4.939,4.939,0,0,1,2.393-1.841,4.5,4.5,0,0,1-2.025-1.657,4.227,4.227,0,0,1-.736-2.577,5.274,5.274,0,0,1,1.473-3.866,6.305,6.305,0,0,1,8.1,0A5.274,5.274,0,0,1,106.8,96.139Zm-2.025,8.837a3.991,3.991,0,0,0-.92-2.577,2.99,2.99,0,0,0-2.577-.92,3.642,3.642,0,0,0-2.577.92,3.206,3.206,0,0,0-.92,2.577,3.991,3.991,0,0,0,.92,2.577,2.99,2.99,0,0,0,2.577.92,3.642,3.642,0,0,0,2.577-.92A4.4,4.4,0,0,0,104.773,104.975Zm-3.5-12.15a3.049,3.049,0,0,0-2.209.92,3.18,3.18,0,0,0-.92,2.393,3.877,3.877,0,0,0,.92,2.393,3.18,3.18,0,0,0,2.393.92,3.5,3.5,0,0,0,2.393-.92,3.18,3.18,0,0,0,.92-2.393,3.5,3.5,0,0,0-.92-2.393A4.886,4.886,0,0,0,101.275,92.825Z" transform="translate(38.454 -90.8)"/>
        <path id="XMLID_91_3" data-name="XMLID_91_" class="cls-4" d="M127.789,101.662a7.208,7.208,0,0,1-1.841,1.473,4.9,4.9,0,0,1-2.209.552,4.437,4.437,0,0,1-2.761-.736,5.412,5.412,0,0,1-1.841-2.209,8.793,8.793,0,0,1-.736-3.314,7.471,7.471,0,0,1,.736-3.5,5.247,5.247,0,0,1,2.025-2.393,6.238,6.238,0,0,1,7.548,1.289,8.784,8.784,0,0,1,1.657,5.707v.736c0,3.682-.736,6.443-2.209,8.1a8.452,8.452,0,0,1-6.627,2.577h-.552v-2.025h.552a6.889,6.889,0,0,0,4.6-1.473C127.237,105.528,127.789,103.871,127.789,101.662Zm-3.682,0a3.538,3.538,0,0,0,2.209-.736,4.675,4.675,0,0,0,1.473-1.841v-.92a6.04,6.04,0,0,0-1.1-3.866,3.172,3.172,0,0,0-2.577-1.473,2.986,2.986,0,0,0-2.577,1.289,5.781,5.781,0,0,0,0,6.259A3.215,3.215,0,0,0,124.107,101.662Z" transform="translate(57.964 -90.8)"/>
        <path id="XMLID_88_3" data-name="XMLID_88_" class="cls-4" d="M138.682,102.03a11.188,11.188,0,0,1-1.473,6.259,5.832,5.832,0,0,1-8.837,0,10.511,10.511,0,0,1-1.473-6.075v-3.13a11.629,11.629,0,0,1,1.473-6.259,5.238,5.238,0,0,1,4.6-2.025,5.109,5.109,0,0,1,4.418,2.025,10.511,10.511,0,0,1,1.473,6.075v3.13Zm-2.393-3.314a8.785,8.785,0,0,0-.92-4.418,3.325,3.325,0,0,0-5.523,0,8.5,8.5,0,0,0-.921,4.234V102.4a10.145,10.145,0,0,0,.921,4.6,2.717,2.717,0,0,0,2.761,1.473,2.786,2.786,0,0,0,2.577-1.289,8.785,8.785,0,0,0,.921-4.418v-4.05Z" transform="translate(65.112 -90.8)"/>
        <path id="XMLID_86_3" data-name="XMLID_86_" class="cls-4" d="M142.68,109.962h-2.393V93.946L135.5,95.786V93.577L142.312,91h.368v18.962Z" transform="translate(72.344 -90.632)"/>
        <path id="XMLID_84_3" data-name="XMLID_84_" class="cls-4" d="M155.819,110.13H143.484v-1.657l6.627-7.364a16.9,16.9,0,0,0,2.025-2.761,4.9,4.9,0,0,0,.552-2.209,3.517,3.517,0,0,0-6.075-2.209,3.615,3.615,0,0,0-.92,2.761H143.3a5.832,5.832,0,0,1,1.657-4.234,5.971,5.971,0,0,1,4.418-1.657,6.212,6.212,0,0,1,4.234,1.473,4.489,4.489,0,0,1,1.473,3.682c0,1.841-1.1,4.05-3.5,6.627l-5.155,5.523H156v2.025Z" transform="translate(78.904 -90.8)"/>
        <path id="XMLID_82_3" data-name="XMLID_82_" class="cls-4" d="M170.282,99.368h1.841a4.522,4.522,0,0,0,2.761-.92,2.629,2.629,0,0,0,.92-2.393q0-3.314-3.314-3.314a3.991,3.991,0,0,0-2.577.92,3.5,3.5,0,0,0-.921,2.393H166.6a4.635,4.635,0,0,1,1.657-3.682,6.564,6.564,0,0,1,4.234-1.473,6.212,6.212,0,0,1,4.234,1.473,5.274,5.274,0,0,1,1.473,3.866,4.05,4.05,0,0,1-.736,2.393,5.026,5.026,0,0,1-2.209,1.657,4.675,4.675,0,0,1,2.393,1.657,4.522,4.522,0,0,1,.921,2.761,5.141,5.141,0,0,1-1.657,4.05,6.564,6.564,0,0,1-4.234,1.473,7.087,7.087,0,0,1-4.418-1.473,4.755,4.755,0,0,1-1.657-3.866h2.393a3.5,3.5,0,0,0,.92,2.393,3.991,3.991,0,0,0,2.577.92,3.651,3.651,0,0,0,2.577-6.075,4.684,4.684,0,0,0-2.946-.92h-1.841V99.368Z" transform="translate(98.498 -90.716)"/>
        <path id="XMLID_79_3" data-name="XMLID_79_" class="cls-4" d="M185.546,103.519h2.577v2.025h-2.577v4.418h-2.393v-4.418H174.5v-1.473L182.968,91h2.577Zm-8.284,0h5.891v-9.2l-.368.552Z" transform="translate(105.142 -90.632)"/>
        <path id="XMLID_77_3" data-name="XMLID_77_" class="cls-4" d="M184.32,100.389l.92-9.389H195v2.209h-7.732l-.552,5.155a6.051,6.051,0,0,1,3.13-.736,5.14,5.14,0,0,1,4.05,1.657,6.319,6.319,0,0,1,1.473,4.6,6.126,6.126,0,0,1-1.657,4.6,5.971,5.971,0,0,1-4.418,1.657,6.065,6.065,0,0,1-4.05-1.473,5.53,5.53,0,0,1-1.841-3.866h2.209a4.162,4.162,0,0,0,1.1,2.393,3.4,3.4,0,0,0,2.393.736,3.089,3.089,0,0,0,2.577-1.1,5.265,5.265,0,0,0,.92-3.13,4.645,4.645,0,0,0-1.1-3.13,3.16,3.16,0,0,0-2.761-1.1,3.124,3.124,0,0,0-2.393.736l-.552.552Z" transform="translate(112.626 -90.632)"/>
        <path id="XMLID_74_3" data-name="XMLID_74_" class="cls-4" d="M200.9,91v2.025h-.368a5.971,5.971,0,0,0-4.418,1.657,6.221,6.221,0,0,0-1.841,4.6,5.141,5.141,0,0,1,4.05-1.657,4.755,4.755,0,0,1,3.866,1.657,6.718,6.718,0,0,1,1.473,4.418,6.126,6.126,0,0,1-1.657,4.6,5.676,5.676,0,0,1-4.234,1.841,5.6,5.6,0,0,1-4.418-2.025,8.4,8.4,0,0,1-1.657-5.339v-.92c0-3.5.736-6.075,2.209-7.916s3.682-2.761,6.627-2.761h.368Zm-3.13,8.468a3.214,3.214,0,0,0-2.209.736,4.675,4.675,0,0,0-1.473,1.841v.92a5.842,5.842,0,0,0,1.1,3.682,3.448,3.448,0,0,0,2.577,1.473,3.343,3.343,0,0,0,2.577-1.1,5.781,5.781,0,0,0,0-6.259A3.215,3.215,0,0,0,197.775,99.468Z" transform="translate(119.606 -90.632)"/>
      </g>
      <path id="XMLID_72_3" data-name="XMLID_72_" class="cls-4" d="M30.634,121.3,18.3,132.346,30.634,143.76Z" transform="translate(15.39 102.008)"/>
      <g id="XMLID_60_3" data-name="XMLID_60_" transform="translate(209.317 202.69)">
        <path id="XMLID_70_3" data-name="XMLID_70_" class="cls-4" d="M116.461,117.212h-.92V111.32l-1.841.736v-.736l2.577-.92h.184Z" transform="translate(-113.7 -109.848)"/>
        <path id="XMLID_68_3" data-name="XMLID_68_" class="cls-4" d="M121.371,117.127h-4.6v-.552L119.161,114c.368-.368.552-.736.736-.92a1.107,1.107,0,0,0,.184-.736,1.258,1.258,0,0,0-1.289-1.289,2.617,2.617,0,0,0-1.1.368,1.556,1.556,0,0,0-.368,1.1h-.92a2.09,2.09,0,0,1,.552-1.473,2.25,2.25,0,0,1,1.657-.552,2.09,2.09,0,0,1,1.473.552,1.671,1.671,0,0,1,.552,1.289,3.456,3.456,0,0,1-1.289,2.393l-1.841,2.025H121v.368Z" transform="translate(-111.429 -109.764)"/>
        <path id="XMLID_66_3" data-name="XMLID_66_" class="cls-4" d="M120.136,117.848H119.4l2.946-7.548h.736Z" transform="translate(-108.907 -109.932)"/>
        <path id="XMLID_64_3" data-name="XMLID_64_" class="cls-4" d="M124.761,117.212h-.92V111.32l-1.841.736v-.736l2.577-.92h.184Z" transform="translate(-106.72 -109.848)"/>
        <path id="XMLID_61_3" data-name="XMLID_61_" class="cls-4" d="M128.482,114.334a2.541,2.541,0,0,1-.736.552,1.66,1.66,0,0,1-.92.184,2.617,2.617,0,0,1-1.1-.368,1.838,1.838,0,0,1-.736-.92,2.335,2.335,0,0,1-.184-1.1,2.73,2.73,0,0,1,.184-1.289,1.838,1.838,0,0,1,.736-.92,2.617,2.617,0,0,1,1.1-.368,1.8,1.8,0,0,1,1.657.736,3.711,3.711,0,0,1,.552,2.025v.184a4.352,4.352,0,0,1-.736,2.946,3.18,3.18,0,0,1-2.393.92h-.184v-.736h.184a2.25,2.25,0,0,0,1.657-.552C127.93,115.255,128.482,115.255,128.482,114.334Zm-1.289,0c.368,0,.552,0,.736-.184a2.541,2.541,0,0,0,.552-.736v-.368a3.468,3.468,0,0,0-.368-1.473,1.012,1.012,0,0,0-.92-.552,1.406,1.406,0,0,0-.92.368,2.616,2.616,0,0,0-.368,1.1,1.556,1.556,0,0,0,.368,1.1C126.457,113.782,126.825,114.334,127.193,114.334Z" transform="translate(-104.365 -110.1)"/>
      </g>
      <g id="XMLID_37_3" data-name="XMLID_37_" transform="translate(168.632 200.849)">
        <path id="XMLID_58_3" data-name="XMLID_58_" class="cls-4" d="M94.546,111.961H92.336V113.8h2.577v.552H91.6V109.2h3.314v.552H92.336v1.657h2.209Z" transform="translate(-91.6 -109.016)"/>
        <path id="XMLID_56_3" data-name="XMLID_56_" class="cls-4" d="M95.357,111.373l.92-1.473h.736l-1.289,1.841,1.289,2.025h-.736l-.92-1.473-.92,1.473H93.7l1.289-2.025L93.7,109.9h.736Z" transform="translate(-89.834 -108.427)"/>
        <path id="XMLID_53_3" data-name="XMLID_53_" class="cls-4" d="M99.214,111.925a3.468,3.468,0,0,1-.368,1.473,1.113,1.113,0,0,1-1.1.552,1.556,1.556,0,0,1-1.1-.368v1.841H95.9v-5.339h.552v.368a1.312,1.312,0,0,1,1.1-.552,1.113,1.113,0,0,1,1.1.552,2.744,2.744,0,0,1,.552,1.473Zm-.552-.184a2.617,2.617,0,0,0-.368-1.1c-.184-.368-.368-.368-.736-.368a1.012,1.012,0,0,0-.92.552v1.841a1.012,1.012,0,0,0,.92.552.956.956,0,0,0,.736-.368A1.556,1.556,0,0,0,98.661,111.741Z" transform="translate(-87.984 -108.427)"/>
        <path id="XMLID_50_3" data-name="XMLID_50_" class="cls-4" d="M98.2,109.468c0-.184,0-.184.184-.184s.184-.184.368-.184.184,0,.368.184l.184.184a.18.18,0,0,1-.184.184c-.184,0-.184.184-.368.184s-.184,0-.368-.184S98.2,109.652,98.2,109.468Zm.736,4.971H98.2v-3.866h.736Z" transform="translate(-86.05 -109.1)"/>
        <path id="XMLID_48_3" data-name="XMLID_48_" class="cls-4" d="M101.225,110.536h-.368a1.012,1.012,0,0,0-.92.552v2.761H99.2v-3.866h.736v.368a1.012,1.012,0,0,1,.92-.552h.368Z" transform="translate(-85.209 -108.511)"/>
        <path id="XMLID_45_3" data-name="XMLID_45_" class="cls-4" d="M102.341,113.934a1.671,1.671,0,0,1-1.289-.552,1.812,1.812,0,0,1-.552-1.473v-.184a2.335,2.335,0,0,1,.184-1.1,2.541,2.541,0,0,1,.552-.736,1.38,1.38,0,0,1,.92-.184,1.113,1.113,0,0,1,1.1.552,2.852,2.852,0,0,1,.368,1.473v.368h-2.577a1.277,1.277,0,0,0,1.1,1.289.676.676,0,0,0,.552-.184c.184-.184.368-.184.368-.368l.368.368C103.446,113.75,102.893,113.934,102.341,113.934Zm-.184-3.5a1.3,1.3,0,0,0-1.1,1.1h2.025c0-.368-.184-.552-.184-.736S102.525,110.436,102.157,110.436Z" transform="translate(-84.115 -108.595)"/>
        <path id="XMLID_43_3" data-name="XMLID_43_" class="cls-4" d="M105.009,112.661c0-.184,0-.368-.184-.368s-.368-.184-.736-.184-.552-.184-.736-.184a.4.4,0,0,1-.368-.368c0-.184-.184-.368-.184-.552a.956.956,0,0,1,.368-.736,1.556,1.556,0,0,1,1.1-.368,2.617,2.617,0,0,1,1.1.368c.368.184.368.552.368.92h-.736a.784.784,0,0,0-1.289-.552c-.184.184-.184.184-.184.368s0,.368.184.368.368.184.736.184.552.184.736.184a.4.4,0,0,1,.368.368c0,.184.184.368.184.552,0,.368-.184.552-.368.92s-.552.368-1.1.368c-.368,0-.552,0-.736-.184s-.368-.184-.552-.552-.184-.368-.184-.552h.736c0,.184.184.368.184.552s.368.184.736.184a.676.676,0,0,0,.552-.184C105.193,113.03,105.009,112.846,105.009,112.661Z" transform="translate(-82.181 -108.427)"/>
        <path id="XMLID_40_3" data-name="XMLID_40_" class="cls-4" d="M105.8,111.825a2.335,2.335,0,0,1,.184-1.1,2.541,2.541,0,0,1,.552-.736,1.38,1.38,0,0,1,.92-.184,1.671,1.671,0,0,1,1.289.552,2.09,2.09,0,0,1,.552,1.473h0a2.335,2.335,0,0,1-.184,1.1,2.541,2.541,0,0,1-.552.736,1.38,1.38,0,0,1-.92.184,1.671,1.671,0,0,1-1.289-.552,1.812,1.812,0,0,1-.552-1.473Zm.736.184a2.617,2.617,0,0,0,.368,1.1.735.735,0,0,0,.736.368.956.956,0,0,0,.736-.368,1.556,1.556,0,0,0,.368-1.1,2.616,2.616,0,0,0-.368-1.1.735.735,0,0,0-.736-.368.956.956,0,0,0-.736.368A1.556,1.556,0,0,0,106.536,112.009Z" transform="translate(-79.658 -108.511)"/>
        <path id="XMLID_38_3" data-name="XMLID_38_" class="cls-4" d="M108.936,109.9v.552a1.591,1.591,0,0,1,1.1-.552,1.313,1.313,0,0,1,1.289,1.473v2.577h-.736v-2.577c0-.368,0-.552-.184-.552s-.368-.184-.552-.184a.676.676,0,0,0-.552.184c-.184.184-.368.184-.368.368v2.761H108.2v-3.866h.736Z" transform="translate(-77.64 -108.427)"/>
      </g>
      <rect id="XMLID_36_3" data-name="XMLID_36_" class="cls-4" width="107.696" height="42.526" transform="translate(298.788 210.053)"/>
      <g id="Layer_2_2_3" data-name="Layer_2_2_" transform="translate(303.206 218.001)">
        <path id="XMLID_35_3" data-name="XMLID_35_" class="cls-5" d="M179.98,126.439c-.736-.552-13.991-6.812-15.28-7.364h0c13.439-.92,13.439-.184,14.175,2.209C179.059,122.021,179.612,124.23,179.98,126.439Z" transform="translate(-164.7 -118.186)"/>
        <path id="XMLID_34_3" data-name="XMLID_34_" class="cls-6" d="M196.1,118.9l-11.414,25.589H177.5l-6.443-22.46-6.259-2.946c1.289.552,14.544,6.812,15.28,7.364.92,4.234,2.025,9.389,2.025,9.389l6.443-16.937Z" transform="translate(-164.616 -118.011)"/>
        <path id="XMLID_33_3" data-name="XMLID_33_" class="cls-6" d="M192.682,118.7l-4.6,25.958H180.9l4.418-25.958Z" transform="translate(-151.076 -118.179)"/>
        <path id="XMLID_32_3" data-name="XMLID_32_" class="cls-6" d="M201.175,129.247c3.5,1.657,7.18,4.786,5.523,8.837s-5.523,7.18-11.6,6.627c-5.891-.552-8.1-1.657-8.1-1.657l1.657-5.707A10.424,10.424,0,0,0,196.941,139c4.787-1.289,2.025-4.234.552-4.786-1.657-.552-8.468-3.13-7.548-8.652s7.732-8.837,18.041-6.259l-.736,5.523s-6.259-1.841-8.652-.736C196.021,125.565,197.493,127.774,201.175,129.247Z" transform="translate(-145.947 -118.417)"/>
        <path id="XMLID_29_3" data-name="XMLID_29_" class="cls-6" d="M217.014,118.83s-7.364-.92-8.1.552c-.184.368-11.414,25.405-11.414,25.405h7l1.841-4.234h8.837l.736,4.234h6.812Zm-8.468,16.937,3.5-9.2,2.393,9.2Z" transform="translate(-137.117 -118.309)"/>
        <path id="XMLID_28_3" data-name="XMLID_28_" class="cls-7" d="M209.391,132.1H203.5l3.5-9.2Z" transform="translate(-132.071 -114.647)"/>
        <path id="XMLID_27_3" data-name="XMLID_27_" class="cls-7" d="M209.391,132.1H203.5l3.5-9.2Z" transform="translate(-132.071 -114.647)"/>
      </g>
      <rect id="XMLID_26_3" data-name="XMLID_26_" class="cls-8" width="56.702" height="40.869" transform="translate(344.259 106.591)"/>
      <g id="XMLID_15_3" data-name="XMLID_15_" transform="translate(47.497 194.037)">
        <path id="XMLID_24_3" data-name="XMLID_24_" class="cls-4" d="M26.168,107.977l.184-2.577h2.761v.552H26.9l-.184,1.473a1.38,1.38,0,0,1,.92-.184,1.113,1.113,0,0,1,1.1.552,2.439,2.439,0,0,1,0,2.577,1.433,1.433,0,0,1-1.289.552,1.556,1.556,0,0,1-1.1-.368,3,3,0,0,1-.552-1.1h.552a.956.956,0,0,0,.368.736c.184.184.368.184.736.184a.956.956,0,0,0,.736-.368,1.38,1.38,0,0,0,.184-.92c0-.368-.184-.552-.368-.92s-.368-.368-.736-.368-.552,0-.736.184l-.184.184Z" transform="translate(-25.8 -105.4)"/>
        <path id="XMLID_22_3" data-name="XMLID_22_" class="cls-4" d="M30.225,110.555h-.736v-4.418l-1.289.552v-.552l1.841-.736h.184Z" transform="translate(-23.782 -105.4)"/>
        <path id="XMLID_19_3" data-name="XMLID_19_" class="cls-4" d="M32.977,108.261c-.184.184-.368.368-.552.368s-.368.184-.552.184c-.368,0-.552,0-.736-.184l-.552-.552a2.393,2.393,0,0,1,0-1.841c.184-.184.368-.552.552-.552a7.973,7.973,0,0,1,.92-.184,1.671,1.671,0,0,1,1.289.552c.368.368.368.92.368,1.657v.184a3.2,3.2,0,0,1-.552,2.209,2.454,2.454,0,0,1-1.841.736h-.184v-.552h.184a2.661,2.661,0,0,0,1.289-.368A5.375,5.375,0,0,0,32.977,108.261Zm-1.1,0a.676.676,0,0,0,.552-.184c.184-.184.368-.368.368-.552v-.184a2.617,2.617,0,0,0-.368-1.1c-.184-.368-.368-.368-.736-.368a.956.956,0,0,0-.736.368,2.393,2.393,0,0,0,0,1.841C31.136,108.261,31.689,108.261,31.873,108.261Z" transform="translate(-21.932 -105.316)"/>
        <path id="XMLID_16_3" data-name="XMLID_16_" class="cls-4" d="M35.277,108.261c-.184.184-.368.368-.552.368s-.368.184-.552.184c-.368,0-.552,0-.736-.184l-.552-.552a2.393,2.393,0,0,1,0-1.841c.184-.184.368-.552.552-.552a7.974,7.974,0,0,1,.92-.184,1.671,1.671,0,0,1,1.289.552c.368.368.368.92.368,1.657v.184a3.2,3.2,0,0,1-.552,2.209,2.454,2.454,0,0,1-1.841.736h-.368v-.552h.184a2.661,2.661,0,0,0,1.289-.368A5.85,5.85,0,0,0,35.277,108.261Zm-1.1,0a.676.676,0,0,0,.552-.184c.184-.184.368-.368.368-.552v-.184a2.616,2.616,0,0,0-.368-1.1c-.184-.368-.368-.368-.736-.368a.956.956,0,0,0-.736.368,2.393,2.393,0,0,0,0,1.841C33.436,108.261,33.989,108.261,34.173,108.261Z" transform="translate(-19.997 -105.316)"/>
      </g>
    </g>
  </g>
</svg>
