<?xml version="1.0" encoding="utf-8"?>
<!-- Generator: Adobe Illustrator 19.0.0, SVG Export Plug-In . SVG Version: 6.00 Build 0)  -->
<svg version="1.1" id="Layer_1" xmlns="http://www.w3.org/2000/svg" xmlns:xlink="http://www.w3.org/1999/xlink" x="0px" y="0px"
	 viewBox="0 0 1080 1080" style="enable-background:new 0 0 1080 1080;" xml:space="preserve">
<style type="text/css">
	.st0{fill:none;stroke:#FFFFFF;stroke-miterlimit:10;}
	.st1{fill:none;stroke:#FFFFFF;stroke-width:2;stroke-miterlimit:10;}
	.st2{fill:#070707;}
	.st3{fill:#FF6501;}
	.st4{fill:#FFFFFF;}
	.st5{fill:#1D5FA7;}
	.st6{fill:#FCD532;}
	.st7{fill:#F93508;}
	.st8{fill:#417BAF;}
	.st9{fill:#13507A;}
	.st10{fill:#C11B00;}
	.st11{fill:#F2F2F2;}
	.st12{fill:#4D97C1;}
	.st13{fill:#FFCE00;}
	.st14{fill:#0C54A8;}
	.st15{fill:#FFAA10;}
	.st16{fill:#4877AA;}
	.st17{fill:#4AD632;}
	.st18{fill:#FFFF00;}
</style>
<polygon id="XMLID_91_" class="st0" points="350.1,318.2 243.8,615.3 727.5,260.4 "/>
<polyline id="XMLID_90_" class="st0" points="787.4,420.5 886.5,553.5 704.5,796.9 243.8,621.4 886.5,553.5 336.1,316 "/>
<polyline id="XMLID_89_" class="st0" points="352.8,343.2 364.1,777.2 704.5,796.9 "/>
<path id="XMLID_88_" class="st1" d="M336.1,121c53.8,0,97.5,43.6,97.5,97.5S389.9,316,336.1,316s-97.5-43.6-97.5-97.5"/>
<path id="XMLID_87_" class="st1" d="M417,218.5c0,44.7-36.2,80.9-80.9,80.9s-80.9-36.2-80.9-80.9s36.2-80.9,80.9-80.9"/>
<circle id="XMLID_86_" class="st2" cx="336.1" cy="218.5" r="72.2"/>
<path id="XMLID_326_" class="st3" d="M342.2,231H372c2.7,0,5-1.4,5-4.5s-2.2-4.5-5-4.5h-16l26-25.6c2.1-2,2.4-6.1,0.6-8.4
	c-1.8-2.4-5-3-7.1-1L347,213.4v-20.1c0-3.1-1.8-5.6-4.5-5.6s-4.5,2.5-4.5,5.6v32C338,228.3,339.5,231,342.2,231z"/>
<path id="XMLID_325_" class="st4" d="M328.4,185h-29.8c-2.7,0-5,1.4-5,4.5s2.2,4.5,5,4.5h16l-26,26.2c-2.1,2-2.4,6.3-0.6,8.7
	s4.7,3.1,6.8,1.1l28.2-26.3v20.1c0,3.1,1.8,5.6,4.5,5.6s4.5-2.5,4.5-5.6v-32C332,188.8,331.1,185,328.4,185z"/>
<g id="XMLID_242_">
	<path id="XMLID_322_" class="st3" d="M305.9,244.8c0,0.8-0.1,1.5-0.4,2.1s-0.7,1-1.2,1.3s-1.1,0.5-1.8,0.5c-0.7,0-1.3-0.2-1.8-0.5
		s-0.9-0.8-1.2-1.3c-0.3-0.6-0.4-1.2-0.5-2v-0.6c0-0.8,0.1-1.5,0.4-2.1s0.7-1,1.2-1.4c0.5-0.3,1.1-0.5,1.8-0.5
		c0.7,0,1.3,0.2,1.8,0.5s0.9,0.8,1.2,1.4c0.3,0.6,0.4,1.3,0.4,2.1v0.5H305.9z M304.8,244.3c0-1-0.2-1.7-0.6-2.2s-1-0.8-1.7-0.8
		s-1.3,0.3-1.7,0.8c-0.4,0.5-0.6,1.2-0.6,2.1v0.6c0,0.9,0.2,1.7,0.6,2.2s1,0.8,1.7,0.8s1.3-0.3,1.7-0.7c0.4-0.5,0.6-1.2,0.6-2.2
		V244.3z"/>
	<path id="XMLID_320_" class="st3" d="M310.6,243.5c-0.2,0-0.3,0-0.5,0c-0.7,0-1.2,0.3-1.5,0.9v4.3h-1.1v-6h1.1v0.7
		c0.4-0.5,0.9-0.8,1.5-0.8c0.2,0,0.4,0,0.5,0.1V243.5z"/>
	<path id="XMLID_317_" class="st3" d="M315.4,248.6c-0.1-0.1-0.1-0.3-0.2-0.6c-0.5,0.5-1.1,0.7-1.8,0.7c-0.6,0-1.2-0.2-1.6-0.5
		s-0.6-0.8-0.6-1.3c0-0.6,0.3-1.1,0.8-1.5c0.5-0.3,1.2-0.5,2.2-0.5h1.1v-0.5c0-0.4-0.1-0.6-0.3-0.9c-0.2-0.2-0.6-0.3-1-0.3
		s-0.7,0.1-1,0.3s-0.4,0.4-0.4,0.7h-1.1c0-0.3,0.1-0.6,0.3-0.9c0.2-0.3,0.5-0.5,0.9-0.7s0.8-0.2,1.3-0.2c0.7,0,1.3,0.2,1.8,0.5
		c0.4,0.3,0.6,0.8,0.7,1.4v2.8c0,0.6,0.1,1,0.2,1.3v0.1L315.4,248.6L315.4,248.6z M313.5,247.8c0.3,0,0.7-0.1,1-0.2
		c0.3-0.2,0.5-0.4,0.7-0.6v-1.2h-0.9c-1.4,0-2,0.4-2,1.1c0,0.3,0.1,0.6,0.3,0.8C312.9,247.7,313.2,247.8,313.5,247.8z"/>
	<path id="XMLID_265_" class="st3" d="M319.1,242.6v0.8c0.5-0.6,1.1-0.9,1.9-0.9c1.4,0,2.1,0.7,2.1,2.1v4H322v-4
		c0-0.4-0.1-0.8-0.3-1c-0.2-0.2-0.5-0.3-1-0.3c-0.4,0-0.7,0.1-0.9,0.3c-0.3,0.2-0.5,0.4-0.6,0.7v4.3h-1.1v-6L319.1,242.6
		L319.1,242.6z"/>
	<path id="XMLID_262_" class="st3" d="M324.6,245.5c0-0.9,0.2-1.7,0.7-2.2c0.5-0.6,1.1-0.8,1.9-0.8s1.4,0.3,1.9,0.8l0.1-0.7h1v5.8
		c0,0.8-0.2,1.4-0.7,1.8c-0.5,0.4-1.2,0.7-2,0.7c-0.5,0-0.9-0.1-1.4-0.3c-0.4-0.2-0.8-0.4-1-0.8l0.6-0.6c0.5,0.5,1.1,0.8,1.7,0.8
		c0.5,0,1-0.1,1.3-0.4c0.3-0.3,0.5-0.7,0.5-1.2V248c-0.4,0.5-1,0.7-1.8,0.7s-1.4-0.3-1.8-0.8C324.8,247.3,324.6,246.5,324.6,245.5z
		 M325.7,245.6c0,0.7,0.1,1.2,0.4,1.6c0.3,0.4,0.7,0.6,1.3,0.6c0.7,0,1.2-0.3,1.5-0.9v-2.7c-0.3-0.6-0.8-0.9-1.5-0.9
		c-0.5,0-1,0.2-1.3,0.6C325.8,244.3,325.7,244.9,325.7,245.6z"/>
	<path id="XMLID_259_" class="st3" d="M334.4,248.7c-0.9,0-1.6-0.3-2.1-0.8c-0.6-0.5-0.8-1.2-0.8-2.1v-0.2c0-0.6,0.1-1.1,0.4-1.6
		c0.2-0.5,0.6-0.8,1-1.1s0.9-0.4,1.4-0.4c0.8,0,1.5,0.3,2,0.8s0.7,1.2,0.7,2.2v0.4h-4.4c0,0.6,0.2,1.1,0.6,1.4
		c0.4,0.4,0.8,0.5,1.4,0.5c0.4,0,0.7-0.1,1-0.2s0.5-0.3,0.7-0.6l0.7,0.5C336.3,248.3,335.5,248.7,334.4,248.7z M334.3,243.3
		c-0.4,0-0.8,0.2-1.1,0.5c-0.3,0.3-0.5,0.7-0.6,1.3h3.2V245c0-0.5-0.2-0.9-0.5-1.2C335.1,243.5,334.7,243.3,334.3,243.3z"/>
	<path id="XMLID_257_" class="st3" d="M342.9,240.5l2.9,6.6l2.9-6.6h1.5v8.1H349v-3.1l0.1-3.4l-2.9,6.5h-0.9l-2.9-6.5l0.1,3.4v3.1
		h-1.2v-8.1H342.9z"/>
	<path id="XMLID_254_" class="st3" d="M351.7,245.5c0-0.6,0.1-1.1,0.4-1.6c0.2-0.5,0.6-0.8,1-1.1s1-0.4,1.5-0.4
		c0.9,0,1.6,0.3,2.1,0.8c0.5,0.6,0.8,1.3,0.8,2.3v0.1c0,0.6-0.1,1.1-0.4,1.6c-0.2,0.5-0.6,0.8-1,1.1s-1,0.4-1.5,0.4
		c-0.9,0-1.6-0.3-2.1-0.8C352,247.3,351.7,246.5,351.7,245.5L351.7,245.5z M352.8,245.6c0,0.7,0.2,1.2,0.5,1.6
		c0.3,0.4,0.8,0.6,1.3,0.6c0.6,0,1-0.2,1.3-0.6c0.3-0.4,0.5-1,0.5-1.7s-0.2-1.2-0.5-1.6c-0.3-0.4-0.8-0.6-1.3-0.6s-1,0.2-1.3,0.6
		C353,244.3,352.8,244.9,352.8,245.6z"/>
	<path id="XMLID_251_" class="st3" d="M360,242.6v0.8c0.5-0.6,1.1-0.9,1.9-0.9c1.4,0,2.1,0.7,2.1,2.1v4h-1v-4c0-0.4-0.1-0.8-0.3-1
		c-0.2-0.2-0.5-0.3-1-0.3c-0.4,0-0.7,0.1-0.9,0.3c-0.3,0.2-0.5,0.4-0.6,0.7v4.3H359v-6L360,242.6L360,242.6z"/>
	<path id="XMLID_245_" class="st3" d="M368.4,248.7c-0.9,0-1.6-0.3-2.1-0.8c-0.6-0.5-0.8-1.2-0.8-2.1v-0.2c0-0.6,0.1-1.1,0.4-1.6
		c0.2-0.5,0.6-0.8,1-1.1s0.9-0.4,1.4-0.4c0.8,0,1.5,0.3,2,0.8s0.7,1.2,0.7,2.2v0.4h-4.4c0,0.6,0.2,1.1,0.6,1.4
		c0.4,0.4,0.8,0.5,1.4,0.5c0.4,0,0.7-0.1,1-0.2c0.3-0.1,0.5-0.3,0.7-0.6l0.7,0.5C370.3,248.3,369.5,248.7,368.4,248.7z M368.3,243.3
		c-0.4,0-0.8,0.2-1.1,0.5c-0.3,0.3-0.5,0.7-0.6,1.3h3.2V245c0-0.5-0.2-0.9-0.5-1.2C369.1,243.5,368.8,243.3,368.3,243.3z"/>
	<path id="XMLID_243_" class="st3" d="M374.3,247.1l1.5-4.5h1.2l-2.6,6.9c-0.4,1-1,1.5-1.9,1.5h-0.2l-0.4-0.1v-0.8h0.3
		c0.4,0,0.7-0.1,0.9-0.2c0.2-0.1,0.4-0.4,0.5-0.8l0.2-0.6l-2.3-5.9h1.2L374.3,247.1z"/>
</g>
<path id="XMLID_85_" class="st1" d="M146.3,530.1c53.8,0,97.5,43.6,97.5,97.5c0,53.8-43.6,97.5-97.5,97.5s-97.5-43.6-97.5-97.5"/>
<path id="XMLID_84_" class="st1" d="M227.2,627.5c0,44.7-36.2,80.9-80.9,80.9s-80.9-36.2-80.9-80.9s36.2-80.9,80.9-80.9"/>
<circle id="XMLID_83_" class="st5" cx="146.3" cy="627.5" r="72.2"/>
<path id="XMLID_82_" class="st1" d="M785.4,219.4c53.8,0,97.5,43.6,97.5,97.5s-43.6,97.5-97.5,97.5c-53.8,0-97.5-43.6-97.5-97.5"/>
<path id="XMLID_81_" class="st1" d="M866.3,316.9c0,44.7-36.2,80.9-80.9,80.9s-80.9-36.2-80.9-80.9s36.2-80.9,80.9-80.9"/>
<circle id="XMLID_80_" class="st6" cx="785.4" cy="316.9" r="72.2"/>
<polygon id="XMLID_241_" class="st6" points="821.2,349.9 804.5,343.8 812.8,304.2 793.6,297.9 798.3,289.3 751.4,288.2 
	731.9,302.6 730.7,347.3 "/>
<g id="XMLID_236_">
	<path id="XMLID_240_" class="st4" d="M796.1,295.2l10.5-18l1-1.6l7.3,4l4.9-5.1l8.9,7l-0.1,2.2l12.7,0.1l3.4,10.2l-12.8,56l2.9,0.1
		l-5.7,2.4l-0.6-1.6l-22.1-8.1l7.6-37.9c0,0-8-5.5-15.8-6.6c-3.6-0.5-3.1-0.9-3.1-0.9L796.1,295.2z"/>
	<path id="XMLID_237_" class="st4" d="M828.5,354.1l-1.1-2.1l-22.8-8.2l8.3-39.5c-2.3-1.4-8.6-2.9-14.6-4.9
		c-2.7-0.9-3.5-0.8-4.6-1.4l13.3-24.6l7.7,4.2l5.8-5.2l8.2,9.1l1.3,1.2l13.3-0.6l3.6,10.9L834,346.7l4.6,0.1L828.5,354.1z
		 M808.4,341.6l21.5,7.9l0.2-0.1l13.4-56l-2.5-7.8l-12.4-0.1l0.1-3l-8-5.8l-5.6,5l-6.9-3.8l-0.2,0.3l-10.6,18.5
		c0.3,0.1,0.7,0.1,1.2,0.2c8.1,1.1,16.2,6.6,16.5,6.8l0.9,0.6L808.4,341.6z"/>
</g>
<path id="XMLID_233_" d="M828.6,351.5l-23.1-8.3l12.5-59.4h0.7c5.3,0,22.6-0.1,24.2,0.5l0,0c1.7,0.7,5,5.5,5.6,6.5l0.2,0.3
	l-11.4,56.5L828.6,351.5z M807.4,342.1l21.1,7.6l7.3-3.3l11.1-55c-1.5-2.2-3.8-5.2-4.7-5.6c-1.3-0.4-14.4-0.5-22.9-0.4L807.4,342.1z
	"/>
<path id="XMLID_232_" d="M821.2,348c0.3,0,7.8,2.3,8.4-0.2c0.6-2.5,12.3-56,12.9-58.5c0.6-2.5-1.6-4.3-4-4.4l4.1,0.3l5.2,6.2
	L836.5,347l-8,3.6L821.2,348z"/>
<path id="XMLID_231_" d="M830.9,287.8l8.8,0.9l-6.3,29.7C833.4,318.3,834.1,294.1,830.9,287.8z"/>
<path id="XMLID_230_" d="M820.1,324.5c0.1-0.4-0.2-0.7-0.5-0.8l-5.7-1.7l-0.5,3.7v0.1l6.3,2L820.1,324.5z"/>
<path id="XMLID_229_" d="M829.8,327.5c0.1-0.4-0.2-0.7-0.5-0.8l-5.7-1.7l-0.5,3.7v0.1l6.3,2L829.8,327.5z"/>
<path id="XMLID_228_" d="M828.6,333.6c0.1-0.4-0.2-0.7-0.5-0.8l-5.7-1.7l-0.5,3.7v0.1l6.3,2L828.6,333.6z"/>
<path id="XMLID_227_" d="M827.2,340c0.1-0.4-0.2-0.7-0.5-0.8l-5.7-1.7l-0.5,3.7v0.1l6.3,2L827.2,340z"/>
<path id="XMLID_226_" d="M817.7,336.9c0.1-0.4-0.2-0.7-0.5-0.8l-5.7-1.7l-0.5,3.7v0.1l6.3,2L817.7,336.9z"/>
<path id="XMLID_225_" d="M818.8,330.5c0.1-0.4-0.2-0.7-0.5-0.8l-5.7-1.7l-0.5,3.7v0.1l6.3,2L818.8,330.5z"/>
<path id="XMLID_224_" class="st7" d="M831.1,321.2c0,0-1.1-9.3-14.9-15.2c0,0,0.2,9.4-0.7,11.2L831.1,321.2z"/>
<path id="XMLID_223_" class="st8" d="M832,317.7c0,0-3.6-13.7-36-21.2l11.8-18.9C807.8,277.6,834.5,286.3,832,317.7z"/>
<path id="XMLID_222_" class="st8" d="M815.9,278.8c0.5,0.1,14,10.9,15.7,20.5c0,0-1-17.3-11.9-24.1L815.9,278.8z"/>
<g id="XMLID_218_">
	<path id="XMLID_221_" class="st9" d="M755.2,305.5c0.1,0.2,0.2,0.5,0.3,0.8c0.1-0.3,0.2-0.5,0.3-0.7c0.1-0.3,0.2-0.5,0.4-0.7
		l4.8-8.3c0.1-0.1,0.1-0.2,0.2-0.3s0.1-0.1,0.2-0.1c0.1,0,0.2,0,0.3,0s0.2,0,0.3,0l2.1,0.1l-0.4,15.3l-2.5-0.1l0.3-9.9
		c0-0.2,0-0.4,0-0.6s0-0.4,0.1-0.7l-4.9,8.5c-0.1,0.2-0.2,0.4-0.4,0.5s-0.4,0.1-0.6,0.1h-0.4c-0.2,0-0.4-0.1-0.6-0.2
		s-0.3-0.3-0.4-0.5l-4.4-8.8c0,0.2,0,0.5,0,0.7s0,0.4,0,0.6l-0.3,9.9l-2.5-0.1l0.4-15.3l2.1,0.1c0.1,0,0.2,0,0.3,0s0.2,0,0.3,0.1
		c0.1,0,0.2,0.1,0.2,0.1c0.1,0.1,0.1,0.2,0.2,0.3l4.3,8.6C755,305,755.1,305.3,755.2,305.5z"/>
	<path id="XMLID_220_" class="st9" d="M777.2,296.5l-0.1,2.3l-4.6-0.1l-0.4,12.9l-2.9-0.1l0.4-12.9l-4.6-0.1l0.1-2.3L777.2,296.5z"
		/>
	<path id="XMLID_219_" class="st9" d="M780.1,296.6c0.1,0,0.2,0,0.2,0.1c0.1,0,0.1,0.1,0.2,0.1c0.1,0.1,0.1,0.1,0.2,0.2l7.7,10.4
		c0-0.3,0-0.5,0-0.7s0-0.5,0-0.7l0.3-9.3l2.5,0.1l-0.4,15.3h-1.5c-0.2,0-0.4,0-0.6-0.1c-0.2-0.1-0.3-0.2-0.4-0.4l-7.7-10.4
		c0,0.2,0,0.4,0,0.7c0,0.2,0,0.4,0,0.6l-0.3,9.4l-2.5-0.1l0.4-15.3h1.5C779.9,296.5,780,296.6,780.1,296.6z"/>
</g>
<g id="XMLID_165_">
	<path id="XMLID_217_" class="st10" d="M752.5,321.1c0.1,0.2,0.1,0.3,0.2,0.5c0.1-0.2,0.1-0.3,0.2-0.5s0.2-0.3,0.2-0.5l3.1-5.5
		c0-0.1,0.1-0.1,0.1-0.2c0.1-0.1,0.1-0.1,0.1-0.1c0.1,0,0.1,0,0.2,0s0.1,0,0.2,0h1.4L758,325h-1.6l0.2-6.5c0-0.1,0-0.3,0-0.4
		c0-0.2,0-0.3,0-0.4l-3.2,5.6c-0.1,0.1-0.2,0.2-0.3,0.3c-0.1,0.1-0.2,0.1-0.4,0.1h-0.3c-0.2,0-0.3,0-0.4-0.1s-0.2-0.2-0.3-0.3
		l-2.9-5.8c0,0.2,0,0.3,0,0.4c0,0.2,0,0.3,0,0.4l-0.2,6.5H747l0.3-10.1h1.4c0.1,0,0.2,0,0.2,0s0.1,0,0.2,0c0.1,0,0.1,0.1,0.1,0.1
		c0.1,0.1,0.1,0.1,0.1,0.2l2.9,5.7C752.3,320.8,752.4,320.9,752.5,321.1z"/>
	<path id="XMLID_214_" class="st10" d="M762.7,317.8c0.5,0,1,0.1,1.5,0.3c0.4,0.2,0.8,0.4,1.1,0.8s0.5,0.7,0.7,1.2
		c0.1,0.5,0.2,1,0.2,1.5c0,0.6-0.1,1.1-0.3,1.5c-0.2,0.5-0.4,0.8-0.8,1.1s-0.7,0.5-1.1,0.7s-0.9,0.2-1.5,0.2c-0.5,0-1-0.1-1.5-0.3
		s-0.8-0.4-1.1-0.8c-0.3-0.3-0.5-0.7-0.7-1.2s-0.2-1-0.2-1.5s0.1-1.1,0.3-1.5c0.2-0.5,0.4-0.8,0.8-1.1c0.3-0.3,0.7-0.5,1.2-0.7
		C761.7,317.9,762.2,317.8,762.7,317.8z M762.6,323.9c0.6,0,1-0.2,1.3-0.6s0.5-1,0.5-1.7c0-0.8-0.1-1.4-0.4-1.8
		c-0.3-0.4-0.7-0.6-1.3-0.7c-0.6,0-1.1,0.2-1.4,0.6c-0.3,0.4-0.5,1-0.5,1.7c0,0.8,0.1,1.4,0.4,1.8
		C761.5,323.6,762,323.8,762.6,323.9z"/>
	<path id="XMLID_211_" class="st10" d="M767,325.2l0.3-10.4h1.7l-0.1,4.1c0.3-0.3,0.6-0.5,1-0.7s0.8-0.2,1.3-0.2
		c0.4,0,0.7,0.1,1.1,0.3c0.3,0.2,0.6,0.4,0.8,0.7s0.4,0.7,0.5,1.1c0.1,0.5,0.2,1,0.2,1.5s-0.1,1-0.2,1.5c-0.2,0.5-0.4,0.8-0.6,1.2
		s-0.6,0.6-1,0.7c-0.4,0.2-0.8,0.3-1.3,0.2c-0.2,0-0.4,0-0.6-0.1c-0.2-0.1-0.3-0.1-0.5-0.2s-0.3-0.2-0.4-0.3
		c-0.1-0.1-0.3-0.2-0.3-0.4l-0.1,0.5c0,0.1-0.1,0.2-0.2,0.3c-0.1,0-0.2,0.1-0.3,0.1L767,325.2L767,325.2z M770.5,319.4
		c-0.4,0-0.7,0.1-0.9,0.2c-0.3,0.1-0.5,0.3-0.7,0.6l-0.1,3.2c0.2,0.2,0.4,0.4,0.6,0.5s0.5,0.2,0.7,0.2c0.3,0,0.5,0,0.7-0.1
		s0.4-0.2,0.6-0.4c0.2-0.2,0.3-0.5,0.4-0.7c0.1-0.3,0.1-0.7,0.2-1.1c0-0.4,0-0.8-0.1-1.1c-0.1-0.3-0.1-0.5-0.3-0.7
		c-0.1-0.2-0.3-0.3-0.5-0.4C770.9,319.4,770.7,319.4,770.5,319.4z"/>
	<path id="XMLID_208_" class="st10" d="M776.8,316.2c0,0.2,0,0.3-0.1,0.4s-0.2,0.2-0.2,0.3c-0.1,0.1-0.2,0.2-0.4,0.2
		c-0.1,0-0.3,0.1-0.4,0.1c-0.2,0-0.3,0-0.4-0.1c-0.1-0.1-0.3-0.1-0.3-0.2c-0.1-0.1-0.2-0.2-0.2-0.3s-0.1-0.3-0.1-0.4
		c0-0.2,0-0.3,0.1-0.4s0.1-0.3,0.2-0.4s0.2-0.2,0.3-0.2s0.3-0.1,0.4-0.1c0.2,0,0.3,0,0.4,0.1c0.1,0.1,0.3,0.1,0.4,0.2
		c0.1,0.1,0.2,0.2,0.2,0.4C776.7,315.9,776.8,316.1,776.8,316.2z M776.4,318.3l-0.2,7.1h-1.7l0.2-7.1H776.4z"/>
	<path id="XMLID_207_" class="st10" d="M779.8,315.2l-0.3,10.4h-1.7l0.3-10.4H779.8z"/>
	<path id="XMLID_204_" class="st10" d="M784.2,318.4c0.4,0,0.9,0.1,1.2,0.2c0.4,0.2,0.7,0.4,1,0.7s0.5,0.6,0.6,1s0.2,0.9,0.2,1.4
		c0,0.1,0,0.2,0,0.3c0,0.1,0,0.2-0.1,0.2c0,0.1-0.1,0.1-0.1,0.1c-0.1,0-0.1,0-0.2,0l-4.4-0.1c0,0.7,0.2,1.3,0.5,1.6
		c0.3,0.3,0.8,0.5,1.3,0.6c0.3,0,0.5,0,0.7-0.1s0.4-0.1,0.5-0.2c0.2-0.1,0.3-0.1,0.4-0.2c0.1-0.1,0.2-0.1,0.3-0.1s0.1,0,0.2,0.1
		c0.1,0,0.1,0.1,0.1,0.1l0.5,0.6c-0.2,0.2-0.4,0.4-0.7,0.5s-0.5,0.3-0.8,0.3c-0.3,0.1-0.5,0.1-0.8,0.2c-0.3,0-0.5,0-0.8,0
		c-0.5,0-0.9-0.1-1.4-0.3c-0.4-0.2-0.8-0.4-1.1-0.8c-0.3-0.3-0.5-0.7-0.7-1.2s-0.3-1-0.2-1.7c0-0.5,0.1-0.9,0.3-1.4
		c0.2-0.4,0.4-0.8,0.7-1.1c0.3-0.3,0.7-0.5,1.1-0.7C783.2,318.5,783.6,318.4,784.2,318.4z M784.2,319.6c-0.5,0-0.9,0.1-1.2,0.4
		s-0.5,0.7-0.6,1.2l3.2,0.1c0-0.2,0-0.4-0.1-0.6c0-0.2-0.1-0.4-0.3-0.5c-0.1-0.2-0.3-0.3-0.5-0.4
		C784.7,319.7,784.4,319.6,784.2,319.6z"/>
	<path id="XMLID_174_" class="st10" d="M752.1,335c0.1,0.2,0.1,0.3,0.2,0.5c0.1-0.2,0.1-0.3,0.2-0.5s0.2-0.3,0.2-0.5l3.1-5.5
		c0-0.1,0.1-0.1,0.1-0.2c0.1-0.1,0.1-0.1,0.1-0.1c0.1,0,0.1,0,0.2,0c0.1,0,0.1,0,0.2,0h1.4l-0.3,10.1h-1.6l0.2-6.5
		c0-0.1,0-0.3,0-0.4c0-0.2,0-0.3,0-0.4l-3.2,5.6c-0.1,0.1-0.2,0.2-0.3,0.3c-0.1,0.1-0.2,0.1-0.4,0.1h-0.3c-0.2,0-0.3,0-0.4-0.1
		c-0.1-0.1-0.2-0.2-0.3-0.3l-2.9-5.8c0,0.2,0,0.3,0,0.4c0,0.2,0,0.3,0,0.4l-0.2,6.5h-1.6l0.3-10.1h1.4c0.1,0,0.2,0,0.2,0
		s0.1,0,0.2,0c0.1,0,0.1,0.1,0.1,0.1c0.1,0.1,0.1,0.1,0.1,0.2l2.9,5.7C752,334.7,752,334.9,752.1,335z"/>
	<path id="XMLID_171_" class="st10" d="M762.4,331.7c0.5,0,1,0.1,1.5,0.3s0.8,0.4,1.1,0.8c0.3,0.3,0.5,0.7,0.7,1.2
		c0.1,0.5,0.2,1,0.2,1.5c0,0.6-0.1,1.1-0.3,1.5c-0.2,0.5-0.4,0.8-0.8,1.1c-0.3,0.3-0.7,0.5-1.1,0.7s-0.9,0.2-1.5,0.2
		c-0.5,0-1-0.1-1.5-0.3s-0.8-0.4-1.1-0.8c-0.3-0.3-0.5-0.7-0.7-1.2s-0.2-1-0.2-1.5c0-0.6,0.1-1.1,0.3-1.5c0.2-0.5,0.4-0.8,0.8-1.1
		c0.3-0.3,0.7-0.5,1.2-0.7C761.3,331.8,761.8,331.7,762.4,331.7z M762.2,337.8c0.6,0,1-0.2,1.3-0.6s0.5-1,0.5-1.7
		c0-0.8-0.1-1.4-0.4-1.8c-0.3-0.4-0.7-0.6-1.3-0.7c-0.6,0-1.1,0.2-1.4,0.6s-0.5,1-0.5,1.7c0,0.8,0.1,1.4,0.4,1.8
		C761.1,337.6,761.6,337.8,762.2,337.8z"/>
	<path id="XMLID_170_" class="st10" d="M766.6,339.1l0.2-7.1h1.1c0.2,0,0.4,0.1,0.4,0.3l0.1,0.6c0.2-0.2,0.3-0.3,0.5-0.4
		s0.3-0.2,0.5-0.3c0.2-0.1,0.4-0.1,0.6-0.2c0.2,0,0.4-0.1,0.7-0.1c0.4,0,0.7,0.1,1,0.2s0.6,0.3,0.7,0.6c0.2,0.2,0.3,0.5,0.4,0.9
		c0.1,0.3,0.1,0.7,0.1,1.1l-0.1,4.6h-1.7l0.1-4.6c0-0.4-0.1-0.8-0.3-1s-0.5-0.4-0.9-0.4c-0.3,0-0.6,0.1-0.9,0.2
		c-0.3,0.1-0.5,0.3-0.8,0.5l-0.1,5.2L766.6,339.1L766.6,339.1z"/>
	<path id="XMLID_167_" class="st10" d="M777.2,332.2c0.4,0,0.9,0.1,1.2,0.2c0.4,0.2,0.7,0.4,1,0.7c0.3,0.3,0.5,0.6,0.6,1
		s0.2,0.9,0.2,1.4c0,0.1,0,0.2,0,0.3c0,0.1,0,0.2-0.1,0.2c-0.1,0.1-0.1,0.1-0.1,0.1c-0.1,0-0.1,0-0.2,0l-4.4-0.1
		c0,0.7,0.2,1.3,0.5,1.6c0.3,0.3,0.8,0.5,1.3,0.6c0.3,0,0.5,0,0.7-0.1s0.4-0.1,0.5-0.2c0.2-0.1,0.3-0.1,0.4-0.2
		c0.1-0.1,0.2-0.1,0.3-0.1s0.1,0,0.2,0.1c0.1,0,0.1,0.1,0.1,0.1l0.5,0.6c-0.2,0.2-0.4,0.4-0.7,0.5c-0.2,0.1-0.5,0.3-0.8,0.3
		c-0.3,0.1-0.5,0.1-0.8,0.2c-0.3,0-0.5,0-0.8,0c-0.5,0-0.9-0.1-1.4-0.3c-0.4-0.2-0.8-0.4-1.1-0.8c-0.3-0.3-0.5-0.7-0.7-1.2
		s-0.3-1-0.2-1.7c0-0.5,0.1-0.9,0.3-1.4c0.2-0.4,0.4-0.8,0.7-1.1c0.3-0.3,0.7-0.5,1.1-0.7C776.1,332.2,776.6,332.1,777.2,332.2z
		 M777.2,333.4c-0.5,0-0.9,0.1-1.2,0.4s-0.5,0.7-0.6,1.2l3.2,0.1c0-0.2,0-0.4-0.1-0.6c0-0.2-0.1-0.4-0.3-0.5
		c-0.1-0.2-0.3-0.3-0.5-0.4C777.7,333.5,777.4,333.4,777.2,333.4z"/>
	<path id="XMLID_166_" class="st10" d="M783.2,341.6c-0.1,0.1-0.1,0.2-0.2,0.3c-0.1,0-0.2,0.1-0.4,0.1h-1.3l1.4-2.8l-2.7-6.7h1.5
		c0.2,0,0.3,0,0.3,0.1c0.1,0.1,0.1,0.1,0.1,0.2l1.4,3.7c0,0.1,0.1,0.3,0.1,0.4s0.1,0.3,0.1,0.4c0-0.1,0.1-0.3,0.1-0.4
		s0.1-0.3,0.2-0.4l1.5-3.7c0-0.1,0.1-0.2,0.2-0.2c0.1,0,0.2-0.1,0.3-0.1h1.4L783.2,341.6z"/>
</g>
<polygon id="XMLID_164_" class="st11" points="829.1,354.5 820.5,352.9 727.5,350.4 728.8,301 750.4,284.9 802,286.3 799.5,289.3 
	751.4,288.2 731.9,302.6 730.7,347.3 821.2,349.9 828.9,352.2 836.6,347.9 848.2,291.7 842.3,284 827.2,283.6 826.7,281.5 
	843.3,282.3 850.5,291.1 838,349.7 "/>
<path id="XMLID_163_" class="st4" d="M812.8,304.2l4.1,2.1c0,0,0.9-2.1,0.7-2.2s-6.5-3-6.5-3L812.8,304.2z"/>
<g id="XMLID_34_">
	<g id="XMLID_149_">
		<path id="XMLID_161_" class="st4" d="M151.7,625.3c0-0.4-0.1-0.6-0.4-0.6c-0.3,0-0.4,0.2-0.4,0.6v4h-1.7v-4c0-0.4-0.1-0.6-0.4-0.6
			c-0.3,0-0.4,0.2-0.4,0.6v4h-1.7v-3.9c0-0.6,0-1.1,0.3-1.5c0.3-0.5,0.9-0.8,1.5-0.8c0.7,0,1.2,0.3,1.5,0.9c0.3-0.6,0.9-0.9,1.5-0.9
			s1.1,0.2,1.4,0.6c0.4,0.5,0.4,1,0.4,1.7v3.9h-1.7L151.7,625.3L151.7,625.3z"/>
		<path id="XMLID_158_" class="st4" d="M154.9,624c0.6-0.6,1.4-1,2.3-1c0.9,0,1.7,0.3,2.3,1c0.6,0.6,0.9,1.4,0.9,2.3
			c0,0.7-0.3,1.5-0.7,2c-0.6,0.7-1.5,1.2-2.5,1.2c-0.7,0-1.5-0.3-2-0.7c-0.7-0.6-1.2-1.5-1.2-2.5C154,625.4,154.3,624.6,154.9,624z
			 M157.2,627.6c0.8,0,1.4-0.6,1.4-1.4c0-0.8-0.6-1.4-1.4-1.4c-0.8,0-1.4,0.6-1.4,1.4S156.4,627.6,157.2,627.6z"/>
		<path id="XMLID_156_" class="st4" d="M161,629.3v-6.2h2.3c1.3,0,2,0.5,2,1.6c0,0.5-0.2,0.9-0.6,1.3c0.6,0.3,0.9,0.9,0.9,1.6
			c0,1.1-0.7,1.8-2,1.8c-0.1,0-0.2,0-0.4,0v-1.5h0.4c0.3,0,0.4-0.1,0.4-0.4c0-0.3-0.1-0.4-0.4-0.4h-0.4v-1.5h0.1
			c0.3,0,0.4-0.1,0.4-0.4c0-0.3-0.1-0.4-0.4-0.4h-0.4v4.6L161,629.3L161,629.3z"/>
		<path id="XMLID_154_" class="st4" d="M166.1,623.1h1.8v6.2h-1.8V623.1z"/>
		<path id="XMLID_152_" class="st4" d="M170.6,623.1v3.6c0,0.5,0.2,0.7,0.6,0.7c0.1,0,0.1,0,0.2,0v1.8H171c-0.7,0-1.2-0.2-1.6-0.5
			c-0.6-0.6-0.6-1.3-0.6-2.1c0-0.1,0-0.1,0-0.2v-3.3H170.6z"/>
		<path id="XMLID_150_" class="st4" d="M174.3,629.3c-0.1,0-0.2,0-0.2,0c-0.4,0-0.8,0-1.3-0.3c-0.6-0.3-0.9-0.9-0.9-1.4v-2.3
			c0-0.7,0-1.3,0.6-1.8c0.4-0.3,0.9-0.4,1.6-0.4h1.2v1.8h-1.2c-0.2,0-0.4,0.1-0.4,0.3s0.1,0.3,0.4,0.3h1.1v1.4H174
			c-0.2,0-0.4,0.1-0.4,0.3s0.1,0.3,0.4,0.3h1.4v1.8L174.3,629.3L174.3,629.3z"/>
	</g>
	<g id="XMLID_135_">
		<path id="XMLID_147_" class="st4" d="M151.7,634.2c0-0.4-0.1-0.6-0.4-0.6c-0.3,0-0.4,0.2-0.4,0.6v4h-1.7v-4c0-0.4-0.1-0.6-0.4-0.6
			c-0.3,0-0.4,0.2-0.4,0.6v4h-1.7v-3.9c0-0.6,0-1.1,0.3-1.5c0.3-0.5,0.9-0.8,1.5-0.8c0.7,0,1.2,0.3,1.5,0.9c0.3-0.6,0.9-0.9,1.5-0.9
			s1.1,0.2,1.4,0.6c0.4,0.5,0.4,1,0.4,1.7v3.9h-1.7L151.7,634.2L151.7,634.2z"/>
		<path id="XMLID_144_" class="st4" d="M154.9,632.9c0.6-0.6,1.4-1,2.3-1c0.9,0,1.7,0.3,2.3,1c0.6,0.6,0.9,1.4,0.9,2.3
			c0,0.7-0.3,1.5-0.7,2c-0.6,0.7-1.5,1.2-2.5,1.2c-0.7,0-1.5-0.3-2-0.7c-0.7-0.6-1.2-1.5-1.2-2.5C154,634.3,154.3,633.5,154.9,632.9
			z M157.2,636.5c0.8,0,1.4-0.6,1.4-1.4c0-0.8-0.6-1.4-1.4-1.4c-0.8,0-1.4,0.6-1.4,1.4S156.4,636.5,157.2,636.5z"/>
		<path id="XMLID_142_" class="st4" d="M161,634.9c0-0.1,0-0.1,0-0.2c0-0.5,0-1,0.3-1.5c0.3-0.8,1.1-1.3,1.9-1.3
			c0.7,0,1.3,0.4,1.7,1s0.4,1.3,0.4,2v3.3h-1.8v-3.7c0-0.5-0.1-0.7-0.4-0.7c-0.3,0-0.4,0.3-0.4,0.7v3.7H161V634.9z"/>
		<path id="XMLID_140_" class="st4" d="M168.5,638.2c-0.1,0-0.2,0-0.2,0c-0.4,0-0.8,0-1.3-0.3c-0.6-0.3-0.9-0.9-0.9-1.4v-2.3
			c0-0.7,0-1.3,0.6-1.8c0.4-0.3,0.9-0.4,1.6-0.4h1.2v1.8h-1.2c-0.2,0-0.4,0.1-0.4,0.3s0.1,0.3,0.4,0.3h1.1v1.4h-1.3
			c-0.2,0-0.4,0.1-0.4,0.3s0.1,0.3,0.4,0.3h1.4v1.8L168.5,638.2L168.5,638.2z"/>
		<path id="XMLID_138_" class="st4" d="M171.6,638.2v-3.4l-1.8-2.8h1.8l0.9,1.2l0.9-1.2h1.8l-1.8,2.8v3.4H171.6z"/>
	</g>
	<path id="XMLID_58_" class="st4" d="M102.8,646.8c-0.5-0.1-0.9-0.2-1.3-0.3c0.1,0.1,0.1,0.3,0.2,0.4c0.4,0.1,0.9,0.2,1.3,0.2
		C102.9,647,102.8,646.9,102.8,646.8z M101.5,643.3c-0.6-1.6-1-3.2-1.4-4.7c0-0.1-0.1-0.3-0.1-0.4h-0.5v2.6c0.2,0.6,0.4,1.2,0.6,1.8
		c0.1,0.2,0.1,0.3,0.2,0.5c0,0.1,0.1,0.2,0.1,0.4c0.4,0.1,0.8,0.1,1.2,0.2C101.5,643.5,101.5,643.4,101.5,643.3z M120,633.6
		c-0.1,0-0.2,0-0.3,0c-2.4,0.3-4.6,0.5-6.7,0.5c-0.1,0-0.2,0-0.3,0h-0.3c-0.8,0-1.6,0-2.4-0.1c0,0.4,0.1,0.8,0.1,1.2
		c0.7,0,1.5,0,2.2,0h0.1c0.1,0,0.2,0,0.3,0c0.1,0,0.2,0,0.3,0c2,0,4.2-0.2,6.6-0.5c0.1,0,0.2,0,0.3,0c0.1,0,0.2,0,0.3,0
		c0-0.4,0-0.8,0-1.2C120.1,633.6,120.1,633.6,120,633.6z M125.9,632.5c0.2-6.1-0.7-11.3-1.8-15.3c1.7-0.4,3.4-1,5.1-1.7
		c2.3,3.4,3.2,6.7,3.2,6.8l1.1-0.3c0-0.2-3.9-14.8-17.2-15.2c-6.2-0.2-12.5,2.5-17.1,7.2c-5,5.1-7.7,12-7.4,18.9
		c0.7,14.5,13.1,22.8,21.4,23.1v-0.3l0,0l0.9-0.6c-1.6-2.4-2.9-4.8-3.9-7.2c2.2,0.3,4.5,0.6,6.8,0.6c1.7,0,3.4-0.1,5.1-0.4
		c0,0.1,0,0.1-0.1,0.2l1.1,0.3c0.1-0.3,0.1-0.5,0.2-0.8c0.4-0.1,0.7-0.2,1.1-0.3l-0.3-1.1c-0.1,0-0.3,0.1-0.4,0.1
		c1.3-4.7,2-9.1,2.2-13.1c2.3-0.5,4.7-1.2,7.3-2l-0.3-1.1C130.4,631.4,128.1,632,125.9,632.5z M128.5,614.7
		c-1.6,0.6-3.2,1.1-4.7,1.5c-1.1-3.5-2.3-6-3.1-7.4C124.2,610,126.7,612.3,128.5,614.7z M119.1,608.4c0.5,0.7,2.2,3.5,3.6,8.1
		c-4.2,1-8.1,1.2-11.5,1c2.6-5.1,5.7-8.4,6.7-9.3C118.3,608.2,118.7,608.3,119.1,608.4z M116.3,608.1
		C116.4,608.1,116.4,608.1,116.3,608.1c-1.3,1.5-4.1,4.7-6.4,9.4c-2.7-0.2-5.1-0.6-6.9-1.1C108,610,115.6,608.2,116.3,608.1z
		 M106.4,628.8c0,0.1,0,0.1,0,0.2c-0.1,0.5-0.1,1-0.2,1.5c0,0.1,0,0.2,0,0.2c0,0.1,0,0.3,0,0.4c-0.1,0.8-0.1,1.7-0.1,2.6
		c-2.3-0.3-4.3-0.9-6-1.4c-0.2-0.1-0.4-0.1-0.6-0.2c-0.2-0.1-0.4-0.1-0.5-0.2c-0.1-0.8-0.1-1.6-0.1-2.4c0-0.1,0-0.2,0-0.3
		s0-0.2,0-0.3c0.1-3.5,0.8-6.6,2.2-9.4c0.4-0.8,0.8-1.5,1.3-2.2c1.8,0.5,4.3,0.9,7.1,1.2c-0.4,0.8-0.7,1.6-1,2.4
		c-0.8,2.2-1.6,4.6-2,7.4C106.4,628.5,106.4,628.6,106.4,628.8z M102.1,645.2c-0.2-0.4-0.3-0.9-0.5-1.3c0-0.1-0.1-0.2-0.1-0.3
		s-0.1-0.2-0.1-0.3c-0.6-1.6-1-3.2-1.4-4.7c0-0.1-0.1-0.3-0.1-0.4c0-0.1-0.1-0.2-0.1-0.3c-0.1-0.5-0.2-1.1-0.3-1.6
		c0-0.1,0-0.2-0.1-0.3c-0.2-0.9-0.3-1.9-0.4-2.8c0.1,0.1,0.3,0.1,0.4,0.1c0.2,0.1,0.4,0.1,0.6,0.2c1.7,0.5,3.7,1,6,1.4
		c0.1,3.6,0.8,7.6,2.4,11.8c-1-0.2-1.9-0.4-2.8-0.6c-0.2,0-0.4-0.1-0.6-0.1C104,645.7,103.1,645.4,102.1,645.2z M100,615
		c3.2-3.3,7.3-5.5,11.5-6.4c-3,1.3-6.7,3.6-9.5,7.5c-1-0.3-1.8-0.5-2.3-0.7C99.7,615.2,99.9,615.1,100,615z M98.8,616.2
		c0.4,0.2,1.3,0.5,2.4,0.8c-0.4,0.6-0.8,1.3-1.2,2c-1.4,2.9-2.2,6.2-2.3,9.8c0,0.1,0,0.2,0,0.3c0,0.7,0,1.5,0,2.2
		c-0.2-0.1-0.4-0.2-0.6-0.2c-2.3-1-3.6-2-4.1-2.4C93.8,624.2,95.7,619.8,98.8,616.2z M92.9,633c0-1,0-2,0.1-2.9
		c0.8,0.6,2.2,1.5,4.2,2.4c0.2,0.1,0.4,0.2,0.6,0.2h0.1c0.2,2.5,0.8,5.2,1.6,8c0.2,0.6,0.4,1.2,0.6,1.8c0.1,0.2,0.1,0.3,0.2,0.5
		c0,0.1,0.1,0.2,0.1,0.4c0,0.1,0.1,0.2,0.1,0.2c0.1,0.4,0.3,0.7,0.4,1.1c-1.2-0.4-2.2-0.7-3-1c-0.2-0.1-0.4-0.1-0.6-0.2
		c-0.8-0.3-1.4-0.5-1.6-0.6C94.1,640.1,93.1,636.8,92.9,633z M97.2,645.6L97.2,645.6L97.2,645.6c-0.3-0.4-0.5-0.7-0.7-1.1
		c0.2,0.1,0.5,0.2,0.7,0.3s0.4,0.1,0.6,0.2c1,0.3,2.2,0.7,3.5,1.2c0.1,0.1,0.1,0.3,0.2,0.4c0.1,0.1,0.1,0.3,0.2,0.4
		c0,0.1,0.1,0.2,0.1,0.2c0.6,1.5,1.3,3.1,2.1,4.7C101.4,650.3,99.1,648.2,97.2,645.6z M112.6,655.1c-2.2-0.2-4.6-0.9-7-2.2
		c-1-1.9-1.8-3.7-2.6-5.5c0-0.1-0.1-0.2-0.1-0.3c-0.1-0.1-0.1-0.2-0.1-0.3s-0.1-0.2-0.1-0.3c0.6,0.2,1.1,0.3,1.7,0.5
		c0.2,0.1,0.5,0.1,0.7,0.2c0.2,0,0.4,0.1,0.6,0.1c1.1,0.2,2.2,0.5,3.3,0.7C109.9,650.3,111.1,652.6,112.6,655.1z M122.5,647.1
		c-4.1,0.8-8.6,0.5-12.8-0.2c-1.6-4-2.4-7.9-2.6-11.9c0.8,0.1,1.6,0.2,2.5,0.2c0.1,0,0.2,0,0.3,0c0.1,0,0.2,0,0.3,0
		c0.7,0,1.5,0,2.2,0h0.1c0.1,0,0.2,0,0.3,0c0.1,0,0.2,0,0.3,0c2,0,4.2-0.2,6.6-0.5c0.1,0,0.2,0,0.3,0c0.1,0,0.2,0,0.3,0
		c0.8-0.1,1.6-0.2,2.4-0.4c0.1,0,0.2,0,0.3-0.1c0.1,0,0.2,0,0.3-0.1c0.5-0.1,1-0.2,1.6-0.3C124.5,638,123.9,642.3,122.5,647.1z
		 M124.8,632.8c-0.5,0.1-1,0.2-1.6,0.3c-0.1,0-0.2,0-0.3,0.1c-0.1,0-0.2,0-0.3,0.1c-0.8,0.2-1.7,0.3-2.5,0.4c-0.1,0-0.2,0-0.3,0
		c-0.1,0-0.2,0-0.3,0c-2.4,0.3-4.6,0.5-6.7,0.5c-0.1,0-0.2,0-0.3,0h-0.3c-0.8,0-1.6,0-2.4-0.1h-0.3c-0.1,0-0.2,0-0.3,0
		c-0.8-0.1-1.6-0.1-2.4-0.2c0-1.1,0.1-2.2,0.2-3.3c0-0.2,0-0.3,0.1-0.5c0-0.1,0-0.2,0-0.3v-0.1c0-0.1,0-0.1,0-0.2
		c0-0.1,0-0.3,0.1-0.4c0.4-2.5,1-5.1,2-7.6c0.4-1,0.8-1.9,1.2-2.8c0.8,0,1.7,0.1,2.6,0.1c1.6,0,3.4-0.1,5.2-0.3c0.1,0,0.2,0,0.3,0
		c0.1,0,0.2,0,0.3,0c0.9-0.1,1.8-0.3,2.7-0.4c0.1,0,0.2,0,0.3-0.1c0.1,0,0.2,0,0.3-0.1c0.3-0.1,0.5-0.1,0.8-0.2
		C124.2,621.5,125,626.6,124.8,632.8z"/>
	<g id="XMLID_51_">
		<path id="XMLID_57_" class="st4" d="M99.5,636.3l5.6-0.1v1.8l-5.6-0.1v5.6l0.2,0.1c1.9,0.5,4.5,0.5,5.4,0.5v3
			c-3.3,0-6.5-1.4-7.3-1.8v-15.8c3.2,0.2,6.8-0.9,7.5-1.1l2.1,1.3c-2.1,1.9-7.6,2-7.7,2h-0.3v4.6H99.5z"/>
		<path id="XMLID_56_" class="st5" d="M105.1,643.7v0.3c-0.9,0-3.5,0-5.4-0.5l-0.2-0.1v-0.2C101.7,643.8,105.1,643.7,105.1,643.7z"
			/>
		<polygon id="XMLID_55_" class="st12" points="105.1,637.9 105.1,638.2 99.5,638.1 99.5,637.8 		"/>
		<polygon id="XMLID_54_" class="st12" points="105.1,635.9 105.1,636.2 99.5,636.3 99.5,636 		"/>
		<path id="XMLID_53_" class="st5" d="M99.8,631.7c0.1,0,5.6-0.1,7.7-2l-2.1-1.3c-0.7,0.2-4.3,1.4-7.5,1.1v15.8
			c0.7,0.3,4,1.8,7.3,1.8v0.3c-3.9,0.1-7.8-1.9-7.8-1.9v-16.2c3.9,0.4,7.9-1.1,7.9-1.1l2.6,1.6c-2,2.2-8.3,2.3-8.3,2.3v-0.3
			L99.8,631.7z"/>
		<path id="XMLID_52_" class="st5" d="M100,632.2v3.5l5.6-0.1v2.9l-5.6-0.1v4.6c2.2,0.5,5.3,0.4,5.3,0.4h0.3v4.1h-0.3
			c-0.1,0-0.2,0-0.3,0c-3.8,0-7.5-1.8-7.7-1.9l-0.2-0.1v-0.2c0,0,3.9,2,7.8,1.9v-3.5c0,0-3.4,0.1-5.6-0.5v-5.1l5.6,0.1v-2.3
			l-5.6,0.1v-4c0,0,6.3-0.1,8.3-2.3l-2.6-1.6c0,0-4,1.5-7.9,1.1v-0.3h0.3c3.4,0.4,7.7-1.1,7.7-1.1h0.1l2.9,1.8l-0.2,0.2
			C106.3,631.9,101.3,632.2,100,632.2z"/>
	</g>
	<g id="XMLID_44_">
		<path id="XMLID_50_" class="st4" d="M122.7,632.7c0,0.2,0,0.4,0,0.6c0,0.4,0,0.8-0.1,1.2c-0.9,11-7.1,11.4-7.2,11.4
			c-0.8,0-1.6-0.3-2.2-0.9c-1.8-1.8-2.7-5.9-3.1-9.6c0-0.4-0.1-0.8-0.1-1.2c-0.2-2.6-0.2-4.8-0.2-5.5h2.7c-0.1,0.8-0.2,3.1-0.1,5.6
			c0,0.4,0,0.8,0.1,1.2c0.2,2.9,0.7,5.9,1.9,7.2c0.2,0.2,0.4,0.4,0.6,0.5c0.3,0.2,0.6,0.3,0.9,0.3c0.5,0,1-0.1,1.4-0.4
			c0.4-0.2,0.7-0.4,1-0.8c1.2-1.5,1.8-4.2,2-7.4c0-0.4,0-0.8,0-1.2c0.2-6.1-0.9-13.3-1.2-15.3c0-0.1,0-0.2,0-0.3l2.7-0.4
			c0,0.1,0.1,0.1,0.1,0.2C122.1,618.8,123,622.3,122.7,632.7z"/>
		<path id="XMLID_48_" class="st5" d="M122.3,617.7c-0.1-0.4-0.2-0.5-0.3-0.5l-0.1-0.1l-3.6,0.5v0.3c0,0,0,0.2,0.1,0.6
			c0.3,2.1,1.4,9.3,1.2,15.3c0,0.4,0,0.8,0,1.2c-0.2,3-0.7,5.6-1.8,6.9c-0.5,0.6-1.1,0.8-1.9,0.8c-0.4,0-0.8-0.1-1.1-0.4
			c-1.1-1.2-1.6-4-1.7-6.8c0-0.4,0-0.8-0.1-1.2c-0.1,0-0.2,0-0.3,0c0,0.4,0,0.8,0,1.2c0.2,3.3,0.7,6.7,2.3,7.7
			c0.3,0.1,0.6,0.1,0.9,0.1c0.5,0,0.9-0.1,1.4-0.3c1.7-1.1,2.5-4.3,2.6-8.1c0-0.4,0-0.8,0-1.2c0.1-6.2-0.9-13.4-1.3-15.3
			c-0.1-0.3-0.1-0.5-0.1-0.5l3.2-0.4c0,0,0.1,0.1,0.2,0.4c0.4,1.1,1.3,4.7,1,15c0,0.1,0,0.3,0,0.4c0,0.4,0,0.8-0.1,1.2
			c-0.9,11.6-7.5,11.9-7.5,11.9c-3.7,0.1-5.1-5.9-5.6-11c0-0.4-0.1-0.8-0.1-1.2c-0.1,0-0.2,0-0.3,0c0,0.4,0.1,0.8,0.1,1.2
			c0.4,3.8,1.3,8.1,3.2,10.1c0.7,0.7,1.6,1.2,2.5,1.2h0.1c0.1,0,6.9-0.5,7.7-12.2c0-0.4,0.1-0.8,0.1-1.2c0-0.1,0-0.2,0-0.4
			C123.6,622.7,122.7,619,122.3,617.7z"/>
		<path id="XMLID_47_" class="st5" d="M113.1,628.3c0,0.1-0.2,2.8-0.1,5.8c-0.1,0-0.2,0-0.3,0c-0.1-3,0.1-5.6,0.1-5.6h-3.3
			c0,0-0.1,2.4,0.2,5.5c-0.1,0-0.2,0-0.3,0c-0.2-3.1-0.2-5.5-0.2-5.8v-0.3h3.8L113.1,628.3z"/>
		<path id="XMLID_46_" class="st5" d="M115,643c-0.2-0.1-0.4-0.2-0.6-0.5c-1.2-1.3-1.7-4.3-1.9-7.2c0-0.4,0-0.8-0.1-1.2
			c-0.1-2.5,0-4.8,0.1-5.6h0.3c0,0-0.2,2.6-0.1,5.6c0,0.4,0,0.8,0,1.2C112.9,638.6,113.5,642.1,115,643z"/>
		<path id="XMLID_45_" class="st5" d="M123,632.7c0,0.1,0,0.3,0,0.4c0,0.4,0,0.8-0.1,1.2c-0.9,11.6-7.5,11.9-7.5,11.9
			c-3.7,0.1-5.1-5.9-5.6-11c0-0.4-0.1-0.8-0.1-1.2c-0.2-3.1-0.2-5.5-0.2-5.5h0.3c0,0.7,0,2.9,0.2,5.5c0,0.4,0.1,0.8,0.1,1.2
			c0.4,3.7,1.2,7.8,3.1,9.6c0.7,0.7,1.4,1,2.2,0.9c0.1,0,6.3-0.4,7.2-11.4c0-0.4,0.1-0.8,0.1-1.2c0-0.2,0-0.4,0-0.6
			c0.3-10.4-0.6-13.8-1-14.8c0-0.1-0.1-0.1-0.1-0.2l-2.7,0.4c0,0.1,0,0.2,0,0.3c0.3,2,1.4,9.2,1.2,15.3c0,0.4,0,0.8,0,1.2
			c-0.2,3.2-0.7,5.9-2,7.4c-0.3,0.3-0.6,0.6-1,0.8c1.7-1.1,2.5-4.3,2.6-8.1c0-0.4,0-0.8,0-1.2c0.1-6.2-0.9-13.4-1.3-15.3
			c-0.1-0.3-0.1-0.5-0.1-0.5l3.2-0.4c0,0,0.1,0.1,0.2,0.4C122.4,618.8,123.3,622.4,123,632.7z"/>
	</g>
	<path id="XMLID_41_" class="st4" d="M173.3,579.1c-12.5-0.2-20.1,0-29.8,0s-10.4,9.4-10.4,14.1c0,4.7,0,11.3,0,11.3l4.5,2.6v-18.2
		h43.7l0.6,42h3.4V590C185.2,590,185.8,579.3,173.3,579.1z M167.8,583.8h-17.4v-1.7h17.4V583.8z"/>
	<path id="XMLID_40_" class="st4" d="M200.8,630.5l-4.7,13.2l-3.4-3.2c0,0-10.3,14-34.3,8.2c0,0,20.9,0.7,30.4-12.3
		c0,0-3.9-3.9-3.4-4.1C185.9,632.1,200.8,630.5,200.8,630.5z"/>
	<path id="XMLID_37_" class="st4" d="M180.7,653.2v20.2h-42.6v-28l-5,5c0,0,0,15.1,0,19.8s2.4,13.3,10.6,13.3h33.2
		c9,0,9.3-10.1,9.3-10.1v-23L180.7,653.2z M160,681c-1.7,0-3.1-1.4-3.1-3.1c0-1.7,1.4-3.1,3.1-3.1s3.1,1.4,3.1,3.1
		S161.7,681,160,681z"/>
	<path id="XMLID_36_" class="st4" d="M118.1,603.4c0,0,26.5,1.9,26.5,21.1s-27.1,35.8-38.5,38.3c0,0,29.9-15.5,29.7-38.1
		C135.7,607.1,118.1,603.4,118.1,603.4z"/>
	<path id="XMLID_35_" class="st4" d="M179.7,596.3c-11.7-7.3-22.3,9.9-22.3,9.9l3.9,3.2l-14.8,6l1.7-14.6l3.2,2.6
		c3.4-5.5,12.7-11.8,18.7-12.1C176,590.9,179.7,596.3,179.7,596.3z"/>
</g>
<path id="XMLID_79_" class="st1" d="M752.3,764.7c53.8,0,97.5,43.6,97.5,97.5c0,53.8-43.6,97.5-97.5,97.5
	c-53.8,0-97.5-43.6-97.5-97.5"/>
<path id="XMLID_78_" class="st1" d="M833.2,862.2c0,44.7-36.2,80.9-80.9,80.9s-80.9-36.2-80.9-80.9s36.2-80.9,80.9-80.9"/>
<circle id="XMLID_77_" class="st13" cx="752.3" cy="862.2" r="72.2"/>
<g id="XMLID_29_">
	<path id="XMLID_30_" class="st4" d="M785.4,861.9c-2.8-2.8-6.5-4.2-11.2-4.4c3.3-2,5.6-4.5,6.9-7.6c1.4-3,1.7-6.3,1.1-9.8
		c-1.2-6.8-4.5-11.3-10.1-13.9c-5.5-2.6-12.7-2.9-21.5-1.3l-25.3,4.5l-7.5,1.3l1.5,8.6l8.3,0.1l2,11.5l-11.3,2l1.8,10.5l11.3-2
		l0.7,4l-11.3,2l2,11.3l11.3-2l2.9,16.5l-7.8,3l1.6,9.3l36.3-6.4c8.7-1.5,15-4.7,19.1-9.2s5.5-10.4,4.2-17.6
		C790,868.1,788.2,864.6,785.4,861.9z M742.5,838l10.2-1.8c4.3-0.8,7.7-0.6,10.2,0.7s4,3.6,4.6,7.1c0.6,3.2-0.1,5.9-1.9,8
		c-1.9,2-4.8,3.6-8.8,4.3l-10.8,1.9L742.5,838z M774,883.4c-1.8,2.1-4.6,3.8-8.6,4.5l-13.8,2.4l-3.8-21.7l14.9-2.6
		c3.8-0.7,6.8-0.4,8.9,1.2c2.1,1.6,3.5,4.3,4.2,8C776.4,878.5,775.8,881.3,774,883.4z"/>
</g>
<path id="XMLID_76_" class="st1" d="M932.9,522.2c53.8,0,97.5,43.6,97.5,97.5c0,53.8-43.6,97.5-97.5,97.5
	c-53.8,0-97.5-43.6-97.5-97.5"/>
<path id="XMLID_75_" class="st1" d="M1013.8,619.7c0,44.7-36.2,80.9-80.9,80.9S852,664.4,852,619.7s36.2-80.9,80.9-80.9"/>
<circle id="XMLID_74_" class="st4" cx="932.9" cy="619.7" r="72.2"/>
<g id="XMLID_21_">
	<path id="XMLID_28_" class="st14" d="M882.2,610.6c0,0,10.3,7,11.9,12.7c1.6,5.6,1.2,5,1.2,5v0.5l8.9-22.2h9.4l-14.2,32.1H890
		L882.2,610.6z"/>
	<polygon id="XMLID_27_" class="st14" points="917.1,606.6 926,606.6 920.3,638.7 911.4,638.7 	"/>
	<path id="XMLID_26_" class="st14" d="M951.2,614l1.2-6.7c0,0-13.8-4.7-20.6,3.3c-6,7.1,1.2,12.2,2.7,13c1.6,0.9,8.9,3.8,7.2,6.4
		c-1.7,2.7-5,3.5-14.5,0.5l-1.3,7c0,0,7.1,2.1,12.8,1.6s12.9-4.9,12.4-11.2s-7.3-7.8-11.4-10.5C935.6,614.8,942.2,609.5,951.2,614z"
		/>
	<path id="XMLID_23_" class="st14" d="M975.1,606.6c0,0-6,0-8.4,0s-3.6,4.3-4.4,6.1c-0.8,1.8-11.6,26-11.6,26h9.2l2-4.9h11l1.2,4.9
		h8.2L975.1,606.6z M964.1,627.5l4.8-12.2l2.7,12.2H964.1z"/>
	<path id="XMLID_22_" class="st15" d="M893.9,622.6c0,0-2.1-10.4-2.7-13.9c-0.5-2.7-4.8-2.1-6.6-2.1s-11.5,0-11.5,0
		S886.9,609.9,893.9,622.6z"/>
</g>
<path id="XMLID_73_" class="st1" d="M383.7,760.6c53.8,0,97.5,43.6,97.5,97.5c0,53.8-43.6,97.5-97.5,97.5s-97.5-43.6-97.5-97.5"/>
<path id="XMLID_72_" class="st1" d="M464.7,858.1c0,44.7-36.2,80.9-80.9,80.9s-80.9-36.2-80.9-80.9s36.2-80.9,80.9-80.9"/>
<circle id="XMLID_71_" class="st4" cx="383.7" cy="858.1" r="72.2"/>
<g>
	<rect id="XMLID_70_" x="346.8" y="838.8" class="st16" width="16" height="42.6"/>
	<rect id="XMLID_69_" x="374.7" y="838.8" class="st16" width="16" height="42.6"/>
	<rect id="XMLID_10_" x="402.3" y="838.8" class="st16" width="16" height="42.6"/>
	<path id="XMLID_9_" class="st16" d="M333.2,832.6c-8.6,0,99.5,0,99.5,0l-52.5-34.2L333.2,832.6z"/>
	<rect id="XMLID_8_" x="333.6" y="884" class="st16" width="96.1" height="24.7"/>
	<g>
		<path class="st4" d="M359.9,901.7v-13.3h5.8c2.1,0,3.6,0.3,4.7,0.9s1.6,1.5,1.6,2.7c0,0.7-0.2,1.3-0.6,1.8s-0.9,0.8-1.7,1.1
			c0.8,0.2,1.5,0.5,1.9,1s0.7,1.1,0.7,1.8c0,1.3-0.5,2.3-1.5,2.9c-1,0.7-2.5,1-4.4,1L359.9,901.7L359.9,901.7z M363.7,894h2
			c0.8,0,1.4-0.1,1.8-0.4c0.4-0.3,0.5-0.6,0.5-1.1c0-0.6-0.2-1-0.6-1.2s-1-0.4-1.9-0.4h-1.9v3.1H363.7z M363.7,896.1v3.2h2.5
			c0.7,0,1.2-0.1,1.6-0.4c0.4-0.3,0.6-0.6,0.6-1.1c0-1.1-0.7-1.7-2-1.7H363.7z"/>
		<path class="st4" d="M381,901.7c-0.1-0.2-0.2-0.5-0.4-0.9c-0.7,0.7-1.6,1.1-2.9,1.1c-1.1,0-2.1-0.3-2.9-0.8
			c-0.8-0.6-1.2-1.3-1.2-2.1c0-1.1,0.5-1.9,1.4-2.4c1-0.5,2.3-0.8,4.2-0.8h1.1v-0.5c0-0.9-0.5-1.4-1.4-1.4s-1.3,0.4-1.3,1.1H374
			c0-1,0.5-1.7,1.5-2.3s2.2-0.9,3.8-0.9s2.7,0.3,3.6,0.9c0.9,0.6,1.3,1.5,1.4,2.5v4.4c0,0.9,0.2,1.6,0.5,2.1v0.2H381V901.7z
			 M378.7,899.7c0.5,0,0.8-0.1,1.2-0.2c0.3-0.2,0.5-0.4,0.7-0.6v-1.6h-1.1c-1.3,0-1.9,0.5-1.9,1.4c0,0.3,0.1,0.5,0.3,0.7
			C378,899.6,378.3,899.7,378.7,899.7z"/>
		<path class="st4" d="M389.7,891.8l0.1,1.2c0.8-0.9,2-1.3,3.4-1.3c1.2,0,2.2,0.3,2.8,0.9c0.6,0.6,0.9,1.5,1,2.8v6.4h-3.7v-6.3
			c0-0.5-0.1-0.9-0.4-1.1c-0.2-0.2-0.7-0.4-1.3-0.4c-0.7,0-1.3,0.2-1.6,0.7v7h-3.7v-9.9L389.7,891.8L389.7,891.8z"/>
		<path class="st4" d="M403.8,898l-1,0.9v2.8h-3.7v-14.1h3.7v7.5l0.4-0.4l2.8-2.9h4.5l-4.2,4.1l4.5,5.8h-4.3L403.8,898z"/>
	</g>
</g>
<path id="XMLID_20_" class="st17" d="M475.1,481.5c0,0-1.1,100.5-1.1,109.8c0,0.6,0.6,3.6,9,3.6c35.5,0,159.3,0,166.1,0
	c14,0,15.5-12,15.5-22.2c0-10.1,1.8-65.7,1.2-81c-0.7-15.3-10.5-15.9-32.8-15.3C610.9,477,475.1,481.5,475.1,481.5z"/>
<polygon id="XMLID_19_" class="st17" points="630.8,451.8 630.9,470.1 546,473.9 "/>
<path id="XMLID_18_" class="st17" d="M645.3,472.7l-10.1,0.4l-0.1-26.9l-121.8,31.6l-35.6,1.4c0,0,140-37.2,149-39.4
	c9-2.2,18.7-0.7,19.2,14.8C646.5,468.9,645.3,472.7,645.3,472.7z"/>
<path id="XMLID_15_" class="st4" d="M649.3,547c-5.3,0-9.8-4.2-10-9.6c-0.1-2.7,0.8-5.2,2.6-7.2s4.3-3.1,6.9-3.2
	c2.7-0.1,5.2,0.8,7.2,2.6s3.1,4.3,3.2,6.9l0,0c0.1,2.7-0.8,5.2-2.6,7.2s-4.3,3.1-6.9,3.2C649.5,547,649.4,547,649.3,547z
	 M649.3,532.8c-0.1,0-0.1,0-0.2,0c-1.1,0-2.1,0.5-2.9,1.4c-0.8,0.8-1.1,1.9-1.1,3c0.1,2.3,2.1,4.1,4.4,4c1.1,0,2.1-0.5,2.9-1.4
	c0.8-0.8,1.1-1.9,1.1-3l0,0c0-1.1-0.5-2.1-1.4-2.9C651.3,533.1,650.3,532.8,649.3,532.8z"/>
<path id="XMLID_12_" class="st18" d="M583.8,492.3c-9.8,0-40.7,0-40.7,0l-4.1,20.1h-17.1l-3.2,15h17.2l-1,5.1H518l-3.2,15h17
	l-7,34.1H543l6.8-34c38.8,2.7,52.5-8.4,55-29.2C607.3,499.7,593.5,492.3,583.8,492.3z M586.9,519.8c-1.1,6.5-4.4,14.2-33.9,12.3
	l0.9-4.8l2.8-15l0.9-5.1c0,0,12.3,0,20.8,0C586.9,507.3,587.7,515,586.9,519.8z"/>
</svg>
