<svg xmlns="http://www.w3.org/2000/svg" viewBox="0 0 512 512"><defs><style>.cls-1{fill:#fd0002;}.cls-2{fill:#fff;}.cls-3{font-size:97.73px;fill:#ffac06;font-family:MyriadPro-SemiboldIt, Myriad Pro;font-weight:600;font-style:italic;}</style></defs><title>mobile payments</title><g id="Layer_2" data-name="Layer 2"><rect class="cls-1" y="10.5" width="504" height="493.2" rx="61.05"/><path class="cls-2" d="M244.11,164.54c-21.38,4.4-61.34,44.69-35.62,69.39C244,268,305,207.12,325.68,179.51s58.6-87.36,19.54-132.17S203.9,56.54,169.43,96.75s-8,85,37.91,58.59S294.66,85.26,324.53,95.6s-33.31,128.45-97.65,138.33c0,0-4.6-22.29,21.83-39.52S252.82,162.74,244.11,164.54Z"/><path class="cls-2" d="M79.9,300.32l4.59,14.17s16.09-10.34,26-8.81,10,3.83,11.88,8.42a17.63,17.63,0,0,1,.76,9.58s-14.25-3.83-28.72.38S67.64,344.36,73,361.21s12.64,26,39.83,26.81,33.32-13.79,33.32-13.79V314.49C146.15,285,101.34,279.64,79.9,300.32ZM122,369.64s-18,5.36-24.51-8.43S105.17,335.78,122,338Z"/><rect class="cls-2" x="163.77" y="293.42" width="21.83" height="94.63"/><path class="cls-2" d="M257.93,291.51l-4.54,18.38s-20.68-3.06-24.51,1.92v73.53H205.52V306.83S214.71,290,232.32,290,257.93,291.51,257.93,291.51Z"/><path class="cls-2" d="M289.39,308.36s-1.53,41,0,53.23,17.23,9.07,17.23,9.07v17.39h-7.28c-22.59.79-34.08-11.9-34.08-24.92V267h24.89v23h16.47v18.38Z"/><path class="cls-2" d="M389.32,373.08l-9.17-11.49s-8,9.07-24.89,9.07c-21.07,0-19.53-22.82-18.77-29.92H389S395.64,290,353.34,290c-40.66,0-44.17,44.68-40.6,64.2,3.11,17,18,38,51.33,33.87C385.77,385.34,389.32,373.08,389.32,373.08Zm-37.61-66.25c15,.76,14.27,18.38,14.27,18.38H337.26S336.67,306.06,351.71,306.83Z"/><path class="cls-2" d="M440.28,371.55v16.53c-21.45,5.81-39.83-5.42-39.83-22.27V268.53l23.75-3.83s-3.45,77.36,0,95S440.28,371.55,440.28,371.55Z"/><path class="cls-2" d="M190,267a15.32,15.32,0,1,1-15.31-15.32A15.31,15.31,0,0,1,190,267Z"/><text class="cls-3" transform="translate(108.93 459.65)">money</text></g></svg>