<?xml version="1.0" encoding="utf-8"?>
<!-- Generator: Adobe Illustrator 19.0.0, SVG Export Plug-In . SVG Version: 6.00 Build 0)  -->
<svg version="1.1" xmlns="http://www.w3.org/2000/svg" xmlns:xlink="http://www.w3.org/1999/xlink" x="0px" y="0px"
	 viewBox="60 -260 1080 1080" style="enable-background:new 60 -260 1080 1080;" xml:space="preserve">
<style type="text/css">
	.st0{fill:#FFB41D;}
	.st1{fill:#FFFFFF;}
</style>
<g id="Layer_2_1_">
	<circle class="st0" cx="600" cy="280" r="505.8"/>
</g>
<g id="Layer_1">
	<g id="Layer_1_1_">
	</g>
	<g id="Layer_2">
		<path id="XMLID_20_" class="st1" d="M824.5,206.6c34.3-107.6-121-156.4-121-156.4l27.8-97.4l-57.8-13.5l-26,92.7l-49-11.3l26-92.7
			l-57.8-16.5l-27.7,98L423.8-19.5l-17.1,60.8c56.1,13.5,79.7,20.7,73.8,42.5c-5.9,21.8-62,242.6-69,266.8
			c-7.1,24.2-17.1,26-30.7,21.8s-46.6-13-46.6-13l-26.6,69l124.4,32l-28.9,99.2l57.2,13l25.4-96.2l49.5,12.4l-26,97.4l60.8,15.3
			l24-99.5c3.4,1,15.6,3.4,53.3,8.6c67.9,9.4,129.3-10,161.1-102.7c29.9-86.8-60.8-132.2-60.8-132.2S803.2,273.3,824.5,206.6z
			 M694.6,374.2c-9.4,48.4-53.7,63.2-93.8,54.9c-44.5-9.2-96.8-25.3-96.8-25.3l36.6-132.8C659.2,299.8,702.6,333.6,694.6,374.2z
			 M710,189.5c-7.7,31.3-50.2,47.2-85.6,39.6c-35.4-7.7-72-17.1-72-17.1l30.1-120.4c0,0,7.1,0,58.4,13.5
			C692.3,118.6,717.7,158.2,710,189.5z"/>
	</g>
</g>
</svg>
