<?xml version="1.0" encoding="utf-8"?>
<!-- Generator: Adobe Illustrator 19.0.0, SVG Export Plug-In . SVG Version: 6.00 Build 0)  -->
<svg version="1.1" xmlns="http://www.w3.org/2000/svg" xmlns:xlink="http://www.w3.org/1999/xlink" x="0px" y="0px"
	 viewBox="60 -260 1080 1080" style="enable-background:new 60 -260 1080 1080;" xml:space="preserve">
<style type="text/css">
	.st0{fill:#FFB41D;}
	.st1{fill:#FFFFFF;}
</style>
<g id="Layer_2_2_">
</g>
<g id="Layer_1">
	<g>
		<path class="st0" d="M1039.5,816.9h-879C105,816.9,60,771.9,60,716.4v-872.7c0-55.5,45-100.5,100.5-100.5h879
			c55.5,0,100.5,45,100.5,100.5v872.7C1140,771.9,1095,816.9,1039.5,816.9z"/>
		<g id="Layer_1_2_">
			<g id="Layer_1_1_">
			</g>
			<g id="Layer_2">
				<path id="XMLID_20_" class="st1" d="M878.1,198.6C917.9,73.6,737.6,17,737.6,17l32.3-113.1l-67.1-15.7L672.6-4.1l-56.9-13.1
					l30.2-107.6L578.8-144L546.6-30.3L412.9-63.9L393.1,6.7c65.1,15.7,92.5,24,85.7,49.3c-6.8,25.3-72,281.7-80.1,309.7
					c-8.2,28.1-19.9,30.2-35.6,25.3c-15.8-4.9-54.1-15.1-54.1-15.1L278,456.1l144.4,37.2l-33.6,115.2l66.4,15.1l29.5-111.7
					l57.5,14.4l-30.2,113.1l70.6,17.8l27.9-115.5c3.9,1.2,18.1,3.9,61.9,10c78.8,10.9,150.1-11.6,187-119.2
					c34.7-100.8-70.6-153.5-70.6-153.5S853.4,276,878.1,198.6z M727.3,393.1c-10.9,56.2-62.3,73.4-108.9,63.7
					C566.7,446.2,506,427.5,506,427.5l42.5-154.2C686.2,306.8,736.6,346,727.3,393.1z M745.2,178.7c-8.9,36.3-58.3,54.8-99.4,46
					c-41.1-8.9-83.6-19.9-83.6-19.9l34.9-139.8c0,0,8.2,0,67.8,15.7C724.6,96.4,754.1,142.4,745.2,178.7z"/>
			</g>
		</g>
	</g>
</g>
</svg>
