<?xml version="1.0" encoding="utf-8"?>
<!-- Generator: Adobe Illustrator 19.0.0, SVG Export Plug-In . SVG Version: 6.00 Build 0)  -->
<svg version="1.1" id="Layer_1" xmlns="http://www.w3.org/2000/svg" xmlns:xlink="http://www.w3.org/1999/xlink" x="0px" y="0px"
	 viewBox="0 0 480 480" style="enable-background:new 0 0 480 480;" xml:space="preserve">
<style type="text/css">
	.st0{fill:#1565A6;}
	.st1{fill:#FFFFFF;}
</style>
<rect id="XMLID_11_" class="st0" width="480" height="480"/>
<g id="XMLID_13_">
	<path id="XMLID_10_" class="st1" d="M96.2,202.5l-4.9,28h23.5l-0.9,7.2h-24l-5.3,30.5h28.9l-1.2,8.4c0,0-7.3,0-18,0
		c-10.6,0-22.6,1.1-21-7.3c1.7-8.4,10.1-59.4,11.1-64.6c1-5.3,2.1-9.4,8.2-9.4c6.2,0,30.8,0,30.8,0l-1.8,7.5L96.2,202.5z"/>
	<path id="XMLID_9_" class="st1" d="M162.2,216.3l-4,5.6c0,0-1.4-2.5-7.4-3.1c-8.8-1-18.4,8.5-21.4,25.6c-3.1,17.2,4.4,24.6,11,24.8
		s10.6-3.7,10.6-3.7l1.6,7c0,0-4.2,5.7-16.3,5c-12.1-0.8-20.9-12.2-17.7-34.1c3.2-21.9,21.1-32.5,31.6-32
		C160.7,211.9,162.2,216.3,162.2,216.3z"/>
	<path id="XMLID_22_" class="st1" d="M195.7,211.9c-10.1-1.9-24.7,2.8-31.3,25.1s-2.1,39.5,15.1,39.6c17.3,0.2,26.8-11.6,30.5-26.7
		C213.8,234.9,215.3,215.6,195.7,211.9z M201.5,242.8c-3.4,27.5-22.1,30.2-26.5,23.8c-5.8-8.5-3.2-24.7,0-34.1
		c3.1-9.4,9.8-14.4,17.6-14.4C192.7,218,204.6,218,201.5,242.8z"/>
	<path id="XMLID_19_" class="st1" d="M252.9,212c-10.9-2-18.4,2.7-18.4,2.7l5.2-30.8l-12.1,6.9L214.2,272c0,0,15.5,12.1,33.3,1
		c17.9-11.1,19.2-29,19.7-38.8C267.7,224.5,263.8,213.9,252.9,212z M254.2,250.4c-6.5,18.8-16.1,22.6-29.6,18l8.2-48.8
		c0,0,9.5-4.4,16.1-1.6C255.4,220.9,260.7,231.6,254.2,250.4z"/>
	<path id="XMLID_16_" class="st1" d="M303,212c-15.5-0.9-24.3,5.1-24.3,5.1l1.5,6.6c0,0,9.9-7.2,21-4.3c11.1,2.8,6.1,15.5,6.1,15.5
		s-32.2,0.2-38.5,20.8c-6.3,20.6,14.2,22.2,21.5,22.1c7.3,0,19.9-4.8,19.9-4.8s6.3-31.7,8.3-42.2C320.7,220.3,314,212.6,303,212z
		 M301.4,268.3c0,0-5.1,4.3-16.2,1.8c-11.1-2.5-7.5-17-4-20.7c4.3-4.7,13.6-9.7,25-9.5L301.4,268.3z"/>
	<path id="XMLID_2_" class="st1" d="M370.8,238.1c-1.1,6.4-6.3,38.1-6.3,38.1h-10.6c0,0,3.2-15.6,5.5-30.2
		c1.8-11.3,3.5-21.9,0.7-24.5c-6.2-6-20.8-1.6-20.8-1.6l-9.7,56.3h-11.6l10.2-59.5c10.2-3.8,20.2-6.8,34.1-3.8
		C376.3,215.8,371.8,231.7,370.8,238.1z"/>
	<path id="XMLID_1_" class="st1" d="M397.3,242.8l20.9,33.4h-11.6L388.1,244l-5.6,32.3h-10.9c0,0,10.1-51.2,12.8-73.7
		c2.7-22.5-6.4-33.5-37.1-38.3c-29.4-4.6-82.8,12.3-87.2,13.7c4.4-1.7,58.8-22.5,90.6-18.7c31.5,3.8,47.2,15,44,41.1
		c-3.1,25.3-6.3,40.1-6.5,41.1l27.3-28.7h10.9L397.3,242.8z"/>
</g>
</svg>
