<?xml version="1.0" encoding="utf-8"?>
<!-- Generator: Adobe Illustrator 19.0.0, SVG Export Plug-In . SVG Version: 6.00 Build 0)  -->
<svg version="1.1" xmlns="http://www.w3.org/2000/svg" xmlns:xlink="http://www.w3.org/1999/xlink" x="0px" y="0px"
	 viewBox="-223 25 512 512" style="enable-background:new -223 25 512 512;" xml:space="preserve">
<style type="text/css">
	.st0{fill:#214EDB;}
	.st1{fill:#FFFFFF;}
	.st2{fill:#1D5FA7;}
	.st3{fill:#4D97C1;}
</style>
<g id="Layer_2_1_">
	<path class="st0" d="M229.7,521.4h-393.4c-26.5,0-48-21.5-48-48V80c0-26.5,21.5-48,48-48h393.4c26.5,0,48,21.5,48,48v393.4
		C277.7,499.9,256.2,521.4,229.7,521.4z"/>
</g>
<g id="Layer_3_1_">
	<g id="XMLID_341_">
		<path id="XMLID_342_" class="st1" d="M47.7,254.2c0-1.3-0.2-2.1-1.3-2.1c-1.1,0-1.5,0.7-1.5,2.1v15h-6.6v-15
			c0-1.3-0.2-2.1-1.3-2.1c-1.1,0-1.5,0.7-1.5,2.1v15h-6.5v-14.8c0-2.3,0.1-4.1,1-5.7c1.2-2,3.2-3.1,5.7-3.1s4.5,1.2,5.8,3.4
			c1.3-2.1,3.4-3.4,5.8-3.4c2.1,0,4,0.8,5.3,2.3c1.3,1.7,1.6,3.8,1.6,6.4V269h-6.5C47.7,269,47.7,254.2,47.7,254.2z"/>
		<path id="XMLID_344_" class="st1" d="M59.7,249.1c2.2-2.2,5.4-3.6,8.5-3.6c3.2,0,6.3,1.3,8.5,3.6s3.5,5.4,3.5,8.5
			c0,2.7-0.9,5.5-2.7,7.6c-2.2,2.8-5.6,4.4-9.4,4.4c-2.7,0-5.5-0.9-7.6-2.7c-2.8-2.2-4.4-5.7-4.4-9.3
			C56.1,254.4,57.3,251.4,59.7,249.1z M68.2,262.8c2.9,0,5.3-2.3,5.3-5.3c0-2.9-2.3-5.3-5.3-5.3c-2.9,0-5.3,2.3-5.3,5.3
			C62.9,260.5,65.3,262.8,68.2,262.8z"/>
		<path id="XMLID_347_" class="st1" d="M82.6,269.1V246h8.5c4.9,0,7.4,1.9,7.4,5.9c0,1.9-0.8,3.5-2.5,4.8c2.2,1.2,3.4,3.4,3.4,5.9
			c0,3.9-2.8,6.6-7.5,6.6c-0.4,0-0.9,0-1.3-0.1v-5.8H92c0.9,0,1.3-0.3,1.3-1.5s-0.4-1.3-1.3-1.3h-1.5v-5.7h0.6
			c0.9,0,1.3-0.3,1.3-1.5s-0.6-1.3-1.3-1.3h-1.6v17.2L82.6,269.1L82.6,269.1z"/>
		<path id="XMLID_349_" class="st1" d="M101.6,246h6.9v23.1h-6.9V246z"/>
		<path id="XMLID_351_" class="st1" d="M118.5,246v13.6c0,1.9,0.8,2.8,2.3,2.8c0.2,0,0.4,0,0.7,0v6.7h-1.6c-2.5,0-4.4-0.6-5.9-2
			c-2.3-2.1-2.3-4.7-2.3-8c0-0.2,0-0.6,0-0.8V246H118.5z"/>
		<path id="XMLID_353_" class="st1" d="M132.5,269.1c-0.3,0-0.7,0-0.9,0c-1.7,0-3.1-0.1-4.8-0.9c-2.1-1.2-3.4-3.2-3.4-5.3v-8.7
			c0-2.7,0.1-4.7,2.3-6.6c1.6-1.2,3.5-1.7,6.1-1.7h4.5v6.7h-4.4c-0.9,0-1.3,0.2-1.3,1.1s0.4,1.1,1.3,1.1h4.1v5.1h-4.8
			c-0.9,0-1.3,0.2-1.3,1.1c0,0.9,0.4,1.1,1.3,1.1h5v6.7L132.5,269.1L132.5,269.1z"/>
	</g>
	<g id="XMLID_320_">
		<path id="XMLID_322_" class="st1" d="M47.7,287.6c0-1.3-0.2-2.1-1.3-2.1c-1.1,0-1.5,0.7-1.5,2.1v15h-6.6v-15
			c0-1.3-0.2-2.1-1.3-2.1c-1.1,0-1.5,0.7-1.5,2.1v15h-6.5v-14.8c0-2.3,0.1-4.1,1-5.7c1.2-2,3.2-3.1,5.7-3.1s4.5,1.2,5.8,3.4
			c1.3-2.1,3.4-3.4,5.8-3.4c2.1,0,4,0.8,5.3,2.3c1.3,1.7,1.6,3.8,1.6,6.4v14.8h-6.5C47.7,302.4,47.7,287.6,47.7,287.6z"/>
		<path id="XMLID_324_" class="st1" d="M59.7,282.6c2.2-2.2,5.4-3.6,8.5-3.6c3.2,0,6.3,1.3,8.5,3.6c2.2,2.2,3.5,5.4,3.5,8.5
			c0,2.7-0.9,5.5-2.7,7.6c-2.2,2.8-5.6,4.4-9.4,4.4c-2.7,0-5.5-0.9-7.6-2.7c-2.8-2.2-4.4-5.7-4.4-9.3
			C56.1,287.8,57.3,284.8,59.7,282.6z M68.2,296.2c2.9,0,5.3-2.3,5.3-5.3c0-2.9-2.3-5.3-5.3-5.3c-2.9,0-5.3,2.3-5.3,5.3
			C62.9,293.8,65.3,296.2,68.2,296.2z"/>
		<path id="XMLID_327_" class="st1" d="M82.4,290.2c0-0.2,0-0.4,0-0.7c0-1.8,0.1-3.6,1-5.7c1.2-3,4.1-4.9,7.3-4.9
			c2.7,0,5,1.3,6.5,3.6c1.6,2.3,1.7,4.8,1.7,7.7v12.3h-6.7v-14c0-1.7-0.3-2.6-1.5-2.6c-1.2,0-1.3,1-1.3,2.6v14h-6.8v-12.3
			L82.4,290.2L82.4,290.2z"/>
		<path id="XMLID_329_" class="st1" d="M110.7,302.6c-0.3,0-0.7,0-0.9,0c-1.7,0-3.1-0.1-4.8-0.9c-2.1-1.2-3.4-3.2-3.4-5.3v-8.7
			c0-2.7,0.1-4.7,2.3-6.6c1.6-1.2,3.5-1.7,6.1-1.7h4.5v6.7h-4.4c-0.9,0-1.3,0.2-1.3,1.1c0,0.9,0.4,1.1,1.3,1.1h4.1v5.1h-4.9
			c-0.9,0-1.3,0.2-1.3,1.1c0,0.9,0.4,1.1,1.3,1.1h5v6.7L110.7,302.6L110.7,302.6z"/>
		<path id="XMLID_331_" class="st1" d="M122,302.6v-12.6l-6.7-10.5h6.9l3.2,4.6l3.2-4.6h6.9l-6.7,10.5v12.6H122z"/>
	</g>
	<path id="XMLID_450_" class="st1" d="M-135.7,334.6c-1.7-0.3-3.4-0.7-4.9-1c0.2,0.4,0.4,1,0.6,1.5c1.6,0.3,3.2,0.7,4.9,0.9
		C-135.3,335.5-135.6,335.1-135.7,334.6z M-140.7,321.4c-2.1-6-3.9-12-5.3-17.7c-0.1-0.6-0.2-1-0.3-1.6h-1.7v9.8
		c0.7,2.2,1.3,4.6,2.1,6.8c0.2,0.6,0.4,1.2,0.6,1.8c0.1,0.4,0.3,0.9,0.4,1.3c1.6,0.2,3.1,0.4,4.7,0.7
		C-140.5,322.2-140.6,321.9-140.7,321.4z M-71.4,285.5c-0.3,0-0.7,0.1-1.1,0.1c-8.9,1.2-17.2,1.8-24.9,1.9c-0.3,0-0.8,0.1-1.1,0.1
		h-1c-3.1,0-6-0.1-8.9-0.3c0.1,1.5,0.2,2.9,0.4,4.5c2.7,0.1,5.5,0.1,8.4,0.1h0.4c0.3,0,0.7,0.1,1,0c0.3,0,0.8,0,1.1,0
		c7.6-0.1,15.8-0.7,24.6-1.8c0.3,0,0.8-0.1,1.1-0.1s0.7-0.1,1-0.1c0.1-1.5,0.1-2.9,0.2-4.4C-70.6,285.3-71,285.3-71.4,285.5z
		 M-49,281.2c0.7-22.9-2.6-42.2-6.8-57.2c6.3-1.6,12.6-3.7,19.1-6.3c8.7,12.9,12.1,25.1,12.2,25.5l4-1c-0.1-0.6-14.8-55.4-64.5-56.9
		c-23.2-0.7-46.7,9.3-64.3,27.2c-18.8,19.1-28.7,44.9-27.6,71c2.6,54.2,49,85.6,80,86.6v-1l0,0l3.5-2.2c-5.8-8.9-10.7-18-14.6-26.9
		c8.3,1.2,16.9,2.1,25.5,2.1c6.5,0,13-0.4,19.1-1.6c-0.1,0.2-0.1,0.4-0.2,0.7l4,1.2c0.3-1,0.6-1.9,0.8-2.9c1.3-0.3,2.7-0.7,4-1
		l-1.1-4c-0.6,0.1-1,0.2-1.6,0.3c4.9-17.8,7.4-34.2,8.2-49.2c8.6-2,17.7-4.5,27.2-7.6l-1.3-4C-32.2,277.1-40.8,279.4-49,281.2z
		 M-39.2,214.3c-6,2.3-12,4.2-17.8,5.8c-4.1-13.1-8.8-22.5-11.7-27.7C-55.7,196.7-46,205.3-39.2,214.3z M-74.5,190.8
		c1.8,2.7,8,13.2,13.5,30.2c-15.8,3.6-30.4,4.5-43.1,3.9c9.8-18.9,21.5-31.3,24.9-34.9C-77.6,190.2-76,190.5-74.5,190.8z
		 M-84.9,189.6c0.1,0,0.2,0,0.2,0c-5.4,5.7-15.5,17.8-24.1,35.1c-10.2-0.8-19-2.3-25.8-4C-116.2,196.6-87.7,190.1-84.9,189.6z
		 M-122.3,267.2c0,0.2-0.1,0.6-0.1,0.8c-0.2,1.8-0.4,3.7-0.7,5.6c0,0.3-0.1,0.6-0.1,0.9c-0.1,0.4-0.1,1-0.1,1.5
		c-0.2,3.1-0.3,6.4-0.3,9.7c-8.6-1.3-16.1-3.2-22.5-5.4c-0.7-0.2-1.5-0.4-2.1-0.7c-0.7-0.2-1.3-0.4-2-0.7c-0.2-3-0.3-6-0.2-8.9
		c0-0.3,0-0.7,0-1s0-0.7,0-1.1c0.3-13,3.1-24.6,8.3-35.1c1.5-3,3.1-5.8,4.9-8.4c6.9,1.8,16,3.5,26.5,4.4c-1.3,2.9-2.7,5.9-3.9,9.2
		c-3.1,8-5.8,17.4-7.4,27.8C-122.2,266.1-122.3,266.7-122.3,267.2z M-138.1,328.6c-0.7-1.7-1.2-3.2-1.8-4.9c-0.1-0.3-0.2-0.7-0.3-1
		c-0.1-0.4-0.3-0.9-0.4-1.2c-2.1-6-3.9-12-5.3-17.7c-0.1-0.6-0.2-1-0.3-1.6c-0.1-0.3-0.2-0.7-0.2-1.1c-0.4-2-0.9-3.9-1.2-5.9
		c-0.1-0.3-0.1-0.7-0.2-1c-0.7-3.6-1.2-7-1.6-10.4c0.6,0.2,1,0.3,1.6,0.6c0.7,0.2,1.3,0.4,2.1,0.7c6.4,2,14,3.9,22.6,5.1
		c0.4,13.6,3.1,28.4,9.1,44.1c-3.6-0.7-7.2-1.5-10.5-2.2c-0.7-0.2-1.5-0.3-2.1-0.6C-131,330.6-134.7,329.6-138.1,328.6z
		 M-146.3,215.4c12.2-12.4,27.2-20.7,42.9-24.1c-11.1,4.9-25.1,13.5-35.8,28.2c-3.7-1-6.6-2-8.5-2.7
		C-147.1,216.4-146.7,215.8-146.3,215.4z M-150.5,220.2c1.7,0.7,4.8,1.8,9.1,2.9c-1.6,2.3-3,4.9-4.4,7.6c-5.4,11-8.3,23.2-8.6,36.9
		c0,0.3,0,0.8,0,1.1c-0.1,2.8,0,5.6,0.1,8.4c-0.7-0.3-1.5-0.6-2.1-0.9c-8.5-3.8-13.5-7.5-15.3-8.9
		C-169.5,250.1-162.2,233.7-150.5,220.2z M-172.6,283.1c-0.2-3.7-0.1-7.4,0.2-11c3,2.2,8.3,5.6,15.9,8.8c0.7,0.3,1.3,0.6,2.1,0.9
		c0.1,0.1,0.2,0.1,0.3,0.2c0.9,9.5,2.9,19.4,5.9,30c0.7,2.2,1.3,4.6,2.1,6.8c0.2,0.6,0.4,1.2,0.6,1.8c0.1,0.4,0.3,0.9,0.4,1.3
		c0.1,0.3,0.2,0.6,0.3,0.9c0.4,1.3,0.9,2.7,1.5,4c-4.4-1.3-8.2-2.7-11.2-3.8c-0.8-0.2-1.5-0.6-2.1-0.8c-3.1-1.1-5.3-2-6.1-2.3
		C-168.2,309.5-172,297.1-172.6,283.1z M-156.5,330.2L-156.5,330.2L-156.5,330.2c-1-1.3-1.9-2.7-2.8-4.1c0.9,0.3,1.8,0.7,2.7,1
		c0.7,0.2,1.3,0.6,2.1,0.8c3.6,1.3,8,2.8,13.2,4.4c0.2,0.4,0.3,1,0.6,1.5c0.2,0.4,0.4,1,0.6,1.5c0.1,0.3,0.2,0.6,0.3,0.9
		c2.3,5.8,5,11.6,7.9,17.7C-140.8,347.8-149.5,339.9-156.5,330.2z M-98.8,365.7c-8.2-0.7-17.3-3.5-26.4-8.2c-3.6-7-6.8-14-9.6-20.6
		c-0.1-0.3-0.2-0.7-0.4-1c-0.2-0.4-0.3-0.9-0.6-1.3c-0.1-0.3-0.2-0.7-0.4-1c2.1,0.6,4.2,1.2,6.5,1.7c0.9,0.2,1.7,0.4,2.6,0.7
		c0.7,0.2,1.3,0.3,2.1,0.6c3.9,0.9,8.2,1.8,12.4,2.6C-109.1,347.7-104.5,356.5-98.8,365.7z M-61.8,335.9
		c-15.3,2.9-32.3,1.9-47.9-0.7c-5.9-14.9-9.2-29.7-9.7-44.5c2.9,0.3,6,0.7,9.2,0.8c0.3,0,0.7,0,1,0.1c0.3,0,0.8,0,1.2,0
		c2.7,0.1,5.5,0.1,8.4,0.1h0.4c0.3,0,0.7,0.1,1,0c0.3,0,0.8,0,1.1,0c7.6-0.1,15.8-0.7,24.6-1.8c0.3,0,0.8-0.1,1.1-0.1s0.7-0.1,1-0.1
		c3-0.4,6-0.9,9.2-1.5c0.3,0,0.7-0.1,1.1-0.2c0.3-0.1,0.7-0.1,1-0.2c1.9-0.3,3.9-0.8,5.9-1.2C-54.2,301.6-56.8,318-61.8,335.9z
		 M-53.1,282.2c-2,0.4-3.9,0.8-5.8,1.2c-0.3,0.1-0.7,0.1-1.1,0.2c-0.3,0.1-0.7,0.1-1.1,0.2c-3.1,0.6-6.3,1.1-9.3,1.5
		c-0.3,0-0.7,0.1-1,0.1c-0.3,0-0.7,0.1-1.1,0.1c-8.9,1.2-17.2,1.8-24.9,1.9c-0.3,0-0.8,0.1-1.1,0.1h-1c-3.1,0-6-0.1-8.9-0.3
		l-1.1-0.1c-0.3,0-0.7-0.1-1-0.1c-3.1-0.2-6-0.4-8.8-0.9c0-4.1,0.2-8.3,0.6-12.4c0-0.6,0.1-1.2,0.2-1.8c0-0.3,0.1-0.7,0.1-1
		c0-0.2,0-0.3,0.1-0.6c0-0.2,0.1-0.6,0.1-0.9c0.1-0.4,0.1-1,0.2-1.5c1.3-9.5,3.9-19.1,7.5-28.5c1.5-3.7,2.9-7.2,4.6-10.5
		c3.1,0.2,6.4,0.2,9.7,0.2c6.1,0,12.7-0.3,19.4-1.1c0.3,0,0.7-0.1,1-0.1c0.3,0,0.7-0.1,1.1-0.1c3.4-0.4,6.7-1,10.2-1.7
		c0.3-0.1,0.7-0.1,1-0.2c0.3-0.1,0.8-0.1,1.1-0.2c0.9-0.2,1.9-0.4,2.9-0.7C-55.5,239.9-52.3,259.2-53.1,282.2z"/>
	<g id="XMLID_402_">
		<path id="XMLID_430_" class="st1" d="M-148.1,295.2l21-0.3v6.6l-21-0.3v21.1l0.8,0.2c7,1.8,16.9,1.8,20.2,1.8v11.2
			c-12.3,0-24.5-5.4-27.3-6.6v-59c12,0.9,25.5-3.2,28.2-4.2l7.9,5c-7.8,7-28.6,7.5-28.8,7.5h-1L-148.1,295.2L-148.1,295.2z"/>
		<path id="XMLID_432_" class="st2" d="M-127.1,323.1v1.1c-3.2,0-13.1,0-20.2-1.8l-0.8-0.2v-0.8
			C-139.7,323.5-127.1,323.1-127.1,323.1z"/>
		<polygon id="XMLID_417_" class="st3" points="-127.1,301.4 -127.1,302.6 -148.1,302.1 -148.1,301.1 		"/>
		<polygon id="XMLID_431_" class="st3" points="-127.1,293.7 -127.1,294.8 -148.1,295.2 -148.1,294.2 		"/>
		<path id="XMLID_416_" class="st2" d="M-147.1,278c0.2,0,21-0.4,28.8-7.5l-7.9-5c-2.7,0.9-16.2,5.1-28.2,4.2v59
			c2.8,1.3,15,6.6,27.3,6.6v1c-14.6,0.3-29.4-7-29.4-7v-60.9c14.6,1.5,29.6-4.2,29.6-4.2l9.7,5.9c-7.4,8.4-31,8.7-31,8.7v-1
			L-147.1,278z"/>
		<path id="XMLID_427_" class="st2" d="M-146,280.1v13l21-0.3v10.8l-21-0.3v17.3c8.2,1.9,19.8,1.6,19.9,1.6h1.1v15.4h-1
			c-0.3,0-0.7,0-1.1,0c-14.4,0-28.2-6.8-28.8-7.2l-0.6-0.3v-0.7c0,0,14.6,7.4,29.4,7v-13.3c0,0-12.6,0.3-21-1.8v-19.2l21,0.3v-8.7
			l-21,0.3V279c0,0,23.6-0.3,31-8.7l-9.7-5.9c0,0-15,5.6-29.6,4.2v-1.2l1.1,0.1c13,1.3,28.7-4.1,28.9-4.1l0.4-0.2l11,6.8l-0.8,0.9
			C-122.6,278.8-141.4,279.9-146,280.1z"/>
	</g>
	<g id="XMLID_337_">
		<path id="XMLID_385_" class="st1" d="M-61,281.7c0,0.7,0,1.5-0.1,2.1c-0.1,1.5-0.1,2.9-0.2,4.4c-3.4,41.2-26.7,42.9-26.9,42.9
			c-3.1,0.1-5.8-1-8.3-3.6c-6.8-6.8-10.1-22.2-11.5-35.9c-0.2-1.6-0.3-3-0.4-4.5c-0.8-9.6-0.8-17.8-0.8-20.6h10.1
			c-0.2,3-0.7,11.5-0.3,20.9c0,1.5,0.1,2.9,0.2,4.5c0.7,10.8,2.6,22.1,7,27c0.8,0.8,1.6,1.3,2.5,1.7c1,0.6,2.1,0.9,3.2,0.9
			c1.9,0,3.6-0.4,5-1.3c1.3-0.6,2.6-1.6,3.7-2.8c4.6-5.5,6.7-15.9,7.4-27.6c0.1-1.5,0.1-2.9,0.2-4.4c0.6-23-3.5-49.7-4.7-57.4
			c-0.1-0.3-0.1-0.7-0.2-1l10.1-1.5c0.1,0.2,0.2,0.4,0.3,0.7C-63.4,229.8-59.9,242.8-61,281.7z"/>
		<path id="XMLID_435_" class="st2" d="M-62.7,225.7c-0.6-1.5-0.9-2-0.9-2l-0.3-0.6l-13.6,1.9l0.1,1c0,0.1,0.1,0.9,0.3,2.1
			c1.2,7.7,5.3,34.8,4.6,57.4c0,1.5-0.1,2.9-0.2,4.4c-0.7,11.3-2.6,21-6.8,26c-2,2.3-4.4,3-7.2,3c-1.6,0-2.9-0.2-4.2-1.6
			c-4.1-4.5-5.9-15.1-6.5-25.6c-0.1-1.5-0.1-3-0.2-4.5c-0.3,0-0.8,0-1.1,0c0,1.5,0.1,2.9,0.2,4.5c0.7,12.3,2.8,25.3,8.5,28.7
			c1,0.4,2.1,0.6,3.2,0.6c1.8,0,3.6-0.2,5-1c6.6-4,9.3-16.1,9.9-30.3c0.1-1.5,0.1-2.9,0.2-4.4c0.6-23.1-3.6-50.1-4.7-57.4
			c-0.2-1.2-0.3-1.9-0.3-1.9l11.8-1.6c0,0,0.2,0.4,0.7,1.6c1.6,4,4.9,17.4,3.9,56c0,0.6,0,1.1-0.1,1.6c-0.1,1.6-0.1,3-0.2,4.4
			c-3.4,43.4-28.1,44.6-28.1,44.6c-13.9,0.4-19.1-22.2-21-41c-0.1-1.6-0.3-3-0.4-4.5c-0.3,0-0.7,0-1-0.1c0.1,1.5,0.2,3,0.4,4.5
			c1.5,14.2,4.8,30.4,12.2,37.8c2.8,2.8,5.9,4.4,9.5,4.4h0.4c0.2,0,25.7-1.9,29.1-45.9c0.1-1.5,0.2-2.9,0.2-4.4c0-0.4,0-0.9,0-1.3
			C-57.8,244.4-61,230.4-62.7,225.7z"/>
		<path id="XMLID_379_" class="st2" d="M-97,265.6c0,0.2-0.8,10.4-0.3,21.8c-0.3,0-0.8,0-1.1,0c-0.3-11.2,0.4-20.9,0.4-20.9h-12.2
			c0,0-0.2,9.2,0.7,20.6c-0.3,0-0.7,0-1-0.1c-0.9-11.4-0.7-20.7-0.7-21.6v-1h14.4L-97,265.6z"/>
		<path id="XMLID_381_" class="st2" d="M-89.9,320.6c-0.9-0.3-1.7-0.9-2.5-1.7c-4.6-4.9-6.4-16.1-7-27c-0.1-1.5-0.2-3-0.2-4.5
			c-0.3-9.4,0.1-17.8,0.3-20.9h1.1c0,0-0.8,9.6-0.4,20.9c0,1.5,0.1,2.9,0.2,4.5C-97.7,304.1-95.6,317-89.9,320.6z"/>
		<path id="XMLID_387_" class="st2" d="M-59.9,282c0,0.6,0,1.1-0.1,1.6c-0.1,1.6-0.1,3-0.2,4.4c-3.4,43.4-28.1,44.6-28.1,44.6
			c-13.9,0.4-19.1-22.2-21-41c-0.1-1.6-0.3-3-0.4-4.5c-0.9-11.4-0.7-20.6-0.7-20.6h1c0,2.8,0,11,0.8,20.6c0.1,1.5,0.2,3,0.4,4.5
			c1.5,13.7,4.6,29.1,11.5,35.9c2.5,2.5,5.1,3.6,8.3,3.6c0.2,0,23.6-1.6,26.9-42.9c0.1-1.5,0.2-2.9,0.2-4.4c0-0.7,0.1-1.3,0.1-2.1
			c1.1-38.9-2.3-51.9-3.8-55.5c-0.1-0.3-0.2-0.6-0.3-0.7l-10.1,1.5c0,0.2,0.1,0.6,0.2,1c1.2,7.7,5.3,34.4,4.7,57.4
			c0,1.5-0.1,2.9-0.2,4.4c-0.7,11.8-2.7,22.1-7.4,27.6c-1.1,1.3-2.3,2.2-3.7,2.8c6.6-4,9.3-16.1,9.9-30.3c0.1-1.5,0.1-2.9,0.2-4.4
			c0.6-23.1-3.6-50.1-4.7-57.4c-0.2-1.2-0.3-1.9-0.3-1.9l11.8-1.6c0,0,0.2,0.4,0.7,1.6C-62.3,229.9-58.9,243.4-59.9,282z"/>
	</g>
	<path id="XMLID_398_" class="st1" d="M128.6,81.1c-46.8-0.7-75.4,0-111.8,0c-36.4,0-39,35.1-39,52.9s0,42.2,0,42.2l16.8,9.6v-68.4
		h163.7l2.1,157.5h12.6V121.6C173,121.6,175.5,81.7,128.6,81.1z M108,98.6h-65v-6.3h65V98.6z"/>
	<path id="XMLID_397_" class="st1" d="M231.8,273.7l-17.4,49.4l-12.6-11.8c0,0-38.4,52.5-128.7,30.8c0,0,78.3,2.8,114.1-46.2
		c0,0-14.6-14.6-13-15.4C175.8,279.8,231.8,273.7,231.8,273.7z"/>
	<path id="XMLID_338_" class="st1" d="M156.2,358.9v75.5H-3.2V329.5l-18.9,18.9c0,0,0,56.7,0,74.2s9.1,49.7,39.9,49.7h124.5
		c33.5,0,35-37.8,35-37.8v-86.1L156.2,358.9z M78.6,462.8c-6.4,0-11.6-5.3-11.6-11.6c0-6.4,5.3-11.6,11.6-11.6s11.6,5.3,11.6,11.6
		C90.2,457.6,85,462.8,78.6,462.8z"/>
	<path id="XMLID_335_" class="st1" d="M-78.1,172c0,0,99.4,7,99.4,79S-80.2,385.4-122.9,394.4c0,0,112.1-58.1,111.2-142.7
		C-12.4,186-78.1,172-78.1,172z"/>
	<path id="XMLID_334_" class="st1" d="M152.4,145.4c-43.7-27.3-83.6,37.1-83.6,37.1l14.6,11.8L28,216.7l6.5-54.5l11.8,9.8
		c13-20.7,47.6-44,70-45.5C138.8,125.2,152.4,145.4,152.4,145.4z"/>
</g>
</svg>
