<?xml version="1.0" encoding="utf-8"?>
<!-- Generator: Adobe Illustrator 19.0.0, SVG Export Plug-In . SVG Version: 6.00 Build 0)  -->
<svg version="1.1" id="Layer_1" xmlns="http://www.w3.org/2000/svg" xmlns:xlink="http://www.w3.org/1999/xlink" x="0px" y="0px"
	 viewBox="-393 195.5 171.5 171.5" style="enable-background:new -393 195.5 171.5 171.5;" xml:space="preserve">
<style type="text/css">
	.st0{fill:#0C0C0C;}
	.st1{fill:#FFFFFF;}
</style>
<path id="XMLID_2_" class="st0" d="M-373.1,196.5h131.7c11.2,0,20.2,8.9,20.2,19.9v131.2c0,11-9.1,19.9-20.2,19.9h-131.7
	c-11.2,0-20.2-8.9-20.2-19.9V216.5C-393.3,205.4-384.3,196.5-373.1,196.5z"/>
<g id="Layer_2">
</g>
<g>
	<g id="Layer_1_78_">
		<g>
			<path class="st1" d="M-265.2,319.9h-84.2c-2.3,0-4.2,1.9-4.2,4.2c0,2.3,1.9,4.2,4.2,4.2h84.1c2.3,0,4.2-1.9,4.2-4.2
				C-261,321.7-262.9,319.9-265.2,319.9z"/>
			<path class="st1" d="M-344.1,308.9c-2.3,0-4.2,1.9-4.2,4.2c0,2.3,1.9,4.2,4.2,4.2h73.6c2.3,0,4.2-1.9,4.2-4.2
				c0-2.3-1.9-4.2-4.2-4.2h-1.1v-37.9h1.1c1.2,0,2.1-0.9,2.1-2.1c0-1.2-0.9-2.1-2.1-2.1h-73.6c-1.2,0-2.1,0.9-2.1,2.1
				c0,1.2,0.9,2.1,2.1,2.1h1.1v37.9L-344.1,308.9L-344.1,308.9z M-279.9,271.1v37.9h-12.6v-37.9H-279.9z M-301,271.1v37.9h-12.6
				v-37.9H-301z M-334.6,271.1h12.6v37.9h-12.6V271.1z"/>
			<path class="st1" d="M-349.3,263.1h84.1c0,0,0,0,0,0c2.3,0,4.2-1.9,4.2-4.2c0-1.8-1.2-3.4-2.8-4l-41.8-18.8
				c-1.1-0.5-2.4-0.5-3.5,0l-42.1,18.9c-1.8,0.8-2.8,2.8-2.4,4.7C-353,261.7-351.3,263.1-349.3,263.1z"/>
		</g>
	</g>
</g>
</svg>
