<svg xmlns="http://www.w3.org/2000/svg" viewBox="0 0 512 512"><defs><style>.cls-1{fill:#156000;}.cls-2{fill:#daeac7;}.cls-3{fill:#fff;}.cls-4{fill:#fe0000;}.cls-5{fill:#870000;}.cls-6{fill:#67ae25;}</style></defs><title>mobile payments</title><g id="Layer_2" data-name="Layer 2"><rect class="cls-1" x="4" y="10.5" width="504" height="493.2" rx="61.05"/></g><g id="Layer_3" data-name="Layer 3"><path class="cls-2" d="M152,215.31V176c0-20.34,10.05-23.61,23.14-23.61h52.37v-9.94c0-12.27,17.06-10.88,17.06,0V335c0,15.67-10.05,22-23.61,22H171.88C158.09,357,152,348.8,152,334.3Z"/><rect class="cls-3" x="162.3" y="183.75" width="72" height="72" rx="16.98"/><path class="cls-4" d="M252.45,215.68s-10.21,16.37-37.4,24.41c-21.89,6.48-59.23,6.76-76.81-5.08a13,13,0,0,0,7.43,1.33A60.29,60.29,0,0,0,184,227.76l.21.17s1.25-.89,3.22-2.46a123.83,123.83,0,0,0,10-8.8c6.25-6.15,12.74-14.07,14.65-21.7Z"/><path class="cls-5" d="M184,227.76a60.29,60.29,0,0,1-38.31,8.58c6-.53,15.39-4.51,26.84-19.86C172.51,216.48,180.59,225,184,227.76Z"/><path class="cls-6" d="M137.14,221v75.43H116.56V217.9c0-4.68-3.73-6.08-11.68-6.08v84.62H83.37V217s.94-6.53-12.62-5.13v84.62h-20V200.59H67.94l2.34,6.55a22,22,0,0,1,16.12-6.57c6.93,0,11.59,1.56,12.83,2.91a3.56,3.56,0,0,0,4.25.74,35.2,35.2,0,0,1,16.36-3.65C133.39,200.57,137.14,216.64,137.14,221Z"/><path class="cls-6" d="M291,203.4h-37.4v96.78H274V255.3h17.46c11.69-1.88,18.7-15.43,19.17-22.91S308.72,203.4,291,203.4Zm-2.8,35.06C284.88,247.82,274,245,274,245V214.15s9-1.87,11.84,0S291.43,229.11,288.16,238.46Z"/><path class="cls-6" d="M370.91,289.89v10.29H345.19c-16.83,0-23.37-11.22-23.37-20.1V223c0-11.21,8.41-19.63,20.1-19.63h26.66v9.92h-13.1c-9.12,0-14,2.23-14,7.69v14.18H366.7v13.32H341.46V271c0,7.27.46,18.9,10.28,18.9Z"/><path class="cls-6" d="M431.69,273.53c0,21-11.22,30.39-35.07,26.65-19.39-3.05-19.28-23.37-19.28-23.37h16c0,4.67,2.8,10.28,12.63,9.81s12.15-16.83-3.28-26.18S376.06,237.06,377.46,223s17.76-24.31,33.65-19.63,16.84,22,16.84,22H408.78s0-9.36-6.55-9.83S392,225.84,398.5,232.39,431.69,252.49,431.69,273.53Z"/><path class="cls-6" d="M467.22,203.4c-15.42,0-27.12,6.54-27.12,26v70.82h19.64V248.51h16.83v51.67h20.58V229.36C497.15,208.11,482.65,203.4,467.22,203.4Zm9.35,32.26H460.21V224c0-10.65,16.36-10.65,16.36-3Z"/></g></svg>