<?xml version="1.0" encoding="utf-8"?>
<!-- Generator: Adobe Illustrator 19.0.0, SVG Export Plug-In . SVG Version: 6.00 Build 0)  -->
<svg version="1.1" xmlns="http://www.w3.org/2000/svg" xmlns:xlink="http://www.w3.org/1999/xlink" x="0px" y="0px"
	 viewBox="-383 145 512 512" style="enable-background:new -383 145 512 512;" xml:space="preserve">
<style type="text/css">
	.st0{fill:#FCD532;}
	.st1{display:none;fill:#F9E9AA;}
	.st2{fill:#FFFFFF;}
	.st3{fill:#F93508;}
	.st4{fill:#417BAF;}
	.st5{fill:#13507A;}
	.st6{fill:#C11B00;}
	.st7{fill:#F2F2F2;}
</style>
<g id="Layer_2_1_">
	<rect x="-383" y="145" class="st0" width="512" height="512"/>
</g>
<g id="Layer_1">
	<g id="Layer_2">
		<polygon class="st0" points="3.4,543.6 -62.1,521.6 -34.2,367.1 -109.5,344.7 -92.2,310.7 -274.8,311.5 -348.8,369.5 
			-348.8,543.3 		"/>
	</g>
	<g id="Layer_1_1_">
		<rect id="XMLID_52_" x="-386.8" y="164.4" class="st1" width="513.1" height="517.2"/>
		<g id="XMLID_97_">
			<path id="XMLID_12_" class="st2" d="M-100.1,333.7l38.9-71l3.6-6.3l28.8,14.9l18.6-20.3l35.4,26.4v8.5l49.3-0.8l14.4,39.3
				l-43.9,219h11.3l-21.9,10l-2.4-6.1L-54.7,518L-29,369.9c0,0-31.5-20.6-62-23.9c-14.2-1.6-12.1-3.3-12.1-3.3L-100.1,333.7z"/>
			<path id="XMLID_75_" class="st2" d="M31.9,559.2l-4.4-8.2l-89.6-29.4l27.9-154.5c-8.9-5.2-33.7-10.5-57.3-17.5
				c-10.4-3.1-13.7-2.8-18-4.9l49.2-96.9l30.4,15.6l22.1-20.7l33,34.6l5.2,4.7l51.7-3.6l15.1,42.1L52.9,530.4h17.9L31.9,559.2z
				 M-47.4,512.8l84.3,28.3l0.7-0.4l46.2-219.2l-10.5-29.9l-48.1,0.8v-11.6l-31.6-21.5l-21.2,19.9L-55,265l-0.6,1L-95,338.9
				c1.2,0.2,2.8,0.4,4.7,0.6c31.6,3.5,63.5,23.9,64.8,24.7l3.6,2.3L-47.4,512.8z"/>
		</g>
		<path id="XMLID_91_" d="M32.3,549.1l-90.7-29.7l42.3-232.3l2.6-0.1c20.5-0.7,87.9-2.9,94.1-0.5l0,0c6.7,2.6,19.9,20.9,22.5,24.5
			l0.8,1.1L65.5,532.9L32.3,549.1z M-51.1,515l82.8,27.2l28-13.6l37.3-214.9c-6-8.3-15.3-19.7-18.7-21.2c-5-1.5-56.1-0.3-89,0.8
			L-51.1,515z"/>
		<path id="XMLID_78_" d="M3.2,536.2c1,0,30.5,8.1,32.5-1.7c2-9.8,42-218.9,44-228.7c2-9.8-6.7-16.5-16.2-16.8l15.9,0.6l21,23.4
			L62.6,530.9l-30.7,14.9L3.2,536.2z"/>
		<path id="XMLID_79_" d="M34.4,301.4l34.2,2.4L47.3,419.7C47.3,419.6,47.3,325.4,34.4,301.4z"/>
		<path id="XMLID_54_" d="M-3.8,445.1c0.2-1.4-0.7-2.7-2-3l-22.4-6.1l-1.7,14.3c0,0.1,0.1,0.3,0.2,0.3l24.5,7L-3.8,445.1z"/>
		<path id="XMLID_83_" d="M34.4,455.9c0.2-1.4-0.7-2.7-2-3L10,446.8l-1.7,14.3c0,0.1,0.1,0.3,0.2,0.3l24.5,7L34.4,455.9z"/>
		<path id="XMLID_84_" d="M30.4,479.4c0.2-1.4-0.7-2.7-2-3L6,470.3l-1.7,14.3c0,0.1,0.1,0.3,0.2,0.3l24.5,7L30.4,479.4z"/>
		<path id="XMLID_85_" d="M25.6,504.4c0.2-1.4-0.7-2.7-2-3l-22.4-6.1l-1.7,14.3c0,0.1,0.1,0.3,0.2,0.3l24.5,7L25.6,504.4z"/>
		<path id="XMLID_86_" d="M-11.8,493.5c0.2-1.4-0.7-2.7-2-3l-22.4-6.1l-1.7,14.3c0,0.1,0.1,0.3,0.2,0.3l24.5,7L-11.8,493.5z"/>
		<path id="XMLID_87_" d="M-8,468.5c0.2-1.4-0.7-2.7-2-3l-22.4-6.1l-1.7,14.3c0,0.1,0.1,0.3,0.2,0.3l24.5,7L-8,468.5z"/>
		<path id="XMLID_88_" class="st3" d="M38.5,431.2c0,0-5.1-35.9-59.5-57.6c0,0,1.6,36.4-1.5,43.6L38.5,431.2z"/>
		<path id="XMLID_81_" class="st4" d="M41.8,417.3c0,0-15.6-52.9-142-78.7l43.7-74.5C-56.4,264.1,48.3,295.1,41.8,417.3z"/>
		<path id="XMLID_90_" class="st4" d="M-24.9,267.8c2,0.3,55.4,40.9,63.3,77.9c0,0-5.8-67.1-48.8-92.2L-24.9,267.8z"/>
		<g id="XMLID_128_">
			<path id="XMLID_129_" class="st5" d="M-257.8,378.2c0.4,0.9,0.8,1.9,1.2,2.9c0.4-1,0.8-2,1.2-2.9c0.4-1,0.8-1.9,1.3-2.8
				l17.6-32.9c0.2-0.4,0.5-0.7,0.7-1c0.2-0.3,0.5-0.4,0.8-0.5c0.3-0.1,0.6-0.2,1-0.2c0.4,0,0.8,0,1.3,0h8.3v59.4h-9.7v-38.4
				c0-0.7,0-1.5,0.1-2.3c0-0.8,0.1-1.7,0.2-2.6l-18,33.7c-0.4,0.8-0.9,1.4-1.6,1.8c-0.7,0.4-1.4,0.6-2.3,0.6h-1.5
				c-0.9,0-1.6-0.2-2.3-0.6c-0.7-0.4-1.2-1-1.6-1.8l-18.2-33.8c0.1,0.9,0.2,1.8,0.2,2.6c0,0.9,0.1,1.7,0.1,2.4v38.4h-9.7v-59.4h8.3
				c0.5,0,0.9,0,1.3,0s0.7,0.1,1,0.2c0.3,0.1,0.6,0.3,0.8,0.5c0.3,0.2,0.5,0.6,0.7,1l17.7,33C-258.8,376.4-258.3,377.3-257.8,378.2z
				"/>
			<path id="XMLID_131_" class="st5" d="M-173.5,340.7v9.1h-17.9v50.3h-11.1v-50.3h-17.9v-9.1H-173.5z"/>
			<path id="XMLID_133_" class="st5" d="M-162.2,340.8c0.3,0,0.6,0.1,0.9,0.2c0.3,0.1,0.5,0.3,0.8,0.5c0.3,0.2,0.5,0.5,0.8,0.9
				l31.2,39.7c-0.1-1-0.2-1.9-0.2-2.8c0-0.9-0.1-1.8-0.1-2.6v-36.1h9.7V400h-5.7c-0.9,0-1.6-0.1-2.2-0.4c-0.6-0.3-1.1-0.8-1.7-1.5
				l-31.1-39.4c0.1,0.9,0.2,1.7,0.2,2.6c0,0.9,0.1,1.6,0.1,2.4v36.5h-9.7v-59.4h5.8C-162.9,340.7-162.5,340.8-162.2,340.8z"/>
		</g>
		<g id="XMLID_98_">
			<path id="XMLID_100_" class="st6" d="M-266.8,439c0.3,0.6,0.5,1.3,0.8,1.9c0.3-0.7,0.5-1.3,0.8-1.9c0.3-0.6,0.6-1.2,0.9-1.8
				l11.5-21.8c0.1-0.3,0.3-0.5,0.4-0.6c0.2-0.2,0.3-0.3,0.5-0.4c0.2-0.1,0.4-0.1,0.6-0.1s0.5,0,0.8,0h5.5v39.2h-6.4v-25.3
				c0-0.5,0-1,0-1.5c0-0.6,0.1-1.1,0.1-1.7l-11.8,22.2c-0.3,0.5-0.6,0.9-1.1,1.2c-0.4,0.3-0.9,0.4-1.5,0.4h-1
				c-0.6,0-1.1-0.1-1.5-0.4c-0.4-0.3-0.8-0.7-1.1-1.2l-12-22.3c0.1,0.6,0.1,1.2,0.2,1.7c0,0.6,0,1.1,0,1.6v25.3h-6.4v-39.2h5.5
				c0.3,0,0.6,0,0.8,0s0.4,0.1,0.6,0.1c0.2,0.1,0.4,0.2,0.5,0.4c0.2,0.2,0.3,0.4,0.5,0.6l11.7,21.8
				C-267.4,437.8-267.1,438.4-266.8,439z"/>
			<path id="XMLID_102_" class="st6" d="M-227.3,425.2c2.1,0,4,0.3,5.7,1c1.7,0.7,3.1,1.6,4.3,2.8c1.2,1.2,2.1,2.7,2.8,4.5
				c0.6,1.8,1,3.7,1,5.9c0,2.2-0.3,4.2-1,6c-0.7,1.8-1.6,3.3-2.8,4.5s-2.6,2.2-4.3,2.9c-1.7,0.7-3.6,1-5.7,1c-2.1,0-4-0.3-5.7-1
				s-3.1-1.6-4.4-2.9c-1.2-1.2-2.1-2.8-2.8-4.5c-0.7-1.8-1-3.8-1-6s0.3-4.2,1-5.9c0.7-1.8,1.6-3.3,2.8-4.5c1.2-1.2,2.7-2.2,4.4-2.8
				C-231.3,425.5-229.4,425.2-227.3,425.2z M-227.3,448.7c2.3,0,4-0.8,5.1-2.3c1.1-1.6,1.7-3.8,1.7-6.8s-0.6-5.3-1.7-6.9
				c-1.1-1.6-2.8-2.4-5.1-2.4s-4.1,0.8-5.2,2.4s-1.7,3.9-1.7,6.8c0,3,0.6,5.3,1.7,6.8C-231.4,447.9-229.6,448.7-227.3,448.7z"/>
			<path id="XMLID_105_" class="st6" d="M-210.1,453.5v-40.3h6.7v15.9c1.1-1.2,2.4-2.1,3.7-2.8c1.4-0.7,3-1,4.9-1
				c1.5,0,2.9,0.3,4.2,0.9c1.2,0.6,2.3,1.5,3.2,2.7c0.9,1.2,1.6,2.7,2.1,4.4c0.5,1.8,0.8,3.8,0.8,6c0,2.1-0.3,4-0.8,5.8
				c-0.6,1.8-1.4,3.3-2.4,4.6c-1,1.3-2.3,2.3-3.8,3s-3.1,1.1-4.9,1.1c-0.9,0-1.6-0.1-2.3-0.3c-0.7-0.2-1.3-0.4-1.9-0.7
				c-0.6-0.3-1.1-0.7-1.6-1.1s-1-0.9-1.4-1.5l-0.3,1.9c-0.1,0.5-0.3,0.8-0.6,1s-0.6,0.3-1.1,0.3h-4.5
				C-210.1,453.4-210.1,453.5-210.1,453.5z M-197.1,430.4c-1.4,0-2.6,0.3-3.6,0.9s-1.9,1.4-2.8,2.5v12.5c0.8,0.9,1.6,1.6,2.5,2
				s1.9,0.6,2.9,0.6s1.9-0.2,2.7-0.6c0.8-0.4,1.5-1,2.1-1.7c0.6-0.8,1-1.8,1.3-2.9c0.3-1.2,0.5-2.6,0.5-4.2s-0.1-3-0.4-4.1
				c-0.3-1.1-0.6-2-1.1-2.7s-1.1-1.2-1.8-1.5C-195.4,430.6-196.3,430.4-197.1,430.4z"/>
			<path id="XMLID_108_" class="st6" d="M-173,417.5c0,0.6-0.1,1.1-0.4,1.6c-0.2,0.5-0.6,0.9-0.9,1.3c-0.4,0.4-0.9,0.7-1.4,0.9
				c-0.5,0.2-1.1,0.3-1.7,0.3c-0.6,0-1.1-0.1-1.6-0.3s-1-0.5-1.3-0.9c-0.4-0.4-0.7-0.8-0.9-1.3s-0.3-1-0.3-1.6s0.1-1.2,0.3-1.7
				s0.5-1,0.9-1.4c0.4-0.4,0.8-0.7,1.3-0.9s1.1-0.3,1.6-0.3c0.6,0,1.2,0.1,1.7,0.3s1,0.5,1.4,0.9c0.4,0.4,0.7,0.8,0.9,1.4
				C-173.1,416.4-173,416.9-173,417.5z M-174,425.6v27.8h-6.7v-27.8H-174z"/>
			<path id="XMLID_111_" class="st6" d="M-161.2,413.2v40.3h-6.7v-40.3H-161.2z"/>
			<path id="XMLID_113_" class="st6" d="M-143.9,425.2c1.7,0,3.4,0.3,4.8,0.8c1.5,0.6,2.7,1.4,3.8,2.5s1.9,2.4,2.5,4
				s0.9,3.3,0.9,5.4c0,0.5,0,0.9-0.1,1.3c-0.1,0.3-0.1,0.6-0.3,0.8c-0.1,0.2-0.3,0.3-0.5,0.4s-0.5,0.1-0.8,0.1h-17.2
				c0.2,2.9,1,5,2.3,6.3s3.1,2,5.3,2c1.1,0,2-0.1,2.8-0.4c0.8-0.3,1.5-0.5,2.1-0.8s1.1-0.6,1.5-0.8c0.4-0.3,0.9-0.4,1.3-0.4
				c0.3,0,0.5,0.1,0.7,0.2s0.4,0.3,0.5,0.5l1.9,2.4c-0.7,0.9-1.6,1.6-2.5,2.2c-0.9,0.6-1.9,1.1-2.9,1.4c-1,0.4-2,0.6-3.1,0.7
				c-1,0.1-2,0.2-3,0.2c-1.9,0-3.7-0.3-5.4-1c-1.7-0.6-3.1-1.6-4.3-2.8c-1.2-1.3-2.2-2.8-2.9-4.7c-0.7-1.8-1.1-4-1.1-6.4
				c0-1.9,0.3-3.7,0.9-5.4c0.6-1.7,1.5-3.1,2.7-4.4c1.1-1.2,2.5-2.2,4.2-2.9C-147.9,425.6-146,425.2-143.9,425.2z M-143.8,430
				c-2,0-3.5,0.5-4.6,1.7c-1.1,1.1-1.8,2.7-2.1,4.7h12.6c0-0.9-0.1-1.7-0.4-2.5c-0.2-0.8-0.6-1.4-1.1-2s-1.1-1-1.8-1.4
				C-141.9,430.2-142.8,430-143.8,430z"/>
			<path id="XMLID_116_" class="st6" d="M-266.8,493.2c0.3,0.6,0.5,1.3,0.8,1.9c0.3-0.7,0.5-1.3,0.8-1.9c0.3-0.6,0.6-1.2,0.9-1.8
				l11.6-21.7c0.1-0.3,0.3-0.5,0.4-0.6c0.2-0.2,0.3-0.3,0.5-0.4c0.2-0.1,0.4-0.1,0.6-0.1s0.5,0,0.8,0h5.5v39.2h-6.4v-25.4
				c0-0.5,0-1,0-1.5c0-0.6,0.1-1.1,0.1-1.7l-11.8,22.2c-0.3,0.5-0.6,0.9-1.1,1.2c-0.4,0.3-0.9,0.4-1.5,0.4h-1
				c-0.6,0-1.1-0.1-1.5-0.4s-0.8-0.7-1.1-1.2l-12-22.3c0.1,0.6,0.1,1.2,0.2,1.7c0,0.6,0,1.1,0,1.6v25.3h-6.4v-39.2h5.5
				c0.3,0,0.6,0,0.8,0c0.2,0,0.4,0.1,0.6,0.1c0.2,0.1,0.4,0.2,0.5,0.4c0.2,0.2,0.3,0.4,0.5,0.6l11.7,21.8
				C-267.4,492-267.1,492.6-266.8,493.2z"/>
			<path id="XMLID_118_" class="st6" d="M-227.3,479.4c2.1,0,4,0.3,5.7,1c1.7,0.7,3.1,1.6,4.3,2.8c1.2,1.2,2.1,2.7,2.8,4.5
				c0.6,1.8,1,3.7,1,5.9c0,2.2-0.3,4.2-1,6c-0.7,1.8-1.6,3.3-2.8,4.5s-2.6,2.2-4.3,2.9c-1.7,0.7-3.6,1-5.7,1c-2.1,0-4-0.3-5.7-1
				s-3.1-1.6-4.4-2.9c-1.2-1.2-2.1-2.8-2.8-4.5c-0.7-1.8-1-3.8-1-6s0.3-4.2,1-5.9c0.7-1.8,1.6-3.3,2.8-4.5c1.2-1.2,2.7-2.2,4.4-2.8
				C-231.3,479.8-229.4,479.4-227.3,479.4z M-227.3,502.9c2.3,0,4-0.8,5.1-2.3c1.1-1.6,1.7-3.8,1.7-6.8s-0.6-5.3-1.7-6.9
				c-1.1-1.6-2.8-2.4-5.1-2.4s-4.1,0.8-5.2,2.4s-1.7,3.9-1.7,6.8c0,3,0.6,5.3,1.7,6.8C-231.4,502.1-229.6,502.9-227.3,502.9z"/>
			<path id="XMLID_121_" class="st6" d="M-210.3,507.7v-27.8h4.1c0.9,0,1.4,0.4,1.7,1.2l0.5,2.2c0.6-0.6,1.2-1.1,1.8-1.6
				s1.3-0.9,2-1.2c0.7-0.3,1.4-0.6,2.2-0.8c0.8-0.2,1.7-0.3,2.6-0.3c1.5,0,2.9,0.3,4,0.8c1.2,0.5,2.2,1.2,2.9,2.2
				c0.8,0.9,1.4,2,1.8,3.3s0.6,2.7,0.6,4.3v17.7h-6.7V490c0-1.7-0.4-3-1.2-3.9s-2-1.4-3.5-1.4c-1.2,0-2.2,0.3-3.3,0.8
				c-1,0.5-2,1.2-2.9,2.1v20.1L-210.3,507.7L-210.3,507.7z"/>
			<path id="XMLID_123_" class="st6" d="M-169.7,479.4c1.7,0,3.4,0.3,4.8,0.8c1.5,0.6,2.7,1.4,3.8,2.5c1.1,1.1,1.9,2.4,2.5,4
				c0.6,1.6,0.9,3.3,0.9,5.4c0,0.5,0,0.9-0.1,1.3c-0.1,0.3-0.1,0.6-0.3,0.8s-0.3,0.3-0.5,0.4s-0.5,0.1-0.8,0.1h-17.2
				c0.2,2.9,1,5,2.3,6.3s3.1,2,5.3,2c1.1,0,2-0.1,2.8-0.4c0.8-0.3,1.5-0.5,2.1-0.8c0.6-0.3,1.1-0.6,1.5-0.8c0.4-0.3,0.9-0.4,1.3-0.4
				c0.3,0,0.5,0.1,0.7,0.2s0.4,0.3,0.5,0.5l1.9,2.4c-0.7,0.9-1.6,1.6-2.5,2.2c-0.9,0.6-1.9,1.1-2.9,1.4c-1,0.4-2,0.6-3.1,0.7
				c-1,0.1-2,0.2-3,0.2c-1.9,0-3.7-0.3-5.4-1c-1.7-0.6-3.1-1.6-4.3-2.8c-1.2-1.3-2.2-2.8-2.9-4.7c-0.7-1.8-1.1-4-1.1-6.4
				c0-1.9,0.3-3.7,0.9-5.4c0.6-1.7,1.5-3.1,2.7-4.4c1.1-1.2,2.5-2.2,4.2-2.9C-173.7,479.8-171.8,479.4-169.7,479.4z M-169.6,484.2
				c-2,0-3.5,0.5-4.6,1.7c-1.1,1.1-1.8,2.7-2.1,4.7h12.6c0-0.9-0.1-1.7-0.4-2.5c-0.2-0.8-0.6-1.4-1.1-2s-1.1-1-1.8-1.4
				C-167.7,484.4-168.6,484.2-169.6,484.2z"/>
			<path id="XMLID_126_" class="st6" d="M-145.1,515.3c-0.2,0.5-0.5,0.8-0.8,1.1c-0.3,0.2-0.8,0.4-1.5,0.4h-5l5.2-11.1l-11.2-25.7
				h5.8c0.6,0,1,0.1,1.3,0.4s0.5,0.5,0.6,0.9l5.9,14.4c0.2,0.5,0.4,1,0.5,1.5c0.2,0.5,0.3,1,0.4,1.5c0.1-0.5,0.3-1,0.5-1.5
				c0.2-0.5,0.4-1,0.6-1.5l5.6-14.4c0.1-0.4,0.4-0.7,0.7-0.9c0.3-0.2,0.7-0.4,1.1-0.4h5.4L-145.1,515.3z"/>
		</g>
		<polygon id="XMLID_77_" class="st7" points="34.4,560.7 1,555.4 -360.8,555.4 -360.8,363.4 -278.9,298.7 -78,298.5 -87.3,310.7 
			-274.8,311.5 -348.8,369.5 -348.8,543.3 3.4,543.6 33.4,551.8 62.8,534.1 102.1,314.5 78.1,285.4 19.6,285.4 17.4,277.3 
			82.1,278.5 110.9,312.1 68.6,541.1 		"/>
		<path id="XMLID_76_" class="st2" d="M-34.1,367.1l16.2,7.7c0,0,3.2-8.3,2.3-8.8s-25.5-10.8-25.5-10.8L-34.1,367.1z"/>
		<path id="XMLID_99_" class="st2" d="M-19.9,282.9l7.4-5.6c0,0,16.4,14.9,21.2,20.1l-4.1,7C4.7,304.4-9.8,289.4-19.9,282.9z"/>
	</g>
</g>
</svg>
