<?xml version="1.0" encoding="utf-8"?>
<!-- Generator: Adobe Illustrator 19.0.0, SVG Export Plug-In . SVG Version: 6.00 Build 0)  -->
<svg version="1.1" id="Layer_1" xmlns="http://www.w3.org/2000/svg" xmlns:xlink="http://www.w3.org/1999/xlink" x="0px" y="0px"
	 viewBox="0 0 512 512" style="enable-background:new 0 0 512 512;" xml:space="preserve">
<style type="text/css">
	.st0{fill:#F7CD00;}
	.st1{fill:#FFFFFF;}
	.st2{fill:#F93508;}
	.st3{fill:#417BAF;}
	.st4{fill:#13507A;}
	.st5{fill:#C11B00;}
</style>
<rect id="XMLID_52_" class="st0" width="513.1" height="517.2"/>
<g id="XMLID_97_">
	<path id="XMLID_12_" class="st1" d="M286.7,169.3l38.9-71l3.6-6.3l28.8,14.9l18.6-20.3l35.4,26.4v8.5l49.3-0.8l14.4,39.3L431.8,379
		h11.3l-21.9,10l-2.4-6.1l-86.7-29.3l25.7-148.1c0,0-31.5-20.6-62-23.9c-14.2-1.6-12.1-3.3-12.1-3.3L286.7,169.3z"/>
	<path id="XMLID_75_" class="st1" d="M418.7,394.8l-4.4-8.2l-89.6-29.4l27.9-154.5c-8.9-5.2-33.7-10.5-57.3-17.5
		c-10.4-3.1-13.7-2.8-18-4.9l49.2-96.9L356.9,99L379,78.3l33,34.6l5.2,4.7l51.7-3.6l15.1,42.1L439.7,366h17.9L418.7,394.8z
		 M339.4,348.4l84.3,28.3l0.7-0.4l46.2-219.2l-10.5-29.9l-48.1,0.8v-11.6l-31.6-21.5l-21.2,19.9l-27.4-14.2l-0.6,1l-39.4,72.9
		c1.2,0.2,2.8,0.4,4.7,0.6c31.6,3.5,63.5,23.9,64.8,24.7l3.6,2.3L339.4,348.4z"/>
</g>
<path id="XMLID_91_" d="M419.1,384.7L328.4,355l42.3-232.3l2.6-0.1c20.5-0.7,87.9-2.9,94.1-0.5l0,0c6.7,2.6,19.9,20.9,22.5,24.5
	l0.8,1.1l-38.3,220.8L419.1,384.7z M335.7,350.6l82.8,27.2l28-13.6l37.3-214.9c-6-8.3-15.3-19.7-18.7-21.2c-5-1.5-56.1-0.3-89,0.8
	L335.7,350.6z"/>
<path id="XMLID_78_" d="M390,371.8c1,0,30.5,8.1,32.5-1.7s42-218.9,44-228.7s-6.7-16.5-16.2-16.8l15.9,0.6l21,23.4l-37.8,217.9
	l-30.7,14.9L390,371.8z"/>
<path id="XMLID_79_" d="M421.2,137l34.2,2.4l-21.3,115.9C434.1,255.2,434.1,161,421.2,137z"/>
<path id="XMLID_54_" d="M383,280.7c0.2-1.4-0.7-2.7-2-3l-22.4-6.1l-1.7,14.3c0,0.1,0.1,0.3,0.2,0.3l24.5,7L383,280.7z"/>
<path id="XMLID_83_" d="M421.2,291.5c0.2-1.4-0.7-2.7-2-3l-22.4-6.1l-1.7,14.3c0,0.1,0.1,0.3,0.2,0.3l24.5,7L421.2,291.5z"/>
<path id="XMLID_84_" d="M417.2,315c0.2-1.4-0.7-2.7-2-3l-22.4-6.1l-1.7,14.3c0,0.1,0.1,0.3,0.2,0.3l24.5,7L417.2,315z"/>
<path id="XMLID_85_" d="M412.4,340c0.2-1.4-0.7-2.7-2-3l-22.4-6.1l-1.7,14.3c0,0.1,0.1,0.3,0.2,0.3l24.5,7L412.4,340z"/>
<path id="XMLID_86_" d="M375,329.1c0.2-1.4-0.7-2.7-2-3l-22.4-6.1l-1.7,14.3c0,0.1,0.1,0.3,0.2,0.3l24.5,7L375,329.1z"/>
<path id="XMLID_87_" d="M378.8,304.1c0.2-1.4-0.7-2.7-2-3l-22.4-6.1l-1.7,14.3c0,0.1,0.1,0.3,0.2,0.3l24.5,7L378.8,304.1z"/>
<path id="XMLID_88_" class="st2" d="M425.3,266.8c0,0-5.1-35.9-59.5-57.6c0,0,1.6,36.4-1.5,43.6L425.3,266.8z"/>
<path id="XMLID_81_" class="st3" d="M428.6,252.9c0,0-15.6-52.9-142-78.7l43.7-74.5C330.4,99.7,435.1,130.7,428.6,252.9z"/>
<path id="XMLID_90_" class="st3" d="M361.9,103.4c2,0.3,55.4,40.9,63.3,77.9c0,0-5.8-67.1-48.8-92.2L361.9,103.4z"/>
<g id="XMLID_128_">
	<path id="XMLID_129_" class="st4" d="M129,213.8c0.4,0.9,0.8,1.9,1.2,2.9c0.4-1,0.8-2,1.2-2.9c0.4-1,0.8-1.9,1.3-2.8l17.6-32.9
		c0.2-0.4,0.5-0.7,0.7-1c0.2-0.3,0.5-0.4,0.8-0.5c0.3-0.1,0.6-0.2,1-0.2c0.4,0,0.8,0,1.3,0h8.3v59.4h-9.7v-38.4c0-0.7,0-1.5,0.1-2.3
		c0-0.8,0.1-1.7,0.2-2.6l-18,33.7c-0.4,0.8-0.9,1.4-1.6,1.8c-0.7,0.4-1.4,0.6-2.3,0.6h-1.5c-0.9,0-1.6-0.2-2.3-0.6
		c-0.7-0.4-1.2-1-1.6-1.8l-18.2-33.8c0.1,0.9,0.2,1.8,0.2,2.6c0,0.9,0.1,1.7,0.1,2.4v38.4h-9.7v-59.4h8.3c0.5,0,0.9,0,1.3,0
		c0.4,0,0.7,0.1,1,0.2c0.3,0.1,0.6,0.3,0.8,0.5c0.3,0.2,0.5,0.6,0.7,1l17.7,33C128.1,212,128.6,212.9,129,213.8z"/>
	<path id="XMLID_131_" class="st4" d="M213.3,176.3v9.1h-17.9v50.3h-11.1v-50.3h-17.9v-9.1H213.3z"/>
	<path id="XMLID_133_" class="st4" d="M224.6,176.4c0.3,0,0.6,0.1,0.9,0.2c0.3,0.1,0.5,0.3,0.8,0.5c0.3,0.2,0.5,0.5,0.8,0.9
		l31.2,39.7c-0.1-1-0.2-1.9-0.2-2.8s-0.1-1.8-0.1-2.6v-36.1h9.7v59.4H262c-0.9,0-1.6-0.1-2.2-0.4c-0.6-0.3-1.1-0.8-1.7-1.5
		L227,194.3c0.1,0.9,0.2,1.7,0.2,2.6c0,0.9,0.1,1.6,0.1,2.4v36.5h-9.7v-59.4h5.8C223.9,176.3,224.3,176.4,224.6,176.4z"/>
</g>
<g id="XMLID_98_">
	<path id="XMLID_100_" class="st5" d="M120,274.6c0.3,0.6,0.5,1.3,0.8,1.9c0.3-0.7,0.5-1.3,0.8-1.9c0.3-0.6,0.6-1.2,0.9-1.8L134,251
		c0.1-0.3,0.3-0.5,0.4-0.6c0.2-0.2,0.3-0.3,0.5-0.4c0.2-0.1,0.4-0.1,0.6-0.1s0.5,0,0.8,0h5.5v39.2h-6.4v-25.3c0-0.5,0-1,0-1.5
		c0-0.6,0.1-1.1,0.1-1.7l-11.8,22.2c-0.3,0.5-0.6,0.9-1.1,1.2c-0.4,0.3-0.9,0.4-1.5,0.4h-1c-0.6,0-1.1-0.1-1.5-0.4
		c-0.4-0.3-0.8-0.7-1.1-1.2l-12-22.3c0.1,0.6,0.1,1.2,0.2,1.7c0,0.6,0,1.1,0,1.6v25.3h-6.4v-39.2h5.5c0.3,0,0.6,0,0.8,0
		c0.2,0,0.4,0.1,0.6,0.1c0.2,0.1,0.4,0.2,0.5,0.4c0.2,0.2,0.3,0.4,0.5,0.6l11.7,21.8C119.4,273.4,119.7,274,120,274.6z"/>
	<path id="XMLID_102_" class="st5" d="M159.5,260.8c2.1,0,4,0.3,5.7,1c1.7,0.7,3.1,1.6,4.3,2.8c1.2,1.2,2.1,2.7,2.8,4.5
		c0.6,1.8,1,3.7,1,5.9c0,2.2-0.3,4.2-1,6c-0.7,1.8-1.6,3.3-2.8,4.5c-1.2,1.2-2.6,2.2-4.3,2.9c-1.7,0.7-3.6,1-5.7,1
		c-2.1,0-4-0.3-5.7-1c-1.7-0.7-3.1-1.6-4.4-2.9c-1.2-1.2-2.1-2.8-2.8-4.5c-0.7-1.8-1-3.8-1-6c0-2.2,0.3-4.2,1-5.9
		c0.7-1.8,1.6-3.3,2.8-4.5c1.2-1.2,2.7-2.2,4.4-2.8C155.5,261.1,157.4,260.8,159.5,260.8z M159.5,284.3c2.3,0,4-0.8,5.1-2.3
		c1.1-1.6,1.7-3.8,1.7-6.8c0-3-0.6-5.3-1.7-6.9c-1.1-1.6-2.8-2.4-5.1-2.4c-2.3,0-4.1,0.8-5.2,2.4c-1.1,1.6-1.7,3.9-1.7,6.8
		c0,3,0.6,5.3,1.7,6.8C155.4,283.5,157.2,284.3,159.5,284.3z"/>
	<path id="XMLID_105_" class="st5" d="M176.7,289.1v-40.3h6.7v15.9c1.1-1.2,2.4-2.1,3.7-2.8c1.4-0.7,3-1,4.9-1
		c1.5,0,2.9,0.3,4.2,0.9c1.2,0.6,2.3,1.5,3.2,2.7c0.9,1.2,1.6,2.7,2.1,4.4c0.5,1.8,0.8,3.8,0.8,6c0,2.1-0.3,4-0.8,5.8
		c-0.6,1.8-1.4,3.3-2.4,4.6c-1,1.3-2.3,2.3-3.8,3c-1.5,0.7-3.1,1.1-4.9,1.1c-0.9,0-1.6-0.1-2.3-0.3c-0.7-0.2-1.3-0.4-1.9-0.7
		c-0.6-0.3-1.1-0.7-1.6-1.1c-0.5-0.4-1-0.9-1.4-1.5l-0.3,1.9c-0.1,0.5-0.3,0.8-0.6,1c-0.3,0.2-0.6,0.3-1.1,0.3H176.7z M189.7,266
		c-1.4,0-2.6,0.3-3.6,0.9c-1,0.6-1.9,1.4-2.8,2.5v12.5c0.8,0.9,1.6,1.6,2.5,2c0.9,0.4,1.9,0.6,2.9,0.6c1,0,1.9-0.2,2.7-0.6
		c0.8-0.4,1.5-1,2.1-1.7c0.6-0.8,1-1.8,1.3-2.9c0.3-1.2,0.5-2.6,0.5-4.2c0-1.6-0.1-3-0.4-4.1c-0.3-1.1-0.6-2-1.1-2.7
		c-0.5-0.7-1.1-1.2-1.8-1.5C191.4,266.2,190.6,266,189.7,266z"/>
	<path id="XMLID_108_" class="st5" d="M213.8,253.1c0,0.6-0.1,1.1-0.4,1.6c-0.2,0.5-0.6,0.9-0.9,1.3c-0.4,0.4-0.9,0.7-1.4,0.9
		c-0.5,0.2-1.1,0.3-1.7,0.3c-0.6,0-1.1-0.1-1.6-0.3s-1-0.5-1.3-0.9c-0.4-0.4-0.7-0.8-0.9-1.3c-0.2-0.5-0.3-1-0.3-1.6
		c0-0.6,0.1-1.2,0.3-1.7c0.2-0.5,0.5-1,0.9-1.4c0.4-0.4,0.8-0.7,1.3-0.9s1.1-0.3,1.6-0.3c0.6,0,1.2,0.1,1.7,0.3
		c0.5,0.2,1,0.5,1.4,0.9c0.4,0.4,0.7,0.8,0.9,1.4C213.7,252,213.8,252.5,213.8,253.1z M212.8,261.2v27.8h-6.7v-27.8H212.8z"/>
	<path id="XMLID_111_" class="st5" d="M225.6,248.8v40.3h-6.7v-40.3H225.6z"/>
	<path id="XMLID_113_" class="st5" d="M242.9,260.8c1.7,0,3.4,0.3,4.8,0.8c1.5,0.6,2.7,1.4,3.8,2.5c1.1,1.1,1.9,2.4,2.5,4
		c0.6,1.6,0.9,3.3,0.9,5.4c0,0.5,0,0.9-0.1,1.3c-0.1,0.3-0.1,0.6-0.3,0.8c-0.1,0.2-0.3,0.3-0.5,0.4c-0.2,0.1-0.5,0.1-0.8,0.1h-17.2
		c0.2,2.9,1,5,2.3,6.3c1.3,1.3,3.1,2,5.3,2c1.1,0,2-0.1,2.8-0.4c0.8-0.3,1.5-0.5,2.1-0.8c0.6-0.3,1.1-0.6,1.5-0.8
		c0.4-0.3,0.9-0.4,1.3-0.4c0.3,0,0.5,0.1,0.7,0.2c0.2,0.1,0.4,0.3,0.5,0.5l1.9,2.4c-0.7,0.9-1.6,1.6-2.5,2.2
		c-0.9,0.6-1.9,1.1-2.9,1.4c-1,0.4-2,0.6-3.1,0.7c-1,0.1-2,0.2-3,0.2c-1.9,0-3.7-0.3-5.4-1c-1.7-0.6-3.1-1.6-4.3-2.8
		c-1.2-1.3-2.2-2.8-2.9-4.7c-0.7-1.8-1.1-4-1.1-6.4c0-1.9,0.3-3.7,0.9-5.4s1.5-3.1,2.7-4.4c1.1-1.2,2.5-2.2,4.2-2.9
		C238.9,261.2,240.8,260.8,242.9,260.8z M243,265.6c-2,0-3.5,0.5-4.6,1.7c-1.1,1.1-1.8,2.7-2.1,4.7h12.6c0-0.9-0.1-1.7-0.4-2.5
		c-0.2-0.8-0.6-1.4-1.1-2s-1.1-1-1.8-1.4C244.9,265.8,244,265.6,243,265.6z"/>
	<path id="XMLID_116_" class="st5" d="M120,328.8c0.3,0.6,0.5,1.3,0.8,1.9c0.3-0.7,0.5-1.3,0.8-1.9c0.3-0.6,0.6-1.2,0.9-1.8
		l11.6-21.7c0.1-0.3,0.3-0.5,0.4-0.6c0.2-0.2,0.3-0.3,0.5-0.4c0.2-0.1,0.4-0.1,0.6-0.1s0.5,0,0.8,0h5.5v39.2h-6.4V318
		c0-0.5,0-1,0-1.5c0-0.6,0.1-1.1,0.1-1.7l-11.8,22.2c-0.3,0.5-0.6,0.9-1.1,1.2c-0.4,0.3-0.9,0.4-1.5,0.4h-1c-0.6,0-1.1-0.1-1.5-0.4
		c-0.4-0.3-0.8-0.7-1.1-1.2l-12-22.3c0.1,0.6,0.1,1.2,0.2,1.7c0,0.6,0,1.1,0,1.6v25.3h-6.4v-39.2h5.5c0.3,0,0.6,0,0.8,0
		c0.2,0,0.4,0.1,0.6,0.1c0.2,0.1,0.4,0.2,0.5,0.4c0.2,0.2,0.3,0.4,0.5,0.6l11.7,21.8C119.4,327.6,119.7,328.2,120,328.8z"/>
	<path id="XMLID_118_" class="st5" d="M159.5,315c2.1,0,4,0.3,5.7,1c1.7,0.7,3.1,1.6,4.3,2.8c1.2,1.2,2.1,2.7,2.8,4.5
		c0.6,1.8,1,3.7,1,5.9c0,2.2-0.3,4.2-1,6c-0.7,1.8-1.6,3.3-2.8,4.5c-1.2,1.2-2.6,2.2-4.3,2.9s-3.6,1-5.7,1c-2.1,0-4-0.3-5.7-1
		c-1.7-0.7-3.1-1.6-4.4-2.9c-1.2-1.2-2.1-2.8-2.8-4.5c-0.7-1.8-1-3.8-1-6c0-2.2,0.3-4.2,1-5.9c0.7-1.8,1.6-3.3,2.8-4.5
		c1.2-1.2,2.7-2.2,4.4-2.8C155.5,315.4,157.4,315,159.5,315z M159.5,338.5c2.3,0,4-0.8,5.1-2.3c1.1-1.6,1.7-3.8,1.7-6.8
		c0-3-0.6-5.3-1.7-6.9c-1.1-1.6-2.8-2.4-5.1-2.4c-2.3,0-4.1,0.8-5.2,2.4c-1.1,1.6-1.7,3.9-1.7,6.8c0,3,0.6,5.3,1.7,6.8
		C155.4,337.7,157.2,338.5,159.5,338.5z"/>
	<path id="XMLID_121_" class="st5" d="M176.6,343.3v-27.8h4.1c0.9,0,1.4,0.4,1.7,1.2l0.5,2.2c0.6-0.6,1.2-1.1,1.8-1.6
		c0.6-0.5,1.3-0.9,2-1.2c0.7-0.3,1.4-0.6,2.2-0.8c0.8-0.2,1.7-0.3,2.6-0.3c1.5,0,2.9,0.3,4,0.8c1.2,0.5,2.2,1.2,2.9,2.2
		c0.8,0.9,1.4,2,1.8,3.3c0.4,1.3,0.6,2.7,0.6,4.3v17.7h-6.7v-17.7c0-1.7-0.4-3-1.2-3.9c-0.8-0.9-2-1.4-3.5-1.4
		c-1.2,0-2.2,0.3-3.3,0.8c-1,0.5-2,1.2-2.9,2.1v20.1H176.6z"/>
	<path id="XMLID_123_" class="st5" d="M217.1,315c1.7,0,3.4,0.3,4.8,0.8c1.5,0.6,2.7,1.4,3.8,2.5c1.1,1.1,1.9,2.4,2.5,4
		c0.6,1.6,0.9,3.3,0.9,5.4c0,0.5,0,0.9-0.1,1.3c-0.1,0.3-0.1,0.6-0.3,0.8s-0.3,0.3-0.5,0.4c-0.2,0.1-0.5,0.1-0.8,0.1h-17.2
		c0.2,2.9,1,5,2.3,6.3c1.3,1.3,3.1,2,5.3,2c1.1,0,2-0.1,2.8-0.4c0.8-0.3,1.5-0.5,2.1-0.8c0.6-0.3,1.1-0.6,1.5-0.8
		c0.4-0.3,0.9-0.4,1.3-0.4c0.3,0,0.5,0.1,0.7,0.2c0.2,0.1,0.4,0.3,0.5,0.5l1.9,2.4c-0.7,0.9-1.6,1.6-2.5,2.2
		c-0.9,0.6-1.9,1.1-2.9,1.4c-1,0.4-2,0.6-3.1,0.7c-1,0.1-2,0.2-3,0.2c-1.9,0-3.7-0.3-5.4-1c-1.7-0.6-3.1-1.6-4.3-2.8
		c-1.2-1.3-2.2-2.8-2.9-4.7c-0.7-1.8-1.1-4-1.1-6.4c0-1.9,0.3-3.7,0.9-5.4c0.6-1.7,1.5-3.1,2.7-4.4c1.1-1.2,2.5-2.2,4.2-2.9
		C213.1,315.4,215,315,217.1,315z M217.2,319.8c-2,0-3.5,0.5-4.6,1.7c-1.1,1.1-1.8,2.7-2.1,4.7h12.6c0-0.9-0.1-1.7-0.4-2.5
		c-0.2-0.8-0.6-1.4-1.1-2c-0.5-0.6-1.1-1-1.8-1.4C219.1,320,218.2,319.8,217.2,319.8z"/>
	<path id="XMLID_126_" class="st5" d="M241.7,350.9c-0.2,0.5-0.5,0.8-0.8,1.1c-0.3,0.2-0.8,0.4-1.5,0.4h-5l5.2-11.1l-11.2-25.7h5.8
		c0.6,0,1,0.1,1.3,0.4c0.3,0.3,0.5,0.5,0.6,0.9l5.9,14.4c0.2,0.5,0.4,1,0.5,1.5c0.2,0.5,0.3,1,0.4,1.5c0.1-0.5,0.3-1,0.5-1.5
		c0.2-0.5,0.4-1,0.6-1.5l5.6-14.4c0.1-0.4,0.4-0.7,0.7-0.9c0.3-0.2,0.7-0.4,1.1-0.4h5.4L241.7,350.9z"/>
</g>
<polygon id="XMLID_77_" class="st1" points="421.2,396.3 387.8,391 26,391 26,199 107.9,134.3 308.8,134.1 299.5,146.3 112.1,147.1 
	38,205.1 38,378.9 390.2,379.2 420.2,387.4 449.6,369.7 488.9,150.1 464.9,121 412,121 412,112.9 468.9,114.1 497.7,147.7 
	455.4,376.7 "/>
<path id="XMLID_76_" class="st1" d="M352.7,202.7l16.2,7.7c0,0,3.2-8.3,2.3-8.8s-25.5-10.8-25.5-10.8L352.7,202.7z"/>
<path id="XMLID_99_" class="st1" d="M366.9,118.5l7.4-5.6c0,0,16.4,14.9,21.2,20.1l-4.1,7C391.5,140,377,125,366.9,118.5z"/>
</svg>
