<svg id="Layer_1" data-name="Layer 1" xmlns="http://www.w3.org/2000/svg" viewBox="0 0 512 512"><defs><style>.cls-1{fill:#f7cd00;}.cls-2{fill:#fff;}.cls-3{fill:#f93508;}.cls-4{fill:#417baf;}.cls-5{fill:#13507a;}.cls-6{fill:#c11b00;}</style></defs><title>mobile payments</title><path class="cls-1" d="M66.9,10.5H446.7C478.9,10.5,505,36.2,505,68V446.2c0,31.7-26.1,57.5-58.3,57.5H66.9c-32.2,0-58.3-25.7-58.3-57.5V68C8.6,36.2,34.7,10.5,66.9,10.5Z"/><path class="cls-2" d="M286.7,169.3l38.9-71,3.6-6.3L358,106.9l18.6-20.3L412,113v8.5l49.3-.8L475.7,160,431.8,379h11.3l-21.9,10-2.4-6.1-86.7-29.3,25.7-148.1s-31.5-20.6-62-23.9c-14.2-1.6-12.1-3.3-12.1-3.3Z"/><path class="cls-2" d="M418.7,394.8l-4.4-8.2-89.6-29.4,27.9-154.5c-8.9-5.2-33.7-10.5-57.3-17.5-10.4-3.1-13.7-2.8-18-4.9l49.2-96.9L356.9,99,379,78.3l33,34.6,5.2,4.7,51.7-3.6L484,156.1,439.7,366h17.9Zm-79.3-46.4,84.3,28.3.7-.4,46.2-219.2-10.5-29.9L412,128V116.4L380.4,94.9l-21.2,19.9-27.4-14.2-.6,1-39.4,72.9c1.2.2,2.8.4,4.7.6,31.6,3.5,63.5,23.9,64.8,24.7l3.6,2.3Z"/><path d="M419.1,384.7,328.4,355l42.3-232.3,2.6-.1c20.5-.7,87.9-2.9,94.1-.5h0c6.7,2.6,19.9,20.9,22.5,24.5l.8,1.1L452.4,368.5Zm-83.4-34.1,82.8,27.2,28-13.6,37.3-214.9c-6-8.3-15.3-19.7-18.7-21.2-5-1.5-56.1-.3-89,.8Z"/><path d="M390,371.8c1,0,30.5,8.1,32.5-1.7s42-218.9,44-228.7-6.7-16.5-16.2-16.8l15.9.6,21,23.4L449.4,366.5l-30.7,14.9Z"/><path d="M421.2,137l34.2,2.4L434.1,255.3C434.1,255.2,434.1,161,421.2,137Z"/><path d="M383,280.7a2.68,2.68,0,0,0-2-3l-22.4-6.1-1.7,14.3c0,.1.1.3.2.3l24.5,7Z"/><path d="M421.2,291.5a2.68,2.68,0,0,0-2-3l-22.4-6.1-1.7,14.3c0,.1.1.3.2.3l24.5,7Z"/><path d="M417.2,315a2.68,2.68,0,0,0-2-3l-22.4-6.1-1.7,14.3c0,.1.1.3.2.3l24.5,7Z"/><path d="M412.4,340a2.68,2.68,0,0,0-2-3L388,330.9l-1.7,14.3c0,.1.1.3.2.3l24.5,7Z"/><path d="M375,329.1a2.68,2.68,0,0,0-2-3L350.6,320l-1.7,14.3c0,.1.1.3.2.3l24.5,7Z"/><path d="M378.8,304.1a2.68,2.68,0,0,0-2-3L354.4,295l-1.7,14.3c0,.1.1.3.2.3l24.5,7Z"/><path class="cls-3" d="M425.3,266.8s-5.1-35.9-59.5-57.6c0,0,1.6,36.4-1.5,43.6Z"/><path class="cls-4" d="M428.6,252.9S413,200,286.6,174.2l43.7-74.5C330.4,99.7,435.1,130.7,428.6,252.9Z"/><path class="cls-4" d="M361.9,103.4c2,.3,55.4,40.9,63.3,77.9,0,0-5.8-67.1-48.8-92.2Z"/><path class="cls-5" d="M129,213.8c.4.9.8,1.9,1.2,2.9.4-1,.8-2,1.2-2.9a23.94,23.94,0,0,1,1.3-2.8l17.6-32.9a8.65,8.65,0,0,1,.7-1,1.37,1.37,0,0,1,.8-.5,3,3,0,0,1,1-.2h9.6v59.4h-9.7V197.4a18.48,18.48,0,0,1,.1-2.3,24.62,24.62,0,0,1,.2-2.6l-18,33.7a4,4,0,0,1-1.6,1.8,4.38,4.38,0,0,1-2.3.6h-1.5a4.38,4.38,0,0,1-2.3-.6,4,4,0,0,1-1.6-1.8l-18.2-33.8a24.62,24.62,0,0,1,.2,2.6c0,.9.1,1.7.1,2.4v38.4H98.1V176.4h9.6a3,3,0,0,1,1,.2,2.18,2.18,0,0,1,.8.5,2.55,2.55,0,0,1,.7,1l17.7,33A15.33,15.33,0,0,0,129,213.8Z"/><path class="cls-5" d="M213.3,176.3v9.1H195.4v50.3H184.3V185.4H166.4v-9.1Z"/><path class="cls-5" d="M224.6,176.4a2.92,2.92,0,0,1,.9.2,3.51,3.51,0,0,1,.8.5,3.63,3.63,0,0,1,.8.9l31.2,39.7c-.1-1-.2-1.9-.2-2.8s-.1-1.8-.1-2.6V176.2h9.7v59.4H262a4.81,4.81,0,0,1-2.2-.4,5.73,5.73,0,0,1-1.7-1.5L227,194.3a22.75,22.75,0,0,1,.2,2.6c0,.9.1,1.6.1,2.4v36.5h-9.7V176.4h5.8A4.74,4.74,0,0,1,224.6,176.4Z"/><path class="cls-6" d="M120,274.6c.3.6.5,1.3.8,1.9.3-.7.5-1.3.8-1.9l.9-1.8L134,251a1.54,1.54,0,0,1,.4-.6,1.76,1.76,0,0,1,.5-.4,1.27,1.27,0,0,1,.6-.1h6.3v39.2h-6.4V262.3c0-.6.1-1.1.1-1.7l-11.8,22.2a3.18,3.18,0,0,1-1.1,1.2,2.41,2.41,0,0,1-1.5.4h-1a2.41,2.41,0,0,1-1.5-.4,4.26,4.26,0,0,1-1.1-1.2l-12-22.3c.1.6.1,1.2.2,1.7v26.9H99.3V249.9h6.3c.2,0,.4.1.6.1a1,1,0,0,1,.5.4c.2.2.3.4.5.6l11.7,21.8A8.71,8.71,0,0,1,120,274.6Z"/><path class="cls-6" d="M159.5,260.8a14.84,14.84,0,0,1,5.7,1,12,12,0,0,1,7.1,7.3,18.23,18.23,0,0,1,1,5.9,16.43,16.43,0,0,1-1,6,12.75,12.75,0,0,1-2.8,4.5,13,13,0,0,1-4.3,2.9,16.75,16.75,0,0,1-11.4,0,13,13,0,0,1-4.4-2.9,13.72,13.72,0,0,1-2.8-4.5,16.43,16.43,0,0,1-1-6,15.54,15.54,0,0,1,1-5.9,12.75,12.75,0,0,1,2.8-4.5,11.85,11.85,0,0,1,4.4-2.8A14.84,14.84,0,0,1,159.5,260.8Zm0,23.5a5.94,5.94,0,0,0,5.1-2.3,11.75,11.75,0,0,0,1.7-6.8,12.11,12.11,0,0,0-1.7-6.9,5.76,5.76,0,0,0-5.1-2.4,5.94,5.94,0,0,0-5.2,2.4,12,12,0,0,0-1.7,6.8c0,3,.6,5.3,1.7,6.8A5.94,5.94,0,0,0,159.5,284.3Z"/><path class="cls-6" d="M176.7,289.1V248.8h6.7v15.9a13.91,13.91,0,0,1,3.7-2.8,10.73,10.73,0,0,1,4.9-1,9.9,9.9,0,0,1,4.2.9,9.08,9.08,0,0,1,3.2,2.7,13.83,13.83,0,0,1,2.1,4.4,22.33,22.33,0,0,1,.8,6,21.39,21.39,0,0,1-.8,5.8,15.4,15.4,0,0,1-2.4,4.6,10.15,10.15,0,0,1-3.8,3,11.36,11.36,0,0,1-4.9,1.1,8,8,0,0,1-2.3-.3,10.66,10.66,0,0,1-1.9-.7,9.06,9.06,0,0,1-1.6-1.1,6.73,6.73,0,0,1-1.4-1.5l-.3,1.9a1.44,1.44,0,0,1-.6,1,1.8,1.8,0,0,1-1.1.3h-4.5v.1Zm13-23.1a6.87,6.87,0,0,0-3.6.9,10.74,10.74,0,0,0-2.8,2.5v12.5a7.61,7.61,0,0,0,2.5,2,7.17,7.17,0,0,0,2.9.6,6,6,0,0,0,2.7-.6,6.84,6.84,0,0,0,2.1-1.7,8.56,8.56,0,0,0,1.3-2.9,17.27,17.27,0,0,0,.5-4.2,16.24,16.24,0,0,0-.4-4.1,8.44,8.44,0,0,0-1.1-2.7,4.28,4.28,0,0,0-1.8-1.5A3.09,3.09,0,0,0,189.7,266Z"/><path class="cls-6" d="M213.8,253.1a2.93,2.93,0,0,1-.4,1.6,6,6,0,0,1-.9,1.3,4.19,4.19,0,0,1-1.4.9,4.67,4.67,0,0,1-1.7.3,4.15,4.15,0,0,1-1.6-.3,3,3,0,0,1-1.3-.9,3.81,3.81,0,0,1-.9-1.3,4.15,4.15,0,0,1-.3-1.6,4.67,4.67,0,0,1,.3-1.7,4.19,4.19,0,0,1,.9-1.4,3.81,3.81,0,0,1,1.3-.9,4.53,4.53,0,0,1,1.6-.3,4.67,4.67,0,0,1,1.7.3,4.19,4.19,0,0,1,1.4.9,3.39,3.39,0,0,1,.9,1.4A3.53,3.53,0,0,1,213.8,253.1Zm-1,8.1V289h-6.7V261.2Z"/><path class="cls-6" d="M225.6,248.8v40.3h-6.7V248.8Z"/><path class="cls-6" d="M242.9,260.8a14.64,14.64,0,0,1,4.8.8,10.85,10.85,0,0,1,6.3,6.5,14.9,14.9,0,0,1,.9,5.4,5.28,5.28,0,0,1-.1,1.3c-.1.3-.1.6-.3.8a1,1,0,0,1-.5.4,2,2,0,0,1-.8.1H236c.2,2.9,1,5,2.3,6.3a7.24,7.24,0,0,0,5.3,2,7.89,7.89,0,0,0,2.8-.4c.8-.3,1.5-.5,2.1-.8s1.1-.6,1.5-.8a2.2,2.2,0,0,1,1.3-.4,1.45,1.45,0,0,1,.7.2,1.21,1.21,0,0,1,.5.5l1.9,2.4a10.41,10.41,0,0,1-2.5,2.2,11.08,11.08,0,0,1-2.9,1.4,10.76,10.76,0,0,1-3.1.7c-1,.1-2,.2-3,.2a14,14,0,0,1-5.4-1,11.46,11.46,0,0,1-4.3-2.8,13.85,13.85,0,0,1-2.9-4.7,17.86,17.86,0,0,1-1.1-6.4,16.11,16.11,0,0,1,.9-5.4,12.46,12.46,0,0,1,2.7-4.4A11.67,11.67,0,0,1,237,262,14.82,14.82,0,0,1,242.9,260.8Zm.1,4.8a5.82,5.82,0,0,0-4.6,1.7,8.21,8.21,0,0,0-2.1,4.7h12.6a6.9,6.9,0,0,0-.4-2.5,4.9,4.9,0,0,0-1.1-2,6.23,6.23,0,0,0-1.8-1.4A6.69,6.69,0,0,0,243,265.6Z"/><path class="cls-6" d="M120,328.8c.3.6.5,1.3.8,1.9.3-.7.5-1.3.8-1.9l.9-1.8,11.6-21.7a1.54,1.54,0,0,1,.4-.6,1.76,1.76,0,0,1,.5-.4,1.27,1.27,0,0,1,.6-.1h6.3v39.2h-6.4V316.5c0-.6.1-1.1.1-1.7L123.8,337a3.18,3.18,0,0,1-1.1,1.2,2.41,2.41,0,0,1-1.5.4h-1a2.41,2.41,0,0,1-1.5-.4,4.26,4.26,0,0,1-1.1-1.2l-12-22.3c.1.6.1,1.2.2,1.7v26.9H99.4V304.1h6.3c.2,0,.4.1.6.1a1,1,0,0,1,.5.4c.2.2.3.4.5.6L119,327A16.18,16.18,0,0,1,120,328.8Z"/><path class="cls-6" d="M159.5,315a14.84,14.84,0,0,1,5.7,1,12,12,0,0,1,7.1,7.3,18.23,18.23,0,0,1,1,5.9,16.43,16.43,0,0,1-1,6,12.75,12.75,0,0,1-2.8,4.5,13,13,0,0,1-4.3,2.9,16.75,16.75,0,0,1-11.4,0,13,13,0,0,1-4.4-2.9,13.72,13.72,0,0,1-2.8-4.5,16.43,16.43,0,0,1-1-6,15.54,15.54,0,0,1,1-5.9,12.75,12.75,0,0,1,2.8-4.5,11.85,11.85,0,0,1,4.4-2.8A17,17,0,0,1,159.5,315Zm0,23.5a5.94,5.94,0,0,0,5.1-2.3,11.75,11.75,0,0,0,1.7-6.8,12.11,12.11,0,0,0-1.7-6.9,5.76,5.76,0,0,0-5.1-2.4,5.94,5.94,0,0,0-5.2,2.4,12,12,0,0,0-1.7,6.8c0,3,.6,5.3,1.7,6.8A5.94,5.94,0,0,0,159.5,338.5Z"/><path class="cls-6" d="M176.6,343.3V315.5h4.1a1.63,1.63,0,0,1,1.7,1.2l.5,2.2c.6-.6,1.2-1.1,1.8-1.6a8.17,8.17,0,0,1,2-1.2,14.27,14.27,0,0,1,2.2-.8,10.9,10.9,0,0,1,2.6-.3,9.83,9.83,0,0,1,4,.8,6.43,6.43,0,0,1,2.9,2.2,8.77,8.77,0,0,1,1.8,3.3,14.42,14.42,0,0,1,.6,4.3v17.7h-6.7V325.6a5.69,5.69,0,0,0-1.2-3.9,4.51,4.51,0,0,0-3.5-1.4,7.64,7.64,0,0,0-3.3.8,11.23,11.23,0,0,0-2.9,2.1v20.1Z"/><path class="cls-6" d="M217.1,315a14.64,14.64,0,0,1,4.8.8,10.85,10.85,0,0,1,6.3,6.5,14.9,14.9,0,0,1,.9,5.4,5.28,5.28,0,0,1-.1,1.3c-.1.3-.1.6-.3.8a1.76,1.76,0,0,1-.5.4,2,2,0,0,1-.8.1H210.2c.2,2.9,1,5,2.3,6.3a7.24,7.24,0,0,0,5.3,2,7.89,7.89,0,0,0,2.8-.4c.8-.3,1.5-.5,2.1-.8s1.1-.6,1.5-.8a2.2,2.2,0,0,1,1.3-.4,1.45,1.45,0,0,1,.7.2,1.21,1.21,0,0,1,.5.5l1.9,2.4a10.41,10.41,0,0,1-2.5,2.2,11.08,11.08,0,0,1-2.9,1.4,10.76,10.76,0,0,1-3.1.7c-1,.1-2,.2-3,.2a14,14,0,0,1-5.4-1,11.46,11.46,0,0,1-4.3-2.8,13.85,13.85,0,0,1-2.9-4.7,17.86,17.86,0,0,1-1.1-6.4,16.11,16.11,0,0,1,.9-5.4,12.46,12.46,0,0,1,2.7-4.4,11.67,11.67,0,0,1,4.2-2.9A14.82,14.82,0,0,1,217.1,315Zm.1,4.8a5.82,5.82,0,0,0-4.6,1.7,8.21,8.21,0,0,0-2.1,4.7h12.6a6.9,6.9,0,0,0-.4-2.5,4.9,4.9,0,0,0-1.1-2,6.23,6.23,0,0,0-1.8-1.4A6.69,6.69,0,0,0,217.2,319.8Z"/><path class="cls-6" d="M241.7,350.9a3.13,3.13,0,0,1-.8,1.1,2.7,2.7,0,0,1-1.5.4h-5l5.2-11.1-11.2-25.7h5.8a1.7,1.7,0,0,1,1.3.4,1.8,1.8,0,0,1,.6.9l5.9,14.4a8.8,8.8,0,0,1,.5,1.5,8.33,8.33,0,0,1,.4,1.5,8.8,8.8,0,0,1,.5-1.5l.6-1.5,5.6-14.4a1.6,1.6,0,0,1,.7-.9,2.1,2.1,0,0,1,1.1-.4h5.4Z"/><polygon class="cls-2" points="421.2 396.3 387.8 391 26 391 26 199 107.9 134.3 308.8 134.1 299.5 146.3 112.1 147.1 38 205.1 38 378.9 390.2 379.2 420.2 387.4 449.6 369.7 488.9 150.1 464.9 121 412 121 412 112.9 468.9 114.1 497.7 147.7 455.4 376.7 421.2 396.3"/><path class="cls-2" d="M352.7,202.7l16.2,7.7s3.2-8.3,2.3-8.8-25.5-10.8-25.5-10.8Z"/><path class="cls-2" d="M366.9,118.5l7.4-5.6s16.4,14.9,21.2,20.1l-4.1,7C391.5,140,377,125,366.9,118.5Z"/></svg>