<?xml version="1.0" encoding="utf-8"?>
<!-- Generator: Adobe Illustrator 19.0.0, SVG Export Plug-In . SVG Version: 6.00 Build 0)  -->
<svg version="1.1" xmlns="http://www.w3.org/2000/svg" xmlns:xlink="http://www.w3.org/1999/xlink" x="0px" y="0px"
	 viewBox="-223 25 512 512" style="enable-background:new -223 25 512 512;" xml:space="preserve">
<style type="text/css">
	.st0{fill:#ED0000;}
	.st1{fill:#FFFFFF;}
</style>
<g id="Layer_2_1_">
	<path class="st0" d="M229.7,521.4h-393.4c-26.5,0-48-21.5-48-48V80c0-26.5,21.5-48,48-48h393.4c26.5,0,48,21.5,48,48v393.4
		C277.7,499.9,256.2,521.4,229.7,521.4z"/>
</g>
<g id="Layer_3_1_">
	<g>
		<path class="st1" d="M-118.3,315.7c0,0,0-28.8,0-38.6s-7.8-15.3-15.4-14.9c-7.6,0.3-15.8,2-15.8,2v51.5h-15.3v-64.4
			c0,0,27.8-6.1,43.7-3.4c15.9,2.7,18.6,19,18.3,28.1s0,39.7,0,39.7H-118.3z"/>
		<path class="st1" d="M-38,297.8c0,0-20.7,6.4-30.8,3.1c-10.2-3.4-9.8-12.5-9.8-12.5h44.4c0,0,6.1-41-29.5-41s-34.2,41-30.2,49.2
			s13.6,21.7,34.6,21c21-0.7,25.5-5.1,25.5-5.1L-38,297.8z M-63.4,260.8c14.2,0,16.3,14.9,16.3,14.9h-32.5
			C-79.7,275.8-77.7,260.8-63.4,260.8z"/>
		<path class="st1" d="M201.6,297.8c0,0-20.7,6.4-30.8,3.1c-10.2-3.4-9.8-12.5-9.8-12.5h44.4c0,0,6.1-41-29.5-41s-34.2,41-30.2,49.2
			s13.6,21.7,34.6,21c21-0.7,25.5-5.1,25.5-5.1L201.6,297.8z M176.2,260.8c14.2,0,16.3,14.9,16.3,14.9h-32.5
			C159.9,275.8,161.9,260.8,176.2,260.8z"/>
		<polygon class="st1" points="21.3,281.5 -21.1,336.4 -49.2,336.4 -5.5,281.5 -47.2,224.9 -20.1,224.9 		"/>
		<polygon class="st1" points="47,247.3 25,275.8 15.2,264.2 26.7,247.3 		"/>
		<polygon class="st1" points="47,315.7 27.4,315.7 15.2,297.8 25.4,285.2 		"/>
		<path class="st1" d="M143.6,314.1c0,0-9.5,3.4-21,3.4s-18.6-11.9-19.3-19.7s0-33.6,0-33.6H77.5c0,0-3.1,34.6,6.1,36.3
			c9.2,1.7,17.3,0,17.3,0v15.3c0,0-8.5,1.7-16.9,1.7s-20.7-7.1-21.7-20c-1-12.9,0-33.2,0-33.2H48.7v-14.9h13.6v-24.4h15.3v23.7h25.8
			v-23.7h16.6v24.4h20v14.9h-19.7c0,0,0,18.3,0,25.8s1.4,13.2,6.1,12.5c4.7-0.7,15.6-2,15.6-2L143.6,314.1z"/>
		<rect x="213.7" y="224.9" class="st1" width="17.6" height="90.8"/>
	</g>
</g>
</svg>
