<?xml version="1.0" encoding="utf-8"?>
<!-- Generator: Adobe Illustrator 19.0.0, SVG Export Plug-In . SVG Version: 6.00 Build 0)  -->
<svg version="1.1" id="Layer_1" xmlns="http://www.w3.org/2000/svg" xmlns:xlink="http://www.w3.org/1999/xlink" x="0px" y="0px"
	 viewBox="-393 195.5 171.5 171.5" style="enable-background:new -393 195.5 171.5 171.5;" xml:space="preserve">
<style type="text/css">
	.st0{fill:#0F440F;}
	.st1{fill:#FFFFFF;}
</style>
<path id="XMLID_1_" class="st0" d="M-373.5,195.8h131.7c11.2,0,20.2,8.9,20.2,19.9v131.2c0,11-9.1,19.9-20.2,19.9h-131.7
	c-11.2,0-20.2-8.9-20.2-19.9V215.8C-393.6,204.7-384.6,195.8-373.5,195.8z"/>
<g id="Layer_2">
</g>
<g>
	<ellipse class="st1" cx="-306.3" cy="281.3" rx="12.1" ry="15.4"/>
	<path class="st1" d="M-268.4,246.8h-78.3h-22.3v26.1v19.8v23.1h23.1h76.7h23.1v-23.1v-19.8v-26.1H-268.4z M-269.2,308.4H-346
		c-1.5-8-7.8-14.2-15.7-15.7v-19.8c8.9-1.7,15.8-9.4,16.1-18.7h76.1c0.3,9.3,7.1,17.1,16.1,18.7v19.8
		C-261.5,294.1-267.7,300.4-269.2,308.4z"/>
</g>
</svg>
