<svg xmlns="http://www.w3.org/2000/svg" viewBox="0 0 512 512"><defs><style>.cls-1{fill:#2a528c;stroke:#ff1717;stroke-miterlimit:10;}.cls-2{fill:#fff;}</style></defs><title>mobile payments</title><g id="Layer_2" data-name="Layer 2"><rect class="cls-1" x="8" y="10.5" width="504" height="493.2" rx="61.05"/><path class="cls-2" d="M100,164.16s-22.4,7.65-23,21.31,0,63.91,0,80.84,17.48,36.05,41.52,32.23,20.21-14.75,20.21-14.75l.22-11.47s-11.69,4.37-19.34,4.37-20.76-4.37-20.76-17.48V211.14h26.22c9.29,0,13-10.38,13.88-14.2a16.4,16.4,0,0,0,0-7.1H100.58Z"/><path class="cls-2" d="M161.76,190.93v79.75c0,14.2,12,27.21,27.31,28.35s18.57-10.32,18.57-10.32V277.24s-22.39,1.09-22.94-6.56,0-55.17,0-66.09S170,191.48,161.76,190.93Z"/><path class="cls-2" d="M314.71,218.79V207.32s-3.2-16.39-31.14-20.21c-25.46-3.49-65.63,11.13-65.55,61.72.07,38.85,43.16,62.27,73.2,53.53S318,277.24,318,270.13v-18s-7.64-10.24-26.21-6.48v24.5c0,10.93-4.37,11.48-12,11.48s-33.87-4.37-37.15-31.14,19.12-45.88,44.25-41S314.71,218.79,314.71,218.79Z"/><path class="cls-2" d="M435.43,236.27c-1-32.34-12.2-48.71-49.16-49.21-32.74-.44-55.73,19.74-53,58s24.58,56.85,55.71,54.08S436.59,273.7,435.43,236.27Zm-50.57,39.88c-23.8.54-25.91-26.77-24.81-40.42s12-26.23,24.81-25.68c25.35,1.09,25.44,27.86,25.44,33.06S408.66,275.59,384.86,276.15Z"/><path class="cls-2" d="M337.1,170.72s0-17.48,6.56-22.4,16.16-16.38,41.51-16.38c21.85,0,39.33,4.91,48.07,26.22v12.56A56.61,56.61,0,0,0,384.86,150C352.94,152.15,337.1,170.72,337.1,170.72Z"/><path class="cls-2" d="M401.85,323.1s.36,28.32-10.1,36.42S366,386.41,325.18,386.93c-35.22.45-63.5-7.16-78-41.5l-.27-20.35s27,36.86,78.42,32.65S401.85,323.1,401.85,323.1Z"/><circle class="cls-2" cx="173.23" cy="164.16" r="15.29"/></g></svg>