<?xml version="1.0" encoding="utf-8"?>
<!-- Generator: Adobe Illustrator 19.0.0, SVG Export Plug-In . SVG Version: 6.00 Build 0)  -->
<svg version="1.1" xmlns="http://www.w3.org/2000/svg" xmlns:xlink="http://www.w3.org/1999/xlink" x="0px" y="0px"
	 viewBox="-223 25 512 512" style="enable-background:new -223 25 512 512;" xml:space="preserve">
<style type="text/css">
	.st0{fill:#F90000;}
	.st1{fill:#FFFFFF;}
</style>
<g id="Layer_2_1_">
	<path class="st0" d="M229.7,521.4h-393.4c-26.5,0-48-21.5-48-48V80c0-26.5,21.5-48,48-48h393.4c26.5,0,48,21.5,48,48v393.4
		C277.7,499.9,256.2,521.4,229.7,521.4z"/>
</g>
<g id="Layer_3_1_">
	<path class="st1" d="M-27.1,118.6l-49.6,232.1c0,0,29.1,0,80.3,0s73.5-38.2,48.9-79C28,231-27.1,118.6-27.1,118.6z"/>
	<path class="st1" d="M106.2,296.1L155.9,64c0,0-29.1,0-80.3,0S2,102.2,26.6,143C51.2,183.7,106.2,296.1,106.2,296.1z"/>
	<g>
		<path class="st1" d="M-61,416.3l-10.7,46.6c-0.7,3-1.1,6.4-1.1,9.8c0.2,8.2,5.9,13.2,15.9,13.2c11.8,0,20-6.6,23.9-22.8l10.7-46.6
			h16.8l-10.7,46.4c-5.7,23.9-19.1,34.6-42.8,34.6c-18.2,0-30.5-7.7-30.5-24.6c0-3.4,0.7-7.3,1.4-10.9l10.5-45.5H-61V416.3z"/>
		<path class="st1" d="M14.1,417.6c6.4-1.1,14.6-1.8,23.2-1.8c10,0,17.3,1.4,23.2,4.8c5.7,2.7,9.3,7.5,9.3,13.7
			c0,10-9.6,16.8-20,19.3v0.5c9.1,2.3,15.5,8.4,15.5,17.5c0,8.4-5.5,14.8-12.5,18.7c-8,4.8-19.6,6.6-34.1,6.6
			c-9.8,0-17.7-0.5-22.3-1.1L14.1,417.6z M14.8,485.4c2.7,0.2,5.7,0.5,8.9,0.5c12.5,0,23.9-4.1,23.9-14.8c0-8.4-8.6-11.8-18.9-11.8
			h-8L14.8,485.4z M23.4,449h7.7c12.5,0,21.6-4.8,21.6-13c0-6.6-6.1-9.3-15.5-9.3c-3.9,0-7.3,0.2-8.9,0.7L23.4,449z"/>
		<path class="st1" d="M99,473.4l-13.2,22.8H68l48.5-79.9h20.9l12.3,79.9h-17.5l-2.7-22.8H99z M128.3,462.9l-2.7-19.8
			c-0.5-4.3-0.9-10.5-1.4-15.2h-0.5c-2.5,4.8-5.2,10.5-8,15.2L104,462.9H128.3z"/>
	</g>
</g>
</svg>
