<?xml version="1.0" encoding="utf-8"?>
<!-- Generator: Adobe Illustrator 19.0.0, SVG Export Plug-In . SVG Version: 6.00 Build 0)  -->
<svg version="1.1" id="Layer_1" xmlns="http://www.w3.org/2000/svg" xmlns:xlink="http://www.w3.org/1999/xlink" x="0px" y="0px"
	 viewBox="-393 195.5 171.5 171.5" style="enable-background:new -393 195.5 171.5 171.5;" xml:space="preserve">
<style type="text/css">
	.st0{fill:#0F440F;}
	.st1{fill:#F9EC23;}
</style>
<path id="XMLID_1_" class="st0" d="M-373.1,196.7h131.7c11.2,0,20.2,8.9,20.2,19.9v131.2c0,11-9.1,19.9-20.2,19.9h-131.7
	c-11.2,0-20.2-8.9-20.2-19.9V216.7C-393.3,205.6-384.3,196.7-373.1,196.7z"/>
<g id="Layer_2">
</g>
<path id="XMLID_9_" class="st1" d="M-283.4,237.1c-9.9,0-41.1,0-41.1,0l-4.1,20.3h-17.3l-3.2,15.1h17.5l-1.1,5.2h-17.1l-3.2,15.1
	h17.3l-7.1,34.6h18.4l6.9-34.4c39.4,2.6,53-8.4,55.8-29.6C-259.6,244.6-273.5,237.1-283.4,237.1z M-280.2,265
	c-1.1,6.5-4.5,14.5-34.2,12.5l0.9-4.8l2.8-15.1l0.9-5.2c0,0,12.5,0,21,0C-280.2,252.2-279.5,260-280.2,265z"/>
</svg>
