<?xml version="1.0" encoding="utf-8"?>
<!-- Generator: Adobe Illustrator 19.0.0, SVG Export Plug-In . SVG Version: 6.00 Build 0)  -->
<svg version="1.1" id="Layer_2_1_" xmlns="http://www.w3.org/2000/svg" xmlns:xlink="http://www.w3.org/1999/xlink" x="0px" y="0px"
	 viewBox="-223 25 512 512" style="enable-background:new -223 25 512 512;" xml:space="preserve">
<style type="text/css">
	.st0{fill:#1B9BE2;}
	.st1{fill:#FFFFFF;}
</style>
<g>
	<path id="XMLID_1_" class="st0" d="M281,143.5V171h-496v-27.5c0-12.3,10.7-21.5,23-21.5h451.4C271.8,122,281,131.2,281,143.5z"/>
	<path class="st0" d="M-215,226v192.9c0,12.3,10.7,23.1,23,23.1h451.4c12.3,0,21.5-10.8,21.5-23.1V226H-215z"/>
	<path class="st1" d="M-44,357.7h-114c-3.9,0-7-3.1-7-7v-55c0-3.9,3.1-7,7-7h114c3.9,0,7,3.1,7,7v55C-37,354.6-40.1,357.7-44,357.7z
		"/>
	<g>
		<path class="st1" d="M169.2,273.2c-8.7,0-16.8,2.2-23.9,6.1c-7.1-3.9-15.3-6.1-23.9-6.1c-27.6,0-50,22.4-50,50
			c0,27.6,22.4,50,50,50c8.7,0,16.8-2.2,23.9-6.1c7.1,3.9,15.3,6.1,23.9,6.1c27.6,0,50-22.4,50-50
			C219.2,295.7,196.8,273.2,169.2,273.2z M131.6,356.2c-3.2,1-6.7,1.6-10.3,1.6c-19,0-34.5-15.5-34.5-34.5c0-19,15.5-34.5,34.5-34.5
			c3.6,0,7,0.6,10.3,1.6c5.2,1.6,9.8,4.4,13.7,8.1c6.5,6.3,10.6,15.1,10.6,24.8c0,9.7-4.1,18.5-10.6,24.8
			C141.4,351.7,136.8,354.6,131.6,356.2z M169.2,357.7c-3.6,0-7-0.6-10.3-1.6c7.7-8.8,12.4-20.3,12.4-32.9
			c0-12.6-4.7-24.1-12.4-32.9c3.2-1,6.7-1.6,10.3-1.6c19,0,34.5,15.5,34.5,34.5C203.7,342.3,188.2,357.7,169.2,357.7z"/>
	</g>
	<rect x="-215" y="171" class="st1" width="496" height="55"/>
</g>
</svg>
