<svg xmlns="http://www.w3.org/2000/svg" viewBox="0 0 512 512"><defs><style>.cls-1{fill:#e60000;}.cls-2{fill:#fff;}</style></defs><title>mobile payments</title><g id="Layer_2" data-name="Layer 2"><rect class="cls-1" x="4" y="10.5" width="504" height="493.2" rx="61.05"/><path class="cls-2" d="M320.34,219.6C354.81,203.52,377,176.71,377,176.71l-86.55-43.66s-26.05,51.32-55.92,67.41c0,0-17.62-7.66-26-23l-10.73,7.66V96.28H306.55v35.24l15.32,6.13V99.35c0-13.79-13-23.75-24.51-23.75H214.64c-20.68,0-32.17,14.56-32.17,30.64v91.92S171.74,217.31,135,218.84c0,0,30.63,6.89,46.72,9.19v91.15c0,23,19.91,25.28,29.87,25.28h91.92c13,0,20.68-17.62,20.68-26V229.56l-16.09,5.36v49.79H199.32V229.56S285.87,235.69,320.34,219.6Zm-39.83,85H294.3v13.78H280.51Zm-40.6-4.6h25.28v23H239.91Zm-25.27,4.6h12.25v13.78H214.64Z"/><path class="cls-2" d="M113.39,420.91l-8.85-27.63h6.85L114.75,405c.94,3.28,1.8,6.44,2.46,9.88h.12c.7-3.32,1.56-6.6,2.5-9.76l3.53-11.8H130l-9.31,27.63Z"/><path class="cls-2" d="M150.83,410.66c0,7.34-5.21,10.7-10.58,10.7-5.86,0-10.37-3.85-10.37-10.33s4.26-10.62,10.7-10.62C146.73,400.41,150.83,404.63,150.83,410.66Zm-14.52.2c0,3.45,1.44,6,4.1,6,2.42,0,4-2.42,4-6,0-3-1.15-6-4-6C137.42,404.84,136.31,407.91,136.31,410.86Z"/><path class="cls-2" d="M174.24,391.8v23.12c0,2.26.08,4.64.16,6h-5.53l-.29-3h-.08a7,7,0,0,1-6.28,3.4c-4.75,0-8.56-4.06-8.56-10.29,0-6.77,4.18-10.66,9-10.66,2.46,0,4.39.86,5.29,2.25H168V391.8ZM168,409.35a10.38,10.38,0,0,0-.09-1.11,3.74,3.74,0,0,0-3.65-3.07c-2.82,0-4.3,2.54-4.3,5.69,0,3.41,1.68,5.54,4.26,5.54a3.65,3.65,0,0,0,3.61-3A5.47,5.47,0,0,0,168,412Z"/><path class="cls-2" d="M190.64,420.91l-.37-2h-.12a7.24,7.24,0,0,1-5.74,2.46,6.15,6.15,0,0,1-6.48-6.15c0-5.21,4.67-7.71,11.77-7.67v-.28c0-1.07-.58-2.59-3.65-2.59a11.29,11.29,0,0,0-5.54,1.52l-1.15-4a16.56,16.56,0,0,1,7.79-1.76c6.69,0,8.82,3.93,8.82,8.65v7a30.42,30.42,0,0,0,.29,4.88Zm-.74-9.47c-3.28,0-5.82.74-5.82,3.15a2.24,2.24,0,0,0,2.46,2.38,3.4,3.4,0,0,0,3.24-2.29,4.62,4.62,0,0,0,.12-1.07Z"/><path class="cls-2" d="M200.89,407.58c0-2.62-.08-4.87-.17-6.72h5.42l.28,2.79h.08a7.72,7.72,0,0,1,6.69-3.24c4.39,0,8.32,3.81,8.32,10.21,0,7.3-4.63,10.74-9.1,10.74a6.21,6.21,0,0,1-5.21-2.3h-.08v10h-6.23Zm6.23,4.72a6.36,6.36,0,0,0,.12,1.31,3.78,3.78,0,0,0,3.65,2.95c2.71,0,4.31-2.25,4.31-5.65,0-3.2-1.44-5.62-4.23-5.62a3.91,3.91,0,0,0-3.73,3.16,4.82,4.82,0,0,0-.12,1.1Z"/><path class="cls-2" d="M225.41,391.8h6.23v11.44h.08a7.54,7.54,0,0,1,2.46-2.05,7,7,0,0,1,3.24-.78c4,0,7,2.75,7,8.77v11.73H238.2v-11c0-2.62-.9-4.43-3.24-4.43a3.32,3.32,0,0,0-3.12,2.18,4,4,0,0,0-.2,1.39v11.89h-6.23Z"/><path class="cls-2" d="M269.23,410.66c0,7.34-5.2,10.7-10.57,10.7-5.87,0-10.38-3.85-10.38-10.33s4.27-10.62,10.7-10.62C265.13,400.41,269.23,404.63,269.23,410.66Zm-14.51.2c0,3.45,1.44,6,4.1,6,2.42,0,4-2.42,4-6,0-3-1.15-6-4-6C255.83,404.84,254.72,407.91,254.72,410.86Z"/><path class="cls-2" d="M273.09,407.26c0-2.51-.08-4.64-.17-6.4h5.42l.28,2.75h.13a7.34,7.34,0,0,1,6.19-3.2c4.1,0,7.17,2.71,7.17,8.61v11.89h-6.23V409.8c0-2.59-.9-4.35-3.16-4.35a3.32,3.32,0,0,0-3.15,2.34,4.15,4.15,0,0,0-.25,1.56v11.56h-6.23Z"/><path class="cls-2" d="M301.91,412.87c.21,2.59,2.75,3.82,5.66,3.82a17.72,17.72,0,0,0,5.53-.82l.82,4.22a19.77,19.77,0,0,1-7.25,1.23c-6.81,0-10.7-3.94-10.7-10.21,0-5.08,3.15-10.7,10.12-10.7,6.48,0,8.94,5,8.94,10a15.11,15.11,0,0,1-.2,2.46Zm7.34-4.26c0-1.52-.66-4.06-3.53-4.06-2.62,0-3.69,2.38-3.85,4.06Z"/><path class="cls-2" d="M347.54,420.13a17.84,17.84,0,0,1-7.09,1.19c-9.55,0-14.47-5.95-14.47-13.82,0-9.43,6.72-14.68,15.09-14.68a16.33,16.33,0,0,1,6.8,1.23l-1.27,5a13.54,13.54,0,0,0-5.25-1c-5,0-8.81,3-8.81,9.14,0,5.54,3.28,9,8.85,9a15.67,15.67,0,0,0,5.21-.9Z"/><path class="cls-2" d="M362.43,420.91l-.37-2h-.13a7.21,7.21,0,0,1-5.74,2.46,6.14,6.14,0,0,1-6.47-6.15c0-5.21,4.67-7.71,11.76-7.67v-.28c0-1.07-.57-2.59-3.65-2.59a11.25,11.25,0,0,0-5.53,1.52l-1.15-4a16.53,16.53,0,0,1,7.79-1.76c6.68,0,8.82,3.93,8.82,8.65v7a31.84,31.84,0,0,0,.28,4.88Zm-.74-9.47c-3.28,0-5.82.74-5.82,3.15a2.24,2.24,0,0,0,2.46,2.38,3.41,3.41,0,0,0,3.24-2.29,4.62,4.62,0,0,0,.12-1.07Z"/><path class="cls-2" d="M372.64,415.46A12.22,12.22,0,0,0,378,417c1.88,0,2.66-.65,2.66-1.68s-.61-1.51-2.95-2.29c-4.14-1.4-5.74-3.65-5.7-6,0-3.73,3.2-6.56,8.16-6.56a13.37,13.37,0,0,1,5.66,1.15l-1.11,4.3a9.85,9.85,0,0,0-4.35-1.15c-1.51,0-2.37.62-2.37,1.64s.78,1.44,3.24,2.3c3.81,1.31,5.41,3.24,5.45,6.19,0,3.73-2.95,6.48-8.69,6.48a14.06,14.06,0,0,1-6.48-1.4Z"/><path class="cls-2" d="M390.47,391.8h6.23v11.44h.09a7.34,7.34,0,0,1,2.46-2.05,7,7,0,0,1,3.23-.78c4,0,7,2.75,7,8.77v11.73h-6.24v-11c0-2.62-.9-4.43-3.24-4.43a3.31,3.31,0,0,0-3.11,2.18,3.82,3.82,0,0,0-.21,1.39v11.89h-6.23Z"/></g></svg>