<?xml version="1.0" encoding="utf-8"?>
<!-- Generator: Adobe Illustrator 23.0.0, SVG Export Plug-In . SVG Version: 6.00 Build 0)  -->
<svg version="1.1" xmlns="http://www.w3.org/2000/svg" xmlns:xlink="http://www.w3.org/1999/xlink" x="0px" y="0px"
	 viewBox="0 0 511.92 511.92" style="enable-background:new 0 0 511.92 511.92;" xml:space="preserve">
<style type="text/css">
	.st0{fill:#0C8C15;}
	.st1{fill:#FFFFFF;}
</style>
<g id="Layer_1">
	<path class="st0" d="M512,60.8v393.5c0,31.8-25.9,57.7-57.7,57.7H57.8C25.9,512,0,486.1,0,454.2V60.8C0,28.9,25.9,3,57.8,3h396.5
		C486.2,3,512,28.9,512,60.8z"/>
	<g>
		<path class="st1" d="M474.59,333.31v-101.7H372.9l0.03,0.03H203.36l0.03-0.03h-101.7v0.03h-0.02V452h372.9v-0.03h0.02v-101.7
			l-0.02,0.01V333.3L474.59,333.31z M447.46,377.41l-11.03,11.03c-1.41-0.29-2.72-0.85-4.21-0.85c-12.16,0-21.99,9.84-21.99,22
			c0,1.49,0.57,2.78,0.86,4.18l-11.11,11.11H176.31l-11.09-11.09c0.29-1.41,0.85-2.73,0.85-4.21c0-12.16-9.84-21.99-22-21.99
			c-1.5,0-2.78,0.57-4.19,0.83l-11.07-11.09v-71.14l11.06-11.07c1.4,0.29,2.71,0.85,4.21,0.85c12.16,0,21.98-9.84,21.98-22
			c0-1.49-0.56-2.78-0.85-4.18l11.03-11.03h223.81l11.02,11.01c-0.29,1.41-0.85,2.72-0.85,4.21c0,12.16,9.84,21.99,22,21.99
			c1.49,0,2.78-0.56,4.18-0.83l11.05,11.05V377.41z"/>
		<circle class="st1" cx="398.32" cy="341.79" r="22"/>
		<circle class="st1" cx="177.97" cy="341.79" r="21.98"/>
		
			<ellipse transform="matrix(0.3827 -0.9239 0.9239 0.3827 59.3635 429.2518)" class="st1" cx="350.89" cy="170.2" rx="21.98" ry="21.98"/>
		<path class="st1" d="M115.59,206.19l0.63-2.17L312.45,96.56l15,4.37c0.42,1.36,0.58,2.78,1.31,4.09
			c5.83,10.68,19.19,14.56,29.87,8.73c1.29-0.71,2.17-1.81,3.24-2.75l15.03,4.41l34.19,62.41l-4.39,15.02
			c-1.34,0.41-2.76,0.56-4.07,1.27c-4.97,2.71-8.27,7.15-10.02,12.09h64.94l-43.83-80.06h0.02l-48.87-89.19l-89.23,48.85h0.02
			L126.98,167.2l-89.21,48.85l38.49,70.29v-54.73c0-14.03,11.39-25.43,25.43-25.43H115.59z"/>
		<path class="st1" d="M226.44,172.39c-14.76,8.07-25.39,20.31-31.36,33.8h122.6c-0.98-5.17-2.46-10.24-5.07-15
			C297.24,163.15,258.68,154.75,226.44,172.39z"/>
		<path class="st1" d="M296.09,329.68c-0.36-1.19-0.61-2.12-0.76-2.81c-0.63,2.45-2.44,8.51-5.43,18.16h10.93
			C298.03,335.99,296.44,330.87,296.09,329.68z M296.09,329.68c-0.36-1.19-0.61-2.12-0.76-2.81c-0.63,2.45-2.44,8.51-5.43,18.16
			h10.93C298.03,335.99,296.44,330.87,296.09,329.68z M288.41,276.69c-37.83,0-68.48,29.22-68.48,65.27s30.66,65.27,68.48,65.27
			s68.48-29.22,68.48-65.27S326.23,276.69,288.41,276.69z M339.01,327.82h-15.29v10.81h14.23v7.25h-14.23v16.58h-8.14l-0.6-1.7v1.7
			H306l-3.05-9.97h-15.28l-3.04,9.97h-13.86l-9.75-15.86l-9.76,15.86h-9.51l13.91-21.61l-13.02-20.31h9.8l9.04,15.09l8.86-15.09
			h9.58l-13.16,20.79l10.32,15.39l12.78-36.35h10.86l14.26,40.39v-40.22h24.03V327.82z M295.33,326.87
			c-0.63,2.45-2.44,8.51-5.43,18.16h10.93c-2.8-9.04-4.39-14.16-4.74-15.34C295.73,328.5,295.48,327.56,295.33,326.87z
			 M296.09,329.68c-0.36-1.19-0.61-2.12-0.76-2.81c-0.63,2.45-2.44,8.51-5.43,18.16h10.93
			C298.03,335.99,296.44,330.87,296.09,329.68z M296.09,329.68c-0.36-1.19-0.61-2.12-0.76-2.81c-0.63,2.45-2.44,8.51-5.43,18.16
			h10.93C298.03,335.99,296.44,330.87,296.09,329.68z"/>
	</g>
</g>
<g id="Layer_2">
</g>
</svg>
