<?xml version="1.0" encoding="utf-8"?>
<!-- Generator: Adobe Illustrator 19.0.0, SVG Export Plug-In . SVG Version: 6.00 Build 0)  -->
<svg version="1.1" xmlns="http://www.w3.org/2000/svg" xmlns:xlink="http://www.w3.org/1999/xlink" x="0px" y="0px"
	 viewBox="-223 25 512 512" style="enable-background:new -223 25 512 512;" xml:space="preserve">
<style type="text/css">
	.st0{fill:#111111;}
	.st1{opacity:0.88;fill:#FF0037;}
	.st2{fill:#DD3E3E;}
	.st3{opacity:0.88;fill:#36A9E1;}
	.st4{fill:#FFFFFF;}
</style>
<g id="Layer_2_1_">
	<path class="st0" d="M229.7,521.4h-393.4c-26.5,0-48-21.5-48-48V80c0-26.5,21.5-48,48-48h393.4c26.5,0,48,21.5,48,48v393.4
		C277.7,499.9,256.2,521.4,229.7,521.4z"/>
</g>
<g id="Layer_3_1_">
	<path class="st1" d="M-100.9,208.8v22.3c0,0-32.8,17.2-32.5,44.5c0.3,27.3,0,73.4,0,73.4s-19.2-12.5-19.2-30.6s0-14.2,0-36.2
		c0-22-13.9-44.8-33.7-51.5v-22c0,0,32.5,9.7,42.6,34.5C-143.7,243.3-125.6,215.5-100.9,208.8z"/>
	<path class="st1" d="M-93.6,240.8c-15.5-1.5-31.7,13.6-31.7,35.9s18.9,33.9,31.7,33.9S-63,295.9-63,274.2S-79.4,242.2-93.6,240.8z
		 M-94.2,297c-10,0-18.1-10-18.1-21.3c0-11.3,8.1-20.7,18.1-21.3c9.7-0.5,17.8,11.3,17.8,21.2C-76.4,285.6-84.2,297-94.2,297z"/>
	<path class="st1" d="M-26.3,240.8c-15.5-1.5-31.7,13.6-31.7,35.9s18.9,33.9,31.7,33.9s30.6-14.7,30.6-36.4S-12.1,242.2-26.3,240.8z
		 M-26.9,297c-10,0-18.1-10-18.1-21.3c0-11.3,8.1-20.7,18.1-21.3c9.7-0.5,17.8,11.3,17.8,21.2C-9.1,285.6-16.8,297-26.9,297z"/>
	<path class="st1" d="M7.9,223.8v76.2c0,0,7.2,9.2,8.3,10.6s3.6-1.1,5.8-8.9s13.6-34.2,17.8-38.1c4.2-3.9,7-5,7.8,1.4
		c0.8,6.4-0.6,19.5,1.4,29.8c1.9,10.3,9.2,8.9,13.4,2.5s19.8-26.9,24.5-29.9c4.7-3,5.6,0.7,5.6,4.8c0,4.2-0.8,25,0,34.5l23.6-1.4
		c0,0-3.1-11.1-3.3-19.2c-0.3-8.1-0.8-30-1.1-38.1c-0.3-8.1-13.4-7.2-22-0.6c-8.6,6.7-18.6,14.2-18.6,14.2s-1.9-19.2-2.5-25.9
		c-0.6-6.7-13.4-12.8-19.8-2.5c-6.4,10.3-17.5,34.2-19.5,37.3s-4.2-1.9-3.3-8.1s0-23.6-1.4-28.9C23.2,228.3,13.5,224.7,7.9,223.8z"
		/>
	<path class="st1" d="M177.6,282.2c1.6-0.1,5.8-3.6,4.7-8.1c-1.1-4.5-6.1-33.4-30.9-33.4s-33.1,25.9-31.4,39.8
		c2.2,18,13.1,22.5,13.1,22.5l40.6-3.1c0,0,4.2-3.6,1.1-9.2c-3.1-5.6-8.9-1.4-11.4,0.6c-2.5,1.9-10.8,7.8-22,1.7
		c-11.1-6.1-7.8-10.8-7.8-10.8S172.1,282.7,177.6,282.2z M151.2,254.4c11.4,0,17.5,14.5,17.5,14.5h-35.1
		C133.7,268.9,139.8,254.4,151.2,254.4z"/>
	<path class="st1" d="M248.9,274.2c-1.1-4.5-6.1-33.4-30.9-33.4s-33.1,25.9-31.4,39.8c1,7.9,3.6,13.3,6.3,16.7l22.5-1.7
		c-2.3-0.3-4.7-1.1-7.4-2.5c-11.1-6.1-7.8-10.8-7.8-10.8s38.4,0.4,44,0C245.8,282.1,250,278.6,248.9,274.2z M200.2,268.9
		c0,0,6.1-14.5,17.5-14.5c11.4,0,17.5,14.5,17.5,14.5H200.2z M230,291.4c-1.2,0.9-3.6,2.6-6.9,3.6l19.3-1.4c-0.2-0.9-0.5-1.8-1-2.8
		C238.3,285.3,232.5,289.5,230,291.4z"/>
	<path class="st2" d="M215.4,295.6l7.7-0.6C220.9,295.7,218.3,296.1,215.4,295.6z"/>
	<polygon class="st3" points="84.4,311 87.8,353.7 253,338.4 249.7,297.3 	"/>
	<g>
		<path class="st4" d="M135.4,315.1l2.6,27.4l-7.4,0.7l-1.8-18.5l-1.2,18.7l-5.2,0.5l-4.8-17.7l1.7,18l-7.4,0.7l-2.6-27.4l10.9-1
			c0.5,1.6,1,3.5,1.6,5.7l1.9,6.8l0.7-13L135.4,315.1z"/>
		<path class="st4" d="M159.6,328.9c0.3,2.7,0.4,4.7,0.3,5.9c0,1.2-0.4,2.2-1.1,3.3c-0.7,1-1.7,1.9-3.1,2.5c-1.3,0.6-2.9,1-4.7,1.2
			c-1.7,0.2-3.3,0.1-4.7-0.3c-1.4-0.3-2.6-1-3.5-1.8c-0.9-0.9-1.5-1.9-1.8-3c-0.3-1.1-0.5-3.1-0.8-5.9l-0.4-4.7
			c-0.3-2.7-0.4-4.7-0.3-5.9c0-1.2,0.4-2.2,1.1-3.3c0.7-1,1.7-1.9,3.1-2.5c1.3-0.6,2.9-1,4.7-1.2c1.7-0.2,3.3-0.1,4.7,0.3
			c1.4,0.3,2.6,1,3.5,1.8c0.9,0.9,1.5,1.9,1.8,3c0.3,1.1,0.5,3.1,0.8,5.9L159.6,328.9z M150.3,320.8c-0.1-1.3-0.3-2.1-0.5-2.4
			c-0.2-0.3-0.6-0.5-1.1-0.4c-0.4,0-0.8,0.2-1,0.5c-0.2,0.3-0.2,1.2-0.1,2.6l1.2,12.8c0.2,1.6,0.3,2.6,0.5,2.9
			c0.2,0.4,0.6,0.5,1.1,0.5c0.6-0.1,0.9-0.3,1-0.7c0.1-0.4,0.1-1.5-0.1-3.1L150.3,320.8z"/>
		<path class="st4" d="M161.2,312.6l8.4-0.8c2.7-0.3,4.7-0.3,6.1-0.1c1.4,0.2,2.6,0.8,3.5,1.8c0.9,1,1.5,2.7,1.8,5
			c0.2,1.6,0,2.7-0.6,3.4c-0.5,0.7-1.7,1.3-3.4,1.8c2,0.2,3.4,0.7,4.1,1.5c0.8,0.8,1.2,2.1,1.4,3.9l0.2,2.5c0.2,1.8,0.1,3.2-0.4,4.2
			c-0.4,0.9-1.2,1.6-2.2,2.1c-1.1,0.4-3.3,0.8-6.7,1.1l-9.7,0.9L161.2,312.6z M170,316.5l0.6,6.1c0.4,0,0.6-0.1,0.8-0.1
			c0.8-0.1,1.3-0.3,1.5-0.7c0.2-0.4,0.2-1.4,0.1-3c-0.1-0.9-0.2-1.4-0.5-1.8c-0.2-0.3-0.5-0.5-0.8-0.6
			C171.5,316.4,170.9,316.4,170,316.5z M171,326.8l0.7,7.7c1.2-0.1,1.9-0.4,2.2-0.7c0.3-0.3,0.4-1,0.3-2.1l-0.2-2.6
			c-0.1-1.2-0.3-1.9-0.6-2.1C173.1,326.8,172.3,326.8,171,326.8z"/>
		<path class="st4" d="M192.2,309.7l2.6,27.4l-8.4,0.8l-2.6-27.4L192.2,309.7z"/>
		<path class="st4" d="M204,308.5l2.1,21.9l5.1-0.5l0.5,5.5l-13.5,1.3l-2.6-27.4L204,308.5z"/>
		<path class="st4" d="M211.1,307.8l14-1.3l0.5,5.5l-5.6,0.5l0.5,5.2l5.3-0.5l0.5,5.2l-5.3,0.5l0.6,6l6.2-0.6l0.5,5.5l-14.6,1.4
			L211.1,307.8z"/>
	</g>
</g>
</svg>
