<?xml version="1.0" encoding="utf-8"?>
<!-- Generator: Adobe Illustrator 19.0.0, SVG Export Plug-In . SVG Version: 6.00 Build 0)  -->
<svg version="1.1" xmlns="http://www.w3.org/2000/svg" xmlns:xlink="http://www.w3.org/1999/xlink" x="0px" y="0px"
	 viewBox="-223 25 512 512" style="enable-background:new -223 25 512 512;" xml:space="preserve">
<style type="text/css">
	.st0{fill:#FF0000;}
	.st1{fill:#FFFFFF;}
</style>
<g id="Layer_2_1_">
	<path class="st0" d="M229.7,521.4h-393.4c-26.5,0-48-21.5-48-48V80c0-26.5,21.5-48,48-48h393.4c26.5,0,48,21.5,48,48v393.4
		C277.7,499.9,256.2,521.4,229.7,521.4z"/>
</g>
<g id="Layer_3_1_">
	<g>
		<polygon class="st1" points="-189.6,210 -126,210 -119.6,228.8 -113.6,210 -50,210 -87.5,302 -87.5,351 -153,351 -152.1,300.2 		
			"/>
		<path class="st1" d="M-39.9,210c0,0,0,54.9,0,83.3S-15.6,351,26.9,351s73.2-31.6,73.2-57.2s0-83.8,0-83.8H-39.9z"/>
		<path class="st1" d="M115.7,210v141h65v-19.2c0,0,75.1-1.4,75.1-60.9S196.3,210,175.3,210S115.7,210,115.7,210z"/>
	</g>
</g>
</svg>
