<?xml version="1.0" encoding="utf-8"?>
<!-- Generator: Adobe Illustrator 19.0.0, SVG Export Plug-In . SVG Version: 6.00 Build 0)  -->
<svg version="1.1" id="Layer_1" xmlns="http://www.w3.org/2000/svg" xmlns:xlink="http://www.w3.org/1999/xlink" x="0px" y="0px"
	 viewBox="476 -476 1080 1080" style="enable-background:new 476 -476 1080 1080;" xml:space="preserve">
<style type="text/css">
	.st0{fill:#FFB41D;}
	.st1{fill:#FFFFFF;}
</style>
<g id="Layer_2_1_">
	<circle class="st0" cx="1031.9" cy="64" r="505.8"/>
</g>
<g id="Layer_1_2_">
	<g id="Layer_1_1_">
	</g>
	<g id="Layer_2">
		<path id="XMLID_20_" class="st1" d="M1165.3-130.9c-38.3-106.3-191.2-50.5-191.2-50.5l-37.2-94.2l-54.1,24.5l35.8,89.4l-45.8,20.9
			l-35.8-89.4l-55.9,22.1l37.7,94.6L709.8-66.4l23.4,58.6c52.7-23.4,75.8-32.1,84.4-11.2c8.6,20.9,98.5,230.2,107.6,253.7
			c9.1,23.5,2.3,31-11.1,36c-13.3,4.9-44.9,18-44.9,18l20.9,70.9l118.2-50.3l37.4,96.3l53.3-24.5l-38.4-91.8l46.8-20.3l38.7,93.1
			l57.6-24.9l-41.5-93.6c3.3-1.3,14.4-6.8,47.5-25.6c59.6-33.9,96.5-86.6,65.3-179.5c-29.1-87.1-128.7-67.9-128.7-67.9
			S1189-65,1165.3-130.9z M1164.3,81.2c22,44.1-4.1,82.8-41,100.7c-40.9,19.8-92.2,38.8-92.2,38.8L979.3,93
			C1090.9,43.7,1145.9,44.1,1164.3,81.2z M1064.1-74.8c12.9,29.5-11.1,68-43.8,83.5C987.5,24.2,952.7,39,952.7,39L903.3-74.8
			c0,0,5.6-4.3,54.6-24.8C1006.9-120.2,1051.1-104.3,1064.1-74.8z"/>
	</g>
</g>
</svg>
