<?xml version="1.0" encoding="utf-8"?>
<!-- Generator: Adobe Illustrator 19.0.0, SVG Export Plug-In . SVG Version: 6.00 Build 0)  -->
<svg version="1.1" id="Layer_1" xmlns="http://www.w3.org/2000/svg" xmlns:xlink="http://www.w3.org/1999/xlink" x="0px" y="0px"
	 viewBox="476 -476 1080 1080" style="enable-background:new 476 -476 1080 1080;" xml:space="preserve">
<style type="text/css">
	.st0{fill:#FFB41D;}
	.st1{fill:#FFFFFF;}
</style>
<g id="Layer_2_1_">
	<circle class="st0" cx="1031.9" cy="64" r="505.8"/>
</g>
<g id="Layer_1_2_">
	<g id="Layer_1_1_">
	</g>
	<g id="Layer_2">
		<path id="XMLID_20_" class="st1" d="M1256.4-9.4c34.3-107.6-121-156.4-121-156.4l27.8-97.4l-57.8-13.5l-26,92.7l-49-11.3l26-92.7
			l-57.8-16.5l-27.7,98l-115.2-29l-17.1,60.8c56.1,13.5,79.7,20.7,73.8,42.5s-62,242.6-69,266.8c-7.1,24.2-17.1,26-30.7,21.8
			c-13.6-4.2-46.6-13-46.6-13l-26.6,69l124.4,32L835,343.6l57.2,13l25.4-96.2l49.5,12.4l-26,97.4l60.8,15.3l24-99.5
			c3.4,1,15.6,3.4,53.3,8.6c67.9,9.4,129.3-10,161.1-102.7c29.9-86.8-60.8-132.2-60.8-132.2S1235.1,57.3,1256.4-9.4z M1126.5,158.2
			c-9.4,48.4-53.7,63.2-93.8,54.9c-44.5-9.2-96.8-25.3-96.8-25.3L972.5,55C1091.1,83.8,1134.5,117.6,1126.5,158.2z M1141.9-26.5
			c-7.7,31.3-50.2,47.2-85.6,39.6c-35.4-7.7-72-17.1-72-17.1l30.1-120.4c0,0,7.1,0,58.4,13.5C1124.2-97.4,1149.6-57.8,1141.9-26.5z"
			/>
	</g>
</g>
</svg>
