<?xml version="1.0" encoding="utf-8"?>
<!-- Generator: Adobe Illustrator 23.0.0, SVG Export Plug-In . SVG Version: 6.00 Build 0)  -->
<svg version="1.1" xmlns="http://www.w3.org/2000/svg" xmlns:xlink="http://www.w3.org/1999/xlink" x="0px" y="0px"
	 viewBox="0 0 512 512" style="enable-background:new 0 0 512 512;" xml:space="preserve">
<style type="text/css">
	.st0{fill:#FFFFFF;}
	.st1{fill:#FFCE00;}
	.st2{fill:#1E377C;}
	.st3{fill:none;}
</style>
<g id="Layer_1">
</g>
<g id="Layer_2">
	<rect y="89.3" class="st0" width="512" height="335.2"/>
	<g>
		<path id="XMLID_16_" class="st1" d="M99.4,228.3c-3.8-3.4-79.9-38.9-86.9-42.2l-0.3-0.1c0,0-0.1,0-0.1-0.1l-0.1-0.1
			c76.5-4.8,77.1-0.6,80.7,12.6C94,203,96.6,214.9,99.4,228.3z"/>
		<path id="XMLID_7_" class="st2" d="M191.3,185.5l-64.6,146H85.5L48.8,203l-36.2-17c7,3.3,83.1,38.8,86.9,42.2
			c5.2,24.4,11.2,53.7,11.2,53.7l36.5-96.4L191.3,185.5L191.3,185.5z"/>
		<polygon id="XMLID_12_" class="st2" points="249.3,183.5 222.4,331.5 181.8,331.5 207.5,183.5 		"/>
		<path id="XMLID_15_" class="st2" d="M326.4,243.2c20.3,9,40.7,27.5,31.7,50.8s-31.7,41.2-65.8,37.7s-46.6-9-46.6-9l9.6-32.9
			c0,0,19.7,16.1,47.2,9c27.5-7.2,12-23.9,3-26.9s-47.8-17.9-43-49c4.8-31.1,44.2-50.2,102.8-35.3l-4.2,31.7c0,0-35.3-10.8-49.6-4.2
			C297.2,221.7,306.1,234.2,326.4,243.2z"/>
		<path id="XMLID_24_" class="st2" d="M467.5,183.8c0,0-41.9-5.3-45.7,3.1c-0.9,2-64.9,144.6-64.9,144.6H397l10.2-24H458l4.2,24H501
			L467.5,183.8z M419.1,280.5l20-52l14,52H419.1z"/>
		<polygon id="XMLID_14_" class="st3" points="453.2,280.5 419.1,280.5 439.1,228.5 		"/>
		<polygon id="XMLID_13_" class="st3" points="453.2,280.5 419.1,280.5 439.1,228.5 		"/>
	</g>
	<path class="st2" d="M512,60.1v29.3H0V60.1C0,28.2,25.9,2.3,57.8,2.3h396.5C486.1,2.3,512,28.2,512,60.1z"/>
	<path class="st1" d="M512,424.5v29.1c0,31.9-25.9,57.8-57.8,57.8H57.8C25.9,511.3,0,485.5,0,453.6v-29.1H512z"/>
</g>
<g id="Layer_3">
</g>
</svg>
