<?xml version="1.0" encoding="utf-8"?>
<!-- Generator: Adobe Illustrator 19.0.0, SVG Export Plug-In . SVG Version: 6.00 Build 0)  -->
<svg version="1.1" id="Layer_1" xmlns="http://www.w3.org/2000/svg" xmlns:xlink="http://www.w3.org/1999/xlink" x="0px" y="0px"
	 viewBox="476 -476 1080 1080" style="enable-background:new 476 -476 1080 1080;" xml:space="preserve">
<style type="text/css">
	.st0{fill:#458C07;}
	.st1{fill:#FFFFFF;}
</style>
<circle class="st0" cx="1028" cy="54" r="486"/>
<g>
	<path class="st1" d="M718.4,138.9c-21.2-11.3-37.8-26.9-49.9-47c-12.1-20.1-18.2-42.8-18.2-68.3c0-25.4,6-48.2,18.2-68.3
		c12.1-20.1,28.7-35.8,49.9-47c21.2-11.3,45.1-16.9,71.7-16.9c23.2,0,44.2,4.1,62.8,12.3c18.6,8.2,34.1,20.1,46.5,35.6l-45.8,41.4
		C837.2-39.1,817.2-49,793.8-49c-13.8,0-26.1,3-36.9,9.1c-10.8,6.1-19.1,14.6-25.1,25.6c-5.9,11-8.9,23.7-8.9,37.9
		c0,14.3,3,26.9,8.9,37.9c5.9,11,14.3,19.6,25.1,25.6c10.8,6.1,23.1,9.1,36.9,9.1c23.5,0,43.4-9.9,59.9-29.8l45.8,41.4
		c-12.3,15.5-27.8,27.4-46.5,35.6c-18.6,8.2-39.6,12.3-62.8,12.3C763.5,155.7,739.6,150.1,718.4,138.9z"/>
	<path class="st1" d="M1003.3-48V8h112.2v55.6h-112.2v87.1h-71.9v-254.2h199.3V-48H1003.3z"/>
	<path class="st1" d="M1325,101.3h-107.5l-20,49.4h-73.3l112.2-254.2h70.8l112.6,254.2h-74.8L1325,101.3z M1303.9,48.3l-32.7-81.3
		l-32.7,81.3H1303.9z"/>
</g>
</svg>
